%TF.GenerationSoftware,KiCad,Pcbnew,5.1.9*%
%TF.CreationDate,2021-04-12T10:05:19-03:00*%
%TF.ProjectId,Autito Microcontroladores,41757469-746f-4204-9d69-63726f636f6e,rev?*%
%TF.SameCoordinates,Original*%
%TF.FileFunction,Paste,Top*%
%TF.FilePolarity,Positive*%
%FSLAX46Y46*%
G04 Gerber Fmt 4.6, Leading zero omitted, Abs format (unit mm)*
G04 Created by KiCad (PCBNEW 5.1.9) date 2021-04-12 10:05:19*
%MOMM*%
%LPD*%
G01*
G04 APERTURE LIST*
%ADD10R,0.600000X0.450000*%
%ADD11R,1.380000X0.450000*%
%ADD12R,1.550000X1.425000*%
%ADD13R,1.300000X1.650000*%
%ADD14R,1.900000X1.800000*%
%ADD15R,1.900000X1.000000*%
%ADD16R,1.500000X1.500000*%
%ADD17R,1.000000X2.500000*%
%ADD18R,1.800000X1.000000*%
%ADD19R,1.100000X4.600000*%
%ADD20R,5.250000X4.550000*%
%ADD21R,1.500000X2.000000*%
%ADD22R,3.800000X2.000000*%
%ADD23R,2.000000X4.500000*%
G04 APERTURE END LIST*
%TO.C,C1*%
G36*
G01*
X127276000Y-46798320D02*
X127276000Y-45698320D01*
G75*
G02*
X127526000Y-45448320I250000J0D01*
G01*
X130526000Y-45448320D01*
G75*
G02*
X130776000Y-45698320I0J-250000D01*
G01*
X130776000Y-46798320D01*
G75*
G02*
X130526000Y-47048320I-250000J0D01*
G01*
X127526000Y-47048320D01*
G75*
G02*
X127276000Y-46798320I0J250000D01*
G01*
G37*
G36*
G01*
X132876000Y-46798320D02*
X132876000Y-45698320D01*
G75*
G02*
X133126000Y-45448320I250000J0D01*
G01*
X136126000Y-45448320D01*
G75*
G02*
X136376000Y-45698320I0J-250000D01*
G01*
X136376000Y-46798320D01*
G75*
G02*
X136126000Y-47048320I-250000J0D01*
G01*
X133126000Y-47048320D01*
G75*
G02*
X132876000Y-46798320I0J250000D01*
G01*
G37*
%TD*%
%TO.C,C2*%
G36*
G01*
X169960000Y-46701800D02*
X169960000Y-45601800D01*
G75*
G02*
X170210000Y-45351800I250000J0D01*
G01*
X173210000Y-45351800D01*
G75*
G02*
X173460000Y-45601800I0J-250000D01*
G01*
X173460000Y-46701800D01*
G75*
G02*
X173210000Y-46951800I-250000J0D01*
G01*
X170210000Y-46951800D01*
G75*
G02*
X169960000Y-46701800I0J250000D01*
G01*
G37*
G36*
G01*
X164360000Y-46701800D02*
X164360000Y-45601800D01*
G75*
G02*
X164610000Y-45351800I250000J0D01*
G01*
X167610000Y-45351800D01*
G75*
G02*
X167860000Y-45601800I0J-250000D01*
G01*
X167860000Y-46701800D01*
G75*
G02*
X167610000Y-46951800I-250000J0D01*
G01*
X164610000Y-46951800D01*
G75*
G02*
X164360000Y-46701800I0J250000D01*
G01*
G37*
%TD*%
%TO.C,C3*%
G36*
G01*
X114028200Y-105600800D02*
X114978200Y-105600800D01*
G75*
G02*
X115228200Y-105850800I0J-250000D01*
G01*
X115228200Y-106350800D01*
G75*
G02*
X114978200Y-106600800I-250000J0D01*
G01*
X114028200Y-106600800D01*
G75*
G02*
X113778200Y-106350800I0J250000D01*
G01*
X113778200Y-105850800D01*
G75*
G02*
X114028200Y-105600800I250000J0D01*
G01*
G37*
G36*
G01*
X114028200Y-107500800D02*
X114978200Y-107500800D01*
G75*
G02*
X115228200Y-107750800I0J-250000D01*
G01*
X115228200Y-108250800D01*
G75*
G02*
X114978200Y-108500800I-250000J0D01*
G01*
X114028200Y-108500800D01*
G75*
G02*
X113778200Y-108250800I0J250000D01*
G01*
X113778200Y-107750800D01*
G75*
G02*
X114028200Y-107500800I250000J0D01*
G01*
G37*
%TD*%
%TO.C,C4*%
G36*
G01*
X160103800Y-79832100D02*
X161053800Y-79832100D01*
G75*
G02*
X161303800Y-80082100I0J-250000D01*
G01*
X161303800Y-80582100D01*
G75*
G02*
X161053800Y-80832100I-250000J0D01*
G01*
X160103800Y-80832100D01*
G75*
G02*
X159853800Y-80582100I0J250000D01*
G01*
X159853800Y-80082100D01*
G75*
G02*
X160103800Y-79832100I250000J0D01*
G01*
G37*
G36*
G01*
X160103800Y-77932100D02*
X161053800Y-77932100D01*
G75*
G02*
X161303800Y-78182100I0J-250000D01*
G01*
X161303800Y-78682100D01*
G75*
G02*
X161053800Y-78932100I-250000J0D01*
G01*
X160103800Y-78932100D01*
G75*
G02*
X159853800Y-78682100I0J250000D01*
G01*
X159853800Y-78182100D01*
G75*
G02*
X160103800Y-77932100I250000J0D01*
G01*
G37*
%TD*%
%TO.C,C5*%
G36*
G01*
X152014100Y-81617800D02*
X152014100Y-82567800D01*
G75*
G02*
X151764100Y-82817800I-250000J0D01*
G01*
X151264100Y-82817800D01*
G75*
G02*
X151014100Y-82567800I0J250000D01*
G01*
X151014100Y-81617800D01*
G75*
G02*
X151264100Y-81367800I250000J0D01*
G01*
X151764100Y-81367800D01*
G75*
G02*
X152014100Y-81617800I0J-250000D01*
G01*
G37*
G36*
G01*
X150114100Y-81617800D02*
X150114100Y-82567800D01*
G75*
G02*
X149864100Y-82817800I-250000J0D01*
G01*
X149364100Y-82817800D01*
G75*
G02*
X149114100Y-82567800I0J250000D01*
G01*
X149114100Y-81617800D01*
G75*
G02*
X149364100Y-81367800I250000J0D01*
G01*
X149864100Y-81367800D01*
G75*
G02*
X150114100Y-81617800I0J-250000D01*
G01*
G37*
%TD*%
%TO.C,C6*%
G36*
G01*
X152014100Y-83726000D02*
X152014100Y-84676000D01*
G75*
G02*
X151764100Y-84926000I-250000J0D01*
G01*
X151264100Y-84926000D01*
G75*
G02*
X151014100Y-84676000I0J250000D01*
G01*
X151014100Y-83726000D01*
G75*
G02*
X151264100Y-83476000I250000J0D01*
G01*
X151764100Y-83476000D01*
G75*
G02*
X152014100Y-83726000I0J-250000D01*
G01*
G37*
G36*
G01*
X150114100Y-83726000D02*
X150114100Y-84676000D01*
G75*
G02*
X149864100Y-84926000I-250000J0D01*
G01*
X149364100Y-84926000D01*
G75*
G02*
X149114100Y-84676000I0J250000D01*
G01*
X149114100Y-83726000D01*
G75*
G02*
X149364100Y-83476000I250000J0D01*
G01*
X149864100Y-83476000D01*
G75*
G02*
X150114100Y-83726000I0J-250000D01*
G01*
G37*
%TD*%
%TO.C,C7*%
G36*
G01*
X159288300Y-69867800D02*
X159288300Y-68917800D01*
G75*
G02*
X159538300Y-68667800I250000J0D01*
G01*
X160038300Y-68667800D01*
G75*
G02*
X160288300Y-68917800I0J-250000D01*
G01*
X160288300Y-69867800D01*
G75*
G02*
X160038300Y-70117800I-250000J0D01*
G01*
X159538300Y-70117800D01*
G75*
G02*
X159288300Y-69867800I0J250000D01*
G01*
G37*
G36*
G01*
X161188300Y-69867800D02*
X161188300Y-68917800D01*
G75*
G02*
X161438300Y-68667800I250000J0D01*
G01*
X161938300Y-68667800D01*
G75*
G02*
X162188300Y-68917800I0J-250000D01*
G01*
X162188300Y-69867800D01*
G75*
G02*
X161938300Y-70117800I-250000J0D01*
G01*
X161438300Y-70117800D01*
G75*
G02*
X161188300Y-69867800I0J250000D01*
G01*
G37*
%TD*%
%TO.C,C8*%
G36*
G01*
X150995400Y-68707100D02*
X150045400Y-68707100D01*
G75*
G02*
X149795400Y-68457100I0J250000D01*
G01*
X149795400Y-67957100D01*
G75*
G02*
X150045400Y-67707100I250000J0D01*
G01*
X150995400Y-67707100D01*
G75*
G02*
X151245400Y-67957100I0J-250000D01*
G01*
X151245400Y-68457100D01*
G75*
G02*
X150995400Y-68707100I-250000J0D01*
G01*
G37*
G36*
G01*
X150995400Y-70607100D02*
X150045400Y-70607100D01*
G75*
G02*
X149795400Y-70357100I0J250000D01*
G01*
X149795400Y-69857100D01*
G75*
G02*
X150045400Y-69607100I250000J0D01*
G01*
X150995400Y-69607100D01*
G75*
G02*
X151245400Y-69857100I0J-250000D01*
G01*
X151245400Y-70357100D01*
G75*
G02*
X150995400Y-70607100I-250000J0D01*
G01*
G37*
%TD*%
%TO.C,C9*%
G36*
G01*
X161680200Y-82787400D02*
X161680200Y-83887400D01*
G75*
G02*
X161430200Y-84137400I-250000J0D01*
G01*
X159730200Y-84137400D01*
G75*
G02*
X159480200Y-83887400I0J250000D01*
G01*
X159480200Y-82787400D01*
G75*
G02*
X159730200Y-82537400I250000J0D01*
G01*
X161430200Y-82537400D01*
G75*
G02*
X161680200Y-82787400I0J-250000D01*
G01*
G37*
G36*
G01*
X158680200Y-82787400D02*
X158680200Y-83887400D01*
G75*
G02*
X158430200Y-84137400I-250000J0D01*
G01*
X156730200Y-84137400D01*
G75*
G02*
X156480200Y-83887400I0J250000D01*
G01*
X156480200Y-82787400D01*
G75*
G02*
X156730200Y-82537400I250000J0D01*
G01*
X158430200Y-82537400D01*
G75*
G02*
X158680200Y-82787400I0J-250000D01*
G01*
G37*
%TD*%
%TO.C,C10*%
G36*
G01*
X142613400Y-77119600D02*
X141663400Y-77119600D01*
G75*
G02*
X141413400Y-76869600I0J250000D01*
G01*
X141413400Y-76369600D01*
G75*
G02*
X141663400Y-76119600I250000J0D01*
G01*
X142613400Y-76119600D01*
G75*
G02*
X142863400Y-76369600I0J-250000D01*
G01*
X142863400Y-76869600D01*
G75*
G02*
X142613400Y-77119600I-250000J0D01*
G01*
G37*
G36*
G01*
X142613400Y-79019600D02*
X141663400Y-79019600D01*
G75*
G02*
X141413400Y-78769600I0J250000D01*
G01*
X141413400Y-78269600D01*
G75*
G02*
X141663400Y-78019600I250000J0D01*
G01*
X142613400Y-78019600D01*
G75*
G02*
X142863400Y-78269600I0J-250000D01*
G01*
X142863400Y-78769600D01*
G75*
G02*
X142613400Y-79019600I-250000J0D01*
G01*
G37*
%TD*%
%TO.C,C11*%
G36*
G01*
X141663400Y-69519600D02*
X142613400Y-69519600D01*
G75*
G02*
X142863400Y-69769600I0J-250000D01*
G01*
X142863400Y-70269600D01*
G75*
G02*
X142613400Y-70519600I-250000J0D01*
G01*
X141663400Y-70519600D01*
G75*
G02*
X141413400Y-70269600I0J250000D01*
G01*
X141413400Y-69769600D01*
G75*
G02*
X141663400Y-69519600I250000J0D01*
G01*
G37*
G36*
G01*
X141663400Y-71419600D02*
X142613400Y-71419600D01*
G75*
G02*
X142863400Y-71669600I0J-250000D01*
G01*
X142863400Y-72169600D01*
G75*
G02*
X142613400Y-72419600I-250000J0D01*
G01*
X141663400Y-72419600D01*
G75*
G02*
X141413400Y-72169600I0J250000D01*
G01*
X141413400Y-71669600D01*
G75*
G02*
X141663400Y-71419600I250000J0D01*
G01*
G37*
%TD*%
%TO.C,C12*%
G36*
G01*
X146718400Y-82999600D02*
X146718400Y-82049600D01*
G75*
G02*
X146968400Y-81799600I250000J0D01*
G01*
X147468400Y-81799600D01*
G75*
G02*
X147718400Y-82049600I0J-250000D01*
G01*
X147718400Y-82999600D01*
G75*
G02*
X147468400Y-83249600I-250000J0D01*
G01*
X146968400Y-83249600D01*
G75*
G02*
X146718400Y-82999600I0J250000D01*
G01*
G37*
G36*
G01*
X144818400Y-82999600D02*
X144818400Y-82049600D01*
G75*
G02*
X145068400Y-81799600I250000J0D01*
G01*
X145568400Y-81799600D01*
G75*
G02*
X145818400Y-82049600I0J-250000D01*
G01*
X145818400Y-82999600D01*
G75*
G02*
X145568400Y-83249600I-250000J0D01*
G01*
X145068400Y-83249600D01*
G75*
G02*
X144818400Y-82999600I0J250000D01*
G01*
G37*
%TD*%
%TO.C,C13*%
G36*
G01*
X177757600Y-104941602D02*
X177757600Y-103541598D01*
G75*
G02*
X178007598Y-103291600I249998J0D01*
G01*
X181657602Y-103291600D01*
G75*
G02*
X181907600Y-103541598I0J-249998D01*
G01*
X181907600Y-104941602D01*
G75*
G02*
X181657602Y-105191600I-249998J0D01*
G01*
X178007598Y-105191600D01*
G75*
G02*
X177757600Y-104941602I0J249998D01*
G01*
G37*
G36*
G01*
X184707600Y-104941602D02*
X184707600Y-103541598D01*
G75*
G02*
X184957598Y-103291600I249998J0D01*
G01*
X188607602Y-103291600D01*
G75*
G02*
X188857600Y-103541598I0J-249998D01*
G01*
X188857600Y-104941602D01*
G75*
G02*
X188607602Y-105191600I-249998J0D01*
G01*
X184957598Y-105191600D01*
G75*
G02*
X184707600Y-104941602I0J249998D01*
G01*
G37*
%TD*%
%TO.C,C14*%
G36*
G01*
X131492800Y-93279998D02*
X131492800Y-94680002D01*
G75*
G02*
X131242802Y-94930000I-249998J0D01*
G01*
X127592798Y-94930000D01*
G75*
G02*
X127342800Y-94680002I0J249998D01*
G01*
X127342800Y-93279998D01*
G75*
G02*
X127592798Y-93030000I249998J0D01*
G01*
X131242802Y-93030000D01*
G75*
G02*
X131492800Y-93279998I0J-249998D01*
G01*
G37*
G36*
G01*
X138442800Y-93279998D02*
X138442800Y-94680002D01*
G75*
G02*
X138192802Y-94930000I-249998J0D01*
G01*
X134542798Y-94930000D01*
G75*
G02*
X134292800Y-94680002I0J249998D01*
G01*
X134292800Y-93279998D01*
G75*
G02*
X134542798Y-93030000I249998J0D01*
G01*
X138192802Y-93030000D01*
G75*
G02*
X138442800Y-93279998I0J-249998D01*
G01*
G37*
%TD*%
%TO.C,C15*%
G36*
G01*
X141867800Y-103453000D02*
X142967800Y-103453000D01*
G75*
G02*
X143217800Y-103703000I0J-250000D01*
G01*
X143217800Y-105803000D01*
G75*
G02*
X142967800Y-106053000I-250000J0D01*
G01*
X141867800Y-106053000D01*
G75*
G02*
X141617800Y-105803000I0J250000D01*
G01*
X141617800Y-103703000D01*
G75*
G02*
X141867800Y-103453000I250000J0D01*
G01*
G37*
G36*
G01*
X141867800Y-107053000D02*
X142967800Y-107053000D01*
G75*
G02*
X143217800Y-107303000I0J-250000D01*
G01*
X143217800Y-109403000D01*
G75*
G02*
X142967800Y-109653000I-250000J0D01*
G01*
X141867800Y-109653000D01*
G75*
G02*
X141617800Y-109403000I0J250000D01*
G01*
X141617800Y-107303000D01*
G75*
G02*
X141867800Y-107053000I250000J0D01*
G01*
G37*
%TD*%
%TO.C,C16*%
G36*
G01*
X123452800Y-107053000D02*
X124552800Y-107053000D01*
G75*
G02*
X124802800Y-107303000I0J-250000D01*
G01*
X124802800Y-109403000D01*
G75*
G02*
X124552800Y-109653000I-250000J0D01*
G01*
X123452800Y-109653000D01*
G75*
G02*
X123202800Y-109403000I0J250000D01*
G01*
X123202800Y-107303000D01*
G75*
G02*
X123452800Y-107053000I250000J0D01*
G01*
G37*
G36*
G01*
X123452800Y-103453000D02*
X124552800Y-103453000D01*
G75*
G02*
X124802800Y-103703000I0J-250000D01*
G01*
X124802800Y-105803000D01*
G75*
G02*
X124552800Y-106053000I-250000J0D01*
G01*
X123452800Y-106053000D01*
G75*
G02*
X123202800Y-105803000I0J250000D01*
G01*
X123202800Y-103703000D01*
G75*
G02*
X123452800Y-103453000I250000J0D01*
G01*
G37*
%TD*%
D10*
%TO.C,D1*%
X173981400Y-93040200D03*
X176081400Y-93040200D03*
%TD*%
%TO.C,D2*%
G36*
G01*
X149433100Y-85827550D02*
X149433100Y-86740050D01*
G75*
G02*
X149189350Y-86983800I-243750J0D01*
G01*
X148701850Y-86983800D01*
G75*
G02*
X148458100Y-86740050I0J243750D01*
G01*
X148458100Y-85827550D01*
G75*
G02*
X148701850Y-85583800I243750J0D01*
G01*
X149189350Y-85583800D01*
G75*
G02*
X149433100Y-85827550I0J-243750D01*
G01*
G37*
G36*
G01*
X151308100Y-85827550D02*
X151308100Y-86740050D01*
G75*
G02*
X151064350Y-86983800I-243750J0D01*
G01*
X150576850Y-86983800D01*
G75*
G02*
X150333100Y-86740050I0J243750D01*
G01*
X150333100Y-85827550D01*
G75*
G02*
X150576850Y-85583800I243750J0D01*
G01*
X151064350Y-85583800D01*
G75*
G02*
X151308100Y-85827550I0J-243750D01*
G01*
G37*
%TD*%
%TO.C,D3*%
G36*
G01*
X148590950Y-63982300D02*
X149503450Y-63982300D01*
G75*
G02*
X149747200Y-64226050I0J-243750D01*
G01*
X149747200Y-64713550D01*
G75*
G02*
X149503450Y-64957300I-243750J0D01*
G01*
X148590950Y-64957300D01*
G75*
G02*
X148347200Y-64713550I0J243750D01*
G01*
X148347200Y-64226050D01*
G75*
G02*
X148590950Y-63982300I243750J0D01*
G01*
G37*
G36*
G01*
X148590950Y-65857300D02*
X149503450Y-65857300D01*
G75*
G02*
X149747200Y-66101050I0J-243750D01*
G01*
X149747200Y-66588550D01*
G75*
G02*
X149503450Y-66832300I-243750J0D01*
G01*
X148590950Y-66832300D01*
G75*
G02*
X148347200Y-66588550I0J243750D01*
G01*
X148347200Y-66101050D01*
G75*
G02*
X148590950Y-65857300I243750J0D01*
G01*
G37*
%TD*%
%TO.C,F1*%
G36*
G01*
X180032950Y-94685400D02*
X180545450Y-94685400D01*
G75*
G02*
X180764200Y-94904150I0J-218750D01*
G01*
X180764200Y-95341650D01*
G75*
G02*
X180545450Y-95560400I-218750J0D01*
G01*
X180032950Y-95560400D01*
G75*
G02*
X179814200Y-95341650I0J218750D01*
G01*
X179814200Y-94904150D01*
G75*
G02*
X180032950Y-94685400I218750J0D01*
G01*
G37*
G36*
G01*
X180032950Y-96260400D02*
X180545450Y-96260400D01*
G75*
G02*
X180764200Y-96479150I0J-218750D01*
G01*
X180764200Y-96916650D01*
G75*
G02*
X180545450Y-97135400I-218750J0D01*
G01*
X180032950Y-97135400D01*
G75*
G02*
X179814200Y-96916650I0J218750D01*
G01*
X179814200Y-96479150D01*
G75*
G02*
X180032950Y-96260400I218750J0D01*
G01*
G37*
%TD*%
D11*
%TO.C,J10*%
X186159640Y-94660240D03*
X186159640Y-94010240D03*
X186159640Y-93360240D03*
X186159640Y-92710240D03*
X186159640Y-92060240D03*
D12*
X186244640Y-95847740D03*
X186244640Y-90872740D03*
D13*
X188819640Y-96735240D03*
X188819640Y-89985240D03*
D14*
X188819640Y-94510240D03*
D15*
X188819640Y-91810240D03*
%TD*%
%TO.C,L1*%
G36*
G01*
X147788800Y-108553000D02*
X149238800Y-108553000D01*
G75*
G02*
X149613800Y-108928000I0J-375000D01*
G01*
X149613800Y-109678000D01*
G75*
G02*
X149238800Y-110053000I-375000J0D01*
G01*
X147788800Y-110053000D01*
G75*
G02*
X147413800Y-109678000I0J375000D01*
G01*
X147413800Y-108928000D01*
G75*
G02*
X147788800Y-108553000I375000J0D01*
G01*
G37*
G36*
G01*
X147788800Y-103053000D02*
X149238800Y-103053000D01*
G75*
G02*
X149613800Y-103428000I0J-375000D01*
G01*
X149613800Y-104178000D01*
G75*
G02*
X149238800Y-104553000I-375000J0D01*
G01*
X147788800Y-104553000D01*
G75*
G02*
X147413800Y-104178000I0J375000D01*
G01*
X147413800Y-103428000D01*
G75*
G02*
X147788800Y-103053000I375000J0D01*
G01*
G37*
%TD*%
%TO.C,R13*%
G36*
G01*
X114953202Y-103433300D02*
X114053198Y-103433300D01*
G75*
G02*
X113803200Y-103183302I0J249998D01*
G01*
X113803200Y-102658298D01*
G75*
G02*
X114053198Y-102408300I249998J0D01*
G01*
X114953202Y-102408300D01*
G75*
G02*
X115203200Y-102658298I0J-249998D01*
G01*
X115203200Y-103183302D01*
G75*
G02*
X114953202Y-103433300I-249998J0D01*
G01*
G37*
G36*
G01*
X114953202Y-101608300D02*
X114053198Y-101608300D01*
G75*
G02*
X113803200Y-101358302I0J249998D01*
G01*
X113803200Y-100833298D01*
G75*
G02*
X114053198Y-100583300I249998J0D01*
G01*
X114953202Y-100583300D01*
G75*
G02*
X115203200Y-100833298I0J-249998D01*
G01*
X115203200Y-101358302D01*
G75*
G02*
X114953202Y-101608300I-249998J0D01*
G01*
G37*
%TD*%
%TO.C,R14*%
G36*
G01*
X187168100Y-87648202D02*
X187168100Y-86748198D01*
G75*
G02*
X187418098Y-86498200I249998J0D01*
G01*
X187943102Y-86498200D01*
G75*
G02*
X188193100Y-86748198I0J-249998D01*
G01*
X188193100Y-87648202D01*
G75*
G02*
X187943102Y-87898200I-249998J0D01*
G01*
X187418098Y-87898200D01*
G75*
G02*
X187168100Y-87648202I0J249998D01*
G01*
G37*
G36*
G01*
X185343100Y-87648202D02*
X185343100Y-86748198D01*
G75*
G02*
X185593098Y-86498200I249998J0D01*
G01*
X186118102Y-86498200D01*
G75*
G02*
X186368100Y-86748198I0J-249998D01*
G01*
X186368100Y-87648202D01*
G75*
G02*
X186118102Y-87898200I-249998J0D01*
G01*
X185593098Y-87898200D01*
G75*
G02*
X185343100Y-87648202I0J249998D01*
G01*
G37*
%TD*%
%TO.C,R15*%
G36*
G01*
X180521198Y-88797700D02*
X181421202Y-88797700D01*
G75*
G02*
X181671200Y-89047698I0J-249998D01*
G01*
X181671200Y-89572702D01*
G75*
G02*
X181421202Y-89822700I-249998J0D01*
G01*
X180521198Y-89822700D01*
G75*
G02*
X180271200Y-89572702I0J249998D01*
G01*
X180271200Y-89047698D01*
G75*
G02*
X180521198Y-88797700I249998J0D01*
G01*
G37*
G36*
G01*
X180521198Y-90622700D02*
X181421202Y-90622700D01*
G75*
G02*
X181671200Y-90872698I0J-249998D01*
G01*
X181671200Y-91397702D01*
G75*
G02*
X181421202Y-91647700I-249998J0D01*
G01*
X180521198Y-91647700D01*
G75*
G02*
X180271200Y-91397702I0J249998D01*
G01*
X180271200Y-90872698D01*
G75*
G02*
X180521198Y-90622700I249998J0D01*
G01*
G37*
%TD*%
%TO.C,R16*%
G36*
G01*
X178340598Y-88823100D02*
X179240602Y-88823100D01*
G75*
G02*
X179490600Y-89073098I0J-249998D01*
G01*
X179490600Y-89598102D01*
G75*
G02*
X179240602Y-89848100I-249998J0D01*
G01*
X178340598Y-89848100D01*
G75*
G02*
X178090600Y-89598102I0J249998D01*
G01*
X178090600Y-89073098D01*
G75*
G02*
X178340598Y-88823100I249998J0D01*
G01*
G37*
G36*
G01*
X178340598Y-90648100D02*
X179240602Y-90648100D01*
G75*
G02*
X179490600Y-90898098I0J-249998D01*
G01*
X179490600Y-91423102D01*
G75*
G02*
X179240602Y-91673100I-249998J0D01*
G01*
X178340598Y-91673100D01*
G75*
G02*
X178090600Y-91423102I0J249998D01*
G01*
X178090600Y-90898098D01*
G75*
G02*
X178340598Y-90648100I249998J0D01*
G01*
G37*
%TD*%
%TO.C,R17*%
G36*
G01*
X173531398Y-89809900D02*
X174431402Y-89809900D01*
G75*
G02*
X174681400Y-90059898I0J-249998D01*
G01*
X174681400Y-90584902D01*
G75*
G02*
X174431402Y-90834900I-249998J0D01*
G01*
X173531398Y-90834900D01*
G75*
G02*
X173281400Y-90584902I0J249998D01*
G01*
X173281400Y-90059898D01*
G75*
G02*
X173531398Y-89809900I249998J0D01*
G01*
G37*
G36*
G01*
X173531398Y-87984900D02*
X174431402Y-87984900D01*
G75*
G02*
X174681400Y-88234898I0J-249998D01*
G01*
X174681400Y-88759902D01*
G75*
G02*
X174431402Y-89009900I-249998J0D01*
G01*
X173531398Y-89009900D01*
G75*
G02*
X173281400Y-88759902I0J249998D01*
G01*
X173281400Y-88234898D01*
G75*
G02*
X173531398Y-87984900I249998J0D01*
G01*
G37*
%TD*%
%TO.C,R18*%
G36*
G01*
X168340402Y-83236500D02*
X167440398Y-83236500D01*
G75*
G02*
X167190400Y-82986502I0J249998D01*
G01*
X167190400Y-82461498D01*
G75*
G02*
X167440398Y-82211500I249998J0D01*
G01*
X168340402Y-82211500D01*
G75*
G02*
X168590400Y-82461498I0J-249998D01*
G01*
X168590400Y-82986502D01*
G75*
G02*
X168340402Y-83236500I-249998J0D01*
G01*
G37*
G36*
G01*
X168340402Y-81411500D02*
X167440398Y-81411500D01*
G75*
G02*
X167190400Y-81161502I0J249998D01*
G01*
X167190400Y-80636498D01*
G75*
G02*
X167440398Y-80386500I249998J0D01*
G01*
X168340402Y-80386500D01*
G75*
G02*
X168590400Y-80636498I0J-249998D01*
G01*
X168590400Y-81161502D01*
G75*
G02*
X168340402Y-81411500I-249998J0D01*
G01*
G37*
%TD*%
%TO.C,R19*%
G36*
G01*
X168340402Y-77706900D02*
X167440398Y-77706900D01*
G75*
G02*
X167190400Y-77456902I0J249998D01*
G01*
X167190400Y-76931898D01*
G75*
G02*
X167440398Y-76681900I249998J0D01*
G01*
X168340402Y-76681900D01*
G75*
G02*
X168590400Y-76931898I0J-249998D01*
G01*
X168590400Y-77456902D01*
G75*
G02*
X168340402Y-77706900I-249998J0D01*
G01*
G37*
G36*
G01*
X168340402Y-79531900D02*
X167440398Y-79531900D01*
G75*
G02*
X167190400Y-79281902I0J249998D01*
G01*
X167190400Y-78756898D01*
G75*
G02*
X167440398Y-78506900I249998J0D01*
G01*
X168340402Y-78506900D01*
G75*
G02*
X168590400Y-78756898I0J-249998D01*
G01*
X168590400Y-79281902D01*
G75*
G02*
X168340402Y-79531900I-249998J0D01*
G01*
G37*
%TD*%
%TO.C,R20*%
G36*
G01*
X177113500Y-83050802D02*
X177113500Y-82150798D01*
G75*
G02*
X177363498Y-81900800I249998J0D01*
G01*
X177888502Y-81900800D01*
G75*
G02*
X178138500Y-82150798I0J-249998D01*
G01*
X178138500Y-83050802D01*
G75*
G02*
X177888502Y-83300800I-249998J0D01*
G01*
X177363498Y-83300800D01*
G75*
G02*
X177113500Y-83050802I0J249998D01*
G01*
G37*
G36*
G01*
X178938500Y-83050802D02*
X178938500Y-82150798D01*
G75*
G02*
X179188498Y-81900800I249998J0D01*
G01*
X179713502Y-81900800D01*
G75*
G02*
X179963500Y-82150798I0J-249998D01*
G01*
X179963500Y-83050802D01*
G75*
G02*
X179713502Y-83300800I-249998J0D01*
G01*
X179188498Y-83300800D01*
G75*
G02*
X178938500Y-83050802I0J249998D01*
G01*
G37*
%TD*%
%TO.C,R21*%
G36*
G01*
X163049798Y-59859500D02*
X163949802Y-59859500D01*
G75*
G02*
X164199800Y-60109498I0J-249998D01*
G01*
X164199800Y-60634502D01*
G75*
G02*
X163949802Y-60884500I-249998J0D01*
G01*
X163049798Y-60884500D01*
G75*
G02*
X162799800Y-60634502I0J249998D01*
G01*
X162799800Y-60109498D01*
G75*
G02*
X163049798Y-59859500I249998J0D01*
G01*
G37*
G36*
G01*
X163049798Y-58034500D02*
X163949802Y-58034500D01*
G75*
G02*
X164199800Y-58284498I0J-249998D01*
G01*
X164199800Y-58809502D01*
G75*
G02*
X163949802Y-59059500I-249998J0D01*
G01*
X163049798Y-59059500D01*
G75*
G02*
X162799800Y-58809502I0J249998D01*
G01*
X162799800Y-58284498D01*
G75*
G02*
X163049798Y-58034500I249998J0D01*
G01*
G37*
%TD*%
%TO.C,R22*%
G36*
G01*
X145830900Y-84182798D02*
X145830900Y-85082802D01*
G75*
G02*
X145580902Y-85332800I-249998J0D01*
G01*
X145055898Y-85332800D01*
G75*
G02*
X144805900Y-85082802I0J249998D01*
G01*
X144805900Y-84182798D01*
G75*
G02*
X145055898Y-83932800I249998J0D01*
G01*
X145580902Y-83932800D01*
G75*
G02*
X145830900Y-84182798I0J-249998D01*
G01*
G37*
G36*
G01*
X147655900Y-84182798D02*
X147655900Y-85082802D01*
G75*
G02*
X147405902Y-85332800I-249998J0D01*
G01*
X146880898Y-85332800D01*
G75*
G02*
X146630900Y-85082802I0J249998D01*
G01*
X146630900Y-84182798D01*
G75*
G02*
X146880898Y-83932800I249998J0D01*
G01*
X147405902Y-83932800D01*
G75*
G02*
X147655900Y-84182798I0J-249998D01*
G01*
G37*
%TD*%
%TO.C,R23*%
G36*
G01*
X154224300Y-86733802D02*
X154224300Y-85833798D01*
G75*
G02*
X154474298Y-85583800I249998J0D01*
G01*
X154999302Y-85583800D01*
G75*
G02*
X155249300Y-85833798I0J-249998D01*
G01*
X155249300Y-86733802D01*
G75*
G02*
X154999302Y-86983800I-249998J0D01*
G01*
X154474298Y-86983800D01*
G75*
G02*
X154224300Y-86733802I0J249998D01*
G01*
G37*
G36*
G01*
X152399300Y-86733802D02*
X152399300Y-85833798D01*
G75*
G02*
X152649298Y-85583800I249998J0D01*
G01*
X153174302Y-85583800D01*
G75*
G02*
X153424300Y-85833798I0J-249998D01*
G01*
X153424300Y-86733802D01*
G75*
G02*
X153174302Y-86983800I-249998J0D01*
G01*
X152649298Y-86983800D01*
G75*
G02*
X152399300Y-86733802I0J249998D01*
G01*
G37*
%TD*%
%TO.C,R24*%
G36*
G01*
X155325802Y-65964500D02*
X154425798Y-65964500D01*
G75*
G02*
X154175800Y-65714502I0J249998D01*
G01*
X154175800Y-65189498D01*
G75*
G02*
X154425798Y-64939500I249998J0D01*
G01*
X155325802Y-64939500D01*
G75*
G02*
X155575800Y-65189498I0J-249998D01*
G01*
X155575800Y-65714502D01*
G75*
G02*
X155325802Y-65964500I-249998J0D01*
G01*
G37*
G36*
G01*
X155325802Y-64139500D02*
X154425798Y-64139500D01*
G75*
G02*
X154175800Y-63889502I0J249998D01*
G01*
X154175800Y-63364498D01*
G75*
G02*
X154425798Y-63114500I249998J0D01*
G01*
X155325802Y-63114500D01*
G75*
G02*
X155575800Y-63364498I0J-249998D01*
G01*
X155575800Y-63889502D01*
G75*
G02*
X155325802Y-64139500I-249998J0D01*
G01*
G37*
%TD*%
%TO.C,R25*%
G36*
G01*
X148534700Y-62375202D02*
X148534700Y-61475198D01*
G75*
G02*
X148784698Y-61225200I249998J0D01*
G01*
X149309702Y-61225200D01*
G75*
G02*
X149559700Y-61475198I0J-249998D01*
G01*
X149559700Y-62375202D01*
G75*
G02*
X149309702Y-62625200I-249998J0D01*
G01*
X148784698Y-62625200D01*
G75*
G02*
X148534700Y-62375202I0J249998D01*
G01*
G37*
G36*
G01*
X150359700Y-62375202D02*
X150359700Y-61475198D01*
G75*
G02*
X150609698Y-61225200I249998J0D01*
G01*
X151134702Y-61225200D01*
G75*
G02*
X151384700Y-61475198I0J-249998D01*
G01*
X151384700Y-62375202D01*
G75*
G02*
X151134702Y-62625200I-249998J0D01*
G01*
X150609698Y-62625200D01*
G75*
G02*
X150359700Y-62375202I0J249998D01*
G01*
G37*
%TD*%
D16*
%TO.C,SW1*%
X114503200Y-95758000D03*
X122303200Y-95758000D03*
%TD*%
%TO.C,SW2*%
X189269200Y-82600800D03*
X181469200Y-82600800D03*
%TD*%
%TO.C,SW3*%
X132777400Y-84632800D03*
X140577400Y-84632800D03*
%TD*%
D17*
%TO.C,U3*%
X112755800Y-87229000D03*
X114755800Y-87229000D03*
X116755800Y-87229000D03*
X118755800Y-87229000D03*
X120755800Y-87229000D03*
X122755800Y-87229000D03*
X124755800Y-87229000D03*
X126755800Y-87229000D03*
D18*
X128255800Y-84629000D03*
X128255800Y-82629000D03*
X128255800Y-80629000D03*
X128255800Y-78629000D03*
X128255800Y-76629000D03*
X128255800Y-74629000D03*
D17*
X126755800Y-72029000D03*
X124755800Y-72029000D03*
X122755800Y-72029000D03*
X120755800Y-72029000D03*
X118755800Y-72029000D03*
X116755800Y-72029000D03*
X114755800Y-72029000D03*
X112755800Y-72029000D03*
%TD*%
%TO.C,U4*%
G36*
G01*
X150725800Y-71594600D02*
X150725800Y-71444600D01*
G75*
G02*
X150800800Y-71369600I75000J0D01*
G01*
X152125800Y-71369600D01*
G75*
G02*
X152200800Y-71444600I0J-75000D01*
G01*
X152200800Y-71594600D01*
G75*
G02*
X152125800Y-71669600I-75000J0D01*
G01*
X150800800Y-71669600D01*
G75*
G02*
X150725800Y-71594600I0J75000D01*
G01*
G37*
G36*
G01*
X150725800Y-72094600D02*
X150725800Y-71944600D01*
G75*
G02*
X150800800Y-71869600I75000J0D01*
G01*
X152125800Y-71869600D01*
G75*
G02*
X152200800Y-71944600I0J-75000D01*
G01*
X152200800Y-72094600D01*
G75*
G02*
X152125800Y-72169600I-75000J0D01*
G01*
X150800800Y-72169600D01*
G75*
G02*
X150725800Y-72094600I0J75000D01*
G01*
G37*
G36*
G01*
X150725800Y-72594600D02*
X150725800Y-72444600D01*
G75*
G02*
X150800800Y-72369600I75000J0D01*
G01*
X152125800Y-72369600D01*
G75*
G02*
X152200800Y-72444600I0J-75000D01*
G01*
X152200800Y-72594600D01*
G75*
G02*
X152125800Y-72669600I-75000J0D01*
G01*
X150800800Y-72669600D01*
G75*
G02*
X150725800Y-72594600I0J75000D01*
G01*
G37*
G36*
G01*
X150725800Y-73094600D02*
X150725800Y-72944600D01*
G75*
G02*
X150800800Y-72869600I75000J0D01*
G01*
X152125800Y-72869600D01*
G75*
G02*
X152200800Y-72944600I0J-75000D01*
G01*
X152200800Y-73094600D01*
G75*
G02*
X152125800Y-73169600I-75000J0D01*
G01*
X150800800Y-73169600D01*
G75*
G02*
X150725800Y-73094600I0J75000D01*
G01*
G37*
G36*
G01*
X150725800Y-73594600D02*
X150725800Y-73444600D01*
G75*
G02*
X150800800Y-73369600I75000J0D01*
G01*
X152125800Y-73369600D01*
G75*
G02*
X152200800Y-73444600I0J-75000D01*
G01*
X152200800Y-73594600D01*
G75*
G02*
X152125800Y-73669600I-75000J0D01*
G01*
X150800800Y-73669600D01*
G75*
G02*
X150725800Y-73594600I0J75000D01*
G01*
G37*
G36*
G01*
X150725800Y-74094600D02*
X150725800Y-73944600D01*
G75*
G02*
X150800800Y-73869600I75000J0D01*
G01*
X152125800Y-73869600D01*
G75*
G02*
X152200800Y-73944600I0J-75000D01*
G01*
X152200800Y-74094600D01*
G75*
G02*
X152125800Y-74169600I-75000J0D01*
G01*
X150800800Y-74169600D01*
G75*
G02*
X150725800Y-74094600I0J75000D01*
G01*
G37*
G36*
G01*
X150725800Y-74594600D02*
X150725800Y-74444600D01*
G75*
G02*
X150800800Y-74369600I75000J0D01*
G01*
X152125800Y-74369600D01*
G75*
G02*
X152200800Y-74444600I0J-75000D01*
G01*
X152200800Y-74594600D01*
G75*
G02*
X152125800Y-74669600I-75000J0D01*
G01*
X150800800Y-74669600D01*
G75*
G02*
X150725800Y-74594600I0J75000D01*
G01*
G37*
G36*
G01*
X150725800Y-75094600D02*
X150725800Y-74944600D01*
G75*
G02*
X150800800Y-74869600I75000J0D01*
G01*
X152125800Y-74869600D01*
G75*
G02*
X152200800Y-74944600I0J-75000D01*
G01*
X152200800Y-75094600D01*
G75*
G02*
X152125800Y-75169600I-75000J0D01*
G01*
X150800800Y-75169600D01*
G75*
G02*
X150725800Y-75094600I0J75000D01*
G01*
G37*
G36*
G01*
X150725800Y-75594600D02*
X150725800Y-75444600D01*
G75*
G02*
X150800800Y-75369600I75000J0D01*
G01*
X152125800Y-75369600D01*
G75*
G02*
X152200800Y-75444600I0J-75000D01*
G01*
X152200800Y-75594600D01*
G75*
G02*
X152125800Y-75669600I-75000J0D01*
G01*
X150800800Y-75669600D01*
G75*
G02*
X150725800Y-75594600I0J75000D01*
G01*
G37*
G36*
G01*
X150725800Y-76094600D02*
X150725800Y-75944600D01*
G75*
G02*
X150800800Y-75869600I75000J0D01*
G01*
X152125800Y-75869600D01*
G75*
G02*
X152200800Y-75944600I0J-75000D01*
G01*
X152200800Y-76094600D01*
G75*
G02*
X152125800Y-76169600I-75000J0D01*
G01*
X150800800Y-76169600D01*
G75*
G02*
X150725800Y-76094600I0J75000D01*
G01*
G37*
G36*
G01*
X150725800Y-76594600D02*
X150725800Y-76444600D01*
G75*
G02*
X150800800Y-76369600I75000J0D01*
G01*
X152125800Y-76369600D01*
G75*
G02*
X152200800Y-76444600I0J-75000D01*
G01*
X152200800Y-76594600D01*
G75*
G02*
X152125800Y-76669600I-75000J0D01*
G01*
X150800800Y-76669600D01*
G75*
G02*
X150725800Y-76594600I0J75000D01*
G01*
G37*
G36*
G01*
X150725800Y-77094600D02*
X150725800Y-76944600D01*
G75*
G02*
X150800800Y-76869600I75000J0D01*
G01*
X152125800Y-76869600D01*
G75*
G02*
X152200800Y-76944600I0J-75000D01*
G01*
X152200800Y-77094600D01*
G75*
G02*
X152125800Y-77169600I-75000J0D01*
G01*
X150800800Y-77169600D01*
G75*
G02*
X150725800Y-77094600I0J75000D01*
G01*
G37*
G36*
G01*
X152725800Y-79094600D02*
X152725800Y-77769600D01*
G75*
G02*
X152800800Y-77694600I75000J0D01*
G01*
X152950800Y-77694600D01*
G75*
G02*
X153025800Y-77769600I0J-75000D01*
G01*
X153025800Y-79094600D01*
G75*
G02*
X152950800Y-79169600I-75000J0D01*
G01*
X152800800Y-79169600D01*
G75*
G02*
X152725800Y-79094600I0J75000D01*
G01*
G37*
G36*
G01*
X153225800Y-79094600D02*
X153225800Y-77769600D01*
G75*
G02*
X153300800Y-77694600I75000J0D01*
G01*
X153450800Y-77694600D01*
G75*
G02*
X153525800Y-77769600I0J-75000D01*
G01*
X153525800Y-79094600D01*
G75*
G02*
X153450800Y-79169600I-75000J0D01*
G01*
X153300800Y-79169600D01*
G75*
G02*
X153225800Y-79094600I0J75000D01*
G01*
G37*
G36*
G01*
X153725800Y-79094600D02*
X153725800Y-77769600D01*
G75*
G02*
X153800800Y-77694600I75000J0D01*
G01*
X153950800Y-77694600D01*
G75*
G02*
X154025800Y-77769600I0J-75000D01*
G01*
X154025800Y-79094600D01*
G75*
G02*
X153950800Y-79169600I-75000J0D01*
G01*
X153800800Y-79169600D01*
G75*
G02*
X153725800Y-79094600I0J75000D01*
G01*
G37*
G36*
G01*
X154225800Y-79094600D02*
X154225800Y-77769600D01*
G75*
G02*
X154300800Y-77694600I75000J0D01*
G01*
X154450800Y-77694600D01*
G75*
G02*
X154525800Y-77769600I0J-75000D01*
G01*
X154525800Y-79094600D01*
G75*
G02*
X154450800Y-79169600I-75000J0D01*
G01*
X154300800Y-79169600D01*
G75*
G02*
X154225800Y-79094600I0J75000D01*
G01*
G37*
G36*
G01*
X154725800Y-79094600D02*
X154725800Y-77769600D01*
G75*
G02*
X154800800Y-77694600I75000J0D01*
G01*
X154950800Y-77694600D01*
G75*
G02*
X155025800Y-77769600I0J-75000D01*
G01*
X155025800Y-79094600D01*
G75*
G02*
X154950800Y-79169600I-75000J0D01*
G01*
X154800800Y-79169600D01*
G75*
G02*
X154725800Y-79094600I0J75000D01*
G01*
G37*
G36*
G01*
X155225800Y-79094600D02*
X155225800Y-77769600D01*
G75*
G02*
X155300800Y-77694600I75000J0D01*
G01*
X155450800Y-77694600D01*
G75*
G02*
X155525800Y-77769600I0J-75000D01*
G01*
X155525800Y-79094600D01*
G75*
G02*
X155450800Y-79169600I-75000J0D01*
G01*
X155300800Y-79169600D01*
G75*
G02*
X155225800Y-79094600I0J75000D01*
G01*
G37*
G36*
G01*
X155725800Y-79094600D02*
X155725800Y-77769600D01*
G75*
G02*
X155800800Y-77694600I75000J0D01*
G01*
X155950800Y-77694600D01*
G75*
G02*
X156025800Y-77769600I0J-75000D01*
G01*
X156025800Y-79094600D01*
G75*
G02*
X155950800Y-79169600I-75000J0D01*
G01*
X155800800Y-79169600D01*
G75*
G02*
X155725800Y-79094600I0J75000D01*
G01*
G37*
G36*
G01*
X156225800Y-79094600D02*
X156225800Y-77769600D01*
G75*
G02*
X156300800Y-77694600I75000J0D01*
G01*
X156450800Y-77694600D01*
G75*
G02*
X156525800Y-77769600I0J-75000D01*
G01*
X156525800Y-79094600D01*
G75*
G02*
X156450800Y-79169600I-75000J0D01*
G01*
X156300800Y-79169600D01*
G75*
G02*
X156225800Y-79094600I0J75000D01*
G01*
G37*
G36*
G01*
X156725800Y-79094600D02*
X156725800Y-77769600D01*
G75*
G02*
X156800800Y-77694600I75000J0D01*
G01*
X156950800Y-77694600D01*
G75*
G02*
X157025800Y-77769600I0J-75000D01*
G01*
X157025800Y-79094600D01*
G75*
G02*
X156950800Y-79169600I-75000J0D01*
G01*
X156800800Y-79169600D01*
G75*
G02*
X156725800Y-79094600I0J75000D01*
G01*
G37*
G36*
G01*
X157225800Y-79094600D02*
X157225800Y-77769600D01*
G75*
G02*
X157300800Y-77694600I75000J0D01*
G01*
X157450800Y-77694600D01*
G75*
G02*
X157525800Y-77769600I0J-75000D01*
G01*
X157525800Y-79094600D01*
G75*
G02*
X157450800Y-79169600I-75000J0D01*
G01*
X157300800Y-79169600D01*
G75*
G02*
X157225800Y-79094600I0J75000D01*
G01*
G37*
G36*
G01*
X157725800Y-79094600D02*
X157725800Y-77769600D01*
G75*
G02*
X157800800Y-77694600I75000J0D01*
G01*
X157950800Y-77694600D01*
G75*
G02*
X158025800Y-77769600I0J-75000D01*
G01*
X158025800Y-79094600D01*
G75*
G02*
X157950800Y-79169600I-75000J0D01*
G01*
X157800800Y-79169600D01*
G75*
G02*
X157725800Y-79094600I0J75000D01*
G01*
G37*
G36*
G01*
X158225800Y-79094600D02*
X158225800Y-77769600D01*
G75*
G02*
X158300800Y-77694600I75000J0D01*
G01*
X158450800Y-77694600D01*
G75*
G02*
X158525800Y-77769600I0J-75000D01*
G01*
X158525800Y-79094600D01*
G75*
G02*
X158450800Y-79169600I-75000J0D01*
G01*
X158300800Y-79169600D01*
G75*
G02*
X158225800Y-79094600I0J75000D01*
G01*
G37*
G36*
G01*
X159050800Y-77094600D02*
X159050800Y-76944600D01*
G75*
G02*
X159125800Y-76869600I75000J0D01*
G01*
X160450800Y-76869600D01*
G75*
G02*
X160525800Y-76944600I0J-75000D01*
G01*
X160525800Y-77094600D01*
G75*
G02*
X160450800Y-77169600I-75000J0D01*
G01*
X159125800Y-77169600D01*
G75*
G02*
X159050800Y-77094600I0J75000D01*
G01*
G37*
G36*
G01*
X159050800Y-76594600D02*
X159050800Y-76444600D01*
G75*
G02*
X159125800Y-76369600I75000J0D01*
G01*
X160450800Y-76369600D01*
G75*
G02*
X160525800Y-76444600I0J-75000D01*
G01*
X160525800Y-76594600D01*
G75*
G02*
X160450800Y-76669600I-75000J0D01*
G01*
X159125800Y-76669600D01*
G75*
G02*
X159050800Y-76594600I0J75000D01*
G01*
G37*
G36*
G01*
X159050800Y-76094600D02*
X159050800Y-75944600D01*
G75*
G02*
X159125800Y-75869600I75000J0D01*
G01*
X160450800Y-75869600D01*
G75*
G02*
X160525800Y-75944600I0J-75000D01*
G01*
X160525800Y-76094600D01*
G75*
G02*
X160450800Y-76169600I-75000J0D01*
G01*
X159125800Y-76169600D01*
G75*
G02*
X159050800Y-76094600I0J75000D01*
G01*
G37*
G36*
G01*
X159050800Y-75594600D02*
X159050800Y-75444600D01*
G75*
G02*
X159125800Y-75369600I75000J0D01*
G01*
X160450800Y-75369600D01*
G75*
G02*
X160525800Y-75444600I0J-75000D01*
G01*
X160525800Y-75594600D01*
G75*
G02*
X160450800Y-75669600I-75000J0D01*
G01*
X159125800Y-75669600D01*
G75*
G02*
X159050800Y-75594600I0J75000D01*
G01*
G37*
G36*
G01*
X159050800Y-75094600D02*
X159050800Y-74944600D01*
G75*
G02*
X159125800Y-74869600I75000J0D01*
G01*
X160450800Y-74869600D01*
G75*
G02*
X160525800Y-74944600I0J-75000D01*
G01*
X160525800Y-75094600D01*
G75*
G02*
X160450800Y-75169600I-75000J0D01*
G01*
X159125800Y-75169600D01*
G75*
G02*
X159050800Y-75094600I0J75000D01*
G01*
G37*
G36*
G01*
X159050800Y-74594600D02*
X159050800Y-74444600D01*
G75*
G02*
X159125800Y-74369600I75000J0D01*
G01*
X160450800Y-74369600D01*
G75*
G02*
X160525800Y-74444600I0J-75000D01*
G01*
X160525800Y-74594600D01*
G75*
G02*
X160450800Y-74669600I-75000J0D01*
G01*
X159125800Y-74669600D01*
G75*
G02*
X159050800Y-74594600I0J75000D01*
G01*
G37*
G36*
G01*
X159050800Y-74094600D02*
X159050800Y-73944600D01*
G75*
G02*
X159125800Y-73869600I75000J0D01*
G01*
X160450800Y-73869600D01*
G75*
G02*
X160525800Y-73944600I0J-75000D01*
G01*
X160525800Y-74094600D01*
G75*
G02*
X160450800Y-74169600I-75000J0D01*
G01*
X159125800Y-74169600D01*
G75*
G02*
X159050800Y-74094600I0J75000D01*
G01*
G37*
G36*
G01*
X159050800Y-73594600D02*
X159050800Y-73444600D01*
G75*
G02*
X159125800Y-73369600I75000J0D01*
G01*
X160450800Y-73369600D01*
G75*
G02*
X160525800Y-73444600I0J-75000D01*
G01*
X160525800Y-73594600D01*
G75*
G02*
X160450800Y-73669600I-75000J0D01*
G01*
X159125800Y-73669600D01*
G75*
G02*
X159050800Y-73594600I0J75000D01*
G01*
G37*
G36*
G01*
X159050800Y-73094600D02*
X159050800Y-72944600D01*
G75*
G02*
X159125800Y-72869600I75000J0D01*
G01*
X160450800Y-72869600D01*
G75*
G02*
X160525800Y-72944600I0J-75000D01*
G01*
X160525800Y-73094600D01*
G75*
G02*
X160450800Y-73169600I-75000J0D01*
G01*
X159125800Y-73169600D01*
G75*
G02*
X159050800Y-73094600I0J75000D01*
G01*
G37*
G36*
G01*
X159050800Y-72594600D02*
X159050800Y-72444600D01*
G75*
G02*
X159125800Y-72369600I75000J0D01*
G01*
X160450800Y-72369600D01*
G75*
G02*
X160525800Y-72444600I0J-75000D01*
G01*
X160525800Y-72594600D01*
G75*
G02*
X160450800Y-72669600I-75000J0D01*
G01*
X159125800Y-72669600D01*
G75*
G02*
X159050800Y-72594600I0J75000D01*
G01*
G37*
G36*
G01*
X159050800Y-72094600D02*
X159050800Y-71944600D01*
G75*
G02*
X159125800Y-71869600I75000J0D01*
G01*
X160450800Y-71869600D01*
G75*
G02*
X160525800Y-71944600I0J-75000D01*
G01*
X160525800Y-72094600D01*
G75*
G02*
X160450800Y-72169600I-75000J0D01*
G01*
X159125800Y-72169600D01*
G75*
G02*
X159050800Y-72094600I0J75000D01*
G01*
G37*
G36*
G01*
X159050800Y-71594600D02*
X159050800Y-71444600D01*
G75*
G02*
X159125800Y-71369600I75000J0D01*
G01*
X160450800Y-71369600D01*
G75*
G02*
X160525800Y-71444600I0J-75000D01*
G01*
X160525800Y-71594600D01*
G75*
G02*
X160450800Y-71669600I-75000J0D01*
G01*
X159125800Y-71669600D01*
G75*
G02*
X159050800Y-71594600I0J75000D01*
G01*
G37*
G36*
G01*
X158225800Y-70769600D02*
X158225800Y-69444600D01*
G75*
G02*
X158300800Y-69369600I75000J0D01*
G01*
X158450800Y-69369600D01*
G75*
G02*
X158525800Y-69444600I0J-75000D01*
G01*
X158525800Y-70769600D01*
G75*
G02*
X158450800Y-70844600I-75000J0D01*
G01*
X158300800Y-70844600D01*
G75*
G02*
X158225800Y-70769600I0J75000D01*
G01*
G37*
G36*
G01*
X157725800Y-70769600D02*
X157725800Y-69444600D01*
G75*
G02*
X157800800Y-69369600I75000J0D01*
G01*
X157950800Y-69369600D01*
G75*
G02*
X158025800Y-69444600I0J-75000D01*
G01*
X158025800Y-70769600D01*
G75*
G02*
X157950800Y-70844600I-75000J0D01*
G01*
X157800800Y-70844600D01*
G75*
G02*
X157725800Y-70769600I0J75000D01*
G01*
G37*
G36*
G01*
X157225800Y-70769600D02*
X157225800Y-69444600D01*
G75*
G02*
X157300800Y-69369600I75000J0D01*
G01*
X157450800Y-69369600D01*
G75*
G02*
X157525800Y-69444600I0J-75000D01*
G01*
X157525800Y-70769600D01*
G75*
G02*
X157450800Y-70844600I-75000J0D01*
G01*
X157300800Y-70844600D01*
G75*
G02*
X157225800Y-70769600I0J75000D01*
G01*
G37*
G36*
G01*
X156725800Y-70769600D02*
X156725800Y-69444600D01*
G75*
G02*
X156800800Y-69369600I75000J0D01*
G01*
X156950800Y-69369600D01*
G75*
G02*
X157025800Y-69444600I0J-75000D01*
G01*
X157025800Y-70769600D01*
G75*
G02*
X156950800Y-70844600I-75000J0D01*
G01*
X156800800Y-70844600D01*
G75*
G02*
X156725800Y-70769600I0J75000D01*
G01*
G37*
G36*
G01*
X156225800Y-70769600D02*
X156225800Y-69444600D01*
G75*
G02*
X156300800Y-69369600I75000J0D01*
G01*
X156450800Y-69369600D01*
G75*
G02*
X156525800Y-69444600I0J-75000D01*
G01*
X156525800Y-70769600D01*
G75*
G02*
X156450800Y-70844600I-75000J0D01*
G01*
X156300800Y-70844600D01*
G75*
G02*
X156225800Y-70769600I0J75000D01*
G01*
G37*
G36*
G01*
X155725800Y-70769600D02*
X155725800Y-69444600D01*
G75*
G02*
X155800800Y-69369600I75000J0D01*
G01*
X155950800Y-69369600D01*
G75*
G02*
X156025800Y-69444600I0J-75000D01*
G01*
X156025800Y-70769600D01*
G75*
G02*
X155950800Y-70844600I-75000J0D01*
G01*
X155800800Y-70844600D01*
G75*
G02*
X155725800Y-70769600I0J75000D01*
G01*
G37*
G36*
G01*
X155225800Y-70769600D02*
X155225800Y-69444600D01*
G75*
G02*
X155300800Y-69369600I75000J0D01*
G01*
X155450800Y-69369600D01*
G75*
G02*
X155525800Y-69444600I0J-75000D01*
G01*
X155525800Y-70769600D01*
G75*
G02*
X155450800Y-70844600I-75000J0D01*
G01*
X155300800Y-70844600D01*
G75*
G02*
X155225800Y-70769600I0J75000D01*
G01*
G37*
G36*
G01*
X154725800Y-70769600D02*
X154725800Y-69444600D01*
G75*
G02*
X154800800Y-69369600I75000J0D01*
G01*
X154950800Y-69369600D01*
G75*
G02*
X155025800Y-69444600I0J-75000D01*
G01*
X155025800Y-70769600D01*
G75*
G02*
X154950800Y-70844600I-75000J0D01*
G01*
X154800800Y-70844600D01*
G75*
G02*
X154725800Y-70769600I0J75000D01*
G01*
G37*
G36*
G01*
X154225800Y-70769600D02*
X154225800Y-69444600D01*
G75*
G02*
X154300800Y-69369600I75000J0D01*
G01*
X154450800Y-69369600D01*
G75*
G02*
X154525800Y-69444600I0J-75000D01*
G01*
X154525800Y-70769600D01*
G75*
G02*
X154450800Y-70844600I-75000J0D01*
G01*
X154300800Y-70844600D01*
G75*
G02*
X154225800Y-70769600I0J75000D01*
G01*
G37*
G36*
G01*
X153725800Y-70769600D02*
X153725800Y-69444600D01*
G75*
G02*
X153800800Y-69369600I75000J0D01*
G01*
X153950800Y-69369600D01*
G75*
G02*
X154025800Y-69444600I0J-75000D01*
G01*
X154025800Y-70769600D01*
G75*
G02*
X153950800Y-70844600I-75000J0D01*
G01*
X153800800Y-70844600D01*
G75*
G02*
X153725800Y-70769600I0J75000D01*
G01*
G37*
G36*
G01*
X153225800Y-70769600D02*
X153225800Y-69444600D01*
G75*
G02*
X153300800Y-69369600I75000J0D01*
G01*
X153450800Y-69369600D01*
G75*
G02*
X153525800Y-69444600I0J-75000D01*
G01*
X153525800Y-70769600D01*
G75*
G02*
X153450800Y-70844600I-75000J0D01*
G01*
X153300800Y-70844600D01*
G75*
G02*
X153225800Y-70769600I0J75000D01*
G01*
G37*
G36*
G01*
X152725800Y-70769600D02*
X152725800Y-69444600D01*
G75*
G02*
X152800800Y-69369600I75000J0D01*
G01*
X152950800Y-69369600D01*
G75*
G02*
X153025800Y-69444600I0J-75000D01*
G01*
X153025800Y-70769600D01*
G75*
G02*
X152950800Y-70844600I-75000J0D01*
G01*
X152800800Y-70844600D01*
G75*
G02*
X152725800Y-70769600I0J75000D01*
G01*
G37*
%TD*%
D19*
%TO.C,U5*%
X167890400Y-94990000D03*
X166190400Y-94990000D03*
X164490400Y-94990000D03*
X162790400Y-94990000D03*
X161090400Y-94990000D03*
D20*
X161715400Y-106565000D03*
X167265400Y-101715000D03*
X167265400Y-106565000D03*
X161715400Y-101715000D03*
%TD*%
D21*
%TO.C,U6*%
X130592800Y-109703000D03*
X135192800Y-109703000D03*
X132892800Y-109703000D03*
D22*
X132892800Y-103403000D03*
%TD*%
D23*
%TO.C,Y1*%
X145973800Y-78519600D03*
X145973800Y-70019600D03*
%TD*%
%TO.C,R1*%
G36*
G01*
X118938620Y-69014762D02*
X118938620Y-68114758D01*
G75*
G02*
X119188618Y-67864760I249998J0D01*
G01*
X119713622Y-67864760D01*
G75*
G02*
X119963620Y-68114758I0J-249998D01*
G01*
X119963620Y-69014762D01*
G75*
G02*
X119713622Y-69264760I-249998J0D01*
G01*
X119188618Y-69264760D01*
G75*
G02*
X118938620Y-69014762I0J249998D01*
G01*
G37*
G36*
G01*
X117113620Y-69014762D02*
X117113620Y-68114758D01*
G75*
G02*
X117363618Y-67864760I249998J0D01*
G01*
X117888622Y-67864760D01*
G75*
G02*
X118138620Y-68114758I0J-249998D01*
G01*
X118138620Y-69014762D01*
G75*
G02*
X117888622Y-69264760I-249998J0D01*
G01*
X117363618Y-69264760D01*
G75*
G02*
X117113620Y-69014762I0J249998D01*
G01*
G37*
%TD*%
%TO.C,R2*%
G36*
G01*
X155959278Y-48140198D02*
X155959278Y-49040202D01*
G75*
G02*
X155709280Y-49290200I-249998J0D01*
G01*
X155184276Y-49290200D01*
G75*
G02*
X154934278Y-49040202I0J249998D01*
G01*
X154934278Y-48140198D01*
G75*
G02*
X155184276Y-47890200I249998J0D01*
G01*
X155709280Y-47890200D01*
G75*
G02*
X155959278Y-48140198I0J-249998D01*
G01*
G37*
G36*
G01*
X154134278Y-48140198D02*
X154134278Y-49040202D01*
G75*
G02*
X153884280Y-49290200I-249998J0D01*
G01*
X153359276Y-49290200D01*
G75*
G02*
X153109278Y-49040202I0J249998D01*
G01*
X153109278Y-48140198D01*
G75*
G02*
X153359276Y-47890200I249998J0D01*
G01*
X153884280Y-47890200D01*
G75*
G02*
X154134278Y-48140198I0J-249998D01*
G01*
G37*
%TD*%
%TO.C,R3*%
G36*
G01*
X119963620Y-63034758D02*
X119963620Y-63934762D01*
G75*
G02*
X119713622Y-64184760I-249998J0D01*
G01*
X119188618Y-64184760D01*
G75*
G02*
X118938620Y-63934762I0J249998D01*
G01*
X118938620Y-63034758D01*
G75*
G02*
X119188618Y-62784760I249998J0D01*
G01*
X119713622Y-62784760D01*
G75*
G02*
X119963620Y-63034758I0J-249998D01*
G01*
G37*
G36*
G01*
X118138620Y-63034758D02*
X118138620Y-63934762D01*
G75*
G02*
X117888622Y-64184760I-249998J0D01*
G01*
X117363618Y-64184760D01*
G75*
G02*
X117113620Y-63934762I0J249998D01*
G01*
X117113620Y-63034758D01*
G75*
G02*
X117363618Y-62784760I249998J0D01*
G01*
X117888622Y-62784760D01*
G75*
G02*
X118138620Y-63034758I0J-249998D01*
G01*
G37*
%TD*%
%TO.C,R4*%
G36*
G01*
X158311002Y-52324700D02*
X157410998Y-52324700D01*
G75*
G02*
X157161000Y-52074702I0J249998D01*
G01*
X157161000Y-51549698D01*
G75*
G02*
X157410998Y-51299700I249998J0D01*
G01*
X158311002Y-51299700D01*
G75*
G02*
X158561000Y-51549698I0J-249998D01*
G01*
X158561000Y-52074702D01*
G75*
G02*
X158311002Y-52324700I-249998J0D01*
G01*
G37*
G36*
G01*
X158311002Y-50499700D02*
X157410998Y-50499700D01*
G75*
G02*
X157161000Y-50249702I0J249998D01*
G01*
X157161000Y-49724698D01*
G75*
G02*
X157410998Y-49474700I249998J0D01*
G01*
X158311002Y-49474700D01*
G75*
G02*
X158561000Y-49724698I0J-249998D01*
G01*
X158561000Y-50249702D01*
G75*
G02*
X158311002Y-50499700I-249998J0D01*
G01*
G37*
%TD*%
%TO.C,R5*%
G36*
G01*
X118345798Y-46532100D02*
X119245802Y-46532100D01*
G75*
G02*
X119495800Y-46782098I0J-249998D01*
G01*
X119495800Y-47307102D01*
G75*
G02*
X119245802Y-47557100I-249998J0D01*
G01*
X118345798Y-47557100D01*
G75*
G02*
X118095800Y-47307102I0J249998D01*
G01*
X118095800Y-46782098D01*
G75*
G02*
X118345798Y-46532100I249998J0D01*
G01*
G37*
G36*
G01*
X118345798Y-48357100D02*
X119245802Y-48357100D01*
G75*
G02*
X119495800Y-48607098I0J-249998D01*
G01*
X119495800Y-49132102D01*
G75*
G02*
X119245802Y-49382100I-249998J0D01*
G01*
X118345798Y-49382100D01*
G75*
G02*
X118095800Y-49132102I0J249998D01*
G01*
X118095800Y-48607098D01*
G75*
G02*
X118345798Y-48357100I249998J0D01*
G01*
G37*
%TD*%
%TO.C,R6*%
G36*
G01*
X178619998Y-48357100D02*
X179520002Y-48357100D01*
G75*
G02*
X179770000Y-48607098I0J-249998D01*
G01*
X179770000Y-49132102D01*
G75*
G02*
X179520002Y-49382100I-249998J0D01*
G01*
X178619998Y-49382100D01*
G75*
G02*
X178370000Y-49132102I0J249998D01*
G01*
X178370000Y-48607098D01*
G75*
G02*
X178619998Y-48357100I249998J0D01*
G01*
G37*
G36*
G01*
X178619998Y-46532100D02*
X179520002Y-46532100D01*
G75*
G02*
X179770000Y-46782098I0J-249998D01*
G01*
X179770000Y-47307102D01*
G75*
G02*
X179520002Y-47557100I-249998J0D01*
G01*
X178619998Y-47557100D01*
G75*
G02*
X178370000Y-47307102I0J249998D01*
G01*
X178370000Y-46782098D01*
G75*
G02*
X178619998Y-46532100I249998J0D01*
G01*
G37*
%TD*%
%TO.C,R7*%
G36*
G01*
X124325802Y-47557100D02*
X123425798Y-47557100D01*
G75*
G02*
X123175800Y-47307102I0J249998D01*
G01*
X123175800Y-46782098D01*
G75*
G02*
X123425798Y-46532100I249998J0D01*
G01*
X124325802Y-46532100D01*
G75*
G02*
X124575800Y-46782098I0J-249998D01*
G01*
X124575800Y-47307102D01*
G75*
G02*
X124325802Y-47557100I-249998J0D01*
G01*
G37*
G36*
G01*
X124325802Y-49382100D02*
X123425798Y-49382100D01*
G75*
G02*
X123175800Y-49132102I0J249998D01*
G01*
X123175800Y-48607098D01*
G75*
G02*
X123425798Y-48357100I249998J0D01*
G01*
X124325802Y-48357100D01*
G75*
G02*
X124575800Y-48607098I0J-249998D01*
G01*
X124575800Y-49132102D01*
G75*
G02*
X124325802Y-49382100I-249998J0D01*
G01*
G37*
%TD*%
%TO.C,R8*%
G36*
G01*
X184600002Y-47557100D02*
X183699998Y-47557100D01*
G75*
G02*
X183450000Y-47307102I0J249998D01*
G01*
X183450000Y-46782098D01*
G75*
G02*
X183699998Y-46532100I249998J0D01*
G01*
X184600002Y-46532100D01*
G75*
G02*
X184850000Y-46782098I0J-249998D01*
G01*
X184850000Y-47307102D01*
G75*
G02*
X184600002Y-47557100I-249998J0D01*
G01*
G37*
G36*
G01*
X184600002Y-49382100D02*
X183699998Y-49382100D01*
G75*
G02*
X183450000Y-49132102I0J249998D01*
G01*
X183450000Y-48607098D01*
G75*
G02*
X183699998Y-48357100I249998J0D01*
G01*
X184600002Y-48357100D01*
G75*
G02*
X184850000Y-48607098I0J-249998D01*
G01*
X184850000Y-49132102D01*
G75*
G02*
X184600002Y-49382100I-249998J0D01*
G01*
G37*
%TD*%
%TO.C,R9*%
G36*
G01*
X142628198Y-49474700D02*
X143528202Y-49474700D01*
G75*
G02*
X143778200Y-49724698I0J-249998D01*
G01*
X143778200Y-50249702D01*
G75*
G02*
X143528202Y-50499700I-249998J0D01*
G01*
X142628198Y-50499700D01*
G75*
G02*
X142378200Y-50249702I0J249998D01*
G01*
X142378200Y-49724698D01*
G75*
G02*
X142628198Y-49474700I249998J0D01*
G01*
G37*
G36*
G01*
X142628198Y-51299700D02*
X143528202Y-51299700D01*
G75*
G02*
X143778200Y-51549698I0J-249998D01*
G01*
X143778200Y-52074702D01*
G75*
G02*
X143528202Y-52324700I-249998J0D01*
G01*
X142628198Y-52324700D01*
G75*
G02*
X142378200Y-52074702I0J249998D01*
G01*
X142378200Y-51549698D01*
G75*
G02*
X142628198Y-51299700I249998J0D01*
G01*
G37*
%TD*%
%TO.C,R11*%
G36*
G01*
X146210887Y-48140198D02*
X146210887Y-49040202D01*
G75*
G02*
X145960889Y-49290200I-249998J0D01*
G01*
X145435885Y-49290200D01*
G75*
G02*
X145185887Y-49040202I0J249998D01*
G01*
X145185887Y-48140198D01*
G75*
G02*
X145435885Y-47890200I249998J0D01*
G01*
X145960889Y-47890200D01*
G75*
G02*
X146210887Y-48140198I0J-249998D01*
G01*
G37*
G36*
G01*
X148035887Y-48140198D02*
X148035887Y-49040202D01*
G75*
G02*
X147785889Y-49290200I-249998J0D01*
G01*
X147260885Y-49290200D01*
G75*
G02*
X147010887Y-49040202I0J249998D01*
G01*
X147010887Y-48140198D01*
G75*
G02*
X147260885Y-47890200I249998J0D01*
G01*
X147785889Y-47890200D01*
G75*
G02*
X148035887Y-48140198I0J-249998D01*
G01*
G37*
%TD*%
%TO.C,R12*%
G36*
G01*
X181731220Y-69344761D02*
X181731220Y-68444757D01*
G75*
G02*
X181981218Y-68194759I249998J0D01*
G01*
X182506222Y-68194759D01*
G75*
G02*
X182756220Y-68444757I0J-249998D01*
G01*
X182756220Y-69344761D01*
G75*
G02*
X182506222Y-69594759I-249998J0D01*
G01*
X181981218Y-69594759D01*
G75*
G02*
X181731220Y-69344761I0J249998D01*
G01*
G37*
G36*
G01*
X183556220Y-69344761D02*
X183556220Y-68444757D01*
G75*
G02*
X183806218Y-68194759I249998J0D01*
G01*
X184331222Y-68194759D01*
G75*
G02*
X184581220Y-68444757I0J-249998D01*
G01*
X184581220Y-69344761D01*
G75*
G02*
X184331222Y-69594759I-249998J0D01*
G01*
X183806218Y-69594759D01*
G75*
G02*
X183556220Y-69344761I0J249998D01*
G01*
G37*
%TD*%
%TO.C,R10*%
G36*
G01*
X184581220Y-63364757D02*
X184581220Y-64264761D01*
G75*
G02*
X184331222Y-64514759I-249998J0D01*
G01*
X183806218Y-64514759D01*
G75*
G02*
X183556220Y-64264761I0J249998D01*
G01*
X183556220Y-63364757D01*
G75*
G02*
X183806218Y-63114759I249998J0D01*
G01*
X184331222Y-63114759D01*
G75*
G02*
X184581220Y-63364757I0J-249998D01*
G01*
G37*
G36*
G01*
X182756220Y-63364757D02*
X182756220Y-64264761D01*
G75*
G02*
X182506222Y-64514759I-249998J0D01*
G01*
X181981218Y-64514759D01*
G75*
G02*
X181731220Y-64264761I0J249998D01*
G01*
X181731220Y-63364757D01*
G75*
G02*
X181981218Y-63114759I249998J0D01*
G01*
X182506222Y-63114759D01*
G75*
G02*
X182756220Y-63364757I0J-249998D01*
G01*
G37*
%TD*%
M02*
