M48
; DRILL file {KiCad 5.1.9} date Fri Apr  9 15:13:14 2021
; FORMAT={-:-/ absolute / inch / decimal}
; #@! TF.CreationDate,2021-04-09T15:13:14-03:00
; #@! TF.GenerationSoftware,Kicad,Pcbnew,5.1.9
; #@! TF.FileFunction,Plated,1,2,PTH
FMAT,2
INCH
T1C0.0157
T2C0.0197
T3C0.0236
T4C0.0315
T5C0.0394
T6C0.0630
T7C0.0787
T8C0.1260
%
G90
G05
T1
X4.5967Y-3.352
X4.754Y-3.202
X4.906Y-3.294
X4.906Y-3.335
X5.085Y-3.988
X5.086Y-4.154
X5.086Y-4.071
X5.2315Y-3.988
X5.232Y-4.154
X5.376Y-4.071
X5.378Y-3.988
X5.378Y-4.154
X5.4082Y-2.806
X5.56Y-2.605
X5.868Y-2.665
X5.903Y-2.835
X5.91Y-3.149
X5.963Y-3.149
X5.993Y-2.6106
X5.993Y-2.65
X6.02Y-3.25
X6.02Y-3.294
X6.02Y-3.335
X6.0367Y-2.9821
X6.058Y-3.156
X6.0761Y-2.9821
X6.0918Y-3.8974
X6.0918Y-4.0114
X6.0918Y-4.1253
X6.0918Y-4.2393
X6.0918Y-4.3492
X6.1154Y-2.9821
X6.128Y-3.151
X6.1874Y-3.8974
X6.1874Y-4.0114
X6.1874Y-4.1253
X6.1874Y-4.2393
X6.1874Y-4.3492
X6.236Y-2.6053
X6.236Y-2.6446
X6.236Y-2.684
X6.2829Y-4.3492
X6.3785Y-4.3492
X6.4456Y-3.111
X6.4456Y-3.1504
X6.474Y-2.855
X6.5224Y-3.111
X6.5224Y-3.1504
X6.5697Y-4.3492
X6.61Y-3.312
X6.61Y-3.613
X6.6652Y-4.3492
X6.718Y-3.142
X6.7608Y-3.8954
X6.7608Y-4.0088
X6.7608Y-4.1223
X6.7608Y-4.2357
X6.7608Y-4.3492
X6.8564Y-3.8954
X6.8564Y-4.0088
X6.8564Y-4.1223
X6.8564Y-4.2357
X6.8564Y-4.3492
X7.2468Y-2.5854
T2
X4.7845Y-2.596
X4.8122Y-2.5292
X4.8122Y-2.6628
X4.879Y-2.5015
X4.879Y-2.6905
X4.9458Y-2.5292
X4.9458Y-2.6628
X4.9735Y-2.596
X4.99Y-3.522
X5.232Y-3.646
X5.456Y-2.842
X5.793Y-3.397
X6.7896Y-3.2392
X7.1935Y-2.9728
X7.2212Y-2.906
X7.2212Y-3.0396
X7.288Y-2.8783
X7.288Y-3.0673
X7.3548Y-2.906
X7.3548Y-3.0396
X7.3825Y-2.9728
T3
X5.112Y-2.628
T4
X4.946Y-2.082
X4.946Y-2.182
X4.946Y-2.282
X4.946Y-2.382
X5.246Y-2.082
X5.246Y-2.182
X5.246Y-2.282
X5.246Y-2.382
X6.615Y-2.082
X6.615Y-2.182
X6.615Y-2.282
X6.615Y-2.382
X6.915Y-2.082
X6.915Y-2.182
X6.915Y-2.282
X6.915Y-2.382
T5
X4.4254Y-2.4994
X4.4254Y-2.5994
X4.4254Y-2.6994
X4.497Y-1.974
X4.497Y-2.0724
X4.5254Y-2.4994
X4.5254Y-2.5994
X4.5254Y-2.6994
X4.644Y-4.052
X4.644Y-4.152
X4.644Y-4.252
X4.677Y-1.646
X4.677Y-1.746
X4.777Y-1.646
X4.777Y-1.746
X4.877Y-1.646
X4.877Y-1.746
X5.513Y-1.7732
X5.563Y-1.8598
X5.5996Y-1.7232
X5.6496Y-1.8098
X5.6862Y-1.6732
X5.7362Y-1.7598
X6.12Y-1.7592
X6.17Y-1.6726
X6.2066Y-1.8092
X6.216Y-2.305
X6.216Y-2.405
X6.216Y-2.505
X6.2566Y-1.7226
X6.2932Y-1.8592
X6.316Y-2.305
X6.316Y-2.405
X6.316Y-2.505
X6.3432Y-1.7726
X6.568Y-2.8354
X6.668Y-2.8354
X6.768Y-2.8354
X6.868Y-2.8354
X7.05Y-1.646
X7.05Y-1.746
X7.15Y-1.646
X7.15Y-1.746
X7.25Y-1.646
X7.25Y-1.746
X7.3514Y-2.5124
X7.3514Y-2.6124
X7.3514Y-2.7124
X7.383Y-1.974
X7.383Y-2.0724
X7.4514Y-2.5124
X7.4514Y-2.6124
X7.4514Y-2.7124
T6
X5.557Y-3.7398
X6.157Y-3.7398
T7
X4.519Y-4.796
X4.519Y-5.643
X7.3536Y-4.796
X7.3536Y-5.643
T8
X4.879Y-2.596
X7.288Y-2.9728
T0
M30
