%TF.GenerationSoftware,KiCad,Pcbnew,5.1.9*%
%TF.CreationDate,2021-04-09T15:13:00-03:00*%
%TF.ProjectId,Autito Microcontroladores,41757469-746f-4204-9d69-63726f636f6e,rev?*%
%TF.SameCoordinates,Original*%
%TF.FileFunction,Legend,Bot*%
%TF.FilePolarity,Positive*%
%FSLAX46Y46*%
G04 Gerber Fmt 4.6, Leading zero omitted, Abs format (unit mm)*
G04 Created by KiCad (PCBNEW 5.1.9) date 2021-04-09 15:13:00*
%MOMM*%
%LPD*%
G01*
G04 APERTURE LIST*
%ADD10C,0.010000*%
G04 APERTURE END LIST*
D10*
%TO.C,G\u002A\u002A\u002A*%
G36*
X118883305Y-130409944D02*
G01*
X118882315Y-129852303D01*
X118879689Y-129406681D01*
X118874621Y-129058098D01*
X118866304Y-128791575D01*
X118853932Y-128592135D01*
X118836698Y-128444797D01*
X118813795Y-128334583D01*
X118784417Y-128246514D01*
X118764312Y-128200150D01*
X118538821Y-127858280D01*
X118225316Y-127597072D01*
X118043451Y-127504220D01*
X117805648Y-127437125D01*
X117492874Y-127391388D01*
X117155896Y-127370505D01*
X116845480Y-127377970D01*
X116645338Y-127407957D01*
X116311674Y-127523037D01*
X116022987Y-127680578D01*
X115816415Y-127859408D01*
X115787361Y-127897088D01*
X115705587Y-128021767D01*
X115640154Y-128147989D01*
X115589255Y-128291180D01*
X115551085Y-128466769D01*
X115523836Y-128690182D01*
X115505702Y-128976847D01*
X115494876Y-129342192D01*
X115489552Y-129801642D01*
X115487923Y-130370626D01*
X115487888Y-130454400D01*
X115487450Y-132327650D01*
X116217700Y-132365738D01*
X116221485Y-130727444D01*
X116224642Y-130132244D01*
X116231988Y-129649778D01*
X116244880Y-129265815D01*
X116264678Y-128966122D01*
X116292740Y-128736466D01*
X116330426Y-128562613D01*
X116379094Y-128430330D01*
X116440103Y-128325386D01*
X116452435Y-128308387D01*
X116652804Y-128138064D01*
X116924582Y-128037183D01*
X117231668Y-128007581D01*
X117537960Y-128051095D01*
X117807357Y-128169562D01*
X117893068Y-128235081D01*
X118090950Y-128411794D01*
X118154450Y-132327650D01*
X118884700Y-132365738D01*
X118883305Y-130409944D01*
G37*
X118883305Y-130409944D02*
X118882315Y-129852303D01*
X118879689Y-129406681D01*
X118874621Y-129058098D01*
X118866304Y-128791575D01*
X118853932Y-128592135D01*
X118836698Y-128444797D01*
X118813795Y-128334583D01*
X118784417Y-128246514D01*
X118764312Y-128200150D01*
X118538821Y-127858280D01*
X118225316Y-127597072D01*
X118043451Y-127504220D01*
X117805648Y-127437125D01*
X117492874Y-127391388D01*
X117155896Y-127370505D01*
X116845480Y-127377970D01*
X116645338Y-127407957D01*
X116311674Y-127523037D01*
X116022987Y-127680578D01*
X115816415Y-127859408D01*
X115787361Y-127897088D01*
X115705587Y-128021767D01*
X115640154Y-128147989D01*
X115589255Y-128291180D01*
X115551085Y-128466769D01*
X115523836Y-128690182D01*
X115505702Y-128976847D01*
X115494876Y-129342192D01*
X115489552Y-129801642D01*
X115487923Y-130370626D01*
X115487888Y-130454400D01*
X115487450Y-132327650D01*
X116217700Y-132365738D01*
X116221485Y-130727444D01*
X116224642Y-130132244D01*
X116231988Y-129649778D01*
X116244880Y-129265815D01*
X116264678Y-128966122D01*
X116292740Y-128736466D01*
X116330426Y-128562613D01*
X116379094Y-128430330D01*
X116440103Y-128325386D01*
X116452435Y-128308387D01*
X116652804Y-128138064D01*
X116924582Y-128037183D01*
X117231668Y-128007581D01*
X117537960Y-128051095D01*
X117807357Y-128169562D01*
X117893068Y-128235081D01*
X118090950Y-128411794D01*
X118154450Y-132327650D01*
X118884700Y-132365738D01*
X118883305Y-130409944D01*
G36*
X137934700Y-127406400D02*
G01*
X137648950Y-127406400D01*
X137469867Y-127414999D01*
X137385260Y-127449974D01*
X137363231Y-127525088D01*
X137363200Y-127529719D01*
X137355516Y-127598695D01*
X137313681Y-127611189D01*
X137209514Y-127563963D01*
X137093325Y-127498734D01*
X136754052Y-127369207D01*
X136410188Y-127357431D01*
X136092209Y-127460821D01*
X135893772Y-127621376D01*
X135711823Y-127889028D01*
X135684291Y-127940945D01*
X135589193Y-128142128D01*
X135532378Y-128321046D01*
X135504017Y-128524862D01*
X135496910Y-128726229D01*
X136157087Y-128726229D01*
X136185866Y-128438606D01*
X136246219Y-128221345D01*
X136249368Y-128214559D01*
X136412375Y-127986779D01*
X136623512Y-127874186D01*
X136870588Y-127880210D01*
X137093325Y-127977205D01*
X137299700Y-128103034D01*
X137299700Y-129863612D01*
X137042443Y-129979619D01*
X136777851Y-130053407D01*
X136555065Y-130009996D01*
X136358493Y-129845480D01*
X136321936Y-129799021D01*
X136242308Y-129620610D01*
X136187098Y-129356297D01*
X136158094Y-129045148D01*
X136157087Y-128726229D01*
X135496910Y-128726229D01*
X135494279Y-128800739D01*
X135493791Y-128854899D01*
X135519837Y-129348395D01*
X135609241Y-129745531D01*
X135767471Y-130062989D01*
X135962610Y-130284853D01*
X136237413Y-130474441D01*
X136531898Y-130554446D01*
X136865032Y-130526997D01*
X137188575Y-130422470D01*
X137239941Y-130412230D01*
X137272548Y-130446203D01*
X137290582Y-130545676D01*
X137298233Y-130731931D01*
X137299700Y-130987357D01*
X137299700Y-131597400D01*
X137934700Y-131597400D01*
X137934700Y-127406400D01*
G37*
X137934700Y-127406400D02*
X137648950Y-127406400D01*
X137469867Y-127414999D01*
X137385260Y-127449974D01*
X137363231Y-127525088D01*
X137363200Y-127529719D01*
X137355516Y-127598695D01*
X137313681Y-127611189D01*
X137209514Y-127563963D01*
X137093325Y-127498734D01*
X136754052Y-127369207D01*
X136410188Y-127357431D01*
X136092209Y-127460821D01*
X135893772Y-127621376D01*
X135711823Y-127889028D01*
X135684291Y-127940945D01*
X135589193Y-128142128D01*
X135532378Y-128321046D01*
X135504017Y-128524862D01*
X135496910Y-128726229D01*
X136157087Y-128726229D01*
X136185866Y-128438606D01*
X136246219Y-128221345D01*
X136249368Y-128214559D01*
X136412375Y-127986779D01*
X136623512Y-127874186D01*
X136870588Y-127880210D01*
X137093325Y-127977205D01*
X137299700Y-128103034D01*
X137299700Y-129863612D01*
X137042443Y-129979619D01*
X136777851Y-130053407D01*
X136555065Y-130009996D01*
X136358493Y-129845480D01*
X136321936Y-129799021D01*
X136242308Y-129620610D01*
X136187098Y-129356297D01*
X136158094Y-129045148D01*
X136157087Y-128726229D01*
X135496910Y-128726229D01*
X135494279Y-128800739D01*
X135493791Y-128854899D01*
X135519837Y-129348395D01*
X135609241Y-129745531D01*
X135767471Y-130062989D01*
X135962610Y-130284853D01*
X136237413Y-130474441D01*
X136531898Y-130554446D01*
X136865032Y-130526997D01*
X137188575Y-130422470D01*
X137239941Y-130412230D01*
X137272548Y-130446203D01*
X137290582Y-130545676D01*
X137298233Y-130731931D01*
X137299700Y-130987357D01*
X137299700Y-131597400D01*
X137934700Y-131597400D01*
X137934700Y-127406400D01*
G36*
X140026797Y-130550225D02*
G01*
X140357706Y-130447530D01*
X140606596Y-130260858D01*
X140778705Y-129982938D01*
X140879269Y-129606501D01*
X140907614Y-129327275D01*
X140933081Y-128866900D01*
X139251478Y-128866900D01*
X139286938Y-128602523D01*
X139384940Y-128281237D01*
X139576434Y-128034070D01*
X139748281Y-127920103D01*
X139897833Y-127875483D01*
X140093109Y-127874885D01*
X140357601Y-127920625D01*
X140714800Y-128015019D01*
X140716889Y-128015626D01*
X140807652Y-128032844D01*
X140846529Y-127994176D01*
X140849541Y-127870568D01*
X140843889Y-127785302D01*
X140820151Y-127607745D01*
X140761397Y-127509962D01*
X140635235Y-127444754D01*
X140601700Y-127432414D01*
X140389790Y-127384494D01*
X140113061Y-127358554D01*
X139820202Y-127355339D01*
X139559904Y-127375597D01*
X139395200Y-127413921D01*
X139141853Y-127572340D01*
X138917302Y-127817545D01*
X138755902Y-128109445D01*
X138726709Y-128194069D01*
X138662226Y-128526688D01*
X138636659Y-128922253D01*
X138650821Y-129322558D01*
X138658865Y-129373563D01*
X139259959Y-129373563D01*
X139318769Y-129294812D01*
X139469875Y-129258290D01*
X139728567Y-129248163D01*
X139815016Y-129247900D01*
X140361833Y-129247900D01*
X140319717Y-129486025D01*
X140228417Y-129762803D01*
X140081492Y-129954823D01*
X139901016Y-130056689D01*
X139709063Y-130063007D01*
X139527706Y-129968380D01*
X139379019Y-129767414D01*
X139358074Y-129721079D01*
X139278157Y-129510375D01*
X139259959Y-129373563D01*
X138658865Y-129373563D01*
X138705528Y-129669399D01*
X138706036Y-129671422D01*
X138849734Y-130002577D01*
X139084399Y-130271854D01*
X139384668Y-130462378D01*
X139725179Y-130557273D01*
X140026797Y-130550225D01*
G37*
X140026797Y-130550225D02*
X140357706Y-130447530D01*
X140606596Y-130260858D01*
X140778705Y-129982938D01*
X140879269Y-129606501D01*
X140907614Y-129327275D01*
X140933081Y-128866900D01*
X139251478Y-128866900D01*
X139286938Y-128602523D01*
X139384940Y-128281237D01*
X139576434Y-128034070D01*
X139748281Y-127920103D01*
X139897833Y-127875483D01*
X140093109Y-127874885D01*
X140357601Y-127920625D01*
X140714800Y-128015019D01*
X140716889Y-128015626D01*
X140807652Y-128032844D01*
X140846529Y-127994176D01*
X140849541Y-127870568D01*
X140843889Y-127785302D01*
X140820151Y-127607745D01*
X140761397Y-127509962D01*
X140635235Y-127444754D01*
X140601700Y-127432414D01*
X140389790Y-127384494D01*
X140113061Y-127358554D01*
X139820202Y-127355339D01*
X139559904Y-127375597D01*
X139395200Y-127413921D01*
X139141853Y-127572340D01*
X138917302Y-127817545D01*
X138755902Y-128109445D01*
X138726709Y-128194069D01*
X138662226Y-128526688D01*
X138636659Y-128922253D01*
X138650821Y-129322558D01*
X138658865Y-129373563D01*
X139259959Y-129373563D01*
X139318769Y-129294812D01*
X139469875Y-129258290D01*
X139728567Y-129248163D01*
X139815016Y-129247900D01*
X140361833Y-129247900D01*
X140319717Y-129486025D01*
X140228417Y-129762803D01*
X140081492Y-129954823D01*
X139901016Y-130056689D01*
X139709063Y-130063007D01*
X139527706Y-129968380D01*
X139379019Y-129767414D01*
X139358074Y-129721079D01*
X139278157Y-129510375D01*
X139259959Y-129373563D01*
X138658865Y-129373563D01*
X138705528Y-129669399D01*
X138706036Y-129671422D01*
X138849734Y-130002577D01*
X139084399Y-130271854D01*
X139384668Y-130462378D01*
X139725179Y-130557273D01*
X140026797Y-130550225D01*
G36*
X143649700Y-129823936D02*
G01*
X143649697Y-129260621D01*
X143652375Y-128812261D01*
X143661763Y-128466817D01*
X143681888Y-128212254D01*
X143716779Y-128036531D01*
X143770465Y-127927612D01*
X143846974Y-127873458D01*
X143950334Y-127862033D01*
X144084574Y-127881297D01*
X144253723Y-127919213D01*
X144284736Y-127926307D01*
X144358653Y-127883346D01*
X144411393Y-127720559D01*
X144413611Y-127708241D01*
X144432864Y-127550926D01*
X144397321Y-127470975D01*
X144277868Y-127421372D01*
X144227043Y-127406970D01*
X143938926Y-127356441D01*
X143653015Y-127355095D01*
X143427450Y-127402931D01*
X143290128Y-127489026D01*
X143173450Y-127595975D01*
X143137392Y-127642011D01*
X143108650Y-127700675D01*
X143086219Y-127786258D01*
X143069097Y-127913050D01*
X143056277Y-128095343D01*
X143046758Y-128347426D01*
X143039534Y-128683591D01*
X143033602Y-129118128D01*
X143027958Y-129665328D01*
X143027940Y-129667220D01*
X143009430Y-131597400D01*
X143649700Y-131597400D01*
X143649700Y-129823936D01*
G37*
X143649700Y-129823936D02*
X143649697Y-129260621D01*
X143652375Y-128812261D01*
X143661763Y-128466817D01*
X143681888Y-128212254D01*
X143716779Y-128036531D01*
X143770465Y-127927612D01*
X143846974Y-127873458D01*
X143950334Y-127862033D01*
X144084574Y-127881297D01*
X144253723Y-127919213D01*
X144284736Y-127926307D01*
X144358653Y-127883346D01*
X144411393Y-127720559D01*
X144413611Y-127708241D01*
X144432864Y-127550926D01*
X144397321Y-127470975D01*
X144277868Y-127421372D01*
X144227043Y-127406970D01*
X143938926Y-127356441D01*
X143653015Y-127355095D01*
X143427450Y-127402931D01*
X143290128Y-127489026D01*
X143173450Y-127595975D01*
X143137392Y-127642011D01*
X143108650Y-127700675D01*
X143086219Y-127786258D01*
X143069097Y-127913050D01*
X143056277Y-128095343D01*
X143046758Y-128347426D01*
X143039534Y-128683591D01*
X143033602Y-129118128D01*
X143027958Y-129665328D01*
X143027940Y-129667220D01*
X143009430Y-131597400D01*
X143649700Y-131597400D01*
X143649700Y-129823936D01*
G36*
X146220670Y-130526669D02*
G01*
X146482512Y-130481830D01*
X146617250Y-130433428D01*
X146761311Y-130342835D01*
X146870145Y-130230879D01*
X146949403Y-130078745D01*
X147004734Y-129867620D01*
X147041789Y-129578689D01*
X147066219Y-129193139D01*
X147077372Y-128901345D01*
X147110450Y-127888040D01*
X147269200Y-127851084D01*
X147398795Y-127779183D01*
X147448909Y-127633029D01*
X147438758Y-127478810D01*
X147351891Y-127388350D01*
X147169802Y-127348698D01*
X147035683Y-127343873D01*
X146836128Y-127363314D01*
X146702366Y-127439198D01*
X146640946Y-127507497D01*
X146511475Y-127672093D01*
X146308781Y-127527762D01*
X146038477Y-127402922D01*
X145718927Y-127355175D01*
X145404282Y-127388427D01*
X145237200Y-127450509D01*
X145007909Y-127637716D01*
X144857411Y-127913785D01*
X144794313Y-128261735D01*
X144792897Y-128327150D01*
X144797869Y-128364466D01*
X145427700Y-128364466D01*
X145475771Y-128104793D01*
X145607629Y-127929367D01*
X145804740Y-127847206D01*
X146048568Y-127867330D01*
X146259277Y-127959842D01*
X146358225Y-128027138D01*
X146413521Y-128105629D01*
X146437783Y-128231701D01*
X146443629Y-128441739D01*
X146443700Y-128491654D01*
X146441301Y-128717276D01*
X146425562Y-128846907D01*
X146383669Y-128911555D01*
X146302807Y-128942227D01*
X146253200Y-128952625D01*
X145948742Y-128964275D01*
X145698782Y-128877394D01*
X145521162Y-128704694D01*
X145433723Y-128458889D01*
X145427700Y-128364466D01*
X144797869Y-128364466D01*
X144842513Y-128699526D01*
X144990254Y-128991915D01*
X145234459Y-129202889D01*
X145573469Y-129331024D01*
X146005621Y-129374891D01*
X146012654Y-129374900D01*
X146443700Y-129374900D01*
X146443700Y-129587309D01*
X146389405Y-129806314D01*
X146235679Y-129961842D01*
X145996257Y-130048054D01*
X145684872Y-130059112D01*
X145429263Y-130018512D01*
X145221140Y-129987152D01*
X145104606Y-130024039D01*
X145055264Y-130145694D01*
X145047672Y-130276898D01*
X145065296Y-130394748D01*
X145143694Y-130459472D01*
X145284825Y-130497502D01*
X145580228Y-130536505D01*
X145906042Y-130545561D01*
X146220670Y-130526669D01*
G37*
X146220670Y-130526669D02*
X146482512Y-130481830D01*
X146617250Y-130433428D01*
X146761311Y-130342835D01*
X146870145Y-130230879D01*
X146949403Y-130078745D01*
X147004734Y-129867620D01*
X147041789Y-129578689D01*
X147066219Y-129193139D01*
X147077372Y-128901345D01*
X147110450Y-127888040D01*
X147269200Y-127851084D01*
X147398795Y-127779183D01*
X147448909Y-127633029D01*
X147438758Y-127478810D01*
X147351891Y-127388350D01*
X147169802Y-127348698D01*
X147035683Y-127343873D01*
X146836128Y-127363314D01*
X146702366Y-127439198D01*
X146640946Y-127507497D01*
X146511475Y-127672093D01*
X146308781Y-127527762D01*
X146038477Y-127402922D01*
X145718927Y-127355175D01*
X145404282Y-127388427D01*
X145237200Y-127450509D01*
X145007909Y-127637716D01*
X144857411Y-127913785D01*
X144794313Y-128261735D01*
X144792897Y-128327150D01*
X144797869Y-128364466D01*
X145427700Y-128364466D01*
X145475771Y-128104793D01*
X145607629Y-127929367D01*
X145804740Y-127847206D01*
X146048568Y-127867330D01*
X146259277Y-127959842D01*
X146358225Y-128027138D01*
X146413521Y-128105629D01*
X146437783Y-128231701D01*
X146443629Y-128441739D01*
X146443700Y-128491654D01*
X146441301Y-128717276D01*
X146425562Y-128846907D01*
X146383669Y-128911555D01*
X146302807Y-128942227D01*
X146253200Y-128952625D01*
X145948742Y-128964275D01*
X145698782Y-128877394D01*
X145521162Y-128704694D01*
X145433723Y-128458889D01*
X145427700Y-128364466D01*
X144797869Y-128364466D01*
X144842513Y-128699526D01*
X144990254Y-128991915D01*
X145234459Y-129202889D01*
X145573469Y-129331024D01*
X146005621Y-129374891D01*
X146012654Y-129374900D01*
X146443700Y-129374900D01*
X146443700Y-129587309D01*
X146389405Y-129806314D01*
X146235679Y-129961842D01*
X145996257Y-130048054D01*
X145684872Y-130059112D01*
X145429263Y-130018512D01*
X145221140Y-129987152D01*
X145104606Y-130024039D01*
X145055264Y-130145694D01*
X145047672Y-130276898D01*
X145065296Y-130394748D01*
X145143694Y-130459472D01*
X145284825Y-130497502D01*
X145580228Y-130536505D01*
X145906042Y-130545561D01*
X146220670Y-130526669D01*
G36*
X153810672Y-129930525D02*
G01*
X153813001Y-129479593D01*
X153819060Y-129068176D01*
X153828272Y-128714066D01*
X153840057Y-128435049D01*
X153853837Y-128248915D01*
X153867745Y-128175052D01*
X153962992Y-128117016D01*
X154150507Y-128117093D01*
X154177719Y-128120506D01*
X154341516Y-128135222D01*
X154421809Y-128105571D01*
X154460182Y-128009142D01*
X154469896Y-127963042D01*
X154507388Y-127716594D01*
X154493587Y-127560514D01*
X154419905Y-127465561D01*
X154308224Y-127412612D01*
X154025606Y-127352923D01*
X153716047Y-127347654D01*
X153431764Y-127394232D01*
X153262370Y-127464159D01*
X153104724Y-127605948D01*
X152995303Y-127783151D01*
X152992495Y-127790898D01*
X152967725Y-127931957D01*
X152948035Y-128196247D01*
X152933559Y-128580098D01*
X152924426Y-129079836D01*
X152920768Y-129691791D01*
X152920700Y-129797126D01*
X152920700Y-131597400D01*
X153809700Y-131597400D01*
X153810672Y-129930525D01*
G37*
X153810672Y-129930525D02*
X153813001Y-129479593D01*
X153819060Y-129068176D01*
X153828272Y-128714066D01*
X153840057Y-128435049D01*
X153853837Y-128248915D01*
X153867745Y-128175052D01*
X153962992Y-128117016D01*
X154150507Y-128117093D01*
X154177719Y-128120506D01*
X154341516Y-128135222D01*
X154421809Y-128105571D01*
X154460182Y-128009142D01*
X154469896Y-127963042D01*
X154507388Y-127716594D01*
X154493587Y-127560514D01*
X154419905Y-127465561D01*
X154308224Y-127412612D01*
X154025606Y-127352923D01*
X153716047Y-127347654D01*
X153431764Y-127394232D01*
X153262370Y-127464159D01*
X153104724Y-127605948D01*
X152995303Y-127783151D01*
X152992495Y-127790898D01*
X152967725Y-127931957D01*
X152948035Y-128196247D01*
X152933559Y-128580098D01*
X152924426Y-129079836D01*
X152920768Y-129691791D01*
X152920700Y-129797126D01*
X152920700Y-131597400D01*
X153809700Y-131597400D01*
X153810672Y-129930525D01*
G36*
X162832697Y-130557207D02*
G01*
X163176266Y-130451297D01*
X163446498Y-130244674D01*
X163639381Y-129941439D01*
X163750903Y-129545695D01*
X163778845Y-129168525D01*
X163779200Y-128803400D01*
X162177932Y-128803400D01*
X162219431Y-128628775D01*
X162330900Y-128365118D01*
X162510513Y-128172833D01*
X162678160Y-128092714D01*
X162870271Y-128081894D01*
X163131610Y-128117731D01*
X163416893Y-128191974D01*
X163604575Y-128261517D01*
X163666447Y-128274238D01*
X163699997Y-128228508D01*
X163713584Y-128099500D01*
X163715700Y-127931387D01*
X163710723Y-127717026D01*
X163686364Y-127592250D01*
X163628481Y-127519751D01*
X163541075Y-127470755D01*
X163393938Y-127427706D01*
X163165310Y-127390104D01*
X162900685Y-127365144D01*
X162858450Y-127362824D01*
X162560605Y-127356520D01*
X162344950Y-127375818D01*
X162168296Y-127426078D01*
X162095905Y-127457444D01*
X161761679Y-127678927D01*
X161519140Y-127986861D01*
X161367932Y-128382013D01*
X161307703Y-128865152D01*
X161312599Y-129158040D01*
X161336543Y-129311400D01*
X162175825Y-129311400D01*
X162564762Y-129311400D01*
X162780700Y-129316070D01*
X162898360Y-129336093D01*
X162946306Y-129380495D01*
X162953700Y-129434267D01*
X162911008Y-129683606D01*
X162801109Y-129847646D01*
X162651263Y-129923306D01*
X162488733Y-129907503D01*
X162340780Y-129797154D01*
X162234665Y-129589178D01*
X162217055Y-129517555D01*
X162175825Y-129311400D01*
X161336543Y-129311400D01*
X161385371Y-129624140D01*
X161542238Y-130002768D01*
X161779264Y-130288947D01*
X162092514Y-130477699D01*
X162419800Y-130558302D01*
X162832697Y-130557207D01*
G37*
X162832697Y-130557207D02*
X163176266Y-130451297D01*
X163446498Y-130244674D01*
X163639381Y-129941439D01*
X163750903Y-129545695D01*
X163778845Y-129168525D01*
X163779200Y-128803400D01*
X162177932Y-128803400D01*
X162219431Y-128628775D01*
X162330900Y-128365118D01*
X162510513Y-128172833D01*
X162678160Y-128092714D01*
X162870271Y-128081894D01*
X163131610Y-128117731D01*
X163416893Y-128191974D01*
X163604575Y-128261517D01*
X163666447Y-128274238D01*
X163699997Y-128228508D01*
X163713584Y-128099500D01*
X163715700Y-127931387D01*
X163710723Y-127717026D01*
X163686364Y-127592250D01*
X163628481Y-127519751D01*
X163541075Y-127470755D01*
X163393938Y-127427706D01*
X163165310Y-127390104D01*
X162900685Y-127365144D01*
X162858450Y-127362824D01*
X162560605Y-127356520D01*
X162344950Y-127375818D01*
X162168296Y-127426078D01*
X162095905Y-127457444D01*
X161761679Y-127678927D01*
X161519140Y-127986861D01*
X161367932Y-128382013D01*
X161307703Y-128865152D01*
X161312599Y-129158040D01*
X161336543Y-129311400D01*
X162175825Y-129311400D01*
X162564762Y-129311400D01*
X162780700Y-129316070D01*
X162898360Y-129336093D01*
X162946306Y-129380495D01*
X162953700Y-129434267D01*
X162911008Y-129683606D01*
X162801109Y-129847646D01*
X162651263Y-129923306D01*
X162488733Y-129907503D01*
X162340780Y-129797154D01*
X162234665Y-129589178D01*
X162217055Y-129517555D01*
X162175825Y-129311400D01*
X161336543Y-129311400D01*
X161385371Y-129624140D01*
X161542238Y-130002768D01*
X161779264Y-130288947D01*
X162092514Y-130477699D01*
X162419800Y-130558302D01*
X162832697Y-130557207D01*
G36*
X168541700Y-130517900D02*
G01*
X169176700Y-130517900D01*
X169176700Y-129882900D01*
X168541700Y-129882900D01*
X168541700Y-129065176D01*
X168545334Y-128689652D01*
X168561238Y-128423762D01*
X168596910Y-128250230D01*
X168659850Y-128151780D01*
X168757555Y-128111135D01*
X168897526Y-128111020D01*
X168953351Y-128116824D01*
X169081285Y-128126469D01*
X169159408Y-128101031D01*
X169207711Y-128014816D01*
X169246185Y-127842129D01*
X169268608Y-127711619D01*
X169286379Y-127558227D01*
X169250635Y-127478779D01*
X169131513Y-127428476D01*
X169067778Y-127410348D01*
X168733804Y-127353349D01*
X168398905Y-127357031D01*
X168113772Y-127419646D01*
X168054082Y-127445345D01*
X167913829Y-127531716D01*
X167809658Y-127645386D01*
X167736549Y-127804854D01*
X167689479Y-128028621D01*
X167663427Y-128335186D01*
X167653371Y-128743051D01*
X167652700Y-128924122D01*
X167652700Y-129882900D01*
X167462200Y-129882900D01*
X167349428Y-129889837D01*
X167293193Y-129932487D01*
X167273839Y-130043611D01*
X167271700Y-130200400D01*
X167275861Y-130388353D01*
X167301452Y-130482078D01*
X167368126Y-130514335D01*
X167462200Y-130517900D01*
X167581770Y-130527018D01*
X167636788Y-130577972D01*
X167652289Y-130706166D01*
X167653032Y-130787775D01*
X167653365Y-131057650D01*
X168097532Y-131258934D01*
X168541700Y-131460218D01*
X168541700Y-130517900D01*
G37*
X168541700Y-130517900D02*
X169176700Y-130517900D01*
X169176700Y-129882900D01*
X168541700Y-129882900D01*
X168541700Y-129065176D01*
X168545334Y-128689652D01*
X168561238Y-128423762D01*
X168596910Y-128250230D01*
X168659850Y-128151780D01*
X168757555Y-128111135D01*
X168897526Y-128111020D01*
X168953351Y-128116824D01*
X169081285Y-128126469D01*
X169159408Y-128101031D01*
X169207711Y-128014816D01*
X169246185Y-127842129D01*
X169268608Y-127711619D01*
X169286379Y-127558227D01*
X169250635Y-127478779D01*
X169131513Y-127428476D01*
X169067778Y-127410348D01*
X168733804Y-127353349D01*
X168398905Y-127357031D01*
X168113772Y-127419646D01*
X168054082Y-127445345D01*
X167913829Y-127531716D01*
X167809658Y-127645386D01*
X167736549Y-127804854D01*
X167689479Y-128028621D01*
X167663427Y-128335186D01*
X167653371Y-128743051D01*
X167652700Y-128924122D01*
X167652700Y-129882900D01*
X167462200Y-129882900D01*
X167349428Y-129889837D01*
X167293193Y-129932487D01*
X167273839Y-130043611D01*
X167271700Y-130200400D01*
X167275861Y-130388353D01*
X167301452Y-130482078D01*
X167368126Y-130514335D01*
X167462200Y-130517900D01*
X167581770Y-130527018D01*
X167636788Y-130577972D01*
X167652289Y-130706166D01*
X167653032Y-130787775D01*
X167653365Y-131057650D01*
X168097532Y-131258934D01*
X168541700Y-131460218D01*
X168541700Y-130517900D01*
G36*
X170995032Y-130564343D02*
G01*
X171317707Y-130518333D01*
X171570026Y-130427940D01*
X171760745Y-130279478D01*
X171898618Y-130059261D01*
X171992402Y-129753603D01*
X172050852Y-129348819D01*
X172081381Y-128866191D01*
X172095924Y-128515150D01*
X172109707Y-128271437D01*
X172126796Y-128115471D01*
X172151257Y-128027672D01*
X172187159Y-127988458D01*
X172238566Y-127978249D01*
X172265873Y-127977900D01*
X172359134Y-127964075D01*
X172402715Y-127899866D01*
X172414911Y-127751177D01*
X172415200Y-127699557D01*
X172404741Y-127518999D01*
X172361770Y-127425999D01*
X172272325Y-127382924D01*
X171958398Y-127339520D01*
X171687042Y-127380663D01*
X171495381Y-127494947D01*
X171343335Y-127646993D01*
X171043005Y-127494947D01*
X170680636Y-127369169D01*
X170328001Y-127356697D01*
X170007292Y-127458302D01*
X170006115Y-127458932D01*
X169766474Y-127656384D01*
X169616672Y-127941794D01*
X169558451Y-128311640D01*
X169557700Y-128364394D01*
X169565514Y-128422400D01*
X170446700Y-128422400D01*
X170480326Y-128214573D01*
X170567039Y-128054918D01*
X170685588Y-127979686D01*
X170707275Y-127977900D01*
X170801606Y-128000681D01*
X170956659Y-128056916D01*
X170991871Y-128071323D01*
X171121379Y-128131961D01*
X171185378Y-128200130D01*
X171203379Y-128316756D01*
X171196206Y-128499948D01*
X171176950Y-128835150D01*
X170914880Y-128854295D01*
X170671994Y-128835785D01*
X170521045Y-128731965D01*
X170452862Y-128534373D01*
X170446700Y-128422400D01*
X169565514Y-128422400D01*
X169607763Y-128736022D01*
X169756199Y-129028357D01*
X170000378Y-129239099D01*
X170337671Y-129365944D01*
X170748325Y-129406650D01*
X170989153Y-129410654D01*
X171128941Y-129426819D01*
X171193510Y-129461378D01*
X171208700Y-129517775D01*
X171166150Y-129640922D01*
X171072889Y-129764711D01*
X170994407Y-129831228D01*
X170903077Y-129868178D01*
X170766330Y-129880401D01*
X170551597Y-129872735D01*
X170409531Y-129863291D01*
X169881982Y-129826061D01*
X169839191Y-130111414D01*
X169819390Y-130288145D01*
X169818837Y-130404781D01*
X169825461Y-130425829D01*
X169924196Y-130467427D01*
X170113810Y-130506850D01*
X170358198Y-130539820D01*
X170621256Y-130562063D01*
X170866880Y-130569301D01*
X170995032Y-130564343D01*
G37*
X170995032Y-130564343D02*
X171317707Y-130518333D01*
X171570026Y-130427940D01*
X171760745Y-130279478D01*
X171898618Y-130059261D01*
X171992402Y-129753603D01*
X172050852Y-129348819D01*
X172081381Y-128866191D01*
X172095924Y-128515150D01*
X172109707Y-128271437D01*
X172126796Y-128115471D01*
X172151257Y-128027672D01*
X172187159Y-127988458D01*
X172238566Y-127978249D01*
X172265873Y-127977900D01*
X172359134Y-127964075D01*
X172402715Y-127899866D01*
X172414911Y-127751177D01*
X172415200Y-127699557D01*
X172404741Y-127518999D01*
X172361770Y-127425999D01*
X172272325Y-127382924D01*
X171958398Y-127339520D01*
X171687042Y-127380663D01*
X171495381Y-127494947D01*
X171343335Y-127646993D01*
X171043005Y-127494947D01*
X170680636Y-127369169D01*
X170328001Y-127356697D01*
X170007292Y-127458302D01*
X170006115Y-127458932D01*
X169766474Y-127656384D01*
X169616672Y-127941794D01*
X169558451Y-128311640D01*
X169557700Y-128364394D01*
X169565514Y-128422400D01*
X170446700Y-128422400D01*
X170480326Y-128214573D01*
X170567039Y-128054918D01*
X170685588Y-127979686D01*
X170707275Y-127977900D01*
X170801606Y-128000681D01*
X170956659Y-128056916D01*
X170991871Y-128071323D01*
X171121379Y-128131961D01*
X171185378Y-128200130D01*
X171203379Y-128316756D01*
X171196206Y-128499948D01*
X171176950Y-128835150D01*
X170914880Y-128854295D01*
X170671994Y-128835785D01*
X170521045Y-128731965D01*
X170452862Y-128534373D01*
X170446700Y-128422400D01*
X169565514Y-128422400D01*
X169607763Y-128736022D01*
X169756199Y-129028357D01*
X170000378Y-129239099D01*
X170337671Y-129365944D01*
X170748325Y-129406650D01*
X170989153Y-129410654D01*
X171128941Y-129426819D01*
X171193510Y-129461378D01*
X171208700Y-129517775D01*
X171166150Y-129640922D01*
X171072889Y-129764711D01*
X170994407Y-129831228D01*
X170903077Y-129868178D01*
X170766330Y-129880401D01*
X170551597Y-129872735D01*
X170409531Y-129863291D01*
X169881982Y-129826061D01*
X169839191Y-130111414D01*
X169819390Y-130288145D01*
X169818837Y-130404781D01*
X169825461Y-130425829D01*
X169924196Y-130467427D01*
X170113810Y-130506850D01*
X170358198Y-130539820D01*
X170621256Y-130562063D01*
X170866880Y-130569301D01*
X170995032Y-130564343D01*
G36*
X174315138Y-130549335D02*
G01*
X174640108Y-130440614D01*
X174898809Y-130251263D01*
X175071130Y-129993782D01*
X175120632Y-129833611D01*
X175132448Y-129717336D01*
X175088323Y-129648315D01*
X174959396Y-129593787D01*
X174890682Y-129572598D01*
X174705429Y-129515473D01*
X174564224Y-129469112D01*
X174536723Y-129459166D01*
X174448644Y-129485170D01*
X174387622Y-129586834D01*
X174268968Y-129760138D01*
X174096690Y-129852849D01*
X173931004Y-129848549D01*
X173802289Y-129746357D01*
X173704683Y-129551285D01*
X173642530Y-129294601D01*
X173620173Y-129007572D01*
X173641954Y-128721466D01*
X173712217Y-128467551D01*
X173732923Y-128422473D01*
X173861194Y-128228113D01*
X174023363Y-128113647D01*
X174238594Y-128075340D01*
X174526051Y-128109458D01*
X174869089Y-128201080D01*
X174951084Y-128213553D01*
X174999594Y-128168237D01*
X175032151Y-128038073D01*
X175049271Y-127922972D01*
X175067967Y-127728016D01*
X175066946Y-127584836D01*
X175057085Y-127544137D01*
X174961333Y-127482310D01*
X174773052Y-127424555D01*
X174526679Y-127377955D01*
X174256650Y-127349595D01*
X174085705Y-127344295D01*
X173767737Y-127373940D01*
X173487011Y-127450919D01*
X173455578Y-127464383D01*
X173247510Y-127592469D01*
X173061815Y-127759986D01*
X173029636Y-127798840D01*
X172907159Y-128014567D01*
X172795848Y-128305489D01*
X172711725Y-128619892D01*
X172670813Y-128906065D01*
X172669200Y-128962150D01*
X172697195Y-129229429D01*
X172770712Y-129537415D01*
X172874043Y-129834976D01*
X172991484Y-130070978D01*
X173024415Y-130118616D01*
X173253305Y-130345002D01*
X173542467Y-130488751D01*
X173917786Y-130562425D01*
X173944007Y-130564927D01*
X174315138Y-130549335D01*
G37*
X174315138Y-130549335D02*
X174640108Y-130440614D01*
X174898809Y-130251263D01*
X175071130Y-129993782D01*
X175120632Y-129833611D01*
X175132448Y-129717336D01*
X175088323Y-129648315D01*
X174959396Y-129593787D01*
X174890682Y-129572598D01*
X174705429Y-129515473D01*
X174564224Y-129469112D01*
X174536723Y-129459166D01*
X174448644Y-129485170D01*
X174387622Y-129586834D01*
X174268968Y-129760138D01*
X174096690Y-129852849D01*
X173931004Y-129848549D01*
X173802289Y-129746357D01*
X173704683Y-129551285D01*
X173642530Y-129294601D01*
X173620173Y-129007572D01*
X173641954Y-128721466D01*
X173712217Y-128467551D01*
X173732923Y-128422473D01*
X173861194Y-128228113D01*
X174023363Y-128113647D01*
X174238594Y-128075340D01*
X174526051Y-128109458D01*
X174869089Y-128201080D01*
X174951084Y-128213553D01*
X174999594Y-128168237D01*
X175032151Y-128038073D01*
X175049271Y-127922972D01*
X175067967Y-127728016D01*
X175066946Y-127584836D01*
X175057085Y-127544137D01*
X174961333Y-127482310D01*
X174773052Y-127424555D01*
X174526679Y-127377955D01*
X174256650Y-127349595D01*
X174085705Y-127344295D01*
X173767737Y-127373940D01*
X173487011Y-127450919D01*
X173455578Y-127464383D01*
X173247510Y-127592469D01*
X173061815Y-127759986D01*
X173029636Y-127798840D01*
X172907159Y-128014567D01*
X172795848Y-128305489D01*
X172711725Y-128619892D01*
X172670813Y-128906065D01*
X172669200Y-128962150D01*
X172697195Y-129229429D01*
X172770712Y-129537415D01*
X172874043Y-129834976D01*
X172991484Y-130070978D01*
X173024415Y-130118616D01*
X173253305Y-130345002D01*
X173542467Y-130488751D01*
X173917786Y-130562425D01*
X173944007Y-130564927D01*
X174315138Y-130549335D01*
G36*
X178866849Y-130498881D02*
G01*
X179176634Y-130348993D01*
X179432517Y-130122677D01*
X179612162Y-129822746D01*
X179651405Y-129706304D01*
X179696252Y-129443429D01*
X179714428Y-129109619D01*
X179706080Y-128758074D01*
X179671353Y-128441996D01*
X179647597Y-128327236D01*
X179536239Y-128059976D01*
X179352550Y-127792858D01*
X179130689Y-127567660D01*
X178913968Y-127429888D01*
X178679944Y-127371010D01*
X178384574Y-127348634D01*
X178083778Y-127362608D01*
X177833477Y-127412785D01*
X177780950Y-127432903D01*
X177493968Y-127626915D01*
X177268237Y-127911198D01*
X177108199Y-128262435D01*
X177018294Y-128657312D01*
X177013538Y-128786152D01*
X177949136Y-128786152D01*
X177973788Y-128497185D01*
X178017243Y-128305514D01*
X178086367Y-128181999D01*
X178093367Y-128174017D01*
X178263606Y-128062789D01*
X178451842Y-128055411D01*
X178600236Y-128139508D01*
X178711386Y-128322805D01*
X178785513Y-128594989D01*
X178815696Y-128921567D01*
X178806598Y-129168175D01*
X178764060Y-129478643D01*
X178698132Y-129683770D01*
X178598976Y-129804490D01*
X178483531Y-129855800D01*
X178275037Y-129855773D01*
X178115501Y-129741768D01*
X178006934Y-129517809D01*
X177951348Y-129187924D01*
X177949136Y-128786152D01*
X177013538Y-128786152D01*
X177002967Y-129072511D01*
X177066657Y-129484717D01*
X177213808Y-129870614D01*
X177291211Y-130003471D01*
X177535442Y-130277908D01*
X177837460Y-130461855D01*
X178174925Y-130558124D01*
X178525500Y-130569529D01*
X178866849Y-130498881D01*
G37*
X178866849Y-130498881D02*
X179176634Y-130348993D01*
X179432517Y-130122677D01*
X179612162Y-129822746D01*
X179651405Y-129706304D01*
X179696252Y-129443429D01*
X179714428Y-129109619D01*
X179706080Y-128758074D01*
X179671353Y-128441996D01*
X179647597Y-128327236D01*
X179536239Y-128059976D01*
X179352550Y-127792858D01*
X179130689Y-127567660D01*
X178913968Y-127429888D01*
X178679944Y-127371010D01*
X178384574Y-127348634D01*
X178083778Y-127362608D01*
X177833477Y-127412785D01*
X177780950Y-127432903D01*
X177493968Y-127626915D01*
X177268237Y-127911198D01*
X177108199Y-128262435D01*
X177018294Y-128657312D01*
X177013538Y-128786152D01*
X177949136Y-128786152D01*
X177973788Y-128497185D01*
X178017243Y-128305514D01*
X178086367Y-128181999D01*
X178093367Y-128174017D01*
X178263606Y-128062789D01*
X178451842Y-128055411D01*
X178600236Y-128139508D01*
X178711386Y-128322805D01*
X178785513Y-128594989D01*
X178815696Y-128921567D01*
X178806598Y-129168175D01*
X178764060Y-129478643D01*
X178698132Y-129683770D01*
X178598976Y-129804490D01*
X178483531Y-129855800D01*
X178275037Y-129855773D01*
X178115501Y-129741768D01*
X178006934Y-129517809D01*
X177951348Y-129187924D01*
X177949136Y-128786152D01*
X177013538Y-128786152D01*
X177002967Y-129072511D01*
X177066657Y-129484717D01*
X177213808Y-129870614D01*
X177291211Y-130003471D01*
X177535442Y-130277908D01*
X177837460Y-130461855D01*
X178174925Y-130558124D01*
X178525500Y-130569529D01*
X178866849Y-130498881D01*
G36*
X121814066Y-130572710D02*
G01*
X122853450Y-128780129D01*
X122870313Y-130569765D01*
X122887177Y-132359400D01*
X123583700Y-132359400D01*
X123583700Y-127399764D01*
X122916950Y-127438150D01*
X121869200Y-129213332D01*
X120821450Y-130988513D01*
X120804586Y-129197457D01*
X120787722Y-127406400D01*
X120437468Y-127406400D01*
X120205521Y-127421019D01*
X120076096Y-127462633D01*
X120056668Y-127486001D01*
X120050202Y-127565609D01*
X120045077Y-127757702D01*
X120041377Y-128047774D01*
X120039182Y-128421315D01*
X120038574Y-128863819D01*
X120039637Y-129360777D01*
X120042450Y-129897681D01*
X120042786Y-129946626D01*
X120059450Y-132327650D01*
X120417066Y-132346470D01*
X120774683Y-132365290D01*
X121814066Y-130572710D01*
G37*
X121814066Y-130572710D02*
X122853450Y-128780129D01*
X122870313Y-130569765D01*
X122887177Y-132359400D01*
X123583700Y-132359400D01*
X123583700Y-127399764D01*
X122916950Y-127438150D01*
X121869200Y-129213332D01*
X120821450Y-130988513D01*
X120804586Y-129197457D01*
X120787722Y-127406400D01*
X120437468Y-127406400D01*
X120205521Y-127421019D01*
X120076096Y-127462633D01*
X120056668Y-127486001D01*
X120050202Y-127565609D01*
X120045077Y-127757702D01*
X120041377Y-128047774D01*
X120039182Y-128421315D01*
X120038574Y-128863819D01*
X120039637Y-129360777D01*
X120042450Y-129897681D01*
X120042786Y-129946626D01*
X120059450Y-132327650D01*
X120417066Y-132346470D01*
X120774683Y-132365290D01*
X121814066Y-130572710D01*
G36*
X127774700Y-131537125D02*
G01*
X126774575Y-131519638D01*
X125774450Y-131502150D01*
X125737808Y-130394516D01*
X127488950Y-130359150D01*
X127488950Y-129533650D01*
X126615825Y-129515984D01*
X125742700Y-129498317D01*
X125742700Y-128295400D01*
X127844002Y-128295400D01*
X127806450Y-127438150D01*
X126265016Y-127421143D01*
X125759221Y-127417001D01*
X125367945Y-127417425D01*
X125078769Y-127422920D01*
X124879278Y-127433989D01*
X124757055Y-127451134D01*
X124699683Y-127474858D01*
X124692603Y-127484869D01*
X124686038Y-127564739D01*
X124680823Y-127757087D01*
X124677042Y-128047394D01*
X124674780Y-128421145D01*
X124674122Y-128863821D01*
X124675150Y-129360907D01*
X124677951Y-129897886D01*
X124678286Y-129946626D01*
X124694950Y-132327650D01*
X127774700Y-132361658D01*
X127774700Y-131537125D01*
G37*
X127774700Y-131537125D02*
X126774575Y-131519638D01*
X125774450Y-131502150D01*
X125737808Y-130394516D01*
X127488950Y-130359150D01*
X127488950Y-129533650D01*
X126615825Y-129515984D01*
X125742700Y-129498317D01*
X125742700Y-128295400D01*
X127844002Y-128295400D01*
X127806450Y-127438150D01*
X126265016Y-127421143D01*
X125759221Y-127417001D01*
X125367945Y-127417425D01*
X125078769Y-127422920D01*
X124879278Y-127433989D01*
X124757055Y-127451134D01*
X124699683Y-127474858D01*
X124692603Y-127484869D01*
X124686038Y-127564739D01*
X124680823Y-127757087D01*
X124677042Y-128047394D01*
X124674780Y-128421145D01*
X124674122Y-128863821D01*
X124675150Y-129360907D01*
X124677951Y-129897886D01*
X124678286Y-129946626D01*
X124694950Y-132327650D01*
X127774700Y-132361658D01*
X127774700Y-131537125D01*
G36*
X129727325Y-132350203D02*
G01*
X130146344Y-132341440D01*
X130460795Y-132331621D01*
X130693092Y-132317834D01*
X130865653Y-132297168D01*
X131000895Y-132266713D01*
X131121235Y-132223555D01*
X131249089Y-132164786D01*
X131283159Y-132148144D01*
X131617938Y-131930432D01*
X131842238Y-131655003D01*
X131962616Y-131311188D01*
X131988641Y-131000005D01*
X131932971Y-130550257D01*
X131770604Y-130162200D01*
X131505278Y-129844445D01*
X131476109Y-129819282D01*
X131224113Y-129607718D01*
X131690156Y-128564600D01*
X131839819Y-128226426D01*
X131969537Y-127927218D01*
X132071004Y-127686643D01*
X132135910Y-127524365D01*
X132156200Y-127461469D01*
X132096984Y-127435245D01*
X131935824Y-127419963D01*
X131697453Y-127417496D01*
X131606367Y-127419803D01*
X131056534Y-127438150D01*
X130231024Y-129374900D01*
X129619507Y-129374900D01*
X129601978Y-128406525D01*
X129584450Y-127438150D01*
X128536700Y-127401264D01*
X128536700Y-131533900D01*
X129616200Y-131533900D01*
X129616200Y-130200400D01*
X129993066Y-130200400D01*
X130228286Y-130210591D01*
X130434146Y-130236823D01*
X130529495Y-130261066D01*
X130731575Y-130402421D01*
X130858938Y-130634856D01*
X130901816Y-130940315D01*
X130901715Y-130949164D01*
X130881791Y-131160115D01*
X130815627Y-131301609D01*
X130729428Y-131389556D01*
X130619487Y-131466955D01*
X130489517Y-131511016D01*
X130301169Y-131530380D01*
X130088909Y-131533900D01*
X129616200Y-131533900D01*
X128536700Y-131533900D01*
X128536700Y-132373095D01*
X129727325Y-132350203D01*
G37*
X129727325Y-132350203D02*
X130146344Y-132341440D01*
X130460795Y-132331621D01*
X130693092Y-132317834D01*
X130865653Y-132297168D01*
X131000895Y-132266713D01*
X131121235Y-132223555D01*
X131249089Y-132164786D01*
X131283159Y-132148144D01*
X131617938Y-131930432D01*
X131842238Y-131655003D01*
X131962616Y-131311188D01*
X131988641Y-131000005D01*
X131932971Y-130550257D01*
X131770604Y-130162200D01*
X131505278Y-129844445D01*
X131476109Y-129819282D01*
X131224113Y-129607718D01*
X131690156Y-128564600D01*
X131839819Y-128226426D01*
X131969537Y-127927218D01*
X132071004Y-127686643D01*
X132135910Y-127524365D01*
X132156200Y-127461469D01*
X132096984Y-127435245D01*
X131935824Y-127419963D01*
X131697453Y-127417496D01*
X131606367Y-127419803D01*
X131056534Y-127438150D01*
X130231024Y-129374900D01*
X129619507Y-129374900D01*
X129601978Y-128406525D01*
X129584450Y-127438150D01*
X128536700Y-127401264D01*
X128536700Y-131533900D01*
X129616200Y-131533900D01*
X129616200Y-130200400D01*
X129993066Y-130200400D01*
X130228286Y-130210591D01*
X130434146Y-130236823D01*
X130529495Y-130261066D01*
X130731575Y-130402421D01*
X130858938Y-130634856D01*
X130901816Y-130940315D01*
X130901715Y-130949164D01*
X130881791Y-131160115D01*
X130815627Y-131301609D01*
X130729428Y-131389556D01*
X130619487Y-131466955D01*
X130489517Y-131511016D01*
X130301169Y-131530380D01*
X130088909Y-131533900D01*
X129616200Y-131533900D01*
X128536700Y-131533900D01*
X128536700Y-132373095D01*
X129727325Y-132350203D01*
G36*
X151988131Y-129551728D02*
G01*
X152134940Y-129063635D01*
X152269198Y-128614159D01*
X152386658Y-128217765D01*
X152483069Y-127888923D01*
X152554184Y-127642098D01*
X152595753Y-127491759D01*
X152605001Y-127451244D01*
X152546006Y-127428981D01*
X152392238Y-127417346D01*
X152175647Y-127418577D01*
X152151776Y-127419494D01*
X151700352Y-127438150D01*
X151423564Y-128327150D01*
X150816779Y-128345206D01*
X150209994Y-128363261D01*
X150067964Y-127884831D01*
X149925934Y-127406400D01*
X149037109Y-127406400D01*
X149076090Y-127581025D01*
X149103235Y-127684009D01*
X149161524Y-127892405D01*
X149246244Y-128189795D01*
X149352683Y-128559758D01*
X149476127Y-128985874D01*
X149501593Y-129073275D01*
X150383162Y-129073275D01*
X150439814Y-129065234D01*
X150590564Y-129059523D01*
X150798106Y-129057400D01*
X151036834Y-129065021D01*
X151164295Y-129089875D01*
X151195419Y-129134948D01*
X151194981Y-129136799D01*
X151172648Y-129226341D01*
X151126743Y-129412531D01*
X151063838Y-129668645D01*
X150990507Y-129967960D01*
X150986333Y-129985018D01*
X150798217Y-130753839D01*
X150591920Y-129921495D01*
X150516204Y-129615587D01*
X150452606Y-129357853D01*
X150406794Y-129171317D01*
X150384435Y-129079006D01*
X150383162Y-129073275D01*
X149501593Y-129073275D01*
X149611865Y-129451724D01*
X149672980Y-129660650D01*
X150230888Y-131565650D01*
X151369460Y-131601806D01*
X151988131Y-129551728D01*
G37*
X151988131Y-129551728D02*
X152134940Y-129063635D01*
X152269198Y-128614159D01*
X152386658Y-128217765D01*
X152483069Y-127888923D01*
X152554184Y-127642098D01*
X152595753Y-127491759D01*
X152605001Y-127451244D01*
X152546006Y-127428981D01*
X152392238Y-127417346D01*
X152175647Y-127418577D01*
X152151776Y-127419494D01*
X151700352Y-127438150D01*
X151423564Y-128327150D01*
X150816779Y-128345206D01*
X150209994Y-128363261D01*
X150067964Y-127884831D01*
X149925934Y-127406400D01*
X149037109Y-127406400D01*
X149076090Y-127581025D01*
X149103235Y-127684009D01*
X149161524Y-127892405D01*
X149246244Y-128189795D01*
X149352683Y-128559758D01*
X149476127Y-128985874D01*
X149501593Y-129073275D01*
X150383162Y-129073275D01*
X150439814Y-129065234D01*
X150590564Y-129059523D01*
X150798106Y-129057400D01*
X151036834Y-129065021D01*
X151164295Y-129089875D01*
X151195419Y-129134948D01*
X151194981Y-129136799D01*
X151172648Y-129226341D01*
X151126743Y-129412531D01*
X151063838Y-129668645D01*
X150990507Y-129967960D01*
X150986333Y-129985018D01*
X150798217Y-130753839D01*
X150591920Y-129921495D01*
X150516204Y-129615587D01*
X150452606Y-129357853D01*
X150406794Y-129171317D01*
X150384435Y-129079006D01*
X150383162Y-129073275D01*
X149501593Y-129073275D01*
X149611865Y-129451724D01*
X149672980Y-129660650D01*
X150230888Y-131565650D01*
X151369460Y-131601806D01*
X151988131Y-129551728D01*
G36*
X155841700Y-127406400D02*
G01*
X154952700Y-127406400D01*
X154952700Y-130517900D01*
X155841700Y-130517900D01*
X155841700Y-127406400D01*
G37*
X155841700Y-127406400D02*
X154952700Y-127406400D01*
X154952700Y-130517900D01*
X155841700Y-130517900D01*
X155841700Y-127406400D01*
G36*
X158497262Y-130548895D02*
G01*
X158644086Y-130477571D01*
X158714895Y-130430996D01*
X158952840Y-130267972D01*
X159171810Y-130397167D01*
X159463312Y-130515327D01*
X159794333Y-130566637D01*
X160113679Y-130547132D01*
X160311027Y-130485417D01*
X160441786Y-130416015D01*
X160542288Y-130336391D01*
X160616484Y-130229860D01*
X160668326Y-130079734D01*
X160701767Y-129869328D01*
X160720759Y-129581955D01*
X160729252Y-129200929D01*
X160731200Y-128711304D01*
X160731200Y-127406400D01*
X159842200Y-127406400D01*
X159842200Y-128512457D01*
X159840063Y-128880323D01*
X159834142Y-129208249D01*
X159825168Y-129473324D01*
X159813872Y-129652641D01*
X159803656Y-129718957D01*
X159713228Y-129794757D01*
X159546955Y-129817139D01*
X159345084Y-129784186D01*
X159241937Y-129745708D01*
X159080200Y-129672015D01*
X159080200Y-127406400D01*
X158191200Y-127406400D01*
X158191200Y-128536700D01*
X158187818Y-128999488D01*
X158177319Y-129343841D01*
X158159174Y-129578153D01*
X158132852Y-129710819D01*
X158115000Y-129743200D01*
X157964765Y-129810988D01*
X157754484Y-129800586D01*
X157590937Y-129745708D01*
X157429200Y-129672015D01*
X157429200Y-127406400D01*
X156476700Y-127406400D01*
X156476700Y-130517900D01*
X156889450Y-130517900D01*
X157120967Y-130511542D01*
X157249646Y-130488820D01*
X157299177Y-130444268D01*
X157302200Y-130422650D01*
X157339254Y-130338281D01*
X157451977Y-130352650D01*
X157587914Y-130428466D01*
X157737320Y-130490506D01*
X157955585Y-130541430D01*
X158109554Y-130561776D01*
X158337792Y-130572922D01*
X158497262Y-130548895D01*
G37*
X158497262Y-130548895D02*
X158644086Y-130477571D01*
X158714895Y-130430996D01*
X158952840Y-130267972D01*
X159171810Y-130397167D01*
X159463312Y-130515327D01*
X159794333Y-130566637D01*
X160113679Y-130547132D01*
X160311027Y-130485417D01*
X160441786Y-130416015D01*
X160542288Y-130336391D01*
X160616484Y-130229860D01*
X160668326Y-130079734D01*
X160701767Y-129869328D01*
X160720759Y-129581955D01*
X160729252Y-129200929D01*
X160731200Y-128711304D01*
X160731200Y-127406400D01*
X159842200Y-127406400D01*
X159842200Y-128512457D01*
X159840063Y-128880323D01*
X159834142Y-129208249D01*
X159825168Y-129473324D01*
X159813872Y-129652641D01*
X159803656Y-129718957D01*
X159713228Y-129794757D01*
X159546955Y-129817139D01*
X159345084Y-129784186D01*
X159241937Y-129745708D01*
X159080200Y-129672015D01*
X159080200Y-127406400D01*
X158191200Y-127406400D01*
X158191200Y-128536700D01*
X158187818Y-128999488D01*
X158177319Y-129343841D01*
X158159174Y-129578153D01*
X158132852Y-129710819D01*
X158115000Y-129743200D01*
X157964765Y-129810988D01*
X157754484Y-129800586D01*
X157590937Y-129745708D01*
X157429200Y-129672015D01*
X157429200Y-127406400D01*
X156476700Y-127406400D01*
X156476700Y-130517900D01*
X156889450Y-130517900D01*
X157120967Y-130511542D01*
X157249646Y-130488820D01*
X157299177Y-130444268D01*
X157302200Y-130422650D01*
X157339254Y-130338281D01*
X157451977Y-130352650D01*
X157587914Y-130428466D01*
X157737320Y-130490506D01*
X157955585Y-130541430D01*
X158109554Y-130561776D01*
X158337792Y-130572922D01*
X158497262Y-130548895D01*
G36*
X166251764Y-130544618D02*
G01*
X166404566Y-130520174D01*
X166518720Y-130461757D01*
X166638351Y-130354962D01*
X166651190Y-130342189D01*
X166858950Y-130134728D01*
X166878324Y-128770564D01*
X166897699Y-127406400D01*
X166001700Y-127406400D01*
X166001700Y-128536700D01*
X165998318Y-128999488D01*
X165987819Y-129343841D01*
X165969674Y-129578153D01*
X165943352Y-129710819D01*
X165925500Y-129743200D01*
X165773740Y-129811514D01*
X165562141Y-129797430D01*
X165363546Y-129722520D01*
X165176200Y-129625639D01*
X165176200Y-127406400D01*
X164287200Y-127406400D01*
X164287200Y-130517900D01*
X164699950Y-130517900D01*
X164923541Y-130513838D01*
X165048209Y-130496011D01*
X165101918Y-130455959D01*
X165112700Y-130393042D01*
X165119301Y-130319480D01*
X165159044Y-130306753D01*
X165261837Y-130356834D01*
X165350825Y-130408760D01*
X165540667Y-130495962D01*
X165761858Y-130539271D01*
X166016190Y-130549494D01*
X166251764Y-130544618D01*
G37*
X166251764Y-130544618D02*
X166404566Y-130520174D01*
X166518720Y-130461757D01*
X166638351Y-130354962D01*
X166651190Y-130342189D01*
X166858950Y-130134728D01*
X166878324Y-128770564D01*
X166897699Y-127406400D01*
X166001700Y-127406400D01*
X166001700Y-128536700D01*
X165998318Y-128999488D01*
X165987819Y-129343841D01*
X165969674Y-129578153D01*
X165943352Y-129710819D01*
X165925500Y-129743200D01*
X165773740Y-129811514D01*
X165562141Y-129797430D01*
X165363546Y-129722520D01*
X165176200Y-129625639D01*
X165176200Y-127406400D01*
X164287200Y-127406400D01*
X164287200Y-130517900D01*
X164699950Y-130517900D01*
X164923541Y-130513838D01*
X165048209Y-130496011D01*
X165101918Y-130455959D01*
X165112700Y-130393042D01*
X165119301Y-130319480D01*
X165159044Y-130306753D01*
X165261837Y-130356834D01*
X165350825Y-130408760D01*
X165540667Y-130495962D01*
X165761858Y-130539271D01*
X166016190Y-130549494D01*
X166251764Y-130544618D01*
G36*
X176479200Y-127406400D02*
G01*
X175590200Y-127406400D01*
X175590200Y-130517900D01*
X176479200Y-130517900D01*
X176479200Y-127406400D01*
G37*
X176479200Y-127406400D02*
X175590200Y-127406400D01*
X175590200Y-130517900D01*
X176479200Y-130517900D01*
X176479200Y-127406400D01*
G36*
X182368300Y-130511280D02*
G01*
X182561958Y-130411260D01*
X182665318Y-130319923D01*
X182744559Y-130207202D01*
X182802818Y-130056010D01*
X182843230Y-129849259D01*
X182868933Y-129569863D01*
X182883061Y-129200734D01*
X182888752Y-128724786D01*
X182889115Y-128628775D01*
X182892700Y-127406400D01*
X182003700Y-127406400D01*
X182003700Y-128490075D01*
X181999869Y-128881925D01*
X181989123Y-129219828D01*
X181972580Y-129483248D01*
X181951359Y-129651647D01*
X181937965Y-129696575D01*
X181823841Y-129789263D01*
X181644323Y-129819071D01*
X181445354Y-129784218D01*
X181319329Y-129720550D01*
X181268423Y-129679810D01*
X181231504Y-129626961D01*
X181206328Y-129542827D01*
X181190653Y-129408230D01*
X181182236Y-129203992D01*
X181178832Y-128910938D01*
X181178200Y-128514050D01*
X181178200Y-127406400D01*
X180289200Y-127406400D01*
X180289200Y-130517900D01*
X180676144Y-130517900D01*
X180897584Y-130511541D01*
X181022480Y-130486887D01*
X181080900Y-130435576D01*
X181093440Y-130401838D01*
X181119626Y-130338755D01*
X181172953Y-130326981D01*
X181284289Y-130369962D01*
X181420870Y-130438374D01*
X181732500Y-130544916D01*
X182062372Y-130568884D01*
X182368300Y-130511280D01*
G37*
X182368300Y-130511280D02*
X182561958Y-130411260D01*
X182665318Y-130319923D01*
X182744559Y-130207202D01*
X182802818Y-130056010D01*
X182843230Y-129849259D01*
X182868933Y-129569863D01*
X182883061Y-129200734D01*
X182888752Y-128724786D01*
X182889115Y-128628775D01*
X182892700Y-127406400D01*
X182003700Y-127406400D01*
X182003700Y-128490075D01*
X181999869Y-128881925D01*
X181989123Y-129219828D01*
X181972580Y-129483248D01*
X181951359Y-129651647D01*
X181937965Y-129696575D01*
X181823841Y-129789263D01*
X181644323Y-129819071D01*
X181445354Y-129784218D01*
X181319329Y-129720550D01*
X181268423Y-129679810D01*
X181231504Y-129626961D01*
X181206328Y-129542827D01*
X181190653Y-129408230D01*
X181182236Y-129203992D01*
X181178832Y-128910938D01*
X181178200Y-128514050D01*
X181178200Y-127406400D01*
X180289200Y-127406400D01*
X180289200Y-130517900D01*
X180676144Y-130517900D01*
X180897584Y-130511541D01*
X181022480Y-130486887D01*
X181080900Y-130435576D01*
X181093440Y-130401838D01*
X181119626Y-130338755D01*
X181172953Y-130326981D01*
X181284289Y-130369962D01*
X181420870Y-130438374D01*
X181732500Y-130544916D01*
X182062372Y-130568884D01*
X182368300Y-130511280D01*
G36*
X155652803Y-131766979D02*
G01*
X155806007Y-131605923D01*
X155841068Y-131535426D01*
X155885924Y-131295991D01*
X155829027Y-131090516D01*
X155694556Y-130936519D01*
X155506688Y-130851516D01*
X155289601Y-130853026D01*
X155067473Y-130958565D01*
X155056513Y-130967009D01*
X154934528Y-131101903D01*
X154890979Y-131279060D01*
X154889200Y-131343400D01*
X154940053Y-131571479D01*
X155072303Y-131734022D01*
X155255487Y-131824883D01*
X155459141Y-131837918D01*
X155652803Y-131766979D01*
G37*
X155652803Y-131766979D02*
X155806007Y-131605923D01*
X155841068Y-131535426D01*
X155885924Y-131295991D01*
X155829027Y-131090516D01*
X155694556Y-130936519D01*
X155506688Y-130851516D01*
X155289601Y-130853026D01*
X155067473Y-130958565D01*
X155056513Y-130967009D01*
X154934528Y-131101903D01*
X154890979Y-131279060D01*
X154889200Y-131343400D01*
X154940053Y-131571479D01*
X155072303Y-131734022D01*
X155255487Y-131824883D01*
X155459141Y-131837918D01*
X155652803Y-131766979D01*
G36*
X176277243Y-131778400D02*
G01*
X176432757Y-131657504D01*
X176502339Y-131445376D01*
X176508063Y-131335797D01*
X176456931Y-131093399D01*
X176321445Y-130924484D01*
X176128474Y-130841222D01*
X175904885Y-130855786D01*
X175694013Y-130967009D01*
X175561344Y-131144430D01*
X175527015Y-131365308D01*
X175593719Y-131589549D01*
X175646920Y-131668298D01*
X175777310Y-131775805D01*
X175962555Y-131815208D01*
X176027096Y-131816764D01*
X176277243Y-131778400D01*
G37*
X176277243Y-131778400D02*
X176432757Y-131657504D01*
X176502339Y-131445376D01*
X176508063Y-131335797D01*
X176456931Y-131093399D01*
X176321445Y-130924484D01*
X176128474Y-130841222D01*
X175904885Y-130855786D01*
X175694013Y-130967009D01*
X175561344Y-131144430D01*
X175527015Y-131365308D01*
X175593719Y-131589549D01*
X175646920Y-131668298D01*
X175777310Y-131775805D01*
X175962555Y-131815208D01*
X176027096Y-131816764D01*
X176277243Y-131778400D01*
G36*
X179063511Y-131863251D02*
G01*
X179139814Y-131738678D01*
X179214759Y-131586744D01*
X179264809Y-131453013D01*
X179273200Y-131404214D01*
X179220058Y-131357475D01*
X179080671Y-131274579D01*
X178885094Y-131170390D01*
X178663384Y-131059770D01*
X178445595Y-130957583D01*
X178261784Y-130878691D01*
X178142007Y-130837958D01*
X178122950Y-130835400D01*
X178060617Y-130886048D01*
X177980156Y-131009327D01*
X177973080Y-131022747D01*
X177906846Y-131159651D01*
X177876416Y-131239949D01*
X177876200Y-131242540D01*
X177926991Y-131286569D01*
X178060478Y-131375445D01*
X178248326Y-131492358D01*
X178462202Y-131620494D01*
X178673772Y-131743045D01*
X178854704Y-131843198D01*
X178976663Y-131904142D01*
X179009387Y-131914900D01*
X179063511Y-131863251D01*
G37*
X179063511Y-131863251D02*
X179139814Y-131738678D01*
X179214759Y-131586744D01*
X179264809Y-131453013D01*
X179273200Y-131404214D01*
X179220058Y-131357475D01*
X179080671Y-131274579D01*
X178885094Y-131170390D01*
X178663384Y-131059770D01*
X178445595Y-130957583D01*
X178261784Y-130878691D01*
X178142007Y-130837958D01*
X178122950Y-130835400D01*
X178060617Y-130886048D01*
X177980156Y-131009327D01*
X177973080Y-131022747D01*
X177906846Y-131159651D01*
X177876416Y-131239949D01*
X177876200Y-131242540D01*
X177926991Y-131286569D01*
X178060478Y-131375445D01*
X178248326Y-131492358D01*
X178462202Y-131620494D01*
X178673772Y-131743045D01*
X178854704Y-131843198D01*
X178976663Y-131904142D01*
X179009387Y-131914900D01*
X179063511Y-131863251D01*
G36*
X139584863Y-137088392D02*
G01*
X139872763Y-137027169D01*
X140093055Y-136929597D01*
X140254104Y-136780343D01*
X140364274Y-136564078D01*
X140431931Y-136265472D01*
X140465440Y-135869195D01*
X140473305Y-135460219D01*
X140476535Y-135133855D01*
X140484407Y-134848050D01*
X140495821Y-134629481D01*
X140509676Y-134504826D01*
X140513243Y-134491844D01*
X140599891Y-134413743D01*
X140703743Y-134391400D01*
X140807936Y-134372763D01*
X140849641Y-134292062D01*
X140855700Y-134175944D01*
X140834015Y-134016536D01*
X140752379Y-133926458D01*
X140585922Y-133888427D01*
X140434724Y-133883400D01*
X140208417Y-133932668D01*
X140062971Y-134047049D01*
X139911307Y-134210697D01*
X139718720Y-134068311D01*
X139461695Y-133945846D01*
X139152012Y-133895481D01*
X138843443Y-133920838D01*
X138638106Y-133995525D01*
X138398737Y-134197310D01*
X138246494Y-134483359D01*
X138188982Y-134838913D01*
X138188700Y-134867650D01*
X138192448Y-134895860D01*
X138823700Y-134895860D01*
X138873054Y-134646689D01*
X139007653Y-134477055D01*
X139207301Y-134395704D01*
X139451800Y-134411385D01*
X139696825Y-134517705D01*
X139811672Y-134596343D01*
X139873425Y-134680164D01*
X139898471Y-134809646D01*
X139903199Y-135025266D01*
X139903200Y-135027460D01*
X139892801Y-135265134D01*
X139844626Y-135406627D01*
X139733209Y-135475611D01*
X139533081Y-135495756D01*
X139400116Y-135495068D01*
X139128261Y-135438879D01*
X138937813Y-135287593D01*
X138837431Y-135050207D01*
X138823700Y-134895860D01*
X138192448Y-134895860D01*
X138238011Y-135238757D01*
X138385529Y-135529586D01*
X138630631Y-135739615D01*
X138972693Y-135868326D01*
X139411091Y-135915198D01*
X139445450Y-135915400D01*
X139913290Y-135915400D01*
X139870290Y-136121775D01*
X139780857Y-136364252D01*
X139623684Y-136511495D01*
X139381454Y-136576370D01*
X139250588Y-136582150D01*
X139012484Y-136573118D01*
X138791479Y-136550260D01*
X138715061Y-136536610D01*
X138577689Y-136515685D01*
X138511267Y-136556404D01*
X138474124Y-136688878D01*
X138469313Y-136714196D01*
X138449405Y-136869760D01*
X138454802Y-136962499D01*
X138458418Y-136968286D01*
X138553762Y-137006705D01*
X138738132Y-137042908D01*
X138973567Y-137072848D01*
X139222105Y-137092476D01*
X139445785Y-137097747D01*
X139584863Y-137088392D01*
G37*
X139584863Y-137088392D02*
X139872763Y-137027169D01*
X140093055Y-136929597D01*
X140254104Y-136780343D01*
X140364274Y-136564078D01*
X140431931Y-136265472D01*
X140465440Y-135869195D01*
X140473305Y-135460219D01*
X140476535Y-135133855D01*
X140484407Y-134848050D01*
X140495821Y-134629481D01*
X140509676Y-134504826D01*
X140513243Y-134491844D01*
X140599891Y-134413743D01*
X140703743Y-134391400D01*
X140807936Y-134372763D01*
X140849641Y-134292062D01*
X140855700Y-134175944D01*
X140834015Y-134016536D01*
X140752379Y-133926458D01*
X140585922Y-133888427D01*
X140434724Y-133883400D01*
X140208417Y-133932668D01*
X140062971Y-134047049D01*
X139911307Y-134210697D01*
X139718720Y-134068311D01*
X139461695Y-133945846D01*
X139152012Y-133895481D01*
X138843443Y-133920838D01*
X138638106Y-133995525D01*
X138398737Y-134197310D01*
X138246494Y-134483359D01*
X138188982Y-134838913D01*
X138188700Y-134867650D01*
X138192448Y-134895860D01*
X138823700Y-134895860D01*
X138873054Y-134646689D01*
X139007653Y-134477055D01*
X139207301Y-134395704D01*
X139451800Y-134411385D01*
X139696825Y-134517705D01*
X139811672Y-134596343D01*
X139873425Y-134680164D01*
X139898471Y-134809646D01*
X139903199Y-135025266D01*
X139903200Y-135027460D01*
X139892801Y-135265134D01*
X139844626Y-135406627D01*
X139733209Y-135475611D01*
X139533081Y-135495756D01*
X139400116Y-135495068D01*
X139128261Y-135438879D01*
X138937813Y-135287593D01*
X138837431Y-135050207D01*
X138823700Y-134895860D01*
X138192448Y-134895860D01*
X138238011Y-135238757D01*
X138385529Y-135529586D01*
X138630631Y-135739615D01*
X138972693Y-135868326D01*
X139411091Y-135915198D01*
X139445450Y-135915400D01*
X139913290Y-135915400D01*
X139870290Y-136121775D01*
X139780857Y-136364252D01*
X139623684Y-136511495D01*
X139381454Y-136576370D01*
X139250588Y-136582150D01*
X139012484Y-136573118D01*
X138791479Y-136550260D01*
X138715061Y-136536610D01*
X138577689Y-136515685D01*
X138511267Y-136556404D01*
X138474124Y-136688878D01*
X138469313Y-136714196D01*
X138449405Y-136869760D01*
X138454802Y-136962499D01*
X138458418Y-136968286D01*
X138553762Y-137006705D01*
X138738132Y-137042908D01*
X138973567Y-137072848D01*
X139222105Y-137092476D01*
X139445785Y-137097747D01*
X139584863Y-137088392D01*
G36*
X142952346Y-137013568D02*
G01*
X143107252Y-136922177D01*
X143210622Y-136814885D01*
X143324268Y-136659968D01*
X143426633Y-136493022D01*
X143496159Y-136349640D01*
X143511286Y-136265417D01*
X143507993Y-136260527D01*
X143439504Y-136223085D01*
X143299273Y-136159821D01*
X143258371Y-136142509D01*
X143032317Y-136048057D01*
X142880516Y-136283354D01*
X142757223Y-136441654D01*
X142624297Y-136516342D01*
X142484479Y-136538730D01*
X142244844Y-136519759D01*
X142126024Y-136455444D01*
X142014956Y-136286590D01*
X141933272Y-136028437D01*
X141885459Y-135716223D01*
X141876001Y-135385182D01*
X141909382Y-135070553D01*
X141935457Y-134958185D01*
X142068555Y-134681921D01*
X142280624Y-134498474D01*
X142558123Y-134413654D01*
X142887510Y-134433271D01*
X143052567Y-134478912D01*
X143227755Y-134534643D01*
X143344303Y-134564233D01*
X143370069Y-134565197D01*
X143385106Y-134497833D01*
X143402396Y-134350270D01*
X143406926Y-134298954D01*
X143412065Y-134138592D01*
X143371430Y-134052596D01*
X143253269Y-133996382D01*
X143173450Y-133971102D01*
X142812475Y-133899173D01*
X142442399Y-133891765D01*
X142107394Y-133946885D01*
X141905327Y-134028287D01*
X141616892Y-134249932D01*
X141413079Y-134544823D01*
X141290296Y-134921912D01*
X141244953Y-135390153D01*
X141250205Y-135661400D01*
X141305933Y-136124657D01*
X141424078Y-136487132D01*
X141609500Y-136761251D01*
X141719468Y-136861683D01*
X141997172Y-137014274D01*
X142321657Y-137091604D01*
X142653267Y-137091945D01*
X142952346Y-137013568D01*
G37*
X142952346Y-137013568D02*
X143107252Y-136922177D01*
X143210622Y-136814885D01*
X143324268Y-136659968D01*
X143426633Y-136493022D01*
X143496159Y-136349640D01*
X143511286Y-136265417D01*
X143507993Y-136260527D01*
X143439504Y-136223085D01*
X143299273Y-136159821D01*
X143258371Y-136142509D01*
X143032317Y-136048057D01*
X142880516Y-136283354D01*
X142757223Y-136441654D01*
X142624297Y-136516342D01*
X142484479Y-136538730D01*
X142244844Y-136519759D01*
X142126024Y-136455444D01*
X142014956Y-136286590D01*
X141933272Y-136028437D01*
X141885459Y-135716223D01*
X141876001Y-135385182D01*
X141909382Y-135070553D01*
X141935457Y-134958185D01*
X142068555Y-134681921D01*
X142280624Y-134498474D01*
X142558123Y-134413654D01*
X142887510Y-134433271D01*
X143052567Y-134478912D01*
X143227755Y-134534643D01*
X143344303Y-134564233D01*
X143370069Y-134565197D01*
X143385106Y-134497833D01*
X143402396Y-134350270D01*
X143406926Y-134298954D01*
X143412065Y-134138592D01*
X143371430Y-134052596D01*
X143253269Y-133996382D01*
X143173450Y-133971102D01*
X142812475Y-133899173D01*
X142442399Y-133891765D01*
X142107394Y-133946885D01*
X141905327Y-134028287D01*
X141616892Y-134249932D01*
X141413079Y-134544823D01*
X141290296Y-134921912D01*
X141244953Y-135390153D01*
X141250205Y-135661400D01*
X141305933Y-136124657D01*
X141424078Y-136487132D01*
X141609500Y-136761251D01*
X141719468Y-136861683D01*
X141997172Y-137014274D01*
X142321657Y-137091604D01*
X142653267Y-137091945D01*
X142952346Y-137013568D01*
G36*
X144665700Y-135871443D02*
G01*
X144668327Y-135408654D01*
X144676769Y-135059493D01*
X144691865Y-134810689D01*
X144714454Y-134648967D01*
X144745375Y-134561055D01*
X144748866Y-134555937D01*
X144887626Y-134465859D01*
X145097515Y-134446480D01*
X145345050Y-134496495D01*
X145550630Y-134587243D01*
X145808700Y-134732286D01*
X145808700Y-137058400D01*
X146443700Y-137058400D01*
X146443700Y-133946900D01*
X146126200Y-133946900D01*
X145935762Y-133953587D01*
X145840783Y-133981968D01*
X145810058Y-134044526D01*
X145808700Y-134073900D01*
X145802020Y-134177157D01*
X145792825Y-134200635D01*
X145732412Y-134174264D01*
X145593385Y-134106559D01*
X145464563Y-134041885D01*
X145086246Y-133910792D01*
X144713670Y-133899067D01*
X144425198Y-133979070D01*
X144302194Y-134044893D01*
X144207370Y-134132870D01*
X144137170Y-134258996D01*
X144088041Y-134439270D01*
X144056428Y-134689687D01*
X144038777Y-135026244D01*
X144031534Y-135464938D01*
X144030700Y-135754611D01*
X144030700Y-136994900D01*
X144205325Y-136995768D01*
X144395770Y-137010912D01*
X144522825Y-137034924D01*
X144665700Y-137073213D01*
X144665700Y-135871443D01*
G37*
X144665700Y-135871443D02*
X144668327Y-135408654D01*
X144676769Y-135059493D01*
X144691865Y-134810689D01*
X144714454Y-134648967D01*
X144745375Y-134561055D01*
X144748866Y-134555937D01*
X144887626Y-134465859D01*
X145097515Y-134446480D01*
X145345050Y-134496495D01*
X145550630Y-134587243D01*
X145808700Y-134732286D01*
X145808700Y-137058400D01*
X146443700Y-137058400D01*
X146443700Y-133946900D01*
X146126200Y-133946900D01*
X145935762Y-133953587D01*
X145840783Y-133981968D01*
X145810058Y-134044526D01*
X145808700Y-134073900D01*
X145802020Y-134177157D01*
X145792825Y-134200635D01*
X145732412Y-134174264D01*
X145593385Y-134106559D01*
X145464563Y-134041885D01*
X145086246Y-133910792D01*
X144713670Y-133899067D01*
X144425198Y-133979070D01*
X144302194Y-134044893D01*
X144207370Y-134132870D01*
X144137170Y-134258996D01*
X144088041Y-134439270D01*
X144056428Y-134689687D01*
X144038777Y-135026244D01*
X144031534Y-135464938D01*
X144030700Y-135754611D01*
X144030700Y-136994900D01*
X144205325Y-136995768D01*
X144395770Y-137010912D01*
X144522825Y-137034924D01*
X144665700Y-137073213D01*
X144665700Y-135871443D01*
G36*
X147904200Y-136335926D02*
G01*
X147904467Y-135778502D01*
X147907187Y-135335759D01*
X147915238Y-134995375D01*
X147931499Y-134745033D01*
X147958847Y-134572412D01*
X148000160Y-134465192D01*
X148058316Y-134411055D01*
X148136194Y-134397681D01*
X148236671Y-134412751D01*
X148347115Y-134440022D01*
X148599625Y-134504116D01*
X148640869Y-134284265D01*
X148651821Y-134113545D01*
X148619937Y-134002568D01*
X148616514Y-133998815D01*
X148501334Y-133948122D01*
X148303848Y-133915962D01*
X148067578Y-133903651D01*
X147836047Y-133912506D01*
X147652776Y-133943846D01*
X147593689Y-133967861D01*
X147506422Y-134023293D01*
X147436633Y-134086443D01*
X147382350Y-134171249D01*
X147341606Y-134291652D01*
X147312430Y-134461592D01*
X147292853Y-134695010D01*
X147280906Y-135005846D01*
X147274619Y-135408040D01*
X147272023Y-135915533D01*
X147271450Y-136248775D01*
X147269200Y-138137900D01*
X147904200Y-138137900D01*
X147904200Y-136335926D01*
G37*
X147904200Y-136335926D02*
X147904467Y-135778502D01*
X147907187Y-135335759D01*
X147915238Y-134995375D01*
X147931499Y-134745033D01*
X147958847Y-134572412D01*
X148000160Y-134465192D01*
X148058316Y-134411055D01*
X148136194Y-134397681D01*
X148236671Y-134412751D01*
X148347115Y-134440022D01*
X148599625Y-134504116D01*
X148640869Y-134284265D01*
X148651821Y-134113545D01*
X148619937Y-134002568D01*
X148616514Y-133998815D01*
X148501334Y-133948122D01*
X148303848Y-133915962D01*
X148067578Y-133903651D01*
X147836047Y-133912506D01*
X147652776Y-133943846D01*
X147593689Y-133967861D01*
X147506422Y-134023293D01*
X147436633Y-134086443D01*
X147382350Y-134171249D01*
X147341606Y-134291652D01*
X147312430Y-134461592D01*
X147292853Y-134695010D01*
X147280906Y-135005846D01*
X147274619Y-135408040D01*
X147272023Y-135915533D01*
X147271450Y-136248775D01*
X147269200Y-138137900D01*
X147904200Y-138137900D01*
X147904200Y-136335926D01*
G36*
X149779975Y-137761751D02*
G01*
X149803382Y-137604633D01*
X149809200Y-137439400D01*
X149809200Y-137058400D01*
X150507700Y-137058400D01*
X150507700Y-136550400D01*
X149809200Y-136550400D01*
X149809200Y-135542176D01*
X149811556Y-135119881D01*
X149822423Y-134809921D01*
X149847499Y-134597661D01*
X149892479Y-134468466D01*
X149963063Y-134407703D01*
X150064946Y-134400736D01*
X150203826Y-134432931D01*
X150237128Y-134442961D01*
X150388032Y-134485341D01*
X150473455Y-134501787D01*
X150479607Y-134500463D01*
X150494845Y-134435248D01*
X150519699Y-134291507D01*
X150525729Y-134253088D01*
X150539748Y-134095333D01*
X150499422Y-134012522D01*
X150378990Y-133955852D01*
X150366491Y-133951463D01*
X150122912Y-133900839D01*
X149842768Y-133891148D01*
X149590995Y-133922680D01*
X149510899Y-133947649D01*
X149397393Y-134010899D01*
X149311850Y-134108026D01*
X149250587Y-134255607D01*
X149209926Y-134470216D01*
X149186183Y-134768428D01*
X149175679Y-135166817D01*
X149174200Y-135463724D01*
X149174200Y-136542354D01*
X148967825Y-136562252D01*
X148830559Y-136588429D01*
X148767357Y-136658329D01*
X148742361Y-136812874D01*
X148741741Y-136820275D01*
X148735816Y-136975844D01*
X148774923Y-137042600D01*
X148891628Y-137058119D01*
X148948116Y-137058400D01*
X149093113Y-137065942D01*
X149157363Y-137113043D01*
X149173713Y-137236421D01*
X149174200Y-137311110D01*
X149185887Y-137476134D01*
X149242541Y-137578266D01*
X149376551Y-137666577D01*
X149425670Y-137692110D01*
X149593355Y-137770575D01*
X149717160Y-137815931D01*
X149743170Y-137820400D01*
X149779975Y-137761751D01*
G37*
X149779975Y-137761751D02*
X149803382Y-137604633D01*
X149809200Y-137439400D01*
X149809200Y-137058400D01*
X150507700Y-137058400D01*
X150507700Y-136550400D01*
X149809200Y-136550400D01*
X149809200Y-135542176D01*
X149811556Y-135119881D01*
X149822423Y-134809921D01*
X149847499Y-134597661D01*
X149892479Y-134468466D01*
X149963063Y-134407703D01*
X150064946Y-134400736D01*
X150203826Y-134432931D01*
X150237128Y-134442961D01*
X150388032Y-134485341D01*
X150473455Y-134501787D01*
X150479607Y-134500463D01*
X150494845Y-134435248D01*
X150519699Y-134291507D01*
X150525729Y-134253088D01*
X150539748Y-134095333D01*
X150499422Y-134012522D01*
X150378990Y-133955852D01*
X150366491Y-133951463D01*
X150122912Y-133900839D01*
X149842768Y-133891148D01*
X149590995Y-133922680D01*
X149510899Y-133947649D01*
X149397393Y-134010899D01*
X149311850Y-134108026D01*
X149250587Y-134255607D01*
X149209926Y-134470216D01*
X149186183Y-134768428D01*
X149175679Y-135166817D01*
X149174200Y-135463724D01*
X149174200Y-136542354D01*
X148967825Y-136562252D01*
X148830559Y-136588429D01*
X148767357Y-136658329D01*
X148742361Y-136812874D01*
X148741741Y-136820275D01*
X148735816Y-136975844D01*
X148774923Y-137042600D01*
X148891628Y-137058119D01*
X148948116Y-137058400D01*
X149093113Y-137065942D01*
X149157363Y-137113043D01*
X149173713Y-137236421D01*
X149174200Y-137311110D01*
X149185887Y-137476134D01*
X149242541Y-137578266D01*
X149376551Y-137666577D01*
X149425670Y-137692110D01*
X149593355Y-137770575D01*
X149717160Y-137815931D01*
X149743170Y-137820400D01*
X149779975Y-137761751D01*
G36*
X152498022Y-137052198D02*
G01*
X152769086Y-136953741D01*
X152879576Y-136878018D01*
X152992573Y-136760519D01*
X153077036Y-136624330D01*
X153138045Y-136448336D01*
X153180682Y-136211427D01*
X153210030Y-135892489D01*
X153231171Y-135470410D01*
X153233561Y-135407400D01*
X153248034Y-135034549D01*
X153261684Y-134769639D01*
X153277898Y-134593682D01*
X153300067Y-134487690D01*
X153331579Y-134432673D01*
X153375821Y-134409643D01*
X153412825Y-134402859D01*
X153513804Y-134362630D01*
X153552314Y-134255724D01*
X153555700Y-134171528D01*
X153532833Y-134013074D01*
X153447839Y-133924097D01*
X153276127Y-133887458D01*
X153142292Y-133883400D01*
X152921737Y-133929664D01*
X152763458Y-134053208D01*
X152719994Y-134135734D01*
X152656915Y-134145408D01*
X152515862Y-134100995D01*
X152386063Y-134041618D01*
X152034777Y-133915040D01*
X151701171Y-133892689D01*
X151409093Y-133975528D01*
X151364950Y-134000347D01*
X151177751Y-134133310D01*
X151060724Y-134278770D01*
X150978674Y-134485813D01*
X150953905Y-134573658D01*
X150923668Y-134850250D01*
X151547318Y-134850250D01*
X151606376Y-134626189D01*
X151747457Y-134471201D01*
X151951285Y-134399876D01*
X152198585Y-134426806D01*
X152396825Y-134517705D01*
X152508800Y-134593582D01*
X152570595Y-134673680D01*
X152597082Y-134796474D01*
X152603133Y-135000439D01*
X152603200Y-135051636D01*
X152603200Y-135459737D01*
X152357259Y-135501289D01*
X152057965Y-135503826D01*
X151810643Y-135411304D01*
X151637707Y-135234598D01*
X151589557Y-135128793D01*
X151547318Y-134850250D01*
X150923668Y-134850250D01*
X150915165Y-134928027D01*
X150981403Y-135265830D01*
X151144008Y-135554757D01*
X151242616Y-135656980D01*
X151460391Y-135805577D01*
X151715602Y-135888324D01*
X152040338Y-135913149D01*
X152249190Y-135905683D01*
X152450462Y-135896032D01*
X152555946Y-135908490D01*
X152596576Y-135956754D01*
X152603287Y-136054518D01*
X152603286Y-136062450D01*
X152553026Y-136316283D01*
X152404677Y-136491539D01*
X152161461Y-136586225D01*
X151826601Y-136598346D01*
X151749398Y-136590744D01*
X151537287Y-136561041D01*
X151367524Y-136528873D01*
X151306852Y-136511937D01*
X151241405Y-136510264D01*
X151211891Y-136589169D01*
X151206200Y-136727313D01*
X151212020Y-136869305D01*
X151245548Y-136961127D01*
X151330882Y-137017869D01*
X151492121Y-137054622D01*
X151753364Y-137086477D01*
X151785232Y-137089900D01*
X152158943Y-137099739D01*
X152498022Y-137052198D01*
G37*
X152498022Y-137052198D02*
X152769086Y-136953741D01*
X152879576Y-136878018D01*
X152992573Y-136760519D01*
X153077036Y-136624330D01*
X153138045Y-136448336D01*
X153180682Y-136211427D01*
X153210030Y-135892489D01*
X153231171Y-135470410D01*
X153233561Y-135407400D01*
X153248034Y-135034549D01*
X153261684Y-134769639D01*
X153277898Y-134593682D01*
X153300067Y-134487690D01*
X153331579Y-134432673D01*
X153375821Y-134409643D01*
X153412825Y-134402859D01*
X153513804Y-134362630D01*
X153552314Y-134255724D01*
X153555700Y-134171528D01*
X153532833Y-134013074D01*
X153447839Y-133924097D01*
X153276127Y-133887458D01*
X153142292Y-133883400D01*
X152921737Y-133929664D01*
X152763458Y-134053208D01*
X152719994Y-134135734D01*
X152656915Y-134145408D01*
X152515862Y-134100995D01*
X152386063Y-134041618D01*
X152034777Y-133915040D01*
X151701171Y-133892689D01*
X151409093Y-133975528D01*
X151364950Y-134000347D01*
X151177751Y-134133310D01*
X151060724Y-134278770D01*
X150978674Y-134485813D01*
X150953905Y-134573658D01*
X150923668Y-134850250D01*
X151547318Y-134850250D01*
X151606376Y-134626189D01*
X151747457Y-134471201D01*
X151951285Y-134399876D01*
X152198585Y-134426806D01*
X152396825Y-134517705D01*
X152508800Y-134593582D01*
X152570595Y-134673680D01*
X152597082Y-134796474D01*
X152603133Y-135000439D01*
X152603200Y-135051636D01*
X152603200Y-135459737D01*
X152357259Y-135501289D01*
X152057965Y-135503826D01*
X151810643Y-135411304D01*
X151637707Y-135234598D01*
X151589557Y-135128793D01*
X151547318Y-134850250D01*
X150923668Y-134850250D01*
X150915165Y-134928027D01*
X150981403Y-135265830D01*
X151144008Y-135554757D01*
X151242616Y-135656980D01*
X151460391Y-135805577D01*
X151715602Y-135888324D01*
X152040338Y-135913149D01*
X152249190Y-135905683D01*
X152450462Y-135896032D01*
X152555946Y-135908490D01*
X152596576Y-135956754D01*
X152603287Y-136054518D01*
X152603286Y-136062450D01*
X152553026Y-136316283D01*
X152404677Y-136491539D01*
X152161461Y-136586225D01*
X151826601Y-136598346D01*
X151749398Y-136590744D01*
X151537287Y-136561041D01*
X151367524Y-136528873D01*
X151306852Y-136511937D01*
X151241405Y-136510264D01*
X151211891Y-136589169D01*
X151206200Y-136727313D01*
X151212020Y-136869305D01*
X151245548Y-136961127D01*
X151330882Y-137017869D01*
X151492121Y-137054622D01*
X151753364Y-137086477D01*
X151785232Y-137089900D01*
X152158943Y-137099739D01*
X152498022Y-137052198D01*
G36*
X156413200Y-133946900D02*
G01*
X156127450Y-133946900D01*
X155948367Y-133955499D01*
X155863760Y-133990474D01*
X155841731Y-134065588D01*
X155841700Y-134070219D01*
X155834016Y-134139195D01*
X155792181Y-134151689D01*
X155688014Y-134104463D01*
X155571825Y-134039234D01*
X155275203Y-133923089D01*
X154961096Y-133887933D01*
X154680608Y-133939109D01*
X154666950Y-133944628D01*
X154393632Y-134126296D01*
X154184828Y-134410161D01*
X154045178Y-134786422D01*
X153979321Y-135245274D01*
X153974593Y-135407400D01*
X153984000Y-135571968D01*
X154634716Y-135571968D01*
X154637862Y-135251038D01*
X154673134Y-134963242D01*
X154730472Y-134772350D01*
X154889234Y-134535546D01*
X155093971Y-134415970D01*
X155335796Y-134416313D01*
X155571825Y-134517705D01*
X155778200Y-134643534D01*
X155778200Y-136404112D01*
X155520943Y-136520119D01*
X155256354Y-136593907D01*
X155033577Y-136550498D01*
X154837025Y-136385985D01*
X154800436Y-136339476D01*
X154717762Y-136155594D01*
X154661935Y-135886622D01*
X154634716Y-135571968D01*
X153984000Y-135571968D01*
X154002934Y-135903195D01*
X154095928Y-136302321D01*
X154258676Y-136620281D01*
X154441110Y-136825353D01*
X154715913Y-137014941D01*
X155010398Y-137094946D01*
X155343532Y-137067497D01*
X155667075Y-136962970D01*
X155718441Y-136952730D01*
X155751048Y-136986703D01*
X155769082Y-137086176D01*
X155776733Y-137272431D01*
X155778200Y-137527857D01*
X155778200Y-138137900D01*
X156413200Y-138137900D01*
X156413200Y-133946900D01*
G37*
X156413200Y-133946900D02*
X156127450Y-133946900D01*
X155948367Y-133955499D01*
X155863760Y-133990474D01*
X155841731Y-134065588D01*
X155841700Y-134070219D01*
X155834016Y-134139195D01*
X155792181Y-134151689D01*
X155688014Y-134104463D01*
X155571825Y-134039234D01*
X155275203Y-133923089D01*
X154961096Y-133887933D01*
X154680608Y-133939109D01*
X154666950Y-133944628D01*
X154393632Y-134126296D01*
X154184828Y-134410161D01*
X154045178Y-134786422D01*
X153979321Y-135245274D01*
X153974593Y-135407400D01*
X153984000Y-135571968D01*
X154634716Y-135571968D01*
X154637862Y-135251038D01*
X154673134Y-134963242D01*
X154730472Y-134772350D01*
X154889234Y-134535546D01*
X155093971Y-134415970D01*
X155335796Y-134416313D01*
X155571825Y-134517705D01*
X155778200Y-134643534D01*
X155778200Y-136404112D01*
X155520943Y-136520119D01*
X155256354Y-136593907D01*
X155033577Y-136550498D01*
X154837025Y-136385985D01*
X154800436Y-136339476D01*
X154717762Y-136155594D01*
X154661935Y-135886622D01*
X154634716Y-135571968D01*
X153984000Y-135571968D01*
X154002934Y-135903195D01*
X154095928Y-136302321D01*
X154258676Y-136620281D01*
X154441110Y-136825353D01*
X154715913Y-137014941D01*
X155010398Y-137094946D01*
X155343532Y-137067497D01*
X155667075Y-136962970D01*
X155718441Y-136952730D01*
X155751048Y-136986703D01*
X155769082Y-137086176D01*
X155776733Y-137272431D01*
X155778200Y-137527857D01*
X155778200Y-138137900D01*
X156413200Y-138137900D01*
X156413200Y-133946900D01*
G36*
X160985200Y-133946900D02*
G01*
X160699450Y-133946900D01*
X160521112Y-133955071D01*
X160436750Y-133989358D01*
X160413860Y-134064424D01*
X160413700Y-134075802D01*
X160407924Y-134156189D01*
X160370285Y-134164342D01*
X160270315Y-134098568D01*
X160225166Y-134065314D01*
X160031047Y-133971360D01*
X159779373Y-133912986D01*
X159520448Y-133895889D01*
X159304575Y-133925766D01*
X159238950Y-133953633D01*
X158962055Y-134159824D01*
X158765027Y-134418564D01*
X158641435Y-134745915D01*
X158584852Y-135157937D01*
X158584812Y-135272759D01*
X159212717Y-135272759D01*
X159270574Y-134913364D01*
X159399953Y-134644943D01*
X159469584Y-134563746D01*
X159612918Y-134441776D01*
X159743695Y-134401003D01*
X159884771Y-134412606D01*
X160074011Y-134467747D01*
X160224343Y-134551428D01*
X160231075Y-134557278D01*
X160279358Y-134613868D01*
X160312664Y-134695843D01*
X160333686Y-134825363D01*
X160345121Y-135024591D01*
X160349662Y-135315688D01*
X160350200Y-135537007D01*
X160350200Y-136408930D01*
X160119797Y-136518263D01*
X159853618Y-136591540D01*
X159624387Y-136547594D01*
X159439167Y-136392638D01*
X159305023Y-136132882D01*
X159229022Y-135774539D01*
X159224683Y-135731231D01*
X159212717Y-135272759D01*
X158584812Y-135272759D01*
X158584702Y-135588155D01*
X158634474Y-136069334D01*
X158741701Y-136446063D01*
X158913697Y-136730573D01*
X159157775Y-136935098D01*
X159469797Y-137068479D01*
X159673903Y-137104432D01*
X159891725Y-137082504D01*
X160162541Y-136997068D01*
X160270825Y-136953733D01*
X160309336Y-136969290D01*
X160333925Y-137064965D01*
X160346800Y-137256778D01*
X160350200Y-137529359D01*
X160350200Y-138137900D01*
X160985200Y-138137900D01*
X160985200Y-133946900D01*
G37*
X160985200Y-133946900D02*
X160699450Y-133946900D01*
X160521112Y-133955071D01*
X160436750Y-133989358D01*
X160413860Y-134064424D01*
X160413700Y-134075802D01*
X160407924Y-134156189D01*
X160370285Y-134164342D01*
X160270315Y-134098568D01*
X160225166Y-134065314D01*
X160031047Y-133971360D01*
X159779373Y-133912986D01*
X159520448Y-133895889D01*
X159304575Y-133925766D01*
X159238950Y-133953633D01*
X158962055Y-134159824D01*
X158765027Y-134418564D01*
X158641435Y-134745915D01*
X158584852Y-135157937D01*
X158584812Y-135272759D01*
X159212717Y-135272759D01*
X159270574Y-134913364D01*
X159399953Y-134644943D01*
X159469584Y-134563746D01*
X159612918Y-134441776D01*
X159743695Y-134401003D01*
X159884771Y-134412606D01*
X160074011Y-134467747D01*
X160224343Y-134551428D01*
X160231075Y-134557278D01*
X160279358Y-134613868D01*
X160312664Y-134695843D01*
X160333686Y-134825363D01*
X160345121Y-135024591D01*
X160349662Y-135315688D01*
X160350200Y-135537007D01*
X160350200Y-136408930D01*
X160119797Y-136518263D01*
X159853618Y-136591540D01*
X159624387Y-136547594D01*
X159439167Y-136392638D01*
X159305023Y-136132882D01*
X159229022Y-135774539D01*
X159224683Y-135731231D01*
X159212717Y-135272759D01*
X158584812Y-135272759D01*
X158584702Y-135588155D01*
X158634474Y-136069334D01*
X158741701Y-136446063D01*
X158913697Y-136730573D01*
X159157775Y-136935098D01*
X159469797Y-137068479D01*
X159673903Y-137104432D01*
X159891725Y-137082504D01*
X160162541Y-136997068D01*
X160270825Y-136953733D01*
X160309336Y-136969290D01*
X160333925Y-137064965D01*
X160346800Y-137256778D01*
X160350200Y-137529359D01*
X160350200Y-138137900D01*
X160985200Y-138137900D01*
X160985200Y-133946900D01*
G36*
X163343791Y-137010792D02*
G01*
X163618596Y-136828747D01*
X163820206Y-136559115D01*
X163824547Y-136550400D01*
X163906834Y-136329300D01*
X163975342Y-136050576D01*
X164007941Y-135836025D01*
X164050738Y-135407400D01*
X163184719Y-135407400D01*
X162823582Y-135406963D01*
X162572945Y-135399407D01*
X162416325Y-135375366D01*
X162337241Y-135325473D01*
X162319213Y-135240363D01*
X162345758Y-135110668D01*
X162391573Y-134956656D01*
X162530535Y-134671853D01*
X162742939Y-134488718D01*
X163023027Y-134409641D01*
X163365037Y-134437014D01*
X163532582Y-134483046D01*
X163755698Y-134541895D01*
X163888183Y-134530574D01*
X163951910Y-134437830D01*
X163968727Y-134258718D01*
X163928576Y-134119385D01*
X163798841Y-134017524D01*
X163568429Y-133948333D01*
X163226247Y-133907009D01*
X163144200Y-133901710D01*
X162874318Y-133892963D01*
X162681770Y-133909162D01*
X162518073Y-133957948D01*
X162382712Y-134021737D01*
X162085700Y-134235669D01*
X161877617Y-134529844D01*
X161751964Y-134904847D01*
X161691332Y-135369729D01*
X161705847Y-135816367D01*
X161722142Y-135895542D01*
X162321182Y-135895542D01*
X162375720Y-135826502D01*
X162519750Y-135796094D01*
X162769764Y-135788558D01*
X162858450Y-135788400D01*
X163119931Y-135790093D01*
X163279531Y-135799799D01*
X163362364Y-135824467D01*
X163393544Y-135871040D01*
X163398200Y-135937675D01*
X163367659Y-136158104D01*
X163289696Y-136368471D01*
X163184800Y-136519727D01*
X163141695Y-136551741D01*
X162907678Y-136617676D01*
X162693847Y-136562886D01*
X162513217Y-136393441D01*
X162414623Y-136212557D01*
X162339647Y-136018974D01*
X162321182Y-135895542D01*
X161722142Y-135895542D01*
X161789677Y-136223680D01*
X161936989Y-136570589D01*
X162141953Y-136836015D01*
X162321843Y-136964776D01*
X162671251Y-137085470D01*
X163019955Y-137098587D01*
X163343791Y-137010792D01*
G37*
X163343791Y-137010792D02*
X163618596Y-136828747D01*
X163820206Y-136559115D01*
X163824547Y-136550400D01*
X163906834Y-136329300D01*
X163975342Y-136050576D01*
X164007941Y-135836025D01*
X164050738Y-135407400D01*
X163184719Y-135407400D01*
X162823582Y-135406963D01*
X162572945Y-135399407D01*
X162416325Y-135375366D01*
X162337241Y-135325473D01*
X162319213Y-135240363D01*
X162345758Y-135110668D01*
X162391573Y-134956656D01*
X162530535Y-134671853D01*
X162742939Y-134488718D01*
X163023027Y-134409641D01*
X163365037Y-134437014D01*
X163532582Y-134483046D01*
X163755698Y-134541895D01*
X163888183Y-134530574D01*
X163951910Y-134437830D01*
X163968727Y-134258718D01*
X163928576Y-134119385D01*
X163798841Y-134017524D01*
X163568429Y-133948333D01*
X163226247Y-133907009D01*
X163144200Y-133901710D01*
X162874318Y-133892963D01*
X162681770Y-133909162D01*
X162518073Y-133957948D01*
X162382712Y-134021737D01*
X162085700Y-134235669D01*
X161877617Y-134529844D01*
X161751964Y-134904847D01*
X161691332Y-135369729D01*
X161705847Y-135816367D01*
X161722142Y-135895542D01*
X162321182Y-135895542D01*
X162375720Y-135826502D01*
X162519750Y-135796094D01*
X162769764Y-135788558D01*
X162858450Y-135788400D01*
X163119931Y-135790093D01*
X163279531Y-135799799D01*
X163362364Y-135824467D01*
X163393544Y-135871040D01*
X163398200Y-135937675D01*
X163367659Y-136158104D01*
X163289696Y-136368471D01*
X163184800Y-136519727D01*
X163141695Y-136551741D01*
X162907678Y-136617676D01*
X162693847Y-136562886D01*
X162513217Y-136393441D01*
X162414623Y-136212557D01*
X162339647Y-136018974D01*
X162321182Y-135895542D01*
X161722142Y-135895542D01*
X161789677Y-136223680D01*
X161936989Y-136570589D01*
X162141953Y-136836015D01*
X162321843Y-136964776D01*
X162671251Y-137085470D01*
X163019955Y-137098587D01*
X163343791Y-137010792D01*
G36*
X168000062Y-138156527D02*
G01*
X168344790Y-138018505D01*
X168614286Y-137782232D01*
X168816699Y-137442606D01*
X168828785Y-137414306D01*
X168885261Y-137220435D01*
X168850902Y-137107392D01*
X168719446Y-137061257D01*
X168668700Y-137058506D01*
X168528464Y-137040784D01*
X168442189Y-137021414D01*
X168348512Y-137021537D01*
X168270503Y-137097522D01*
X168192446Y-137248909D01*
X168024538Y-137497382D01*
X167806717Y-137644513D01*
X167561949Y-137692964D01*
X167313200Y-137645402D01*
X167083435Y-137504491D01*
X166895620Y-137272897D01*
X166811621Y-137088681D01*
X166760962Y-136910520D01*
X166729625Y-136704765D01*
X166715006Y-136441076D01*
X166714502Y-136089112D01*
X166716371Y-135978900D01*
X166736542Y-135531495D01*
X166781711Y-135189853D01*
X166858711Y-134934045D01*
X166974373Y-134744142D01*
X167135530Y-134600211D01*
X167203777Y-134557109D01*
X167454171Y-134469310D01*
X167770893Y-134441791D01*
X168108818Y-134473938D01*
X168422823Y-134565138D01*
X168443226Y-134573933D01*
X168728637Y-134700183D01*
X168793564Y-134466417D01*
X168835762Y-134304441D01*
X168857897Y-134199899D01*
X168858845Y-134189588D01*
X168804581Y-134146267D01*
X168663462Y-134077798D01*
X168507567Y-134014963D01*
X168196869Y-133933067D01*
X167836309Y-133890557D01*
X167470987Y-133888313D01*
X167145999Y-133927215D01*
X166954200Y-133984639D01*
X166609012Y-134197335D01*
X166342460Y-134503593D01*
X166153427Y-134905794D01*
X166040794Y-135406319D01*
X166003445Y-136007549D01*
X166003445Y-136010650D01*
X166039453Y-136631011D01*
X166147315Y-137147079D01*
X166327627Y-137559690D01*
X166580988Y-137869678D01*
X166907995Y-138077877D01*
X167309245Y-138185123D01*
X167571957Y-138201401D01*
X168000062Y-138156527D01*
G37*
X168000062Y-138156527D02*
X168344790Y-138018505D01*
X168614286Y-137782232D01*
X168816699Y-137442606D01*
X168828785Y-137414306D01*
X168885261Y-137220435D01*
X168850902Y-137107392D01*
X168719446Y-137061257D01*
X168668700Y-137058506D01*
X168528464Y-137040784D01*
X168442189Y-137021414D01*
X168348512Y-137021537D01*
X168270503Y-137097522D01*
X168192446Y-137248909D01*
X168024538Y-137497382D01*
X167806717Y-137644513D01*
X167561949Y-137692964D01*
X167313200Y-137645402D01*
X167083435Y-137504491D01*
X166895620Y-137272897D01*
X166811621Y-137088681D01*
X166760962Y-136910520D01*
X166729625Y-136704765D01*
X166715006Y-136441076D01*
X166714502Y-136089112D01*
X166716371Y-135978900D01*
X166736542Y-135531495D01*
X166781711Y-135189853D01*
X166858711Y-134934045D01*
X166974373Y-134744142D01*
X167135530Y-134600211D01*
X167203777Y-134557109D01*
X167454171Y-134469310D01*
X167770893Y-134441791D01*
X168108818Y-134473938D01*
X168422823Y-134565138D01*
X168443226Y-134573933D01*
X168728637Y-134700183D01*
X168793564Y-134466417D01*
X168835762Y-134304441D01*
X168857897Y-134199899D01*
X168858845Y-134189588D01*
X168804581Y-134146267D01*
X168663462Y-134077798D01*
X168507567Y-134014963D01*
X168196869Y-133933067D01*
X167836309Y-133890557D01*
X167470987Y-133888313D01*
X167145999Y-133927215D01*
X166954200Y-133984639D01*
X166609012Y-134197335D01*
X166342460Y-134503593D01*
X166153427Y-134905794D01*
X166040794Y-135406319D01*
X166003445Y-136007549D01*
X166003445Y-136010650D01*
X166039453Y-136631011D01*
X166147315Y-137147079D01*
X166327627Y-137559690D01*
X166580988Y-137869678D01*
X166907995Y-138077877D01*
X167309245Y-138185123D01*
X167571957Y-138201401D01*
X168000062Y-138156527D01*
G36*
X172459909Y-137018812D02*
G01*
X172733612Y-136837994D01*
X172938776Y-136560465D01*
X173067863Y-136193457D01*
X173113339Y-135744200D01*
X173113345Y-135740775D01*
X173113700Y-135407400D01*
X171462700Y-135407400D01*
X171462700Y-135210622D01*
X171513645Y-134917746D01*
X171652216Y-134666124D01*
X171857011Y-134491809D01*
X171902267Y-134470139D01*
X172072426Y-134421477D01*
X172272648Y-134416251D01*
X172530870Y-134456841D01*
X172875027Y-134545627D01*
X172911389Y-134556126D01*
X173001760Y-134573354D01*
X173040813Y-134535226D01*
X173044273Y-134412774D01*
X173038389Y-134322191D01*
X173016940Y-134146281D01*
X172962365Y-134051675D01*
X172839202Y-133992699D01*
X172764450Y-133969352D01*
X172380508Y-133895920D01*
X171988733Y-133893223D01*
X171633999Y-133959141D01*
X171456812Y-134031164D01*
X171257951Y-134163756D01*
X171104556Y-134342838D01*
X170995666Y-134532528D01*
X170901065Y-134735776D01*
X170845864Y-134919185D01*
X170819917Y-135131894D01*
X170813089Y-135416639D01*
X170827717Y-135788400D01*
X171445978Y-135788400D01*
X171951755Y-135788400D01*
X172192606Y-135792327D01*
X172380516Y-135802749D01*
X172482650Y-135817626D01*
X172491022Y-135821889D01*
X172511597Y-135918599D01*
X172485718Y-136081683D01*
X172427050Y-136265645D01*
X172349256Y-136424991D01*
X172287210Y-136500471D01*
X172081998Y-136599172D01*
X171874119Y-136587157D01*
X171687921Y-136477801D01*
X171547751Y-136284481D01*
X171482162Y-136058176D01*
X171445978Y-135788400D01*
X170827717Y-135788400D01*
X170830448Y-135857784D01*
X170890050Y-136203999D01*
X170999541Y-136482555D01*
X171166571Y-136720718D01*
X171184471Y-136740864D01*
X171387549Y-136924008D01*
X171618658Y-137030616D01*
X171737024Y-137061394D01*
X172125201Y-137095689D01*
X172459909Y-137018812D01*
G37*
X172459909Y-137018812D02*
X172733612Y-136837994D01*
X172938776Y-136560465D01*
X173067863Y-136193457D01*
X173113339Y-135744200D01*
X173113345Y-135740775D01*
X173113700Y-135407400D01*
X171462700Y-135407400D01*
X171462700Y-135210622D01*
X171513645Y-134917746D01*
X171652216Y-134666124D01*
X171857011Y-134491809D01*
X171902267Y-134470139D01*
X172072426Y-134421477D01*
X172272648Y-134416251D01*
X172530870Y-134456841D01*
X172875027Y-134545627D01*
X172911389Y-134556126D01*
X173001760Y-134573354D01*
X173040813Y-134535226D01*
X173044273Y-134412774D01*
X173038389Y-134322191D01*
X173016940Y-134146281D01*
X172962365Y-134051675D01*
X172839202Y-133992699D01*
X172764450Y-133969352D01*
X172380508Y-133895920D01*
X171988733Y-133893223D01*
X171633999Y-133959141D01*
X171456812Y-134031164D01*
X171257951Y-134163756D01*
X171104556Y-134342838D01*
X170995666Y-134532528D01*
X170901065Y-134735776D01*
X170845864Y-134919185D01*
X170819917Y-135131894D01*
X170813089Y-135416639D01*
X170827717Y-135788400D01*
X171445978Y-135788400D01*
X171951755Y-135788400D01*
X172192606Y-135792327D01*
X172380516Y-135802749D01*
X172482650Y-135817626D01*
X172491022Y-135821889D01*
X172511597Y-135918599D01*
X172485718Y-136081683D01*
X172427050Y-136265645D01*
X172349256Y-136424991D01*
X172287210Y-136500471D01*
X172081998Y-136599172D01*
X171874119Y-136587157D01*
X171687921Y-136477801D01*
X171547751Y-136284481D01*
X171482162Y-136058176D01*
X171445978Y-135788400D01*
X170827717Y-135788400D01*
X170830448Y-135857784D01*
X170890050Y-136203999D01*
X170999541Y-136482555D01*
X171166571Y-136720718D01*
X171184471Y-136740864D01*
X171387549Y-136924008D01*
X171618658Y-137030616D01*
X171737024Y-137061394D01*
X172125201Y-137095689D01*
X172459909Y-137018812D01*
G36*
X178359306Y-137076795D02*
G01*
X178539032Y-137036913D01*
X178677225Y-136959227D01*
X178906672Y-136745085D01*
X179054929Y-136516101D01*
X179097550Y-136367975D01*
X179085793Y-136259733D01*
X179000363Y-136184537D01*
X178873819Y-136132307D01*
X178717793Y-136083225D01*
X178637831Y-136088884D01*
X178591602Y-136158061D01*
X178577512Y-136193753D01*
X178441379Y-136415982D01*
X178248557Y-136534116D01*
X178130857Y-136550400D01*
X177898727Y-136519303D01*
X177730423Y-136417491D01*
X177618428Y-136232187D01*
X177555223Y-135950612D01*
X177533292Y-135559990D01*
X177533131Y-135534400D01*
X177551618Y-135142286D01*
X177615202Y-134849421D01*
X177730444Y-134634039D01*
X177837772Y-134523942D01*
X178021946Y-134439575D01*
X178276464Y-134410410D01*
X178556163Y-134438851D01*
X178699220Y-134478119D01*
X178870855Y-134530657D01*
X178985788Y-134552872D01*
X179009287Y-134549479D01*
X179028684Y-134474437D01*
X179042141Y-134323797D01*
X179043517Y-134289381D01*
X179035249Y-134128997D01*
X178973243Y-134040543D01*
X178828700Y-133974571D01*
X178523817Y-133906218D01*
X178170797Y-133892126D01*
X177826988Y-133930815D01*
X177578774Y-134006810D01*
X177298851Y-134201625D01*
X177084375Y-134494720D01*
X176940848Y-134872416D01*
X176873772Y-135321030D01*
X176880567Y-135743057D01*
X176962123Y-136214076D01*
X177119493Y-136583333D01*
X177353030Y-136851216D01*
X177663083Y-137018112D01*
X178050004Y-137084408D01*
X178098112Y-137085585D01*
X178359306Y-137076795D01*
G37*
X178359306Y-137076795D02*
X178539032Y-137036913D01*
X178677225Y-136959227D01*
X178906672Y-136745085D01*
X179054929Y-136516101D01*
X179097550Y-136367975D01*
X179085793Y-136259733D01*
X179000363Y-136184537D01*
X178873819Y-136132307D01*
X178717793Y-136083225D01*
X178637831Y-136088884D01*
X178591602Y-136158061D01*
X178577512Y-136193753D01*
X178441379Y-136415982D01*
X178248557Y-136534116D01*
X178130857Y-136550400D01*
X177898727Y-136519303D01*
X177730423Y-136417491D01*
X177618428Y-136232187D01*
X177555223Y-135950612D01*
X177533292Y-135559990D01*
X177533131Y-135534400D01*
X177551618Y-135142286D01*
X177615202Y-134849421D01*
X177730444Y-134634039D01*
X177837772Y-134523942D01*
X178021946Y-134439575D01*
X178276464Y-134410410D01*
X178556163Y-134438851D01*
X178699220Y-134478119D01*
X178870855Y-134530657D01*
X178985788Y-134552872D01*
X179009287Y-134549479D01*
X179028684Y-134474437D01*
X179042141Y-134323797D01*
X179043517Y-134289381D01*
X179035249Y-134128997D01*
X178973243Y-134040543D01*
X178828700Y-133974571D01*
X178523817Y-133906218D01*
X178170797Y-133892126D01*
X177826988Y-133930815D01*
X177578774Y-134006810D01*
X177298851Y-134201625D01*
X177084375Y-134494720D01*
X176940848Y-134872416D01*
X176873772Y-135321030D01*
X176880567Y-135743057D01*
X176962123Y-136214076D01*
X177119493Y-136583333D01*
X177353030Y-136851216D01*
X177663083Y-137018112D01*
X178050004Y-137084408D01*
X178098112Y-137085585D01*
X178359306Y-137076795D01*
G36*
X182436069Y-137065753D02*
G01*
X182694750Y-137012261D01*
X182813422Y-136962369D01*
X182958407Y-136859350D01*
X183068027Y-136731989D01*
X183147902Y-136561245D01*
X183203654Y-136328072D01*
X183240905Y-136013428D01*
X183265275Y-135598268D01*
X183272422Y-135407400D01*
X183285689Y-135034382D01*
X183298571Y-134769340D01*
X183314313Y-134593303D01*
X183336159Y-134487300D01*
X183367355Y-134432360D01*
X183411143Y-134409510D01*
X183444128Y-134403409D01*
X183567242Y-134332422D01*
X183624796Y-134192493D01*
X183643746Y-134047329D01*
X183630651Y-133965191D01*
X183630388Y-133964923D01*
X183550774Y-133938078D01*
X183389167Y-133910695D01*
X183285289Y-133898864D01*
X183089358Y-133888832D01*
X182969462Y-133916714D01*
X182876751Y-133997341D01*
X182849069Y-134031313D01*
X182721552Y-134193425D01*
X182415364Y-134038413D01*
X182045530Y-133908973D01*
X181692342Y-133904653D01*
X181449325Y-133977545D01*
X181210835Y-134146771D01*
X181057715Y-134408793D01*
X180991155Y-134761316D01*
X180988827Y-134844380D01*
X181629958Y-134844380D01*
X181676492Y-134622406D01*
X181721550Y-134532530D01*
X181868465Y-134423327D01*
X182075562Y-134388780D01*
X182299890Y-134429432D01*
X182471386Y-134523009D01*
X182564681Y-134610685D01*
X182615158Y-134713534D01*
X182635529Y-134871967D01*
X182638700Y-135054822D01*
X182636076Y-135272884D01*
X182618511Y-135396088D01*
X182571462Y-135456576D01*
X182480384Y-135486488D01*
X182439601Y-135494845D01*
X182218267Y-135504861D01*
X181987849Y-135462994D01*
X181794372Y-135382239D01*
X181687279Y-135282418D01*
X181632574Y-135085829D01*
X181629958Y-134844380D01*
X180988827Y-134844380D01*
X180988174Y-134867650D01*
X181033379Y-135241588D01*
X181170564Y-135531113D01*
X181402084Y-135738243D01*
X181730294Y-135864994D01*
X182157547Y-135913383D01*
X182210075Y-135914006D01*
X182638700Y-135915400D01*
X182638700Y-136098866D01*
X182598053Y-136285778D01*
X182517327Y-136432241D01*
X182418811Y-136524188D01*
X182288168Y-136569082D01*
X182080491Y-136581483D01*
X182056952Y-136581503D01*
X181812204Y-136575014D01*
X181580164Y-136559314D01*
X181495700Y-136549753D01*
X181349090Y-136537227D01*
X181282954Y-136577455D01*
X181258309Y-136703247D01*
X181253953Y-136753219D01*
X181250073Y-136907009D01*
X181295144Y-136983997D01*
X181422722Y-137027329D01*
X181476203Y-137038969D01*
X181786410Y-137081420D01*
X182119827Y-137089576D01*
X182436069Y-137065753D01*
G37*
X182436069Y-137065753D02*
X182694750Y-137012261D01*
X182813422Y-136962369D01*
X182958407Y-136859350D01*
X183068027Y-136731989D01*
X183147902Y-136561245D01*
X183203654Y-136328072D01*
X183240905Y-136013428D01*
X183265275Y-135598268D01*
X183272422Y-135407400D01*
X183285689Y-135034382D01*
X183298571Y-134769340D01*
X183314313Y-134593303D01*
X183336159Y-134487300D01*
X183367355Y-134432360D01*
X183411143Y-134409510D01*
X183444128Y-134403409D01*
X183567242Y-134332422D01*
X183624796Y-134192493D01*
X183643746Y-134047329D01*
X183630651Y-133965191D01*
X183630388Y-133964923D01*
X183550774Y-133938078D01*
X183389167Y-133910695D01*
X183285289Y-133898864D01*
X183089358Y-133888832D01*
X182969462Y-133916714D01*
X182876751Y-133997341D01*
X182849069Y-134031313D01*
X182721552Y-134193425D01*
X182415364Y-134038413D01*
X182045530Y-133908973D01*
X181692342Y-133904653D01*
X181449325Y-133977545D01*
X181210835Y-134146771D01*
X181057715Y-134408793D01*
X180991155Y-134761316D01*
X180988827Y-134844380D01*
X181629958Y-134844380D01*
X181676492Y-134622406D01*
X181721550Y-134532530D01*
X181868465Y-134423327D01*
X182075562Y-134388780D01*
X182299890Y-134429432D01*
X182471386Y-134523009D01*
X182564681Y-134610685D01*
X182615158Y-134713534D01*
X182635529Y-134871967D01*
X182638700Y-135054822D01*
X182636076Y-135272884D01*
X182618511Y-135396088D01*
X182571462Y-135456576D01*
X182480384Y-135486488D01*
X182439601Y-135494845D01*
X182218267Y-135504861D01*
X181987849Y-135462994D01*
X181794372Y-135382239D01*
X181687279Y-135282418D01*
X181632574Y-135085829D01*
X181629958Y-134844380D01*
X180988827Y-134844380D01*
X180988174Y-134867650D01*
X181033379Y-135241588D01*
X181170564Y-135531113D01*
X181402084Y-135738243D01*
X181730294Y-135864994D01*
X182157547Y-135913383D01*
X182210075Y-135914006D01*
X182638700Y-135915400D01*
X182638700Y-136098866D01*
X182598053Y-136285778D01*
X182517327Y-136432241D01*
X182418811Y-136524188D01*
X182288168Y-136569082D01*
X182080491Y-136581483D01*
X182056952Y-136581503D01*
X181812204Y-136575014D01*
X181580164Y-136559314D01*
X181495700Y-136549753D01*
X181349090Y-136537227D01*
X181282954Y-136577455D01*
X181258309Y-136703247D01*
X181253953Y-136753219D01*
X181250073Y-136907009D01*
X181295144Y-136983997D01*
X181422722Y-137027329D01*
X181476203Y-137038969D01*
X181786410Y-137081420D01*
X182119827Y-137089576D01*
X182436069Y-137065753D01*
G36*
X185514500Y-137017335D02*
G01*
X185785744Y-136855013D01*
X185857744Y-136786270D01*
X186020735Y-136595635D01*
X186085601Y-136463308D01*
X186054028Y-136369071D01*
X185927707Y-136292708D01*
X185899924Y-136281238D01*
X185759175Y-136232335D01*
X185662196Y-136237915D01*
X185559185Y-136311948D01*
X185465762Y-136403038D01*
X185312300Y-136530189D01*
X185170833Y-136605272D01*
X185125683Y-136613900D01*
X184889797Y-136573031D01*
X184712711Y-136463708D01*
X184633723Y-136329934D01*
X184629731Y-136146721D01*
X184724646Y-135991307D01*
X184927989Y-135854151D01*
X185230339Y-135732049D01*
X185493038Y-135626794D01*
X185715992Y-135507322D01*
X185843180Y-135409769D01*
X186020873Y-135143095D01*
X186088522Y-134849924D01*
X186051958Y-134555750D01*
X185917008Y-134286067D01*
X185689502Y-134066366D01*
X185514114Y-133970467D01*
X185299760Y-133916056D01*
X185018918Y-133891934D01*
X184728801Y-133899635D01*
X184486622Y-133940693D01*
X184479788Y-133942731D01*
X184256404Y-134026939D01*
X184074039Y-134125036D01*
X183961252Y-134219111D01*
X183940751Y-134280776D01*
X183982110Y-134396280D01*
X184031943Y-134533485D01*
X184095455Y-134707319D01*
X184392535Y-134549360D01*
X184689645Y-134428241D01*
X184962120Y-134384368D01*
X185189702Y-134414165D01*
X185352134Y-134514055D01*
X185429160Y-134680459D01*
X185432700Y-134733043D01*
X185404430Y-134908994D01*
X185306269Y-135043711D01*
X185118186Y-135155746D01*
X184880659Y-135244405D01*
X184479296Y-135416571D01*
X184195846Y-135633125D01*
X184030882Y-135893356D01*
X183984975Y-136196555D01*
X184001379Y-136336781D01*
X184112573Y-136616326D01*
X184314132Y-136837648D01*
X184580580Y-136994579D01*
X184886442Y-137080950D01*
X185206241Y-137090591D01*
X185514500Y-137017335D01*
G37*
X185514500Y-137017335D02*
X185785744Y-136855013D01*
X185857744Y-136786270D01*
X186020735Y-136595635D01*
X186085601Y-136463308D01*
X186054028Y-136369071D01*
X185927707Y-136292708D01*
X185899924Y-136281238D01*
X185759175Y-136232335D01*
X185662196Y-136237915D01*
X185559185Y-136311948D01*
X185465762Y-136403038D01*
X185312300Y-136530189D01*
X185170833Y-136605272D01*
X185125683Y-136613900D01*
X184889797Y-136573031D01*
X184712711Y-136463708D01*
X184633723Y-136329934D01*
X184629731Y-136146721D01*
X184724646Y-135991307D01*
X184927989Y-135854151D01*
X185230339Y-135732049D01*
X185493038Y-135626794D01*
X185715992Y-135507322D01*
X185843180Y-135409769D01*
X186020873Y-135143095D01*
X186088522Y-134849924D01*
X186051958Y-134555750D01*
X185917008Y-134286067D01*
X185689502Y-134066366D01*
X185514114Y-133970467D01*
X185299760Y-133916056D01*
X185018918Y-133891934D01*
X184728801Y-133899635D01*
X184486622Y-133940693D01*
X184479788Y-133942731D01*
X184256404Y-134026939D01*
X184074039Y-134125036D01*
X183961252Y-134219111D01*
X183940751Y-134280776D01*
X183982110Y-134396280D01*
X184031943Y-134533485D01*
X184095455Y-134707319D01*
X184392535Y-134549360D01*
X184689645Y-134428241D01*
X184962120Y-134384368D01*
X185189702Y-134414165D01*
X185352134Y-134514055D01*
X185429160Y-134680459D01*
X185432700Y-134733043D01*
X185404430Y-134908994D01*
X185306269Y-135043711D01*
X185118186Y-135155746D01*
X184880659Y-135244405D01*
X184479296Y-135416571D01*
X184195846Y-135633125D01*
X184030882Y-135893356D01*
X183984975Y-136196555D01*
X184001379Y-136336781D01*
X184112573Y-136616326D01*
X184314132Y-136837648D01*
X184580580Y-136994579D01*
X184886442Y-137080950D01*
X185206241Y-137090591D01*
X185514500Y-137017335D01*
G36*
X138188700Y-137566400D02*
G01*
X136347200Y-137566400D01*
X136347200Y-136359900D01*
X137934700Y-136359900D01*
X137934700Y-135851900D01*
X136347200Y-135851900D01*
X136347200Y-133946900D01*
X135712200Y-133946900D01*
X135712200Y-138137900D01*
X138188700Y-138137900D01*
X138188700Y-137566400D01*
G37*
X138188700Y-137566400D02*
X136347200Y-137566400D01*
X136347200Y-136359900D01*
X137934700Y-136359900D01*
X137934700Y-135851900D01*
X136347200Y-135851900D01*
X136347200Y-133946900D01*
X135712200Y-133946900D01*
X135712200Y-138137900D01*
X138188700Y-138137900D01*
X138188700Y-137566400D01*
G36*
X169795825Y-137046005D02*
G01*
X170097450Y-137026650D01*
X170114453Y-135486775D01*
X170131457Y-133946900D01*
X169494200Y-133946900D01*
X169494200Y-137065359D01*
X169795825Y-137046005D01*
G37*
X169795825Y-137046005D02*
X170097450Y-137026650D01*
X170114453Y-135486775D01*
X170131457Y-133946900D01*
X169494200Y-133946900D01*
X169494200Y-137065359D01*
X169795825Y-137046005D01*
G36*
X175661265Y-137034002D02*
G01*
X175913565Y-136886256D01*
X176081388Y-136671279D01*
X176112467Y-136555291D01*
X176135508Y-136339497D01*
X176150922Y-136016483D01*
X176159116Y-135578832D01*
X176160763Y-135232775D01*
X176161700Y-133946900D01*
X175526700Y-133946900D01*
X175526700Y-135148865D01*
X175525410Y-135576619D01*
X175520563Y-135895348D01*
X175510696Y-136123010D01*
X175494342Y-136277562D01*
X175470038Y-136376963D01*
X175436319Y-136439171D01*
X175419951Y-136457577D01*
X175268443Y-136528876D01*
X175052162Y-136535289D01*
X174812624Y-136481440D01*
X174591346Y-136371953D01*
X174579999Y-136364030D01*
X174383700Y-136224253D01*
X174383700Y-133946900D01*
X173748700Y-133946900D01*
X173748700Y-137065359D01*
X174050325Y-137046005D01*
X174238616Y-137024640D01*
X174333893Y-136981178D01*
X174370012Y-136899191D01*
X174371394Y-136890241D01*
X174387310Y-136813962D01*
X174425579Y-136791631D01*
X174515749Y-136825936D01*
X174686145Y-136918881D01*
X175024335Y-137054434D01*
X175357115Y-137091435D01*
X175661265Y-137034002D01*
G37*
X175661265Y-137034002D02*
X175913565Y-136886256D01*
X176081388Y-136671279D01*
X176112467Y-136555291D01*
X176135508Y-136339497D01*
X176150922Y-136016483D01*
X176159116Y-135578832D01*
X176160763Y-135232775D01*
X176161700Y-133946900D01*
X175526700Y-133946900D01*
X175526700Y-135148865D01*
X175525410Y-135576619D01*
X175520563Y-135895348D01*
X175510696Y-136123010D01*
X175494342Y-136277562D01*
X175470038Y-136376963D01*
X175436319Y-136439171D01*
X175419951Y-136457577D01*
X175268443Y-136528876D01*
X175052162Y-136535289D01*
X174812624Y-136481440D01*
X174591346Y-136371953D01*
X174579999Y-136364030D01*
X174383700Y-136224253D01*
X174383700Y-133946900D01*
X173748700Y-133946900D01*
X173748700Y-137065359D01*
X174050325Y-137046005D01*
X174238616Y-137024640D01*
X174333893Y-136981178D01*
X174370012Y-136899191D01*
X174371394Y-136890241D01*
X174387310Y-136813962D01*
X174425579Y-136791631D01*
X174515749Y-136825936D01*
X174686145Y-136918881D01*
X175024335Y-137054434D01*
X175357115Y-137091435D01*
X175661265Y-137034002D01*
G36*
X180289200Y-133946900D02*
G01*
X179651942Y-133946900D01*
X179685950Y-137026650D01*
X179987575Y-137046005D01*
X180289200Y-137065359D01*
X180289200Y-133946900D01*
G37*
X180289200Y-133946900D02*
X179651942Y-133946900D01*
X179685950Y-137026650D01*
X179987575Y-137046005D01*
X180289200Y-137065359D01*
X180289200Y-133946900D01*
G36*
X122124363Y-136261460D02*
G01*
X122429496Y-136199926D01*
X122768357Y-136094749D01*
X123164777Y-135939520D01*
X123642588Y-135727833D01*
X123742450Y-135681672D01*
X124408197Y-135393011D01*
X124982867Y-135188264D01*
X125469796Y-135066404D01*
X125869699Y-135026400D01*
X126287254Y-135069346D01*
X126793122Y-135198456D01*
X127388638Y-135414141D01*
X128001357Y-135682154D01*
X128348177Y-135838276D01*
X128692594Y-135983277D01*
X129001118Y-136103715D01*
X129240257Y-136186148D01*
X129298700Y-136202841D01*
X129813339Y-136281814D01*
X130376168Y-136272460D01*
X130949673Y-136180174D01*
X131496341Y-136010353D01*
X131870450Y-135832937D01*
X132009432Y-135748662D01*
X132087207Y-135667938D01*
X132124056Y-135550580D01*
X132140261Y-135356404D01*
X132143419Y-135292074D01*
X132162388Y-134894448D01*
X131794169Y-135080285D01*
X131157140Y-135341423D01*
X130519513Y-135484925D01*
X129893334Y-135508895D01*
X129448675Y-135449467D01*
X129221239Y-135385988D01*
X128910742Y-135277543D01*
X128547819Y-135135751D01*
X128163106Y-134972232D01*
X128015747Y-134905980D01*
X127518269Y-134684256D01*
X127109439Y-134517204D01*
X126766392Y-134398727D01*
X126466262Y-134322722D01*
X126186183Y-134283092D01*
X125903287Y-134273735D01*
X125679200Y-134282682D01*
X125431945Y-134303746D01*
X125203924Y-134338557D01*
X124972848Y-134394387D01*
X124716425Y-134478508D01*
X124412367Y-134598192D01*
X124038383Y-134760711D01*
X123596219Y-134962239D01*
X123064513Y-135194739D01*
X122596613Y-135364668D01*
X122170520Y-135471237D01*
X121764239Y-135513659D01*
X121355772Y-135491146D01*
X120923122Y-135402910D01*
X120444292Y-135248162D01*
X119897285Y-135026116D01*
X119424450Y-134812804D01*
X119099211Y-134668006D01*
X118776040Y-134534785D01*
X118492192Y-134427873D01*
X118284919Y-134362004D01*
X118283983Y-134361763D01*
X117928120Y-134300975D01*
X117506213Y-134275582D01*
X117074401Y-134286320D01*
X116688821Y-134333926D01*
X116656608Y-134340398D01*
X116455966Y-134399386D01*
X116195689Y-134498703D01*
X115927845Y-134618251D01*
X115894608Y-134634516D01*
X115423950Y-134867650D01*
X115386228Y-135657976D01*
X115858753Y-135433575D01*
X116433648Y-135202601D01*
X116984670Y-135073861D01*
X117532736Y-135047637D01*
X118098764Y-135124214D01*
X118703670Y-135303876D01*
X119131857Y-135477947D01*
X119669404Y-135713008D01*
X120110897Y-135897845D01*
X120474169Y-136038440D01*
X120777051Y-136140776D01*
X121037374Y-136210837D01*
X121272970Y-136254606D01*
X121501671Y-136278065D01*
X121519950Y-136279228D01*
X121829125Y-136285758D01*
X122124363Y-136261460D01*
G37*
X122124363Y-136261460D02*
X122429496Y-136199926D01*
X122768357Y-136094749D01*
X123164777Y-135939520D01*
X123642588Y-135727833D01*
X123742450Y-135681672D01*
X124408197Y-135393011D01*
X124982867Y-135188264D01*
X125469796Y-135066404D01*
X125869699Y-135026400D01*
X126287254Y-135069346D01*
X126793122Y-135198456D01*
X127388638Y-135414141D01*
X128001357Y-135682154D01*
X128348177Y-135838276D01*
X128692594Y-135983277D01*
X129001118Y-136103715D01*
X129240257Y-136186148D01*
X129298700Y-136202841D01*
X129813339Y-136281814D01*
X130376168Y-136272460D01*
X130949673Y-136180174D01*
X131496341Y-136010353D01*
X131870450Y-135832937D01*
X132009432Y-135748662D01*
X132087207Y-135667938D01*
X132124056Y-135550580D01*
X132140261Y-135356404D01*
X132143419Y-135292074D01*
X132162388Y-134894448D01*
X131794169Y-135080285D01*
X131157140Y-135341423D01*
X130519513Y-135484925D01*
X129893334Y-135508895D01*
X129448675Y-135449467D01*
X129221239Y-135385988D01*
X128910742Y-135277543D01*
X128547819Y-135135751D01*
X128163106Y-134972232D01*
X128015747Y-134905980D01*
X127518269Y-134684256D01*
X127109439Y-134517204D01*
X126766392Y-134398727D01*
X126466262Y-134322722D01*
X126186183Y-134283092D01*
X125903287Y-134273735D01*
X125679200Y-134282682D01*
X125431945Y-134303746D01*
X125203924Y-134338557D01*
X124972848Y-134394387D01*
X124716425Y-134478508D01*
X124412367Y-134598192D01*
X124038383Y-134760711D01*
X123596219Y-134962239D01*
X123064513Y-135194739D01*
X122596613Y-135364668D01*
X122170520Y-135471237D01*
X121764239Y-135513659D01*
X121355772Y-135491146D01*
X120923122Y-135402910D01*
X120444292Y-135248162D01*
X119897285Y-135026116D01*
X119424450Y-134812804D01*
X119099211Y-134668006D01*
X118776040Y-134534785D01*
X118492192Y-134427873D01*
X118284919Y-134362004D01*
X118283983Y-134361763D01*
X117928120Y-134300975D01*
X117506213Y-134275582D01*
X117074401Y-134286320D01*
X116688821Y-134333926D01*
X116656608Y-134340398D01*
X116455966Y-134399386D01*
X116195689Y-134498703D01*
X115927845Y-134618251D01*
X115894608Y-134634516D01*
X115423950Y-134867650D01*
X115386228Y-135657976D01*
X115858753Y-135433575D01*
X116433648Y-135202601D01*
X116984670Y-135073861D01*
X117532736Y-135047637D01*
X118098764Y-135124214D01*
X118703670Y-135303876D01*
X119131857Y-135477947D01*
X119669404Y-135713008D01*
X120110897Y-135897845D01*
X120474169Y-136038440D01*
X120777051Y-136140776D01*
X121037374Y-136210837D01*
X121272970Y-136254606D01*
X121501671Y-136278065D01*
X121519950Y-136279228D01*
X121829125Y-136285758D01*
X122124363Y-136261460D01*
G36*
X121825573Y-139329426D02*
G01*
X122098878Y-139310249D01*
X122341353Y-139277881D01*
X122578090Y-139224580D01*
X122834182Y-139142605D01*
X123134722Y-139024212D01*
X123504801Y-138861662D01*
X123837700Y-138708618D01*
X124323158Y-138490835D01*
X124724563Y-138330588D01*
X125067052Y-138220560D01*
X125375762Y-138153431D01*
X125675830Y-138121881D01*
X125869700Y-138116978D01*
X126174425Y-138129828D01*
X126472276Y-138173222D01*
X126788257Y-138254429D01*
X127147374Y-138380715D01*
X127574631Y-138559348D01*
X127902549Y-138707812D01*
X128338277Y-138906467D01*
X128685219Y-139055909D01*
X128968183Y-139163716D01*
X129211979Y-139237466D01*
X129441416Y-139284737D01*
X129681303Y-139313107D01*
X129937042Y-139329243D01*
X130500293Y-139322937D01*
X131007021Y-139238906D01*
X131508523Y-139066535D01*
X131754737Y-138953106D01*
X132156200Y-138755466D01*
X132156200Y-137197616D01*
X131814546Y-137382663D01*
X131439497Y-137548129D01*
X130996915Y-137685495D01*
X130542487Y-137780589D01*
X130131900Y-137819238D01*
X130098167Y-137819462D01*
X129730856Y-137797340D01*
X129353935Y-137727987D01*
X128942273Y-137604219D01*
X128470738Y-137418854D01*
X128077221Y-137241897D01*
X127603767Y-137025036D01*
X127219034Y-136860710D01*
X126899974Y-136741147D01*
X126623540Y-136658576D01*
X126366683Y-136605225D01*
X126106356Y-136573322D01*
X126090295Y-136571935D01*
X125737989Y-136566858D01*
X125364477Y-136613957D01*
X124950832Y-136718350D01*
X124478130Y-136885154D01*
X123927447Y-137119488D01*
X123730439Y-137210147D01*
X123198089Y-137448314D01*
X122731364Y-137627818D01*
X122309442Y-137747971D01*
X121911504Y-137808088D01*
X121516728Y-137807482D01*
X121104294Y-137745466D01*
X120653381Y-137621353D01*
X120143169Y-137434456D01*
X119552836Y-137184090D01*
X119284061Y-137063504D01*
X118685751Y-136816225D01*
X118157370Y-136652596D01*
X117677231Y-136568317D01*
X117223647Y-136559087D01*
X116916200Y-136593999D01*
X116650964Y-136655814D01*
X116332213Y-136755622D01*
X116012439Y-136874808D01*
X115744133Y-136994758D01*
X115664580Y-137037843D01*
X115392200Y-137197468D01*
X115392200Y-137958726D01*
X115395890Y-138249873D01*
X115405950Y-138485437D01*
X115420858Y-138641910D01*
X115439096Y-138695786D01*
X115439825Y-138695499D01*
X115953217Y-138449919D01*
X116402992Y-138278719D01*
X116821258Y-138172819D01*
X117240127Y-138123142D01*
X117487700Y-138116498D01*
X117771358Y-138127388D01*
X118045406Y-138164153D01*
X118333961Y-138233832D01*
X118661139Y-138343462D01*
X119051058Y-138500083D01*
X119527836Y-138710732D01*
X119534985Y-138713981D01*
X120021736Y-138930252D01*
X120419554Y-139093178D01*
X120751659Y-139208997D01*
X121041274Y-139283950D01*
X121311619Y-139324276D01*
X121585916Y-139336213D01*
X121825573Y-139329426D01*
G37*
X121825573Y-139329426D02*
X122098878Y-139310249D01*
X122341353Y-139277881D01*
X122578090Y-139224580D01*
X122834182Y-139142605D01*
X123134722Y-139024212D01*
X123504801Y-138861662D01*
X123837700Y-138708618D01*
X124323158Y-138490835D01*
X124724563Y-138330588D01*
X125067052Y-138220560D01*
X125375762Y-138153431D01*
X125675830Y-138121881D01*
X125869700Y-138116978D01*
X126174425Y-138129828D01*
X126472276Y-138173222D01*
X126788257Y-138254429D01*
X127147374Y-138380715D01*
X127574631Y-138559348D01*
X127902549Y-138707812D01*
X128338277Y-138906467D01*
X128685219Y-139055909D01*
X128968183Y-139163716D01*
X129211979Y-139237466D01*
X129441416Y-139284737D01*
X129681303Y-139313107D01*
X129937042Y-139329243D01*
X130500293Y-139322937D01*
X131007021Y-139238906D01*
X131508523Y-139066535D01*
X131754737Y-138953106D01*
X132156200Y-138755466D01*
X132156200Y-137197616D01*
X131814546Y-137382663D01*
X131439497Y-137548129D01*
X130996915Y-137685495D01*
X130542487Y-137780589D01*
X130131900Y-137819238D01*
X130098167Y-137819462D01*
X129730856Y-137797340D01*
X129353935Y-137727987D01*
X128942273Y-137604219D01*
X128470738Y-137418854D01*
X128077221Y-137241897D01*
X127603767Y-137025036D01*
X127219034Y-136860710D01*
X126899974Y-136741147D01*
X126623540Y-136658576D01*
X126366683Y-136605225D01*
X126106356Y-136573322D01*
X126090295Y-136571935D01*
X125737989Y-136566858D01*
X125364477Y-136613957D01*
X124950832Y-136718350D01*
X124478130Y-136885154D01*
X123927447Y-137119488D01*
X123730439Y-137210147D01*
X123198089Y-137448314D01*
X122731364Y-137627818D01*
X122309442Y-137747971D01*
X121911504Y-137808088D01*
X121516728Y-137807482D01*
X121104294Y-137745466D01*
X120653381Y-137621353D01*
X120143169Y-137434456D01*
X119552836Y-137184090D01*
X119284061Y-137063504D01*
X118685751Y-136816225D01*
X118157370Y-136652596D01*
X117677231Y-136568317D01*
X117223647Y-136559087D01*
X116916200Y-136593999D01*
X116650964Y-136655814D01*
X116332213Y-136755622D01*
X116012439Y-136874808D01*
X115744133Y-136994758D01*
X115664580Y-137037843D01*
X115392200Y-137197468D01*
X115392200Y-137958726D01*
X115395890Y-138249873D01*
X115405950Y-138485437D01*
X115420858Y-138641910D01*
X115439096Y-138695786D01*
X115439825Y-138695499D01*
X115953217Y-138449919D01*
X116402992Y-138278719D01*
X116821258Y-138172819D01*
X117240127Y-138123142D01*
X117487700Y-138116498D01*
X117771358Y-138127388D01*
X118045406Y-138164153D01*
X118333961Y-138233832D01*
X118661139Y-138343462D01*
X119051058Y-138500083D01*
X119527836Y-138710732D01*
X119534985Y-138713981D01*
X120021736Y-138930252D01*
X120419554Y-139093178D01*
X120751659Y-139208997D01*
X121041274Y-139283950D01*
X121311619Y-139324276D01*
X121585916Y-139336213D01*
X121825573Y-139329426D01*
G36*
X169919793Y-138171185D02*
G01*
X170006374Y-138135666D01*
X170107076Y-138020238D01*
X170130609Y-137853655D01*
X170088475Y-137675680D01*
X169992178Y-137526077D01*
X169853221Y-137444610D01*
X169804954Y-137439400D01*
X169685987Y-137473909D01*
X169571829Y-137538251D01*
X169458235Y-137680995D01*
X169432428Y-137857578D01*
X169483541Y-138029062D01*
X169600707Y-138156511D01*
X169756910Y-138201400D01*
X169919793Y-138171185D01*
G37*
X169919793Y-138171185D02*
X170006374Y-138135666D01*
X170107076Y-138020238D01*
X170130609Y-137853655D01*
X170088475Y-137675680D01*
X169992178Y-137526077D01*
X169853221Y-137444610D01*
X169804954Y-137439400D01*
X169685987Y-137473909D01*
X169571829Y-137538251D01*
X169458235Y-137680995D01*
X169432428Y-137857578D01*
X169483541Y-138029062D01*
X169600707Y-138156511D01*
X169756910Y-138201400D01*
X169919793Y-138171185D01*
G36*
X180162200Y-138158614D02*
G01*
X180302561Y-138029954D01*
X180352700Y-137819465D01*
X180300933Y-137640802D01*
X180171201Y-137508045D01*
X180001855Y-137444474D01*
X179831246Y-137473365D01*
X179806581Y-137487998D01*
X179670092Y-137639301D01*
X179626280Y-137821562D01*
X179667801Y-137998447D01*
X179787308Y-138133623D01*
X179948301Y-138188955D01*
X180162200Y-138158614D01*
G37*
X180162200Y-138158614D02*
X180302561Y-138029954D01*
X180352700Y-137819465D01*
X180300933Y-137640802D01*
X180171201Y-137508045D01*
X180001855Y-137444474D01*
X179831246Y-137473365D01*
X179806581Y-137487998D01*
X179670092Y-137639301D01*
X179626280Y-137821562D01*
X179667801Y-137998447D01*
X179787308Y-138133623D01*
X179948301Y-138188955D01*
X180162200Y-138158614D01*
%TD*%
M02*
