%TF.GenerationSoftware,KiCad,Pcbnew,5.1.9*%
%TF.CreationDate,2021-04-12T10:05:19-03:00*%
%TF.ProjectId,Autito Microcontroladores,41757469-746f-4204-9d69-63726f636f6e,rev?*%
%TF.SameCoordinates,Original*%
%TF.FileFunction,Copper,L2,Bot*%
%TF.FilePolarity,Positive*%
%FSLAX46Y46*%
G04 Gerber Fmt 4.6, Leading zero omitted, Abs format (unit mm)*
G04 Created by KiCad (PCBNEW 5.1.9) date 2021-04-12 10:05:19*
%MOMM*%
%LPD*%
G01*
G04 APERTURE LIST*
%TA.AperFunction,ComponentPad*%
%ADD10R,3.200000X3.200000*%
%TD*%
%TA.AperFunction,ComponentPad*%
%ADD11O,3.200000X3.200000*%
%TD*%
%TA.AperFunction,ComponentPad*%
%ADD12O,2.000000X1.700000*%
%TD*%
%TA.AperFunction,ComponentPad*%
%ADD13R,1.700000X1.700000*%
%TD*%
%TA.AperFunction,ComponentPad*%
%ADD14O,1.700000X1.700000*%
%TD*%
%TA.AperFunction,ComponentPad*%
%ADD15C,3.500000*%
%TD*%
%TA.AperFunction,ComponentPad*%
%ADD16R,3.500000X3.500000*%
%TD*%
%TA.AperFunction,ComponentPad*%
%ADD17R,1.600000X1.600000*%
%TD*%
%TA.AperFunction,ComponentPad*%
%ADD18O,1.600000X1.600000*%
%TD*%
%TA.AperFunction,ComponentPad*%
%ADD19C,6.400000*%
%TD*%
%TA.AperFunction,ComponentPad*%
%ADD20C,0.800000*%
%TD*%
%TA.AperFunction,ComponentPad*%
%ADD21C,0.100000*%
%TD*%
%TA.AperFunction,ViaPad*%
%ADD22C,1.000000*%
%TD*%
%TA.AperFunction,ViaPad*%
%ADD23C,0.800000*%
%TD*%
%TA.AperFunction,ViaPad*%
%ADD24C,1.200000*%
%TD*%
%TA.AperFunction,Conductor*%
%ADD25C,0.600000*%
%TD*%
%TA.AperFunction,Conductor*%
%ADD26C,0.250000*%
%TD*%
%TA.AperFunction,Conductor*%
%ADD27C,0.800000*%
%TD*%
%TA.AperFunction,Conductor*%
%ADD28C,0.254000*%
%TD*%
%TA.AperFunction,Conductor*%
%ADD29C,0.100000*%
%TD*%
G04 APERTURE END LIST*
D10*
%TO.P,D4,1*%
%TO.N,Net-(D4-Pad1)*%
X141147800Y-94990000D03*
D11*
%TO.P,D4,2*%
%TO.N,GNDREF*%
X156387800Y-94990000D03*
%TD*%
%TO.P,J7,1*%
%TO.N,Net-(J7-Pad1)*%
%TA.AperFunction,ComponentPad*%
G36*
G01*
X113473800Y-49289600D02*
X114973800Y-49289600D01*
G75*
G02*
X115223800Y-49539600I0J-250000D01*
G01*
X115223800Y-50739600D01*
G75*
G02*
X114973800Y-50989600I-250000J0D01*
G01*
X113473800Y-50989600D01*
G75*
G02*
X113223800Y-50739600I0J250000D01*
G01*
X113223800Y-49539600D01*
G75*
G02*
X113473800Y-49289600I250000J0D01*
G01*
G37*
%TD.AperFunction*%
D12*
%TO.P,J7,2*%
%TO.N,Net-(J7-Pad2)*%
X114223800Y-52639600D03*
%TD*%
%TO.P,J8,2*%
%TO.N,Net-(J8-Pad2)*%
X187528200Y-50139600D03*
%TO.P,J8,1*%
%TO.N,Net-(J8-Pad1)*%
%TA.AperFunction,ComponentPad*%
G36*
G01*
X188278200Y-53489600D02*
X186778200Y-53489600D01*
G75*
G02*
X186528200Y-53239600I0J250000D01*
G01*
X186528200Y-52039600D01*
G75*
G02*
X186778200Y-51789600I250000J0D01*
G01*
X188278200Y-51789600D01*
G75*
G02*
X188528200Y-52039600I0J-250000D01*
G01*
X188528200Y-53239600D01*
G75*
G02*
X188278200Y-53489600I-250000J0D01*
G01*
G37*
%TD.AperFunction*%
%TD*%
D13*
%TO.P,J9,1*%
%TO.N,+3V3*%
X117957600Y-102920800D03*
D14*
%TO.P,J9,2*%
%TO.N,/WiFi/ESP_FLASH_ENABLE*%
X117957600Y-105460800D03*
%TO.P,J9,3*%
%TO.N,GNDREF*%
X117957600Y-108000800D03*
%TD*%
D13*
%TO.P,J11,1*%
%TO.N,+3V3*%
X174447200Y-72019600D03*
D14*
%TO.P,J11,2*%
%TO.N,/Microcontrolador/SWDIO*%
X171907200Y-72019600D03*
%TO.P,J11,3*%
%TO.N,/Microcontrolador/SWCLK*%
X169367200Y-72019600D03*
%TO.P,J11,4*%
%TO.N,GNDREF*%
X166827200Y-72019600D03*
%TD*%
D13*
%TO.P,J12,1*%
%TO.N,GNDREF*%
X157886400Y-58547000D03*
D14*
%TO.P,J12,2*%
X160426400Y-58547000D03*
%TO.P,J12,3*%
%TO.N,Net-(J12-Pad3)*%
X157886400Y-61087000D03*
%TO.P,J12,4*%
%TO.N,Net-(J12-Pad4)*%
X160426400Y-61087000D03*
%TO.P,J12,5*%
%TO.N,+3V3*%
X157886400Y-63627000D03*
%TO.P,J12,6*%
X160426400Y-63627000D03*
%TD*%
D15*
%TO.P,J13,2*%
%TO.N,+BATT*%
X186782600Y-121818400D03*
D16*
%TO.P,J13,1*%
%TO.N,Net-(J13-Pad1)*%
X114782600Y-121818400D03*
%TD*%
%TO.P,J14,1*%
%TO.N,GNDREF*%
X186782600Y-143332200D03*
D15*
%TO.P,J14,2*%
%TO.N,Net-(J13-Pad1)*%
X114782600Y-143332200D03*
%TD*%
D17*
%TO.P,U1,1*%
%TO.N,Net-(J7-Pad1)*%
X125628400Y-52882800D03*
D18*
%TO.P,U1,5*%
%TO.N,GNDREF*%
X133248400Y-60502800D03*
%TO.P,U1,2*%
%TO.N,+5V*%
X125628400Y-55422800D03*
%TO.P,U1,6*%
%TO.N,MOTIA*%
X133248400Y-57962800D03*
%TO.P,U1,3*%
%TO.N,+5V*%
X125628400Y-57962800D03*
%TO.P,U1,7*%
%TO.N,MOTIB*%
X133248400Y-55422800D03*
%TO.P,U1,4*%
%TO.N,Net-(J7-Pad2)*%
X125628400Y-60502800D03*
%TO.P,U1,8*%
%TO.N,GNDREF*%
X133248400Y-52882800D03*
%TD*%
%TO.P,U2,8*%
%TO.N,GNDREF*%
X175641000Y-52882800D03*
%TO.P,U2,4*%
%TO.N,Net-(J8-Pad1)*%
X168021000Y-60502800D03*
%TO.P,U2,7*%
%TO.N,MOTDB*%
X175641000Y-55422800D03*
%TO.P,U2,3*%
%TO.N,+5V*%
X168021000Y-57962800D03*
%TO.P,U2,6*%
%TO.N,MOTDA*%
X175641000Y-57962800D03*
%TO.P,U2,2*%
%TO.N,+5V*%
X168021000Y-55422800D03*
%TO.P,U2,5*%
%TO.N,GNDREF*%
X175641000Y-60502800D03*
D17*
%TO.P,U2,1*%
%TO.N,Net-(J8-Pad2)*%
X168021000Y-52882800D03*
%TD*%
D19*
%TO.P,H1,1*%
%TO.N,N/C*%
X185115200Y-75509120D03*
D20*
X187515200Y-75509120D03*
X186812256Y-77206176D03*
X185115200Y-77909120D03*
X183418144Y-77206176D03*
X182715200Y-75509120D03*
X183418144Y-73812064D03*
X185115200Y-73109120D03*
X186812256Y-73812064D03*
%TD*%
%TO.P,H2,1*%
%TO.N,N/C*%
X125623656Y-64241344D03*
X123926600Y-63538400D03*
X122229544Y-64241344D03*
X121526600Y-65938400D03*
X122229544Y-67635456D03*
X123926600Y-68338400D03*
X125623656Y-67635456D03*
X126326600Y-65938400D03*
D19*
X123926600Y-65938400D03*
%TD*%
D14*
%TO.P,J1,2*%
%TO.N,Net-(J1-Pad2)*%
X114945160Y-63484760D03*
D13*
%TO.P,J1,1*%
%TO.N,+3V3*%
X112405160Y-63484760D03*
D14*
%TO.P,J1,5*%
X112405160Y-68564760D03*
%TO.P,J1,6*%
%TO.N,SENSOR1*%
X114945160Y-68564760D03*
%TO.P,J1,3*%
%TO.N,Net-(J1-Pad3)*%
X112405160Y-66024760D03*
%TO.P,J1,4*%
%TO.N,Net-(J1-Pad4)*%
X114945160Y-66024760D03*
%TD*%
%TO.P,J2,2*%
%TO.N,Net-(J2-Pad2)*%
%TA.AperFunction,ComponentPad*%
G36*
G01*
X160271187Y-46487830D02*
X160271187Y-46487830D01*
G75*
G02*
X160582309Y-47648952I-425000J-736122D01*
G01*
X160582309Y-47648952D01*
G75*
G02*
X159421187Y-47960074I-736122J425000D01*
G01*
X159421187Y-47960074D01*
G75*
G02*
X159110065Y-46798952I425000J736122D01*
G01*
X159110065Y-46798952D01*
G75*
G02*
X160271187Y-46487830I736122J-425000D01*
G01*
G37*
%TD.AperFunction*%
%TA.AperFunction,ComponentPad*%
D21*
%TO.P,J2,1*%
%TO.N,+3V3*%
G36*
X160805065Y-43863126D02*
G01*
X162277309Y-44713126D01*
X161427309Y-46185370D01*
X159955065Y-45335370D01*
X160805065Y-43863126D01*
G37*
%TD.AperFunction*%
%TO.P,J2,5*%
%TA.AperFunction,ComponentPad*%
G36*
G01*
X157141778Y-41748126D02*
X157141778Y-41748126D01*
G75*
G02*
X157452900Y-42909248I-425000J-736122D01*
G01*
X157452900Y-42909248D01*
G75*
G02*
X156291778Y-43220370I-736122J425000D01*
G01*
X156291778Y-43220370D01*
G75*
G02*
X155980656Y-42059248I425000J736122D01*
G01*
X155980656Y-42059248D01*
G75*
G02*
X157141778Y-41748126I736122J-425000D01*
G01*
G37*
%TD.AperFunction*%
%TO.P,J2,6*%
%TO.N,SENSOR4*%
%TA.AperFunction,ComponentPad*%
G36*
G01*
X155871778Y-43947830D02*
X155871778Y-43947830D01*
G75*
G02*
X156182900Y-45108952I-425000J-736122D01*
G01*
X156182900Y-45108952D01*
G75*
G02*
X155021778Y-45420074I-736122J425000D01*
G01*
X155021778Y-45420074D01*
G75*
G02*
X154710656Y-44258952I425000J736122D01*
G01*
X154710656Y-44258952D01*
G75*
G02*
X155871778Y-43947830I736122J-425000D01*
G01*
G37*
%TD.AperFunction*%
%TO.P,J2,3*%
%TO.N,Net-(J2-Pad3)*%
%TA.AperFunction,ComponentPad*%
G36*
G01*
X159341483Y-43018126D02*
X159341483Y-43018126D01*
G75*
G02*
X159652605Y-44179248I-425000J-736122D01*
G01*
X159652605Y-44179248D01*
G75*
G02*
X158491483Y-44490370I-736122J425000D01*
G01*
X158491483Y-44490370D01*
G75*
G02*
X158180361Y-43329248I425000J736122D01*
G01*
X158180361Y-43329248D01*
G75*
G02*
X159341483Y-43018126I736122J-425000D01*
G01*
G37*
%TD.AperFunction*%
%TO.P,J2,4*%
%TO.N,Net-(J2-Pad4)*%
%TA.AperFunction,ComponentPad*%
G36*
G01*
X158071483Y-45217830D02*
X158071483Y-45217830D01*
G75*
G02*
X158382605Y-46378952I-425000J-736122D01*
G01*
X158382605Y-46378952D01*
G75*
G02*
X157221483Y-46690074I-736122J425000D01*
G01*
X157221483Y-46690074D01*
G75*
G02*
X156910361Y-45528952I425000J736122D01*
G01*
X156910361Y-45528952D01*
G75*
G02*
X158071483Y-45217830I736122J-425000D01*
G01*
G37*
%TD.AperFunction*%
%TD*%
D14*
%TO.P,J3,4*%
%TO.N,Net-(J3-Pad4)*%
X121335800Y-44348400D03*
%TO.P,J3,3*%
%TO.N,Net-(J3-Pad3)*%
X121335800Y-41808400D03*
%TO.P,J3,6*%
%TO.N,SENSOR2*%
X118795800Y-44348400D03*
%TO.P,J3,5*%
%TO.N,+3V3*%
X118795800Y-41808400D03*
D13*
%TO.P,J3,1*%
X123875800Y-41808400D03*
D14*
%TO.P,J3,2*%
%TO.N,Net-(J3-Pad2)*%
X123875800Y-44348400D03*
%TD*%
%TO.P,J4,2*%
%TO.N,Net-(J4-Pad2)*%
X184150000Y-44348400D03*
D13*
%TO.P,J4,1*%
%TO.N,+3V3*%
X184150000Y-41808400D03*
D14*
%TO.P,J4,5*%
X179070000Y-41808400D03*
%TO.P,J4,6*%
%TO.N,SENSOR5*%
X179070000Y-44348400D03*
%TO.P,J4,3*%
%TO.N,Net-(J4-Pad3)*%
X181610000Y-41808400D03*
%TO.P,J4,4*%
%TO.N,Net-(J4-Pad4)*%
X181610000Y-44348400D03*
%TD*%
%TO.P,J5,2*%
%TO.N,Net-(J5-Pad2)*%
%TA.AperFunction,ComponentPad*%
G36*
G01*
X145273387Y-43962830D02*
X145273387Y-43962830D01*
G75*
G02*
X146434509Y-44273952I425000J-736122D01*
G01*
X146434509Y-44273952D01*
G75*
G02*
X146123387Y-45435074I-736122J-425000D01*
G01*
X146123387Y-45435074D01*
G75*
G02*
X144962265Y-45123952I-425000J736122D01*
G01*
X144962265Y-45123952D01*
G75*
G02*
X145273387Y-43962830I736122J425000D01*
G01*
G37*
%TD.AperFunction*%
%TA.AperFunction,ComponentPad*%
D21*
%TO.P,J5,1*%
%TO.N,+3V3*%
G36*
X143267265Y-42188126D02*
G01*
X144739509Y-41338126D01*
X145589509Y-42810370D01*
X144117265Y-43660370D01*
X143267265Y-42188126D01*
G37*
%TD.AperFunction*%
%TO.P,J5,5*%
%TA.AperFunction,ComponentPad*%
G36*
G01*
X139603978Y-44303126D02*
X139603978Y-44303126D01*
G75*
G02*
X140765100Y-44614248I425000J-736122D01*
G01*
X140765100Y-44614248D01*
G75*
G02*
X140453978Y-45775370I-736122J-425000D01*
G01*
X140453978Y-45775370D01*
G75*
G02*
X139292856Y-45464248I-425000J736122D01*
G01*
X139292856Y-45464248D01*
G75*
G02*
X139603978Y-44303126I736122J425000D01*
G01*
G37*
%TD.AperFunction*%
%TO.P,J5,6*%
%TO.N,SENSOR3*%
%TA.AperFunction,ComponentPad*%
G36*
G01*
X140873978Y-46502830D02*
X140873978Y-46502830D01*
G75*
G02*
X142035100Y-46813952I425000J-736122D01*
G01*
X142035100Y-46813952D01*
G75*
G02*
X141723978Y-47975074I-736122J-425000D01*
G01*
X141723978Y-47975074D01*
G75*
G02*
X140562856Y-47663952I-425000J736122D01*
G01*
X140562856Y-47663952D01*
G75*
G02*
X140873978Y-46502830I736122J425000D01*
G01*
G37*
%TD.AperFunction*%
%TO.P,J5,3*%
%TO.N,Net-(J5-Pad3)*%
%TA.AperFunction,ComponentPad*%
G36*
G01*
X141803683Y-43033126D02*
X141803683Y-43033126D01*
G75*
G02*
X142964805Y-43344248I425000J-736122D01*
G01*
X142964805Y-43344248D01*
G75*
G02*
X142653683Y-44505370I-736122J-425000D01*
G01*
X142653683Y-44505370D01*
G75*
G02*
X141492561Y-44194248I-425000J736122D01*
G01*
X141492561Y-44194248D01*
G75*
G02*
X141803683Y-43033126I736122J425000D01*
G01*
G37*
%TD.AperFunction*%
%TO.P,J5,4*%
%TO.N,Net-(J5-Pad4)*%
%TA.AperFunction,ComponentPad*%
G36*
G01*
X143073683Y-45232830D02*
X143073683Y-45232830D01*
G75*
G02*
X144234805Y-45543952I425000J-736122D01*
G01*
X144234805Y-45543952D01*
G75*
G02*
X143923683Y-46705074I-736122J-425000D01*
G01*
X143923683Y-46705074D01*
G75*
G02*
X142762561Y-46393952I-425000J736122D01*
G01*
X142762561Y-46393952D01*
G75*
G02*
X143073683Y-45232830I736122J425000D01*
G01*
G37*
%TD.AperFunction*%
%TD*%
D14*
%TO.P,J6,2*%
%TO.N,Net-(J6-Pad2)*%
X186725560Y-68894759D03*
D13*
%TO.P,J6,1*%
%TO.N,+3V3*%
X189265560Y-68894759D03*
D14*
%TO.P,J6,5*%
X189265560Y-63814759D03*
%TO.P,J6,6*%
%TO.N,SENSOR6*%
X186725560Y-63814759D03*
%TO.P,J6,3*%
%TO.N,Net-(J6-Pad3)*%
X189265560Y-66354759D03*
%TO.P,J6,4*%
%TO.N,Net-(J6-Pad4)*%
X186725560Y-66354759D03*
%TD*%
D22*
%TO.N,+3V3*%
X132892800Y-92608400D03*
X126746000Y-89458800D03*
X147142200Y-86283800D03*
D23*
X141224000Y-66167000D03*
D22*
X138582400Y-72186800D03*
D23*
X136550400Y-103403000D03*
X132880100Y-101295200D03*
X136601200Y-101295200D03*
X129184800Y-103403000D03*
X129159000Y-101295200D03*
X129184400Y-105511600D03*
X132892800Y-105511600D03*
X136601200Y-105511600D03*
D22*
X172455840Y-82275680D03*
D23*
%TO.N,+BATT*%
X167894000Y-84124800D03*
X167894000Y-91770200D03*
%TO.N,/Microcontrolador/STATUS_LED*%
X149047200Y-67691000D03*
X149936200Y-72009000D03*
%TO.N,/Microcontrolador/SWCLK*%
X164439600Y-72517000D03*
%TO.N,/Microcontrolador/SWDIO*%
X158394400Y-68173600D03*
%TO.N,/WiFi/ESP_FLASH_ENABLE*%
X120751600Y-81330800D03*
%TO.N,SENSOR1*%
X151460200Y-79984600D03*
%TO.N,SENSOR4*%
X154331810Y-75744600D03*
%TO.N,SENSOR2*%
X150114000Y-79984600D03*
%TO.N,SENSOR5*%
X155331810Y-75744600D03*
%TO.N,SENSOR3*%
X153331810Y-75744600D03*
%TO.N,SENSOR6*%
X153873200Y-80162400D03*
X184068720Y-65669160D03*
%TO.N,/Microcontrolador/PID_INIT*%
X163718600Y-80019403D03*
X165668600Y-80019403D03*
%TO.N,/Microcontrolador/BOOT1*%
X170637200Y-79806800D03*
X155651200Y-80035400D03*
%TO.N,MOTDB*%
X158394400Y-66173594D03*
%TO.N,MOTDA*%
X158394400Y-67173597D03*
%TO.N,MOTIA*%
X152222200Y-67310000D03*
%TO.N,MOTIB*%
X152222200Y-66309997D03*
%TO.N,ESP_SOFT_RST*%
X152908000Y-82550000D03*
X116755800Y-85140800D03*
D24*
%TO.N,GNDREF*%
X129844800Y-66751200D03*
D23*
X137367800Y-71272400D03*
%TO.N,UART_TX*%
X152908000Y-83667600D03*
X124612400Y-83667600D03*
%TO.N,UART_RX*%
X152908000Y-84709000D03*
X124612400Y-84709000D03*
%TO.N,/Microcontrolador/V_BAT*%
X165668600Y-79019400D03*
X163718600Y-79019400D03*
%TO.N,GND1*%
X154731720Y-98993960D03*
X154731720Y-110469680D03*
X154731720Y-107676950D03*
X154731720Y-101888290D03*
X154731720Y-104782620D03*
X157159325Y-98993960D03*
X157159325Y-101888290D03*
X157159325Y-104782620D03*
X157159325Y-107676950D03*
X157159325Y-110469680D03*
X159586930Y-110469680D03*
X162014535Y-110469680D03*
X166869745Y-110469680D03*
X169297350Y-110469680D03*
X171724955Y-110469680D03*
X174152560Y-110469680D03*
X174152560Y-107588050D03*
X174152560Y-104706420D03*
X174152560Y-101824790D03*
X174152560Y-98943160D03*
X171724955Y-98943160D03*
X171724955Y-101824790D03*
X171724955Y-104706420D03*
X171724955Y-107588050D03*
%TD*%
D25*
%TO.N,+3V3*%
X142392400Y-86283800D02*
X147142200Y-86283800D01*
D26*
X141224000Y-66167000D02*
X139319000Y-66167000D01*
X139319000Y-66167000D02*
X138582400Y-66903600D01*
X138582400Y-72186800D02*
X138582400Y-66903600D01*
X166295210Y-82270600D02*
X172466000Y-82270600D01*
X162282010Y-86283800D02*
X166295210Y-82270600D01*
X147142200Y-86283800D02*
X162282010Y-86283800D01*
D25*
X139217400Y-89458800D02*
X142392400Y-86283800D01*
X132892800Y-90246200D02*
X132105400Y-89458800D01*
X132105400Y-89458800D02*
X139217400Y-89458800D01*
X132892800Y-92608400D02*
X132892800Y-90246200D01*
X126746000Y-89458800D02*
X132105400Y-89458800D01*
D26*
X172460920Y-82270600D02*
X172455840Y-82275680D01*
X172466000Y-82270600D02*
X172460920Y-82270600D01*
%TO.N,+BATT*%
X167894000Y-84124800D02*
X167894000Y-91770200D01*
%TO.N,/Microcontrolador/STATUS_LED*%
X149936200Y-72009000D02*
X149936200Y-67919600D01*
X149707600Y-67691000D02*
X149047200Y-67691000D01*
X149936200Y-67919600D02*
X149707600Y-67691000D01*
%TO.N,/Microcontrolador/SWCLK*%
X169367200Y-73380600D02*
X169367200Y-72019600D01*
X168783000Y-73964800D02*
X169367200Y-73380600D01*
X164922200Y-73964800D02*
X168783000Y-73964800D01*
X164439600Y-73482200D02*
X164922200Y-73964800D01*
X164439600Y-72517000D02*
X164439600Y-73482200D01*
%TO.N,/Microcontrolador/SWDIO*%
X158394400Y-68173600D02*
X169367200Y-68173600D01*
X171907200Y-70713600D02*
X171907200Y-72019600D01*
X169367200Y-68173600D02*
X171907200Y-70713600D01*
%TO.N,/WiFi/ESP_FLASH_ENABLE*%
X117957600Y-105460800D02*
X120015000Y-105460800D01*
X120015000Y-105460800D02*
X120751600Y-104724200D01*
X120751600Y-82727800D02*
X120751600Y-81330800D01*
X120751600Y-104724200D02*
X120751600Y-82727800D01*
%TO.N,SENSOR1*%
X114945160Y-71023480D02*
X114945160Y-68564760D01*
X119344440Y-71922640D02*
X115844320Y-71922640D01*
X115844320Y-71922640D02*
X114945160Y-71023480D01*
X129521790Y-82099990D02*
X119344440Y-71922640D01*
X151003000Y-82099990D02*
X129521790Y-82099990D01*
X151460200Y-81642790D02*
X151003000Y-82099990D01*
X151460200Y-79984600D02*
X151460200Y-81642790D01*
%TO.N,SENSOR4*%
X154331810Y-50671590D02*
X155446778Y-49556622D01*
X155446778Y-49556622D02*
X155446778Y-44683952D01*
X154331810Y-75744600D02*
X154331810Y-50671590D01*
%TO.N,SENSOR2*%
X118795800Y-70737590D02*
X118795800Y-44348400D01*
X129708190Y-81649980D02*
X118795800Y-70737590D01*
X149783800Y-81649980D02*
X129708190Y-81649980D01*
X150114000Y-81319780D02*
X149783800Y-81649980D01*
X150114000Y-79984600D02*
X150114000Y-81319780D01*
%TO.N,SENSOR5*%
X164134800Y-65227200D02*
X165455600Y-63906400D01*
X157886400Y-65227200D02*
X164134800Y-65227200D01*
X155331810Y-67781790D02*
X157886400Y-65227200D01*
X155331810Y-75744600D02*
X155331810Y-67781790D01*
X165455600Y-63906400D02*
X166928800Y-63906400D01*
X166928800Y-63906400D02*
X171094400Y-59740800D01*
X171094400Y-59740800D02*
X171094400Y-49580800D01*
X176326800Y-44348400D02*
X179070000Y-44348400D01*
X171094400Y-49580800D02*
X176326800Y-44348400D01*
%TO.N,SENSOR3*%
X141298978Y-51027378D02*
X141298978Y-47238952D01*
X152273000Y-51689000D02*
X141960600Y-51689000D01*
X141960600Y-51689000D02*
X141298978Y-51027378D01*
X153331810Y-52747810D02*
X152273000Y-51689000D01*
X153331810Y-75744600D02*
X153331810Y-52747810D01*
%TO.N,SENSOR6*%
X153873200Y-80162400D02*
X153873200Y-78435200D01*
X153873200Y-78435200D02*
X157403800Y-74904600D01*
X157403800Y-74904600D02*
X178181000Y-74904600D01*
X179567840Y-73517760D02*
X178181000Y-74904600D01*
X179567840Y-69016880D02*
X179567840Y-73517760D01*
X179567840Y-69016880D02*
X179567840Y-68011040D01*
X179567840Y-68011040D02*
X181909720Y-65669160D01*
X181909720Y-65669160D02*
X184068720Y-65669160D01*
%TO.N,/Microcontrolador/PID_INIT*%
X163718600Y-80019403D02*
X165668600Y-80019403D01*
%TO.N,/Microcontrolador/BOOT1*%
X168122600Y-79806800D02*
X170637200Y-79806800D01*
X166954200Y-80975200D02*
X168122600Y-79806800D01*
X162356800Y-80975200D02*
X166954200Y-80975200D01*
X161417000Y-80035400D02*
X162356800Y-80975200D01*
X155651200Y-80035400D02*
X161417000Y-80035400D01*
%TO.N,MOTDB*%
X158394400Y-66173594D02*
X167125406Y-66173594D01*
X167125406Y-66173594D02*
X172389800Y-60909200D01*
X172389800Y-60909200D02*
X172389800Y-56718200D01*
X173685200Y-55422800D02*
X175641000Y-55422800D01*
X172389800Y-56718200D02*
X173685200Y-55422800D01*
%TO.N,MOTDA*%
X158394400Y-67173597D02*
X167928803Y-67173597D01*
X167928803Y-67173597D02*
X173304200Y-61798200D01*
X173304200Y-61798200D02*
X173304200Y-58699400D01*
X174040800Y-57962800D02*
X175641000Y-57962800D01*
X173304200Y-58699400D02*
X174040800Y-57962800D01*
%TO.N,MOTIA*%
X137617200Y-57962800D02*
X133248400Y-57962800D01*
X138557000Y-58902600D02*
X137617200Y-57962800D01*
X138557000Y-60706000D02*
X138557000Y-58902600D01*
X144272002Y-66421000D02*
X138557000Y-60706000D01*
X149656800Y-66421000D02*
X144272002Y-66421000D01*
X150545800Y-67310000D02*
X149656800Y-66421000D01*
X152222200Y-67310000D02*
X150545800Y-67310000D01*
%TO.N,MOTIB*%
X135713610Y-55422800D02*
X133248400Y-55422800D01*
X139007009Y-58716199D02*
X135713610Y-55422800D01*
X139007010Y-60519600D02*
X139007009Y-58716199D01*
X152222200Y-66309997D02*
X150307797Y-66309997D01*
X150307797Y-66309997D02*
X149968790Y-65970990D01*
X144458400Y-65970990D02*
X139007010Y-60519600D01*
X149968790Y-65970990D02*
X144458400Y-65970990D01*
%TO.N,ESP_SOFT_RST*%
X116755800Y-85140800D02*
X116755800Y-80018000D01*
X116755800Y-80018000D02*
X118160800Y-78613000D01*
X118160800Y-78613000D02*
X125298200Y-78613000D01*
X129235200Y-82550000D02*
X130098800Y-82550000D01*
X125298200Y-78613000D02*
X129235200Y-82550000D01*
X152908000Y-82550000D02*
X130098800Y-82550000D01*
D27*
%TO.N,GNDREF*%
X133248400Y-60502800D02*
X133248400Y-63347600D01*
X133248400Y-63347600D02*
X129844800Y-66751200D01*
D26*
X135367800Y-71272400D02*
X137367800Y-71272400D01*
X130846600Y-66751200D02*
X135367800Y-71272400D01*
X129844800Y-66751200D02*
X130846600Y-66751200D01*
%TO.N,UART_TX*%
X125857000Y-83667600D02*
X124612400Y-83667600D01*
X152908000Y-83667600D02*
X125857000Y-83667600D01*
%TO.N,UART_RX*%
X125857000Y-84709000D02*
X124612400Y-84709000D01*
X152908000Y-84709000D02*
X125857000Y-84709000D01*
%TO.N,/Microcontrolador/V_BAT*%
X165668600Y-79019400D02*
X163718600Y-79019400D01*
%TD*%
D28*
%TO.N,+3V3*%
X137594457Y-100750169D02*
X137684155Y-100787323D01*
X137761176Y-100846424D01*
X137820277Y-100923445D01*
X137857431Y-101013143D01*
X137871200Y-101117728D01*
X137871200Y-105689072D01*
X137857431Y-105793657D01*
X137820277Y-105883355D01*
X137761176Y-105960376D01*
X137684155Y-106019477D01*
X137594457Y-106056631D01*
X137489872Y-106070400D01*
X128321128Y-106070400D01*
X128216543Y-106056631D01*
X128126845Y-106019477D01*
X128049824Y-105960376D01*
X127990723Y-105883355D01*
X127953569Y-105793657D01*
X127939800Y-105689072D01*
X127939800Y-101117728D01*
X127953569Y-101013143D01*
X127990723Y-100923445D01*
X128049824Y-100846424D01*
X128126845Y-100787323D01*
X128216543Y-100750169D01*
X128321128Y-100736400D01*
X137489872Y-100736400D01*
X137594457Y-100750169D01*
%TA.AperFunction,Conductor*%
D29*
G36*
X137594457Y-100750169D02*
G01*
X137684155Y-100787323D01*
X137761176Y-100846424D01*
X137820277Y-100923445D01*
X137857431Y-101013143D01*
X137871200Y-101117728D01*
X137871200Y-105689072D01*
X137857431Y-105793657D01*
X137820277Y-105883355D01*
X137761176Y-105960376D01*
X137684155Y-106019477D01*
X137594457Y-106056631D01*
X137489872Y-106070400D01*
X128321128Y-106070400D01*
X128216543Y-106056631D01*
X128126845Y-106019477D01*
X128049824Y-105960376D01*
X127990723Y-105883355D01*
X127953569Y-105793657D01*
X127939800Y-105689072D01*
X127939800Y-101117728D01*
X127953569Y-101013143D01*
X127990723Y-100923445D01*
X128049824Y-100846424D01*
X128126845Y-100787323D01*
X128216543Y-100750169D01*
X128321128Y-100736400D01*
X137489872Y-100736400D01*
X137594457Y-100750169D01*
G37*
%TD.AperFunction*%
%TD*%
D28*
%TO.N,GND1*%
X174876577Y-98367649D02*
X174966275Y-98404803D01*
X175043296Y-98463904D01*
X175102397Y-98540925D01*
X175139551Y-98630623D01*
X175153320Y-98735208D01*
X175153320Y-110875752D01*
X175139551Y-110980337D01*
X175102397Y-111070035D01*
X175043296Y-111147056D01*
X174966275Y-111206157D01*
X174876577Y-111243311D01*
X174771992Y-111257080D01*
X154208808Y-111257080D01*
X154104223Y-111243311D01*
X154014525Y-111206157D01*
X153937504Y-111147056D01*
X153878403Y-111070035D01*
X153841249Y-110980337D01*
X153827480Y-110875752D01*
X153827480Y-98735208D01*
X153841249Y-98630623D01*
X153878403Y-98540925D01*
X153937504Y-98463904D01*
X154014525Y-98404803D01*
X154104223Y-98367649D01*
X154208808Y-98353880D01*
X174771992Y-98353880D01*
X174876577Y-98367649D01*
%TA.AperFunction,Conductor*%
D29*
G36*
X174876577Y-98367649D02*
G01*
X174966275Y-98404803D01*
X175043296Y-98463904D01*
X175102397Y-98540925D01*
X175139551Y-98630623D01*
X175153320Y-98735208D01*
X175153320Y-110875752D01*
X175139551Y-110980337D01*
X175102397Y-111070035D01*
X175043296Y-111147056D01*
X174966275Y-111206157D01*
X174876577Y-111243311D01*
X174771992Y-111257080D01*
X154208808Y-111257080D01*
X154104223Y-111243311D01*
X154014525Y-111206157D01*
X153937504Y-111147056D01*
X153878403Y-111070035D01*
X153841249Y-110980337D01*
X153827480Y-110875752D01*
X153827480Y-98735208D01*
X153841249Y-98630623D01*
X153878403Y-98540925D01*
X153937504Y-98463904D01*
X154014525Y-98404803D01*
X154104223Y-98367649D01*
X154208808Y-98353880D01*
X174771992Y-98353880D01*
X174876577Y-98367649D01*
G37*
%TD.AperFunction*%
%TD*%
D28*
%TO.N,GNDREF*%
X190342520Y-62791612D02*
X190212192Y-62661284D01*
X189968971Y-62498769D01*
X189698718Y-62386827D01*
X189411820Y-62329759D01*
X189119300Y-62329759D01*
X188832402Y-62386827D01*
X188562149Y-62498769D01*
X188318928Y-62661284D01*
X188112085Y-62868127D01*
X187995560Y-63042519D01*
X187879035Y-62868127D01*
X187672192Y-62661284D01*
X187428971Y-62498769D01*
X187158718Y-62386827D01*
X186871820Y-62329759D01*
X186579300Y-62329759D01*
X186292402Y-62386827D01*
X186022149Y-62498769D01*
X185778928Y-62661284D01*
X185572085Y-62868127D01*
X185409570Y-63111348D01*
X185297628Y-63381601D01*
X185240560Y-63668499D01*
X185240560Y-63961019D01*
X185297628Y-64247917D01*
X185409570Y-64518170D01*
X185572085Y-64761391D01*
X185778928Y-64968234D01*
X185953320Y-65084759D01*
X185778928Y-65201284D01*
X185572085Y-65408127D01*
X185409570Y-65651348D01*
X185297628Y-65921601D01*
X185240560Y-66208499D01*
X185240560Y-66501019D01*
X185297628Y-66787917D01*
X185409570Y-67058170D01*
X185572085Y-67301391D01*
X185778928Y-67508234D01*
X185953320Y-67624759D01*
X185778928Y-67741284D01*
X185572085Y-67948127D01*
X185409570Y-68191348D01*
X185297628Y-68461601D01*
X185240560Y-68748499D01*
X185240560Y-69041019D01*
X185297628Y-69327917D01*
X185409570Y-69598170D01*
X185572085Y-69841391D01*
X185778928Y-70048234D01*
X186022149Y-70210749D01*
X186292402Y-70322691D01*
X186579300Y-70379759D01*
X186871820Y-70379759D01*
X187158718Y-70322691D01*
X187428971Y-70210749D01*
X187672192Y-70048234D01*
X187804047Y-69916379D01*
X187826058Y-69988939D01*
X187885023Y-70099253D01*
X187964375Y-70195944D01*
X188061066Y-70275296D01*
X188171380Y-70334261D01*
X188291078Y-70370571D01*
X188415560Y-70382831D01*
X190115560Y-70382831D01*
X190240042Y-70370571D01*
X190342520Y-70339485D01*
X190342520Y-153786840D01*
X111379000Y-153786840D01*
X111379000Y-143097298D01*
X112397600Y-143097298D01*
X112397600Y-143567102D01*
X112489254Y-144027879D01*
X112669040Y-144461921D01*
X112930050Y-144852549D01*
X113262251Y-145184750D01*
X113652879Y-145445760D01*
X114086921Y-145625546D01*
X114547698Y-145717200D01*
X115017502Y-145717200D01*
X115478279Y-145625546D01*
X115912321Y-145445760D01*
X116302949Y-145184750D01*
X116635150Y-144852549D01*
X116896160Y-144461921D01*
X117075946Y-144027879D01*
X117167600Y-143567102D01*
X117167600Y-143112072D01*
X120292600Y-143112072D01*
X120292600Y-143552328D01*
X120378490Y-143984125D01*
X120546969Y-144390869D01*
X120791562Y-144756929D01*
X121102871Y-145068238D01*
X121468931Y-145312831D01*
X121875675Y-145481310D01*
X122307472Y-145567200D01*
X122747728Y-145567200D01*
X123179525Y-145481310D01*
X123586269Y-145312831D01*
X123952329Y-145068238D01*
X124263638Y-144756929D01*
X124508231Y-144390869D01*
X124676710Y-143984125D01*
X124762600Y-143552328D01*
X124762600Y-143112072D01*
X175902600Y-143112072D01*
X175902600Y-143552328D01*
X175988490Y-143984125D01*
X176156969Y-144390869D01*
X176401562Y-144756929D01*
X176712871Y-145068238D01*
X177078931Y-145312831D01*
X177485675Y-145481310D01*
X177917472Y-145567200D01*
X178357728Y-145567200D01*
X178789525Y-145481310D01*
X179196269Y-145312831D01*
X179562329Y-145068238D01*
X179873638Y-144756929D01*
X180118231Y-144390869D01*
X180286710Y-143984125D01*
X180372600Y-143552328D01*
X180372600Y-143112072D01*
X180286710Y-142680275D01*
X180118231Y-142273531D01*
X179873638Y-141907471D01*
X179562329Y-141596162D01*
X179196269Y-141351569D01*
X178789525Y-141183090D01*
X178357728Y-141097200D01*
X177917472Y-141097200D01*
X177485675Y-141183090D01*
X177078931Y-141351569D01*
X176712871Y-141596162D01*
X176401562Y-141907471D01*
X176156969Y-142273531D01*
X175988490Y-142680275D01*
X175902600Y-143112072D01*
X124762600Y-143112072D01*
X124676710Y-142680275D01*
X124508231Y-142273531D01*
X124263638Y-141907471D01*
X123952329Y-141596162D01*
X123586269Y-141351569D01*
X123179525Y-141183090D01*
X122747728Y-141097200D01*
X122307472Y-141097200D01*
X121875675Y-141183090D01*
X121468931Y-141351569D01*
X121102871Y-141596162D01*
X120791562Y-141907471D01*
X120546969Y-142273531D01*
X120378490Y-142680275D01*
X120292600Y-143112072D01*
X117167600Y-143112072D01*
X117167600Y-143097298D01*
X117075946Y-142636521D01*
X116896160Y-142202479D01*
X116635150Y-141811851D01*
X116302949Y-141479650D01*
X115912321Y-141218640D01*
X115478279Y-141038854D01*
X115017502Y-140947200D01*
X114547698Y-140947200D01*
X114086921Y-141038854D01*
X113652879Y-141218640D01*
X113262251Y-141479650D01*
X112930050Y-141811851D01*
X112669040Y-142202479D01*
X112489254Y-142636521D01*
X112397600Y-143097298D01*
X111379000Y-143097298D01*
X111379000Y-120068400D01*
X112394528Y-120068400D01*
X112394528Y-123568400D01*
X112406788Y-123692882D01*
X112443098Y-123812580D01*
X112502063Y-123922894D01*
X112581415Y-124019585D01*
X112678106Y-124098937D01*
X112788420Y-124157902D01*
X112908118Y-124194212D01*
X113032600Y-124206472D01*
X116532600Y-124206472D01*
X116657082Y-124194212D01*
X116776780Y-124157902D01*
X116887094Y-124098937D01*
X116983785Y-124019585D01*
X117063137Y-123922894D01*
X117122102Y-123812580D01*
X117158412Y-123692882D01*
X117170672Y-123568400D01*
X117170672Y-121598272D01*
X121192600Y-121598272D01*
X121192600Y-122038528D01*
X121278490Y-122470325D01*
X121446969Y-122877069D01*
X121691562Y-123243129D01*
X122002871Y-123554438D01*
X122368931Y-123799031D01*
X122775675Y-123967510D01*
X123207472Y-124053400D01*
X123647728Y-124053400D01*
X124079525Y-123967510D01*
X124486269Y-123799031D01*
X124852329Y-123554438D01*
X125163638Y-123243129D01*
X125408231Y-122877069D01*
X125576710Y-122470325D01*
X125662600Y-122038528D01*
X125662600Y-121598272D01*
X176802600Y-121598272D01*
X176802600Y-122038528D01*
X176888490Y-122470325D01*
X177056969Y-122877069D01*
X177301562Y-123243129D01*
X177612871Y-123554438D01*
X177978931Y-123799031D01*
X178385675Y-123967510D01*
X178817472Y-124053400D01*
X179257728Y-124053400D01*
X179689525Y-123967510D01*
X180096269Y-123799031D01*
X180462329Y-123554438D01*
X180773638Y-123243129D01*
X181018231Y-122877069D01*
X181186710Y-122470325D01*
X181272600Y-122038528D01*
X181272600Y-121598272D01*
X181269662Y-121583498D01*
X184397600Y-121583498D01*
X184397600Y-122053302D01*
X184489254Y-122514079D01*
X184669040Y-122948121D01*
X184930050Y-123338749D01*
X185262251Y-123670950D01*
X185652879Y-123931960D01*
X186086921Y-124111746D01*
X186547698Y-124203400D01*
X187017502Y-124203400D01*
X187478279Y-124111746D01*
X187912321Y-123931960D01*
X188302949Y-123670950D01*
X188635150Y-123338749D01*
X188896160Y-122948121D01*
X189075946Y-122514079D01*
X189167600Y-122053302D01*
X189167600Y-121583498D01*
X189075946Y-121122721D01*
X188896160Y-120688679D01*
X188635150Y-120298051D01*
X188302949Y-119965850D01*
X187912321Y-119704840D01*
X187478279Y-119525054D01*
X187017502Y-119433400D01*
X186547698Y-119433400D01*
X186086921Y-119525054D01*
X185652879Y-119704840D01*
X185262251Y-119965850D01*
X184930050Y-120298051D01*
X184669040Y-120688679D01*
X184489254Y-121122721D01*
X184397600Y-121583498D01*
X181269662Y-121583498D01*
X181186710Y-121166475D01*
X181018231Y-120759731D01*
X180773638Y-120393671D01*
X180462329Y-120082362D01*
X180096269Y-119837769D01*
X179689525Y-119669290D01*
X179257728Y-119583400D01*
X178817472Y-119583400D01*
X178385675Y-119669290D01*
X177978931Y-119837769D01*
X177612871Y-120082362D01*
X177301562Y-120393671D01*
X177056969Y-120759731D01*
X176888490Y-121166475D01*
X176802600Y-121598272D01*
X125662600Y-121598272D01*
X125576710Y-121166475D01*
X125408231Y-120759731D01*
X125163638Y-120393671D01*
X124852329Y-120082362D01*
X124486269Y-119837769D01*
X124079525Y-119669290D01*
X123647728Y-119583400D01*
X123207472Y-119583400D01*
X122775675Y-119669290D01*
X122368931Y-119837769D01*
X122002871Y-120082362D01*
X121691562Y-120393671D01*
X121446969Y-120759731D01*
X121278490Y-121166475D01*
X121192600Y-121598272D01*
X117170672Y-121598272D01*
X117170672Y-120068400D01*
X117158412Y-119943918D01*
X117122102Y-119824220D01*
X117063137Y-119713906D01*
X116983785Y-119617215D01*
X116887094Y-119537863D01*
X116776780Y-119478898D01*
X116657082Y-119442588D01*
X116532600Y-119430328D01*
X113032600Y-119430328D01*
X112908118Y-119442588D01*
X112788420Y-119478898D01*
X112678106Y-119537863D01*
X112581415Y-119617215D01*
X112502063Y-119713906D01*
X112443098Y-119824220D01*
X112406788Y-119943918D01*
X112394528Y-120068400D01*
X111379000Y-120068400D01*
X111379000Y-102070800D01*
X116469528Y-102070800D01*
X116469528Y-103770800D01*
X116481788Y-103895282D01*
X116518098Y-104014980D01*
X116577063Y-104125294D01*
X116656415Y-104221985D01*
X116753106Y-104301337D01*
X116863420Y-104360302D01*
X116935980Y-104382313D01*
X116804125Y-104514168D01*
X116641610Y-104757389D01*
X116529668Y-105027642D01*
X116472600Y-105314540D01*
X116472600Y-105607060D01*
X116529668Y-105893958D01*
X116641610Y-106164211D01*
X116804125Y-106407432D01*
X117010968Y-106614275D01*
X117254189Y-106776790D01*
X117524442Y-106888732D01*
X117811340Y-106945800D01*
X118103860Y-106945800D01*
X118390758Y-106888732D01*
X118661011Y-106776790D01*
X118904232Y-106614275D01*
X119111075Y-106407432D01*
X119235778Y-106220800D01*
X119977678Y-106220800D01*
X120015000Y-106224476D01*
X120052322Y-106220800D01*
X120052333Y-106220800D01*
X120163986Y-106209803D01*
X120307247Y-106166346D01*
X120439276Y-106095774D01*
X120555001Y-106000801D01*
X120578803Y-105971798D01*
X121262604Y-105287998D01*
X121291601Y-105264201D01*
X121386574Y-105148476D01*
X121457146Y-105016447D01*
X121500603Y-104873186D01*
X121511600Y-104761533D01*
X121511600Y-104761525D01*
X121515276Y-104724200D01*
X121511600Y-104686875D01*
X121511600Y-101109400D01*
X127177800Y-101109400D01*
X127177800Y-105697400D01*
X127183232Y-105780283D01*
X127200269Y-105909693D01*
X127243173Y-106069814D01*
X127293123Y-106190404D01*
X127376010Y-106333967D01*
X127455470Y-106437520D01*
X127572680Y-106554730D01*
X127676233Y-106634190D01*
X127819796Y-106717077D01*
X127940386Y-106767027D01*
X128100507Y-106809931D01*
X128229917Y-106826968D01*
X128312800Y-106832400D01*
X137498200Y-106832400D01*
X137581083Y-106826968D01*
X137710493Y-106809931D01*
X137870614Y-106767027D01*
X137991204Y-106717077D01*
X138134767Y-106634190D01*
X138238320Y-106554730D01*
X138355530Y-106437520D01*
X138434990Y-106333967D01*
X138517877Y-106190404D01*
X138567827Y-106069814D01*
X138610731Y-105909693D01*
X138627768Y-105780283D01*
X138633200Y-105697400D01*
X138633200Y-101109400D01*
X138627768Y-101026517D01*
X138610731Y-100897107D01*
X138567827Y-100736986D01*
X138517877Y-100616396D01*
X138434990Y-100472833D01*
X138355530Y-100369280D01*
X138238320Y-100252070D01*
X138134767Y-100172610D01*
X137991204Y-100089723D01*
X137870614Y-100039773D01*
X137710493Y-99996869D01*
X137581083Y-99979832D01*
X137498200Y-99974400D01*
X128312800Y-99974400D01*
X128229917Y-99979832D01*
X128100507Y-99996869D01*
X127940386Y-100039773D01*
X127819796Y-100089723D01*
X127676233Y-100172610D01*
X127572680Y-100252070D01*
X127455470Y-100369280D01*
X127376010Y-100472833D01*
X127293123Y-100616396D01*
X127243173Y-100736986D01*
X127200269Y-100897107D01*
X127183232Y-101026517D01*
X127177800Y-101109400D01*
X121511600Y-101109400D01*
X121511600Y-98726880D01*
X153065480Y-98726880D01*
X153065480Y-110884080D01*
X153070912Y-110966963D01*
X153087949Y-111096373D01*
X153130853Y-111256494D01*
X153180803Y-111377084D01*
X153263690Y-111520647D01*
X153343150Y-111624200D01*
X153460360Y-111741410D01*
X153563913Y-111820870D01*
X153707476Y-111903757D01*
X153828066Y-111953707D01*
X153988187Y-111996611D01*
X154117597Y-112013648D01*
X154200480Y-112019080D01*
X174780320Y-112019080D01*
X174863203Y-112013648D01*
X174992613Y-111996611D01*
X175152734Y-111953707D01*
X175273324Y-111903757D01*
X175416887Y-111820870D01*
X175520440Y-111741410D01*
X175637650Y-111624200D01*
X175717110Y-111520647D01*
X175799997Y-111377084D01*
X175849947Y-111256494D01*
X175892851Y-111096373D01*
X175909888Y-110966963D01*
X175915320Y-110884080D01*
X175915320Y-98726880D01*
X175909888Y-98643997D01*
X175892851Y-98514587D01*
X175849947Y-98354466D01*
X175799997Y-98233876D01*
X175717110Y-98090313D01*
X175637650Y-97986760D01*
X175520440Y-97869550D01*
X175416887Y-97790090D01*
X175273324Y-97707203D01*
X175152734Y-97657253D01*
X174992613Y-97614349D01*
X174863203Y-97597312D01*
X174780320Y-97591880D01*
X154200480Y-97591880D01*
X154117597Y-97597312D01*
X153988187Y-97614349D01*
X153828066Y-97657253D01*
X153707476Y-97707203D01*
X153563913Y-97790090D01*
X153460360Y-97869550D01*
X153343150Y-97986760D01*
X153263690Y-98090313D01*
X153180803Y-98233876D01*
X153130853Y-98354466D01*
X153087949Y-98514587D01*
X153070912Y-98643997D01*
X153065480Y-98726880D01*
X121511600Y-98726880D01*
X121511600Y-82034511D01*
X121555537Y-81990574D01*
X121668805Y-81821056D01*
X121746826Y-81632698D01*
X121786600Y-81432739D01*
X121786600Y-81228861D01*
X121746826Y-81028902D01*
X121668805Y-80840544D01*
X121555537Y-80671026D01*
X121411374Y-80526863D01*
X121241856Y-80413595D01*
X121053498Y-80335574D01*
X120853539Y-80295800D01*
X120649661Y-80295800D01*
X120449702Y-80335574D01*
X120261344Y-80413595D01*
X120091826Y-80526863D01*
X119947663Y-80671026D01*
X119834395Y-80840544D01*
X119756374Y-81028902D01*
X119716600Y-81228861D01*
X119716600Y-81432739D01*
X119756374Y-81632698D01*
X119834395Y-81821056D01*
X119947663Y-81990574D01*
X119991600Y-82034511D01*
X119991600Y-82765132D01*
X119991601Y-82765142D01*
X119991600Y-104409398D01*
X119700199Y-104700800D01*
X119235778Y-104700800D01*
X119111075Y-104514168D01*
X118979220Y-104382313D01*
X119051780Y-104360302D01*
X119162094Y-104301337D01*
X119258785Y-104221985D01*
X119338137Y-104125294D01*
X119397102Y-104014980D01*
X119433412Y-103895282D01*
X119445672Y-103770800D01*
X119445672Y-102070800D01*
X119433412Y-101946318D01*
X119397102Y-101826620D01*
X119338137Y-101716306D01*
X119258785Y-101619615D01*
X119162094Y-101540263D01*
X119051780Y-101481298D01*
X118932082Y-101444988D01*
X118807600Y-101432728D01*
X117107600Y-101432728D01*
X116983118Y-101444988D01*
X116863420Y-101481298D01*
X116753106Y-101540263D01*
X116656415Y-101619615D01*
X116577063Y-101716306D01*
X116518098Y-101826620D01*
X116481788Y-101946318D01*
X116469528Y-102070800D01*
X111379000Y-102070800D01*
X111379000Y-69638707D01*
X111458528Y-69718235D01*
X111701749Y-69880750D01*
X111972002Y-69992692D01*
X112258900Y-70049760D01*
X112551420Y-70049760D01*
X112838318Y-69992692D01*
X113108571Y-69880750D01*
X113351792Y-69718235D01*
X113558635Y-69511392D01*
X113675160Y-69337000D01*
X113791685Y-69511392D01*
X113998528Y-69718235D01*
X114185160Y-69842939D01*
X114185160Y-70986157D01*
X114181484Y-71023480D01*
X114185160Y-71060802D01*
X114185160Y-71060812D01*
X114196157Y-71172465D01*
X114225925Y-71270597D01*
X114239614Y-71315726D01*
X114310186Y-71447756D01*
X114334413Y-71477276D01*
X114405159Y-71563481D01*
X114434162Y-71587283D01*
X115280520Y-72433642D01*
X115304319Y-72462641D01*
X115420044Y-72557614D01*
X115552073Y-72628186D01*
X115695334Y-72671643D01*
X115806987Y-72682640D01*
X115806996Y-72682640D01*
X115844319Y-72686316D01*
X115881642Y-72682640D01*
X119029639Y-72682640D01*
X124199998Y-77853000D01*
X118198122Y-77853000D01*
X118160799Y-77849324D01*
X118123476Y-77853000D01*
X118123467Y-77853000D01*
X118011814Y-77863997D01*
X117868553Y-77907454D01*
X117736523Y-77978026D01*
X117696273Y-78011059D01*
X117620799Y-78072999D01*
X117597001Y-78101997D01*
X116244798Y-79454201D01*
X116215800Y-79477999D01*
X116192002Y-79506997D01*
X116192001Y-79506998D01*
X116120826Y-79593724D01*
X116050254Y-79725754D01*
X116025670Y-79806800D01*
X116006798Y-79869014D01*
X115995801Y-79980667D01*
X115992124Y-80018000D01*
X115995801Y-80055332D01*
X115995800Y-84437089D01*
X115951863Y-84481026D01*
X115838595Y-84650544D01*
X115760574Y-84838902D01*
X115720800Y-85038861D01*
X115720800Y-85242739D01*
X115760574Y-85442698D01*
X115838595Y-85631056D01*
X115951863Y-85800574D01*
X116096026Y-85944737D01*
X116265544Y-86058005D01*
X116453902Y-86136026D01*
X116653861Y-86175800D01*
X116857739Y-86175800D01*
X117057698Y-86136026D01*
X117246056Y-86058005D01*
X117415574Y-85944737D01*
X117559737Y-85800574D01*
X117673005Y-85631056D01*
X117751026Y-85442698D01*
X117790800Y-85242739D01*
X117790800Y-85038861D01*
X117751026Y-84838902D01*
X117673005Y-84650544D01*
X117559737Y-84481026D01*
X117515800Y-84437089D01*
X117515800Y-80332801D01*
X118475602Y-79373000D01*
X124983399Y-79373000D01*
X128517998Y-82907600D01*
X125316111Y-82907600D01*
X125272174Y-82863663D01*
X125102656Y-82750395D01*
X124914298Y-82672374D01*
X124714339Y-82632600D01*
X124510461Y-82632600D01*
X124310502Y-82672374D01*
X124122144Y-82750395D01*
X123952626Y-82863663D01*
X123808463Y-83007826D01*
X123695195Y-83177344D01*
X123617174Y-83365702D01*
X123577400Y-83565661D01*
X123577400Y-83769539D01*
X123617174Y-83969498D01*
X123695195Y-84157856D01*
X123715537Y-84188300D01*
X123695195Y-84218744D01*
X123617174Y-84407102D01*
X123577400Y-84607061D01*
X123577400Y-84810939D01*
X123617174Y-85010898D01*
X123695195Y-85199256D01*
X123808463Y-85368774D01*
X123952626Y-85512937D01*
X124122144Y-85626205D01*
X124310502Y-85704226D01*
X124510461Y-85744000D01*
X124714339Y-85744000D01*
X124914298Y-85704226D01*
X125102656Y-85626205D01*
X125272174Y-85512937D01*
X125316111Y-85469000D01*
X141933316Y-85469000D01*
X141870428Y-85502614D01*
X141728056Y-85619456D01*
X141698774Y-85655136D01*
X138830111Y-88523800D01*
X132151332Y-88523800D01*
X132105400Y-88519276D01*
X132059468Y-88523800D01*
X127389619Y-88523800D01*
X127283624Y-88452976D01*
X127077067Y-88367417D01*
X126857788Y-88323800D01*
X126634212Y-88323800D01*
X126414933Y-88367417D01*
X126208376Y-88452976D01*
X126022480Y-88577188D01*
X125864388Y-88735280D01*
X125740176Y-88921176D01*
X125654617Y-89127733D01*
X125611000Y-89347012D01*
X125611000Y-89570588D01*
X125654617Y-89789867D01*
X125740176Y-89996424D01*
X125864388Y-90182320D01*
X126022480Y-90340412D01*
X126208376Y-90464624D01*
X126414933Y-90550183D01*
X126634212Y-90593800D01*
X126857788Y-90593800D01*
X127077067Y-90550183D01*
X127283624Y-90464624D01*
X127389619Y-90393800D01*
X131718111Y-90393800D01*
X131957801Y-90633490D01*
X131957800Y-91964780D01*
X131886976Y-92070776D01*
X131801417Y-92277333D01*
X131757800Y-92496612D01*
X131757800Y-92720188D01*
X131801417Y-92939467D01*
X131886976Y-93146024D01*
X132011188Y-93331920D01*
X132169280Y-93490012D01*
X132355176Y-93614224D01*
X132561733Y-93699783D01*
X132781012Y-93743400D01*
X133004588Y-93743400D01*
X133223867Y-93699783D01*
X133430424Y-93614224D01*
X133616320Y-93490012D01*
X133716332Y-93390000D01*
X138909728Y-93390000D01*
X138909728Y-96590000D01*
X138921988Y-96714482D01*
X138958298Y-96834180D01*
X139017263Y-96944494D01*
X139096615Y-97041185D01*
X139193306Y-97120537D01*
X139303620Y-97179502D01*
X139423318Y-97215812D01*
X139547800Y-97228072D01*
X142747800Y-97228072D01*
X142872282Y-97215812D01*
X142991980Y-97179502D01*
X143102294Y-97120537D01*
X143198985Y-97041185D01*
X143278337Y-96944494D01*
X143337302Y-96834180D01*
X143373612Y-96714482D01*
X143385872Y-96590000D01*
X143385872Y-93390000D01*
X143373612Y-93265518D01*
X143337302Y-93145820D01*
X143278337Y-93035506D01*
X143198985Y-92938815D01*
X143102294Y-92859463D01*
X142991980Y-92800498D01*
X142872282Y-92764188D01*
X142747800Y-92751928D01*
X139547800Y-92751928D01*
X139423318Y-92764188D01*
X139303620Y-92800498D01*
X139193306Y-92859463D01*
X139096615Y-92938815D01*
X139017263Y-93035506D01*
X138958298Y-93145820D01*
X138921988Y-93265518D01*
X138909728Y-93390000D01*
X133716332Y-93390000D01*
X133774412Y-93331920D01*
X133898624Y-93146024D01*
X133984183Y-92939467D01*
X134027800Y-92720188D01*
X134027800Y-92496612D01*
X133984183Y-92277333D01*
X133898624Y-92070776D01*
X133827800Y-91964781D01*
X133827800Y-90393800D01*
X139171468Y-90393800D01*
X139217400Y-90398324D01*
X139263332Y-90393800D01*
X139400692Y-90380271D01*
X139576940Y-90326807D01*
X139739372Y-90239986D01*
X139881744Y-90123144D01*
X139911030Y-90087459D01*
X142779690Y-87218800D01*
X146498581Y-87218800D01*
X146604576Y-87289624D01*
X146811133Y-87375183D01*
X147030412Y-87418800D01*
X147253988Y-87418800D01*
X147473267Y-87375183D01*
X147679824Y-87289624D01*
X147865720Y-87165412D01*
X147987332Y-87043800D01*
X162244688Y-87043800D01*
X162282010Y-87047476D01*
X162319332Y-87043800D01*
X162319343Y-87043800D01*
X162430996Y-87032803D01*
X162574257Y-86989346D01*
X162706286Y-86918774D01*
X162822011Y-86823801D01*
X162845814Y-86794797D01*
X165617750Y-84022861D01*
X166859000Y-84022861D01*
X166859000Y-84226739D01*
X166898774Y-84426698D01*
X166976795Y-84615056D01*
X167090063Y-84784574D01*
X167134000Y-84828511D01*
X167134001Y-91066488D01*
X167090063Y-91110426D01*
X166976795Y-91279944D01*
X166898774Y-91468302D01*
X166859000Y-91668261D01*
X166859000Y-91872139D01*
X166898774Y-92072098D01*
X166976795Y-92260456D01*
X167090063Y-92429974D01*
X167234226Y-92574137D01*
X167403744Y-92687405D01*
X167592102Y-92765426D01*
X167792061Y-92805200D01*
X167995939Y-92805200D01*
X168195898Y-92765426D01*
X168384256Y-92687405D01*
X168553774Y-92574137D01*
X168697937Y-92429974D01*
X168811205Y-92260456D01*
X168889226Y-92072098D01*
X168929000Y-91872139D01*
X168929000Y-91668261D01*
X168889226Y-91468302D01*
X168811205Y-91279944D01*
X168697937Y-91110426D01*
X168654000Y-91066489D01*
X168654000Y-84828511D01*
X168697937Y-84784574D01*
X168811205Y-84615056D01*
X168889226Y-84426698D01*
X168929000Y-84226739D01*
X168929000Y-84022861D01*
X168889226Y-83822902D01*
X168811205Y-83634544D01*
X168697937Y-83465026D01*
X168553774Y-83320863D01*
X168384256Y-83207595D01*
X168195898Y-83129574D01*
X167995939Y-83089800D01*
X167792061Y-83089800D01*
X167592102Y-83129574D01*
X167403744Y-83207595D01*
X167234226Y-83320863D01*
X167090063Y-83465026D01*
X166976795Y-83634544D01*
X166898774Y-83822902D01*
X166859000Y-84022861D01*
X165617750Y-84022861D01*
X166610012Y-83030600D01*
X171605628Y-83030600D01*
X171732320Y-83157292D01*
X171918216Y-83281504D01*
X172124773Y-83367063D01*
X172344052Y-83410680D01*
X172567628Y-83410680D01*
X172786907Y-83367063D01*
X172993464Y-83281504D01*
X173179360Y-83157292D01*
X173337452Y-82999200D01*
X173461664Y-82813304D01*
X173547223Y-82606747D01*
X173590840Y-82387468D01*
X173590840Y-82163892D01*
X173547223Y-81944613D01*
X173461664Y-81738056D01*
X173337452Y-81552160D01*
X173179360Y-81394068D01*
X172993464Y-81269856D01*
X172786907Y-81184297D01*
X172567628Y-81140680D01*
X172344052Y-81140680D01*
X172124773Y-81184297D01*
X171918216Y-81269856D01*
X171732320Y-81394068D01*
X171615788Y-81510600D01*
X167497977Y-81510600D01*
X167518004Y-81486197D01*
X168437402Y-80566800D01*
X169933489Y-80566800D01*
X169977426Y-80610737D01*
X170146944Y-80724005D01*
X170335302Y-80802026D01*
X170535261Y-80841800D01*
X170739139Y-80841800D01*
X170939098Y-80802026D01*
X171127456Y-80724005D01*
X171296974Y-80610737D01*
X171441137Y-80466574D01*
X171554405Y-80297056D01*
X171632426Y-80108698D01*
X171672200Y-79908739D01*
X171672200Y-79704861D01*
X171632426Y-79504902D01*
X171554405Y-79316544D01*
X171441137Y-79147026D01*
X171296974Y-79002863D01*
X171127456Y-78889595D01*
X170939098Y-78811574D01*
X170739139Y-78771800D01*
X170535261Y-78771800D01*
X170335302Y-78811574D01*
X170146944Y-78889595D01*
X169977426Y-79002863D01*
X169933489Y-79046800D01*
X168159922Y-79046800D01*
X168122599Y-79043124D01*
X168085276Y-79046800D01*
X168085267Y-79046800D01*
X167973614Y-79057797D01*
X167830353Y-79101254D01*
X167698323Y-79171826D01*
X167665363Y-79198876D01*
X167582599Y-79266799D01*
X167558801Y-79295797D01*
X166696236Y-80158363D01*
X166703600Y-80121342D01*
X166703600Y-79917464D01*
X166663826Y-79717505D01*
X166585805Y-79529147D01*
X166579293Y-79519402D01*
X166585805Y-79509656D01*
X166663826Y-79321298D01*
X166703600Y-79121339D01*
X166703600Y-78917461D01*
X166663826Y-78717502D01*
X166585805Y-78529144D01*
X166472537Y-78359626D01*
X166328374Y-78215463D01*
X166158856Y-78102195D01*
X165970498Y-78024174D01*
X165770539Y-77984400D01*
X165566661Y-77984400D01*
X165366702Y-78024174D01*
X165178344Y-78102195D01*
X165008826Y-78215463D01*
X164964889Y-78259400D01*
X164422311Y-78259400D01*
X164378374Y-78215463D01*
X164208856Y-78102195D01*
X164020498Y-78024174D01*
X163820539Y-77984400D01*
X163616661Y-77984400D01*
X163416702Y-78024174D01*
X163228344Y-78102195D01*
X163058826Y-78215463D01*
X162914663Y-78359626D01*
X162801395Y-78529144D01*
X162723374Y-78717502D01*
X162683600Y-78917461D01*
X162683600Y-79121339D01*
X162723374Y-79321298D01*
X162801395Y-79509656D01*
X162807907Y-79519402D01*
X162801395Y-79529147D01*
X162723374Y-79717505D01*
X162683600Y-79917464D01*
X162683600Y-80121342D01*
X162702269Y-80215200D01*
X162671602Y-80215200D01*
X161980804Y-79524402D01*
X161957001Y-79495399D01*
X161841276Y-79400426D01*
X161709247Y-79329854D01*
X161565986Y-79286397D01*
X161454333Y-79275400D01*
X161454322Y-79275400D01*
X161417000Y-79271724D01*
X161379678Y-79275400D01*
X156354911Y-79275400D01*
X156310974Y-79231463D01*
X156141456Y-79118195D01*
X155953098Y-79040174D01*
X155753139Y-79000400D01*
X155549261Y-79000400D01*
X155349302Y-79040174D01*
X155160944Y-79118195D01*
X154991426Y-79231463D01*
X154847263Y-79375626D01*
X154733995Y-79545144D01*
X154723108Y-79571427D01*
X154677137Y-79502626D01*
X154633200Y-79458689D01*
X154633200Y-78750001D01*
X157718603Y-75664600D01*
X178143678Y-75664600D01*
X178181000Y-75668276D01*
X178218322Y-75664600D01*
X178218333Y-75664600D01*
X178329986Y-75653603D01*
X178473247Y-75610146D01*
X178605276Y-75539574D01*
X178721001Y-75444601D01*
X178744804Y-75415597D01*
X179028996Y-75131405D01*
X181280200Y-75131405D01*
X181280200Y-75886835D01*
X181427577Y-76627748D01*
X181716667Y-77325674D01*
X182136361Y-77953790D01*
X182670530Y-78487959D01*
X183298646Y-78907653D01*
X183996572Y-79196743D01*
X184737485Y-79344120D01*
X185492915Y-79344120D01*
X186233828Y-79196743D01*
X186931754Y-78907653D01*
X187559870Y-78487959D01*
X188094039Y-77953790D01*
X188513733Y-77325674D01*
X188802823Y-76627748D01*
X188950200Y-75886835D01*
X188950200Y-75131405D01*
X188802823Y-74390492D01*
X188513733Y-73692566D01*
X188094039Y-73064450D01*
X187559870Y-72530281D01*
X186931754Y-72110587D01*
X186233828Y-71821497D01*
X185492915Y-71674120D01*
X184737485Y-71674120D01*
X183996572Y-71821497D01*
X183298646Y-72110587D01*
X182670530Y-72530281D01*
X182136361Y-73064450D01*
X181716667Y-73692566D01*
X181427577Y-74390492D01*
X181280200Y-75131405D01*
X179028996Y-75131405D01*
X180078843Y-74081559D01*
X180107841Y-74057761D01*
X180160823Y-73993202D01*
X180202814Y-73942037D01*
X180273386Y-73810007D01*
X180303684Y-73710125D01*
X180316843Y-73666746D01*
X180327840Y-73555093D01*
X180327840Y-73555083D01*
X180331516Y-73517760D01*
X180327840Y-73480437D01*
X180327840Y-68325841D01*
X182224523Y-66429160D01*
X183365009Y-66429160D01*
X183408946Y-66473097D01*
X183578464Y-66586365D01*
X183766822Y-66664386D01*
X183966781Y-66704160D01*
X184170659Y-66704160D01*
X184370618Y-66664386D01*
X184558976Y-66586365D01*
X184728494Y-66473097D01*
X184872657Y-66328934D01*
X184985925Y-66159416D01*
X185063946Y-65971058D01*
X185103720Y-65771099D01*
X185103720Y-65567221D01*
X185063946Y-65367262D01*
X184985925Y-65178904D01*
X184872657Y-65009386D01*
X184728494Y-64865223D01*
X184558976Y-64751955D01*
X184370618Y-64673934D01*
X184170659Y-64634160D01*
X183966781Y-64634160D01*
X183766822Y-64673934D01*
X183578464Y-64751955D01*
X183408946Y-64865223D01*
X183365009Y-64909160D01*
X181947042Y-64909160D01*
X181909719Y-64905484D01*
X181872396Y-64909160D01*
X181872387Y-64909160D01*
X181760734Y-64920157D01*
X181617473Y-64963614D01*
X181485444Y-65034186D01*
X181485442Y-65034187D01*
X181485443Y-65034187D01*
X181398716Y-65105361D01*
X181398712Y-65105365D01*
X181369719Y-65129159D01*
X181345925Y-65158152D01*
X179056838Y-67447241D01*
X179027840Y-67471039D01*
X179004042Y-67500037D01*
X179004041Y-67500038D01*
X178932866Y-67586764D01*
X178862294Y-67718794D01*
X178843185Y-67781790D01*
X178818838Y-67862054D01*
X178811422Y-67937354D01*
X178804164Y-68011040D01*
X178807841Y-68048372D01*
X178807840Y-68979547D01*
X178807840Y-68979548D01*
X178807841Y-73202957D01*
X177866199Y-74144600D01*
X169678002Y-74144600D01*
X169878204Y-73944398D01*
X169907201Y-73920601D01*
X170002174Y-73804876D01*
X170072746Y-73672847D01*
X170116203Y-73529586D01*
X170127200Y-73417933D01*
X170127200Y-73417932D01*
X170130877Y-73380600D01*
X170127200Y-73343267D01*
X170127200Y-73297778D01*
X170313832Y-73173075D01*
X170520675Y-72966232D01*
X170637200Y-72791840D01*
X170753725Y-72966232D01*
X170960568Y-73173075D01*
X171203789Y-73335590D01*
X171474042Y-73447532D01*
X171760940Y-73504600D01*
X172053460Y-73504600D01*
X172340358Y-73447532D01*
X172610611Y-73335590D01*
X172853832Y-73173075D01*
X172985687Y-73041220D01*
X173007698Y-73113780D01*
X173066663Y-73224094D01*
X173146015Y-73320785D01*
X173242706Y-73400137D01*
X173353020Y-73459102D01*
X173472718Y-73495412D01*
X173597200Y-73507672D01*
X175297200Y-73507672D01*
X175421682Y-73495412D01*
X175541380Y-73459102D01*
X175651694Y-73400137D01*
X175748385Y-73320785D01*
X175827737Y-73224094D01*
X175886702Y-73113780D01*
X175923012Y-72994082D01*
X175935272Y-72869600D01*
X175935272Y-71169600D01*
X175923012Y-71045118D01*
X175886702Y-70925420D01*
X175827737Y-70815106D01*
X175748385Y-70718415D01*
X175651694Y-70639063D01*
X175541380Y-70580098D01*
X175421682Y-70543788D01*
X175297200Y-70531528D01*
X173597200Y-70531528D01*
X173472718Y-70543788D01*
X173353020Y-70580098D01*
X173242706Y-70639063D01*
X173146015Y-70718415D01*
X173066663Y-70815106D01*
X173007698Y-70925420D01*
X172985687Y-70997980D01*
X172853832Y-70866125D01*
X172668078Y-70742008D01*
X172670876Y-70713599D01*
X172667200Y-70676276D01*
X172667200Y-70676267D01*
X172656203Y-70564614D01*
X172612746Y-70421353D01*
X172542174Y-70289324D01*
X172517948Y-70259804D01*
X172470999Y-70202596D01*
X172470995Y-70202592D01*
X172447201Y-70173599D01*
X172418209Y-70149806D01*
X169931004Y-67662603D01*
X169907201Y-67633599D01*
X169791476Y-67538626D01*
X169659447Y-67468054D01*
X169516186Y-67424597D01*
X169404533Y-67413600D01*
X169404522Y-67413600D01*
X169367200Y-67409924D01*
X169329878Y-67413600D01*
X168763601Y-67413600D01*
X173815204Y-62361998D01*
X173844201Y-62338201D01*
X173939174Y-62222476D01*
X174009746Y-62090447D01*
X174053203Y-61947186D01*
X174064200Y-61835533D01*
X174064200Y-61835524D01*
X174067876Y-61798201D01*
X174064200Y-61760878D01*
X174064200Y-59014201D01*
X174355602Y-58722800D01*
X174422957Y-58722800D01*
X174526363Y-58877559D01*
X174726241Y-59077437D01*
X174961273Y-59234480D01*
X175222426Y-59342653D01*
X175499665Y-59397800D01*
X175782335Y-59397800D01*
X176059574Y-59342653D01*
X176320727Y-59234480D01*
X176555759Y-59077437D01*
X176755637Y-58877559D01*
X176912680Y-58642527D01*
X177020853Y-58381374D01*
X177076000Y-58104135D01*
X177076000Y-57821465D01*
X177020853Y-57544226D01*
X176912680Y-57283073D01*
X176755637Y-57048041D01*
X176555759Y-56848163D01*
X176323241Y-56692800D01*
X176555759Y-56537437D01*
X176755637Y-56337559D01*
X176912680Y-56102527D01*
X177020853Y-55841374D01*
X177076000Y-55564135D01*
X177076000Y-55281465D01*
X177020853Y-55004226D01*
X176912680Y-54743073D01*
X176755637Y-54508041D01*
X176555759Y-54308163D01*
X176320727Y-54151120D01*
X176059574Y-54042947D01*
X175782335Y-53987800D01*
X175499665Y-53987800D01*
X175222426Y-54042947D01*
X174961273Y-54151120D01*
X174726241Y-54308163D01*
X174526363Y-54508041D01*
X174422957Y-54662800D01*
X173722522Y-54662800D01*
X173685199Y-54659124D01*
X173647876Y-54662800D01*
X173647867Y-54662800D01*
X173536214Y-54673797D01*
X173392953Y-54717254D01*
X173260924Y-54787826D01*
X173145199Y-54882799D01*
X173121401Y-54911797D01*
X171878798Y-56154401D01*
X171854400Y-56174424D01*
X171854400Y-50139600D01*
X185886015Y-50139600D01*
X185914687Y-50430711D01*
X185999601Y-50710634D01*
X186137494Y-50968614D01*
X186323066Y-51194734D01*
X186386537Y-51246823D01*
X186284814Y-51301195D01*
X186150238Y-51411638D01*
X186039795Y-51546214D01*
X185957728Y-51699750D01*
X185907192Y-51866346D01*
X185890128Y-52039600D01*
X185890128Y-53239600D01*
X185907192Y-53412854D01*
X185957728Y-53579450D01*
X186039795Y-53732986D01*
X186150238Y-53867562D01*
X186284814Y-53978005D01*
X186438350Y-54060072D01*
X186604946Y-54110608D01*
X186778200Y-54127672D01*
X188278200Y-54127672D01*
X188451454Y-54110608D01*
X188618050Y-54060072D01*
X188771586Y-53978005D01*
X188906162Y-53867562D01*
X189016605Y-53732986D01*
X189098672Y-53579450D01*
X189149208Y-53412854D01*
X189166272Y-53239600D01*
X189166272Y-52039600D01*
X189149208Y-51866346D01*
X189098672Y-51699750D01*
X189016605Y-51546214D01*
X188906162Y-51411638D01*
X188771586Y-51301195D01*
X188669863Y-51246823D01*
X188733334Y-51194734D01*
X188918906Y-50968614D01*
X189056799Y-50710634D01*
X189141713Y-50430711D01*
X189170385Y-50139600D01*
X189141713Y-49848489D01*
X189056799Y-49568566D01*
X188918906Y-49310586D01*
X188733334Y-49084466D01*
X188507214Y-48898894D01*
X188249234Y-48761001D01*
X187969311Y-48676087D01*
X187751150Y-48654600D01*
X187305250Y-48654600D01*
X187087089Y-48676087D01*
X186807166Y-48761001D01*
X186549186Y-48898894D01*
X186323066Y-49084466D01*
X186137494Y-49310586D01*
X185999601Y-49568566D01*
X185914687Y-49848489D01*
X185886015Y-50139600D01*
X171854400Y-50139600D01*
X171854400Y-49895601D01*
X176641602Y-45108400D01*
X177791822Y-45108400D01*
X177916525Y-45295032D01*
X178123368Y-45501875D01*
X178366589Y-45664390D01*
X178636842Y-45776332D01*
X178923740Y-45833400D01*
X179216260Y-45833400D01*
X179503158Y-45776332D01*
X179773411Y-45664390D01*
X180016632Y-45501875D01*
X180223475Y-45295032D01*
X180340000Y-45120640D01*
X180456525Y-45295032D01*
X180663368Y-45501875D01*
X180906589Y-45664390D01*
X181176842Y-45776332D01*
X181463740Y-45833400D01*
X181756260Y-45833400D01*
X182043158Y-45776332D01*
X182313411Y-45664390D01*
X182556632Y-45501875D01*
X182763475Y-45295032D01*
X182880000Y-45120640D01*
X182996525Y-45295032D01*
X183203368Y-45501875D01*
X183446589Y-45664390D01*
X183716842Y-45776332D01*
X184003740Y-45833400D01*
X184296260Y-45833400D01*
X184583158Y-45776332D01*
X184853411Y-45664390D01*
X185096632Y-45501875D01*
X185303475Y-45295032D01*
X185465990Y-45051811D01*
X185577932Y-44781558D01*
X185635000Y-44494660D01*
X185635000Y-44202140D01*
X185577932Y-43915242D01*
X185465990Y-43644989D01*
X185303475Y-43401768D01*
X185171620Y-43269913D01*
X185244180Y-43247902D01*
X185354494Y-43188937D01*
X185451185Y-43109585D01*
X185530537Y-43012894D01*
X185589502Y-42902580D01*
X185625812Y-42782882D01*
X185638072Y-42658400D01*
X185638072Y-40958400D01*
X185625812Y-40833918D01*
X185608595Y-40777160D01*
X190342520Y-40777160D01*
X190342520Y-62791612D01*
%TA.AperFunction,Conductor*%
D29*
G36*
X190342520Y-62791612D02*
G01*
X190212192Y-62661284D01*
X189968971Y-62498769D01*
X189698718Y-62386827D01*
X189411820Y-62329759D01*
X189119300Y-62329759D01*
X188832402Y-62386827D01*
X188562149Y-62498769D01*
X188318928Y-62661284D01*
X188112085Y-62868127D01*
X187995560Y-63042519D01*
X187879035Y-62868127D01*
X187672192Y-62661284D01*
X187428971Y-62498769D01*
X187158718Y-62386827D01*
X186871820Y-62329759D01*
X186579300Y-62329759D01*
X186292402Y-62386827D01*
X186022149Y-62498769D01*
X185778928Y-62661284D01*
X185572085Y-62868127D01*
X185409570Y-63111348D01*
X185297628Y-63381601D01*
X185240560Y-63668499D01*
X185240560Y-63961019D01*
X185297628Y-64247917D01*
X185409570Y-64518170D01*
X185572085Y-64761391D01*
X185778928Y-64968234D01*
X185953320Y-65084759D01*
X185778928Y-65201284D01*
X185572085Y-65408127D01*
X185409570Y-65651348D01*
X185297628Y-65921601D01*
X185240560Y-66208499D01*
X185240560Y-66501019D01*
X185297628Y-66787917D01*
X185409570Y-67058170D01*
X185572085Y-67301391D01*
X185778928Y-67508234D01*
X185953320Y-67624759D01*
X185778928Y-67741284D01*
X185572085Y-67948127D01*
X185409570Y-68191348D01*
X185297628Y-68461601D01*
X185240560Y-68748499D01*
X185240560Y-69041019D01*
X185297628Y-69327917D01*
X185409570Y-69598170D01*
X185572085Y-69841391D01*
X185778928Y-70048234D01*
X186022149Y-70210749D01*
X186292402Y-70322691D01*
X186579300Y-70379759D01*
X186871820Y-70379759D01*
X187158718Y-70322691D01*
X187428971Y-70210749D01*
X187672192Y-70048234D01*
X187804047Y-69916379D01*
X187826058Y-69988939D01*
X187885023Y-70099253D01*
X187964375Y-70195944D01*
X188061066Y-70275296D01*
X188171380Y-70334261D01*
X188291078Y-70370571D01*
X188415560Y-70382831D01*
X190115560Y-70382831D01*
X190240042Y-70370571D01*
X190342520Y-70339485D01*
X190342520Y-153786840D01*
X111379000Y-153786840D01*
X111379000Y-143097298D01*
X112397600Y-143097298D01*
X112397600Y-143567102D01*
X112489254Y-144027879D01*
X112669040Y-144461921D01*
X112930050Y-144852549D01*
X113262251Y-145184750D01*
X113652879Y-145445760D01*
X114086921Y-145625546D01*
X114547698Y-145717200D01*
X115017502Y-145717200D01*
X115478279Y-145625546D01*
X115912321Y-145445760D01*
X116302949Y-145184750D01*
X116635150Y-144852549D01*
X116896160Y-144461921D01*
X117075946Y-144027879D01*
X117167600Y-143567102D01*
X117167600Y-143112072D01*
X120292600Y-143112072D01*
X120292600Y-143552328D01*
X120378490Y-143984125D01*
X120546969Y-144390869D01*
X120791562Y-144756929D01*
X121102871Y-145068238D01*
X121468931Y-145312831D01*
X121875675Y-145481310D01*
X122307472Y-145567200D01*
X122747728Y-145567200D01*
X123179525Y-145481310D01*
X123586269Y-145312831D01*
X123952329Y-145068238D01*
X124263638Y-144756929D01*
X124508231Y-144390869D01*
X124676710Y-143984125D01*
X124762600Y-143552328D01*
X124762600Y-143112072D01*
X175902600Y-143112072D01*
X175902600Y-143552328D01*
X175988490Y-143984125D01*
X176156969Y-144390869D01*
X176401562Y-144756929D01*
X176712871Y-145068238D01*
X177078931Y-145312831D01*
X177485675Y-145481310D01*
X177917472Y-145567200D01*
X178357728Y-145567200D01*
X178789525Y-145481310D01*
X179196269Y-145312831D01*
X179562329Y-145068238D01*
X179873638Y-144756929D01*
X180118231Y-144390869D01*
X180286710Y-143984125D01*
X180372600Y-143552328D01*
X180372600Y-143112072D01*
X180286710Y-142680275D01*
X180118231Y-142273531D01*
X179873638Y-141907471D01*
X179562329Y-141596162D01*
X179196269Y-141351569D01*
X178789525Y-141183090D01*
X178357728Y-141097200D01*
X177917472Y-141097200D01*
X177485675Y-141183090D01*
X177078931Y-141351569D01*
X176712871Y-141596162D01*
X176401562Y-141907471D01*
X176156969Y-142273531D01*
X175988490Y-142680275D01*
X175902600Y-143112072D01*
X124762600Y-143112072D01*
X124676710Y-142680275D01*
X124508231Y-142273531D01*
X124263638Y-141907471D01*
X123952329Y-141596162D01*
X123586269Y-141351569D01*
X123179525Y-141183090D01*
X122747728Y-141097200D01*
X122307472Y-141097200D01*
X121875675Y-141183090D01*
X121468931Y-141351569D01*
X121102871Y-141596162D01*
X120791562Y-141907471D01*
X120546969Y-142273531D01*
X120378490Y-142680275D01*
X120292600Y-143112072D01*
X117167600Y-143112072D01*
X117167600Y-143097298D01*
X117075946Y-142636521D01*
X116896160Y-142202479D01*
X116635150Y-141811851D01*
X116302949Y-141479650D01*
X115912321Y-141218640D01*
X115478279Y-141038854D01*
X115017502Y-140947200D01*
X114547698Y-140947200D01*
X114086921Y-141038854D01*
X113652879Y-141218640D01*
X113262251Y-141479650D01*
X112930050Y-141811851D01*
X112669040Y-142202479D01*
X112489254Y-142636521D01*
X112397600Y-143097298D01*
X111379000Y-143097298D01*
X111379000Y-120068400D01*
X112394528Y-120068400D01*
X112394528Y-123568400D01*
X112406788Y-123692882D01*
X112443098Y-123812580D01*
X112502063Y-123922894D01*
X112581415Y-124019585D01*
X112678106Y-124098937D01*
X112788420Y-124157902D01*
X112908118Y-124194212D01*
X113032600Y-124206472D01*
X116532600Y-124206472D01*
X116657082Y-124194212D01*
X116776780Y-124157902D01*
X116887094Y-124098937D01*
X116983785Y-124019585D01*
X117063137Y-123922894D01*
X117122102Y-123812580D01*
X117158412Y-123692882D01*
X117170672Y-123568400D01*
X117170672Y-121598272D01*
X121192600Y-121598272D01*
X121192600Y-122038528D01*
X121278490Y-122470325D01*
X121446969Y-122877069D01*
X121691562Y-123243129D01*
X122002871Y-123554438D01*
X122368931Y-123799031D01*
X122775675Y-123967510D01*
X123207472Y-124053400D01*
X123647728Y-124053400D01*
X124079525Y-123967510D01*
X124486269Y-123799031D01*
X124852329Y-123554438D01*
X125163638Y-123243129D01*
X125408231Y-122877069D01*
X125576710Y-122470325D01*
X125662600Y-122038528D01*
X125662600Y-121598272D01*
X176802600Y-121598272D01*
X176802600Y-122038528D01*
X176888490Y-122470325D01*
X177056969Y-122877069D01*
X177301562Y-123243129D01*
X177612871Y-123554438D01*
X177978931Y-123799031D01*
X178385675Y-123967510D01*
X178817472Y-124053400D01*
X179257728Y-124053400D01*
X179689525Y-123967510D01*
X180096269Y-123799031D01*
X180462329Y-123554438D01*
X180773638Y-123243129D01*
X181018231Y-122877069D01*
X181186710Y-122470325D01*
X181272600Y-122038528D01*
X181272600Y-121598272D01*
X181269662Y-121583498D01*
X184397600Y-121583498D01*
X184397600Y-122053302D01*
X184489254Y-122514079D01*
X184669040Y-122948121D01*
X184930050Y-123338749D01*
X185262251Y-123670950D01*
X185652879Y-123931960D01*
X186086921Y-124111746D01*
X186547698Y-124203400D01*
X187017502Y-124203400D01*
X187478279Y-124111746D01*
X187912321Y-123931960D01*
X188302949Y-123670950D01*
X188635150Y-123338749D01*
X188896160Y-122948121D01*
X189075946Y-122514079D01*
X189167600Y-122053302D01*
X189167600Y-121583498D01*
X189075946Y-121122721D01*
X188896160Y-120688679D01*
X188635150Y-120298051D01*
X188302949Y-119965850D01*
X187912321Y-119704840D01*
X187478279Y-119525054D01*
X187017502Y-119433400D01*
X186547698Y-119433400D01*
X186086921Y-119525054D01*
X185652879Y-119704840D01*
X185262251Y-119965850D01*
X184930050Y-120298051D01*
X184669040Y-120688679D01*
X184489254Y-121122721D01*
X184397600Y-121583498D01*
X181269662Y-121583498D01*
X181186710Y-121166475D01*
X181018231Y-120759731D01*
X180773638Y-120393671D01*
X180462329Y-120082362D01*
X180096269Y-119837769D01*
X179689525Y-119669290D01*
X179257728Y-119583400D01*
X178817472Y-119583400D01*
X178385675Y-119669290D01*
X177978931Y-119837769D01*
X177612871Y-120082362D01*
X177301562Y-120393671D01*
X177056969Y-120759731D01*
X176888490Y-121166475D01*
X176802600Y-121598272D01*
X125662600Y-121598272D01*
X125576710Y-121166475D01*
X125408231Y-120759731D01*
X125163638Y-120393671D01*
X124852329Y-120082362D01*
X124486269Y-119837769D01*
X124079525Y-119669290D01*
X123647728Y-119583400D01*
X123207472Y-119583400D01*
X122775675Y-119669290D01*
X122368931Y-119837769D01*
X122002871Y-120082362D01*
X121691562Y-120393671D01*
X121446969Y-120759731D01*
X121278490Y-121166475D01*
X121192600Y-121598272D01*
X117170672Y-121598272D01*
X117170672Y-120068400D01*
X117158412Y-119943918D01*
X117122102Y-119824220D01*
X117063137Y-119713906D01*
X116983785Y-119617215D01*
X116887094Y-119537863D01*
X116776780Y-119478898D01*
X116657082Y-119442588D01*
X116532600Y-119430328D01*
X113032600Y-119430328D01*
X112908118Y-119442588D01*
X112788420Y-119478898D01*
X112678106Y-119537863D01*
X112581415Y-119617215D01*
X112502063Y-119713906D01*
X112443098Y-119824220D01*
X112406788Y-119943918D01*
X112394528Y-120068400D01*
X111379000Y-120068400D01*
X111379000Y-102070800D01*
X116469528Y-102070800D01*
X116469528Y-103770800D01*
X116481788Y-103895282D01*
X116518098Y-104014980D01*
X116577063Y-104125294D01*
X116656415Y-104221985D01*
X116753106Y-104301337D01*
X116863420Y-104360302D01*
X116935980Y-104382313D01*
X116804125Y-104514168D01*
X116641610Y-104757389D01*
X116529668Y-105027642D01*
X116472600Y-105314540D01*
X116472600Y-105607060D01*
X116529668Y-105893958D01*
X116641610Y-106164211D01*
X116804125Y-106407432D01*
X117010968Y-106614275D01*
X117254189Y-106776790D01*
X117524442Y-106888732D01*
X117811340Y-106945800D01*
X118103860Y-106945800D01*
X118390758Y-106888732D01*
X118661011Y-106776790D01*
X118904232Y-106614275D01*
X119111075Y-106407432D01*
X119235778Y-106220800D01*
X119977678Y-106220800D01*
X120015000Y-106224476D01*
X120052322Y-106220800D01*
X120052333Y-106220800D01*
X120163986Y-106209803D01*
X120307247Y-106166346D01*
X120439276Y-106095774D01*
X120555001Y-106000801D01*
X120578803Y-105971798D01*
X121262604Y-105287998D01*
X121291601Y-105264201D01*
X121386574Y-105148476D01*
X121457146Y-105016447D01*
X121500603Y-104873186D01*
X121511600Y-104761533D01*
X121511600Y-104761525D01*
X121515276Y-104724200D01*
X121511600Y-104686875D01*
X121511600Y-101109400D01*
X127177800Y-101109400D01*
X127177800Y-105697400D01*
X127183232Y-105780283D01*
X127200269Y-105909693D01*
X127243173Y-106069814D01*
X127293123Y-106190404D01*
X127376010Y-106333967D01*
X127455470Y-106437520D01*
X127572680Y-106554730D01*
X127676233Y-106634190D01*
X127819796Y-106717077D01*
X127940386Y-106767027D01*
X128100507Y-106809931D01*
X128229917Y-106826968D01*
X128312800Y-106832400D01*
X137498200Y-106832400D01*
X137581083Y-106826968D01*
X137710493Y-106809931D01*
X137870614Y-106767027D01*
X137991204Y-106717077D01*
X138134767Y-106634190D01*
X138238320Y-106554730D01*
X138355530Y-106437520D01*
X138434990Y-106333967D01*
X138517877Y-106190404D01*
X138567827Y-106069814D01*
X138610731Y-105909693D01*
X138627768Y-105780283D01*
X138633200Y-105697400D01*
X138633200Y-101109400D01*
X138627768Y-101026517D01*
X138610731Y-100897107D01*
X138567827Y-100736986D01*
X138517877Y-100616396D01*
X138434990Y-100472833D01*
X138355530Y-100369280D01*
X138238320Y-100252070D01*
X138134767Y-100172610D01*
X137991204Y-100089723D01*
X137870614Y-100039773D01*
X137710493Y-99996869D01*
X137581083Y-99979832D01*
X137498200Y-99974400D01*
X128312800Y-99974400D01*
X128229917Y-99979832D01*
X128100507Y-99996869D01*
X127940386Y-100039773D01*
X127819796Y-100089723D01*
X127676233Y-100172610D01*
X127572680Y-100252070D01*
X127455470Y-100369280D01*
X127376010Y-100472833D01*
X127293123Y-100616396D01*
X127243173Y-100736986D01*
X127200269Y-100897107D01*
X127183232Y-101026517D01*
X127177800Y-101109400D01*
X121511600Y-101109400D01*
X121511600Y-98726880D01*
X153065480Y-98726880D01*
X153065480Y-110884080D01*
X153070912Y-110966963D01*
X153087949Y-111096373D01*
X153130853Y-111256494D01*
X153180803Y-111377084D01*
X153263690Y-111520647D01*
X153343150Y-111624200D01*
X153460360Y-111741410D01*
X153563913Y-111820870D01*
X153707476Y-111903757D01*
X153828066Y-111953707D01*
X153988187Y-111996611D01*
X154117597Y-112013648D01*
X154200480Y-112019080D01*
X174780320Y-112019080D01*
X174863203Y-112013648D01*
X174992613Y-111996611D01*
X175152734Y-111953707D01*
X175273324Y-111903757D01*
X175416887Y-111820870D01*
X175520440Y-111741410D01*
X175637650Y-111624200D01*
X175717110Y-111520647D01*
X175799997Y-111377084D01*
X175849947Y-111256494D01*
X175892851Y-111096373D01*
X175909888Y-110966963D01*
X175915320Y-110884080D01*
X175915320Y-98726880D01*
X175909888Y-98643997D01*
X175892851Y-98514587D01*
X175849947Y-98354466D01*
X175799997Y-98233876D01*
X175717110Y-98090313D01*
X175637650Y-97986760D01*
X175520440Y-97869550D01*
X175416887Y-97790090D01*
X175273324Y-97707203D01*
X175152734Y-97657253D01*
X174992613Y-97614349D01*
X174863203Y-97597312D01*
X174780320Y-97591880D01*
X154200480Y-97591880D01*
X154117597Y-97597312D01*
X153988187Y-97614349D01*
X153828066Y-97657253D01*
X153707476Y-97707203D01*
X153563913Y-97790090D01*
X153460360Y-97869550D01*
X153343150Y-97986760D01*
X153263690Y-98090313D01*
X153180803Y-98233876D01*
X153130853Y-98354466D01*
X153087949Y-98514587D01*
X153070912Y-98643997D01*
X153065480Y-98726880D01*
X121511600Y-98726880D01*
X121511600Y-82034511D01*
X121555537Y-81990574D01*
X121668805Y-81821056D01*
X121746826Y-81632698D01*
X121786600Y-81432739D01*
X121786600Y-81228861D01*
X121746826Y-81028902D01*
X121668805Y-80840544D01*
X121555537Y-80671026D01*
X121411374Y-80526863D01*
X121241856Y-80413595D01*
X121053498Y-80335574D01*
X120853539Y-80295800D01*
X120649661Y-80295800D01*
X120449702Y-80335574D01*
X120261344Y-80413595D01*
X120091826Y-80526863D01*
X119947663Y-80671026D01*
X119834395Y-80840544D01*
X119756374Y-81028902D01*
X119716600Y-81228861D01*
X119716600Y-81432739D01*
X119756374Y-81632698D01*
X119834395Y-81821056D01*
X119947663Y-81990574D01*
X119991600Y-82034511D01*
X119991600Y-82765132D01*
X119991601Y-82765142D01*
X119991600Y-104409398D01*
X119700199Y-104700800D01*
X119235778Y-104700800D01*
X119111075Y-104514168D01*
X118979220Y-104382313D01*
X119051780Y-104360302D01*
X119162094Y-104301337D01*
X119258785Y-104221985D01*
X119338137Y-104125294D01*
X119397102Y-104014980D01*
X119433412Y-103895282D01*
X119445672Y-103770800D01*
X119445672Y-102070800D01*
X119433412Y-101946318D01*
X119397102Y-101826620D01*
X119338137Y-101716306D01*
X119258785Y-101619615D01*
X119162094Y-101540263D01*
X119051780Y-101481298D01*
X118932082Y-101444988D01*
X118807600Y-101432728D01*
X117107600Y-101432728D01*
X116983118Y-101444988D01*
X116863420Y-101481298D01*
X116753106Y-101540263D01*
X116656415Y-101619615D01*
X116577063Y-101716306D01*
X116518098Y-101826620D01*
X116481788Y-101946318D01*
X116469528Y-102070800D01*
X111379000Y-102070800D01*
X111379000Y-69638707D01*
X111458528Y-69718235D01*
X111701749Y-69880750D01*
X111972002Y-69992692D01*
X112258900Y-70049760D01*
X112551420Y-70049760D01*
X112838318Y-69992692D01*
X113108571Y-69880750D01*
X113351792Y-69718235D01*
X113558635Y-69511392D01*
X113675160Y-69337000D01*
X113791685Y-69511392D01*
X113998528Y-69718235D01*
X114185160Y-69842939D01*
X114185160Y-70986157D01*
X114181484Y-71023480D01*
X114185160Y-71060802D01*
X114185160Y-71060812D01*
X114196157Y-71172465D01*
X114225925Y-71270597D01*
X114239614Y-71315726D01*
X114310186Y-71447756D01*
X114334413Y-71477276D01*
X114405159Y-71563481D01*
X114434162Y-71587283D01*
X115280520Y-72433642D01*
X115304319Y-72462641D01*
X115420044Y-72557614D01*
X115552073Y-72628186D01*
X115695334Y-72671643D01*
X115806987Y-72682640D01*
X115806996Y-72682640D01*
X115844319Y-72686316D01*
X115881642Y-72682640D01*
X119029639Y-72682640D01*
X124199998Y-77853000D01*
X118198122Y-77853000D01*
X118160799Y-77849324D01*
X118123476Y-77853000D01*
X118123467Y-77853000D01*
X118011814Y-77863997D01*
X117868553Y-77907454D01*
X117736523Y-77978026D01*
X117696273Y-78011059D01*
X117620799Y-78072999D01*
X117597001Y-78101997D01*
X116244798Y-79454201D01*
X116215800Y-79477999D01*
X116192002Y-79506997D01*
X116192001Y-79506998D01*
X116120826Y-79593724D01*
X116050254Y-79725754D01*
X116025670Y-79806800D01*
X116006798Y-79869014D01*
X115995801Y-79980667D01*
X115992124Y-80018000D01*
X115995801Y-80055332D01*
X115995800Y-84437089D01*
X115951863Y-84481026D01*
X115838595Y-84650544D01*
X115760574Y-84838902D01*
X115720800Y-85038861D01*
X115720800Y-85242739D01*
X115760574Y-85442698D01*
X115838595Y-85631056D01*
X115951863Y-85800574D01*
X116096026Y-85944737D01*
X116265544Y-86058005D01*
X116453902Y-86136026D01*
X116653861Y-86175800D01*
X116857739Y-86175800D01*
X117057698Y-86136026D01*
X117246056Y-86058005D01*
X117415574Y-85944737D01*
X117559737Y-85800574D01*
X117673005Y-85631056D01*
X117751026Y-85442698D01*
X117790800Y-85242739D01*
X117790800Y-85038861D01*
X117751026Y-84838902D01*
X117673005Y-84650544D01*
X117559737Y-84481026D01*
X117515800Y-84437089D01*
X117515800Y-80332801D01*
X118475602Y-79373000D01*
X124983399Y-79373000D01*
X128517998Y-82907600D01*
X125316111Y-82907600D01*
X125272174Y-82863663D01*
X125102656Y-82750395D01*
X124914298Y-82672374D01*
X124714339Y-82632600D01*
X124510461Y-82632600D01*
X124310502Y-82672374D01*
X124122144Y-82750395D01*
X123952626Y-82863663D01*
X123808463Y-83007826D01*
X123695195Y-83177344D01*
X123617174Y-83365702D01*
X123577400Y-83565661D01*
X123577400Y-83769539D01*
X123617174Y-83969498D01*
X123695195Y-84157856D01*
X123715537Y-84188300D01*
X123695195Y-84218744D01*
X123617174Y-84407102D01*
X123577400Y-84607061D01*
X123577400Y-84810939D01*
X123617174Y-85010898D01*
X123695195Y-85199256D01*
X123808463Y-85368774D01*
X123952626Y-85512937D01*
X124122144Y-85626205D01*
X124310502Y-85704226D01*
X124510461Y-85744000D01*
X124714339Y-85744000D01*
X124914298Y-85704226D01*
X125102656Y-85626205D01*
X125272174Y-85512937D01*
X125316111Y-85469000D01*
X141933316Y-85469000D01*
X141870428Y-85502614D01*
X141728056Y-85619456D01*
X141698774Y-85655136D01*
X138830111Y-88523800D01*
X132151332Y-88523800D01*
X132105400Y-88519276D01*
X132059468Y-88523800D01*
X127389619Y-88523800D01*
X127283624Y-88452976D01*
X127077067Y-88367417D01*
X126857788Y-88323800D01*
X126634212Y-88323800D01*
X126414933Y-88367417D01*
X126208376Y-88452976D01*
X126022480Y-88577188D01*
X125864388Y-88735280D01*
X125740176Y-88921176D01*
X125654617Y-89127733D01*
X125611000Y-89347012D01*
X125611000Y-89570588D01*
X125654617Y-89789867D01*
X125740176Y-89996424D01*
X125864388Y-90182320D01*
X126022480Y-90340412D01*
X126208376Y-90464624D01*
X126414933Y-90550183D01*
X126634212Y-90593800D01*
X126857788Y-90593800D01*
X127077067Y-90550183D01*
X127283624Y-90464624D01*
X127389619Y-90393800D01*
X131718111Y-90393800D01*
X131957801Y-90633490D01*
X131957800Y-91964780D01*
X131886976Y-92070776D01*
X131801417Y-92277333D01*
X131757800Y-92496612D01*
X131757800Y-92720188D01*
X131801417Y-92939467D01*
X131886976Y-93146024D01*
X132011188Y-93331920D01*
X132169280Y-93490012D01*
X132355176Y-93614224D01*
X132561733Y-93699783D01*
X132781012Y-93743400D01*
X133004588Y-93743400D01*
X133223867Y-93699783D01*
X133430424Y-93614224D01*
X133616320Y-93490012D01*
X133716332Y-93390000D01*
X138909728Y-93390000D01*
X138909728Y-96590000D01*
X138921988Y-96714482D01*
X138958298Y-96834180D01*
X139017263Y-96944494D01*
X139096615Y-97041185D01*
X139193306Y-97120537D01*
X139303620Y-97179502D01*
X139423318Y-97215812D01*
X139547800Y-97228072D01*
X142747800Y-97228072D01*
X142872282Y-97215812D01*
X142991980Y-97179502D01*
X143102294Y-97120537D01*
X143198985Y-97041185D01*
X143278337Y-96944494D01*
X143337302Y-96834180D01*
X143373612Y-96714482D01*
X143385872Y-96590000D01*
X143385872Y-93390000D01*
X143373612Y-93265518D01*
X143337302Y-93145820D01*
X143278337Y-93035506D01*
X143198985Y-92938815D01*
X143102294Y-92859463D01*
X142991980Y-92800498D01*
X142872282Y-92764188D01*
X142747800Y-92751928D01*
X139547800Y-92751928D01*
X139423318Y-92764188D01*
X139303620Y-92800498D01*
X139193306Y-92859463D01*
X139096615Y-92938815D01*
X139017263Y-93035506D01*
X138958298Y-93145820D01*
X138921988Y-93265518D01*
X138909728Y-93390000D01*
X133716332Y-93390000D01*
X133774412Y-93331920D01*
X133898624Y-93146024D01*
X133984183Y-92939467D01*
X134027800Y-92720188D01*
X134027800Y-92496612D01*
X133984183Y-92277333D01*
X133898624Y-92070776D01*
X133827800Y-91964781D01*
X133827800Y-90393800D01*
X139171468Y-90393800D01*
X139217400Y-90398324D01*
X139263332Y-90393800D01*
X139400692Y-90380271D01*
X139576940Y-90326807D01*
X139739372Y-90239986D01*
X139881744Y-90123144D01*
X139911030Y-90087459D01*
X142779690Y-87218800D01*
X146498581Y-87218800D01*
X146604576Y-87289624D01*
X146811133Y-87375183D01*
X147030412Y-87418800D01*
X147253988Y-87418800D01*
X147473267Y-87375183D01*
X147679824Y-87289624D01*
X147865720Y-87165412D01*
X147987332Y-87043800D01*
X162244688Y-87043800D01*
X162282010Y-87047476D01*
X162319332Y-87043800D01*
X162319343Y-87043800D01*
X162430996Y-87032803D01*
X162574257Y-86989346D01*
X162706286Y-86918774D01*
X162822011Y-86823801D01*
X162845814Y-86794797D01*
X165617750Y-84022861D01*
X166859000Y-84022861D01*
X166859000Y-84226739D01*
X166898774Y-84426698D01*
X166976795Y-84615056D01*
X167090063Y-84784574D01*
X167134000Y-84828511D01*
X167134001Y-91066488D01*
X167090063Y-91110426D01*
X166976795Y-91279944D01*
X166898774Y-91468302D01*
X166859000Y-91668261D01*
X166859000Y-91872139D01*
X166898774Y-92072098D01*
X166976795Y-92260456D01*
X167090063Y-92429974D01*
X167234226Y-92574137D01*
X167403744Y-92687405D01*
X167592102Y-92765426D01*
X167792061Y-92805200D01*
X167995939Y-92805200D01*
X168195898Y-92765426D01*
X168384256Y-92687405D01*
X168553774Y-92574137D01*
X168697937Y-92429974D01*
X168811205Y-92260456D01*
X168889226Y-92072098D01*
X168929000Y-91872139D01*
X168929000Y-91668261D01*
X168889226Y-91468302D01*
X168811205Y-91279944D01*
X168697937Y-91110426D01*
X168654000Y-91066489D01*
X168654000Y-84828511D01*
X168697937Y-84784574D01*
X168811205Y-84615056D01*
X168889226Y-84426698D01*
X168929000Y-84226739D01*
X168929000Y-84022861D01*
X168889226Y-83822902D01*
X168811205Y-83634544D01*
X168697937Y-83465026D01*
X168553774Y-83320863D01*
X168384256Y-83207595D01*
X168195898Y-83129574D01*
X167995939Y-83089800D01*
X167792061Y-83089800D01*
X167592102Y-83129574D01*
X167403744Y-83207595D01*
X167234226Y-83320863D01*
X167090063Y-83465026D01*
X166976795Y-83634544D01*
X166898774Y-83822902D01*
X166859000Y-84022861D01*
X165617750Y-84022861D01*
X166610012Y-83030600D01*
X171605628Y-83030600D01*
X171732320Y-83157292D01*
X171918216Y-83281504D01*
X172124773Y-83367063D01*
X172344052Y-83410680D01*
X172567628Y-83410680D01*
X172786907Y-83367063D01*
X172993464Y-83281504D01*
X173179360Y-83157292D01*
X173337452Y-82999200D01*
X173461664Y-82813304D01*
X173547223Y-82606747D01*
X173590840Y-82387468D01*
X173590840Y-82163892D01*
X173547223Y-81944613D01*
X173461664Y-81738056D01*
X173337452Y-81552160D01*
X173179360Y-81394068D01*
X172993464Y-81269856D01*
X172786907Y-81184297D01*
X172567628Y-81140680D01*
X172344052Y-81140680D01*
X172124773Y-81184297D01*
X171918216Y-81269856D01*
X171732320Y-81394068D01*
X171615788Y-81510600D01*
X167497977Y-81510600D01*
X167518004Y-81486197D01*
X168437402Y-80566800D01*
X169933489Y-80566800D01*
X169977426Y-80610737D01*
X170146944Y-80724005D01*
X170335302Y-80802026D01*
X170535261Y-80841800D01*
X170739139Y-80841800D01*
X170939098Y-80802026D01*
X171127456Y-80724005D01*
X171296974Y-80610737D01*
X171441137Y-80466574D01*
X171554405Y-80297056D01*
X171632426Y-80108698D01*
X171672200Y-79908739D01*
X171672200Y-79704861D01*
X171632426Y-79504902D01*
X171554405Y-79316544D01*
X171441137Y-79147026D01*
X171296974Y-79002863D01*
X171127456Y-78889595D01*
X170939098Y-78811574D01*
X170739139Y-78771800D01*
X170535261Y-78771800D01*
X170335302Y-78811574D01*
X170146944Y-78889595D01*
X169977426Y-79002863D01*
X169933489Y-79046800D01*
X168159922Y-79046800D01*
X168122599Y-79043124D01*
X168085276Y-79046800D01*
X168085267Y-79046800D01*
X167973614Y-79057797D01*
X167830353Y-79101254D01*
X167698323Y-79171826D01*
X167665363Y-79198876D01*
X167582599Y-79266799D01*
X167558801Y-79295797D01*
X166696236Y-80158363D01*
X166703600Y-80121342D01*
X166703600Y-79917464D01*
X166663826Y-79717505D01*
X166585805Y-79529147D01*
X166579293Y-79519402D01*
X166585805Y-79509656D01*
X166663826Y-79321298D01*
X166703600Y-79121339D01*
X166703600Y-78917461D01*
X166663826Y-78717502D01*
X166585805Y-78529144D01*
X166472537Y-78359626D01*
X166328374Y-78215463D01*
X166158856Y-78102195D01*
X165970498Y-78024174D01*
X165770539Y-77984400D01*
X165566661Y-77984400D01*
X165366702Y-78024174D01*
X165178344Y-78102195D01*
X165008826Y-78215463D01*
X164964889Y-78259400D01*
X164422311Y-78259400D01*
X164378374Y-78215463D01*
X164208856Y-78102195D01*
X164020498Y-78024174D01*
X163820539Y-77984400D01*
X163616661Y-77984400D01*
X163416702Y-78024174D01*
X163228344Y-78102195D01*
X163058826Y-78215463D01*
X162914663Y-78359626D01*
X162801395Y-78529144D01*
X162723374Y-78717502D01*
X162683600Y-78917461D01*
X162683600Y-79121339D01*
X162723374Y-79321298D01*
X162801395Y-79509656D01*
X162807907Y-79519402D01*
X162801395Y-79529147D01*
X162723374Y-79717505D01*
X162683600Y-79917464D01*
X162683600Y-80121342D01*
X162702269Y-80215200D01*
X162671602Y-80215200D01*
X161980804Y-79524402D01*
X161957001Y-79495399D01*
X161841276Y-79400426D01*
X161709247Y-79329854D01*
X161565986Y-79286397D01*
X161454333Y-79275400D01*
X161454322Y-79275400D01*
X161417000Y-79271724D01*
X161379678Y-79275400D01*
X156354911Y-79275400D01*
X156310974Y-79231463D01*
X156141456Y-79118195D01*
X155953098Y-79040174D01*
X155753139Y-79000400D01*
X155549261Y-79000400D01*
X155349302Y-79040174D01*
X155160944Y-79118195D01*
X154991426Y-79231463D01*
X154847263Y-79375626D01*
X154733995Y-79545144D01*
X154723108Y-79571427D01*
X154677137Y-79502626D01*
X154633200Y-79458689D01*
X154633200Y-78750001D01*
X157718603Y-75664600D01*
X178143678Y-75664600D01*
X178181000Y-75668276D01*
X178218322Y-75664600D01*
X178218333Y-75664600D01*
X178329986Y-75653603D01*
X178473247Y-75610146D01*
X178605276Y-75539574D01*
X178721001Y-75444601D01*
X178744804Y-75415597D01*
X179028996Y-75131405D01*
X181280200Y-75131405D01*
X181280200Y-75886835D01*
X181427577Y-76627748D01*
X181716667Y-77325674D01*
X182136361Y-77953790D01*
X182670530Y-78487959D01*
X183298646Y-78907653D01*
X183996572Y-79196743D01*
X184737485Y-79344120D01*
X185492915Y-79344120D01*
X186233828Y-79196743D01*
X186931754Y-78907653D01*
X187559870Y-78487959D01*
X188094039Y-77953790D01*
X188513733Y-77325674D01*
X188802823Y-76627748D01*
X188950200Y-75886835D01*
X188950200Y-75131405D01*
X188802823Y-74390492D01*
X188513733Y-73692566D01*
X188094039Y-73064450D01*
X187559870Y-72530281D01*
X186931754Y-72110587D01*
X186233828Y-71821497D01*
X185492915Y-71674120D01*
X184737485Y-71674120D01*
X183996572Y-71821497D01*
X183298646Y-72110587D01*
X182670530Y-72530281D01*
X182136361Y-73064450D01*
X181716667Y-73692566D01*
X181427577Y-74390492D01*
X181280200Y-75131405D01*
X179028996Y-75131405D01*
X180078843Y-74081559D01*
X180107841Y-74057761D01*
X180160823Y-73993202D01*
X180202814Y-73942037D01*
X180273386Y-73810007D01*
X180303684Y-73710125D01*
X180316843Y-73666746D01*
X180327840Y-73555093D01*
X180327840Y-73555083D01*
X180331516Y-73517760D01*
X180327840Y-73480437D01*
X180327840Y-68325841D01*
X182224523Y-66429160D01*
X183365009Y-66429160D01*
X183408946Y-66473097D01*
X183578464Y-66586365D01*
X183766822Y-66664386D01*
X183966781Y-66704160D01*
X184170659Y-66704160D01*
X184370618Y-66664386D01*
X184558976Y-66586365D01*
X184728494Y-66473097D01*
X184872657Y-66328934D01*
X184985925Y-66159416D01*
X185063946Y-65971058D01*
X185103720Y-65771099D01*
X185103720Y-65567221D01*
X185063946Y-65367262D01*
X184985925Y-65178904D01*
X184872657Y-65009386D01*
X184728494Y-64865223D01*
X184558976Y-64751955D01*
X184370618Y-64673934D01*
X184170659Y-64634160D01*
X183966781Y-64634160D01*
X183766822Y-64673934D01*
X183578464Y-64751955D01*
X183408946Y-64865223D01*
X183365009Y-64909160D01*
X181947042Y-64909160D01*
X181909719Y-64905484D01*
X181872396Y-64909160D01*
X181872387Y-64909160D01*
X181760734Y-64920157D01*
X181617473Y-64963614D01*
X181485444Y-65034186D01*
X181485442Y-65034187D01*
X181485443Y-65034187D01*
X181398716Y-65105361D01*
X181398712Y-65105365D01*
X181369719Y-65129159D01*
X181345925Y-65158152D01*
X179056838Y-67447241D01*
X179027840Y-67471039D01*
X179004042Y-67500037D01*
X179004041Y-67500038D01*
X178932866Y-67586764D01*
X178862294Y-67718794D01*
X178843185Y-67781790D01*
X178818838Y-67862054D01*
X178811422Y-67937354D01*
X178804164Y-68011040D01*
X178807841Y-68048372D01*
X178807840Y-68979547D01*
X178807840Y-68979548D01*
X178807841Y-73202957D01*
X177866199Y-74144600D01*
X169678002Y-74144600D01*
X169878204Y-73944398D01*
X169907201Y-73920601D01*
X170002174Y-73804876D01*
X170072746Y-73672847D01*
X170116203Y-73529586D01*
X170127200Y-73417933D01*
X170127200Y-73417932D01*
X170130877Y-73380600D01*
X170127200Y-73343267D01*
X170127200Y-73297778D01*
X170313832Y-73173075D01*
X170520675Y-72966232D01*
X170637200Y-72791840D01*
X170753725Y-72966232D01*
X170960568Y-73173075D01*
X171203789Y-73335590D01*
X171474042Y-73447532D01*
X171760940Y-73504600D01*
X172053460Y-73504600D01*
X172340358Y-73447532D01*
X172610611Y-73335590D01*
X172853832Y-73173075D01*
X172985687Y-73041220D01*
X173007698Y-73113780D01*
X173066663Y-73224094D01*
X173146015Y-73320785D01*
X173242706Y-73400137D01*
X173353020Y-73459102D01*
X173472718Y-73495412D01*
X173597200Y-73507672D01*
X175297200Y-73507672D01*
X175421682Y-73495412D01*
X175541380Y-73459102D01*
X175651694Y-73400137D01*
X175748385Y-73320785D01*
X175827737Y-73224094D01*
X175886702Y-73113780D01*
X175923012Y-72994082D01*
X175935272Y-72869600D01*
X175935272Y-71169600D01*
X175923012Y-71045118D01*
X175886702Y-70925420D01*
X175827737Y-70815106D01*
X175748385Y-70718415D01*
X175651694Y-70639063D01*
X175541380Y-70580098D01*
X175421682Y-70543788D01*
X175297200Y-70531528D01*
X173597200Y-70531528D01*
X173472718Y-70543788D01*
X173353020Y-70580098D01*
X173242706Y-70639063D01*
X173146015Y-70718415D01*
X173066663Y-70815106D01*
X173007698Y-70925420D01*
X172985687Y-70997980D01*
X172853832Y-70866125D01*
X172668078Y-70742008D01*
X172670876Y-70713599D01*
X172667200Y-70676276D01*
X172667200Y-70676267D01*
X172656203Y-70564614D01*
X172612746Y-70421353D01*
X172542174Y-70289324D01*
X172517948Y-70259804D01*
X172470999Y-70202596D01*
X172470995Y-70202592D01*
X172447201Y-70173599D01*
X172418209Y-70149806D01*
X169931004Y-67662603D01*
X169907201Y-67633599D01*
X169791476Y-67538626D01*
X169659447Y-67468054D01*
X169516186Y-67424597D01*
X169404533Y-67413600D01*
X169404522Y-67413600D01*
X169367200Y-67409924D01*
X169329878Y-67413600D01*
X168763601Y-67413600D01*
X173815204Y-62361998D01*
X173844201Y-62338201D01*
X173939174Y-62222476D01*
X174009746Y-62090447D01*
X174053203Y-61947186D01*
X174064200Y-61835533D01*
X174064200Y-61835524D01*
X174067876Y-61798201D01*
X174064200Y-61760878D01*
X174064200Y-59014201D01*
X174355602Y-58722800D01*
X174422957Y-58722800D01*
X174526363Y-58877559D01*
X174726241Y-59077437D01*
X174961273Y-59234480D01*
X175222426Y-59342653D01*
X175499665Y-59397800D01*
X175782335Y-59397800D01*
X176059574Y-59342653D01*
X176320727Y-59234480D01*
X176555759Y-59077437D01*
X176755637Y-58877559D01*
X176912680Y-58642527D01*
X177020853Y-58381374D01*
X177076000Y-58104135D01*
X177076000Y-57821465D01*
X177020853Y-57544226D01*
X176912680Y-57283073D01*
X176755637Y-57048041D01*
X176555759Y-56848163D01*
X176323241Y-56692800D01*
X176555759Y-56537437D01*
X176755637Y-56337559D01*
X176912680Y-56102527D01*
X177020853Y-55841374D01*
X177076000Y-55564135D01*
X177076000Y-55281465D01*
X177020853Y-55004226D01*
X176912680Y-54743073D01*
X176755637Y-54508041D01*
X176555759Y-54308163D01*
X176320727Y-54151120D01*
X176059574Y-54042947D01*
X175782335Y-53987800D01*
X175499665Y-53987800D01*
X175222426Y-54042947D01*
X174961273Y-54151120D01*
X174726241Y-54308163D01*
X174526363Y-54508041D01*
X174422957Y-54662800D01*
X173722522Y-54662800D01*
X173685199Y-54659124D01*
X173647876Y-54662800D01*
X173647867Y-54662800D01*
X173536214Y-54673797D01*
X173392953Y-54717254D01*
X173260924Y-54787826D01*
X173145199Y-54882799D01*
X173121401Y-54911797D01*
X171878798Y-56154401D01*
X171854400Y-56174424D01*
X171854400Y-50139600D01*
X185886015Y-50139600D01*
X185914687Y-50430711D01*
X185999601Y-50710634D01*
X186137494Y-50968614D01*
X186323066Y-51194734D01*
X186386537Y-51246823D01*
X186284814Y-51301195D01*
X186150238Y-51411638D01*
X186039795Y-51546214D01*
X185957728Y-51699750D01*
X185907192Y-51866346D01*
X185890128Y-52039600D01*
X185890128Y-53239600D01*
X185907192Y-53412854D01*
X185957728Y-53579450D01*
X186039795Y-53732986D01*
X186150238Y-53867562D01*
X186284814Y-53978005D01*
X186438350Y-54060072D01*
X186604946Y-54110608D01*
X186778200Y-54127672D01*
X188278200Y-54127672D01*
X188451454Y-54110608D01*
X188618050Y-54060072D01*
X188771586Y-53978005D01*
X188906162Y-53867562D01*
X189016605Y-53732986D01*
X189098672Y-53579450D01*
X189149208Y-53412854D01*
X189166272Y-53239600D01*
X189166272Y-52039600D01*
X189149208Y-51866346D01*
X189098672Y-51699750D01*
X189016605Y-51546214D01*
X188906162Y-51411638D01*
X188771586Y-51301195D01*
X188669863Y-51246823D01*
X188733334Y-51194734D01*
X188918906Y-50968614D01*
X189056799Y-50710634D01*
X189141713Y-50430711D01*
X189170385Y-50139600D01*
X189141713Y-49848489D01*
X189056799Y-49568566D01*
X188918906Y-49310586D01*
X188733334Y-49084466D01*
X188507214Y-48898894D01*
X188249234Y-48761001D01*
X187969311Y-48676087D01*
X187751150Y-48654600D01*
X187305250Y-48654600D01*
X187087089Y-48676087D01*
X186807166Y-48761001D01*
X186549186Y-48898894D01*
X186323066Y-49084466D01*
X186137494Y-49310586D01*
X185999601Y-49568566D01*
X185914687Y-49848489D01*
X185886015Y-50139600D01*
X171854400Y-50139600D01*
X171854400Y-49895601D01*
X176641602Y-45108400D01*
X177791822Y-45108400D01*
X177916525Y-45295032D01*
X178123368Y-45501875D01*
X178366589Y-45664390D01*
X178636842Y-45776332D01*
X178923740Y-45833400D01*
X179216260Y-45833400D01*
X179503158Y-45776332D01*
X179773411Y-45664390D01*
X180016632Y-45501875D01*
X180223475Y-45295032D01*
X180340000Y-45120640D01*
X180456525Y-45295032D01*
X180663368Y-45501875D01*
X180906589Y-45664390D01*
X181176842Y-45776332D01*
X181463740Y-45833400D01*
X181756260Y-45833400D01*
X182043158Y-45776332D01*
X182313411Y-45664390D01*
X182556632Y-45501875D01*
X182763475Y-45295032D01*
X182880000Y-45120640D01*
X182996525Y-45295032D01*
X183203368Y-45501875D01*
X183446589Y-45664390D01*
X183716842Y-45776332D01*
X184003740Y-45833400D01*
X184296260Y-45833400D01*
X184583158Y-45776332D01*
X184853411Y-45664390D01*
X185096632Y-45501875D01*
X185303475Y-45295032D01*
X185465990Y-45051811D01*
X185577932Y-44781558D01*
X185635000Y-44494660D01*
X185635000Y-44202140D01*
X185577932Y-43915242D01*
X185465990Y-43644989D01*
X185303475Y-43401768D01*
X185171620Y-43269913D01*
X185244180Y-43247902D01*
X185354494Y-43188937D01*
X185451185Y-43109585D01*
X185530537Y-43012894D01*
X185589502Y-42902580D01*
X185625812Y-42782882D01*
X185638072Y-42658400D01*
X185638072Y-40958400D01*
X185625812Y-40833918D01*
X185608595Y-40777160D01*
X190342520Y-40777160D01*
X190342520Y-62791612D01*
G37*
%TD.AperFunction*%
D28*
X144420473Y-40785539D02*
X142948229Y-41635539D01*
X142846555Y-41708398D01*
X142761049Y-41799692D01*
X142694996Y-41905914D01*
X142650935Y-42022981D01*
X142630559Y-42146394D01*
X142634652Y-42271411D01*
X142650422Y-42339045D01*
X142374943Y-42284248D01*
X142082423Y-42284248D01*
X141795525Y-42341316D01*
X141525272Y-42453258D01*
X141282051Y-42615773D01*
X141075208Y-42822616D01*
X140912693Y-43065837D01*
X140800751Y-43336090D01*
X140743683Y-43622988D01*
X140743683Y-43730804D01*
X140732389Y-43723258D01*
X140462136Y-43611316D01*
X140175238Y-43554248D01*
X139882718Y-43554248D01*
X139595820Y-43611316D01*
X139325567Y-43723258D01*
X139082346Y-43885773D01*
X138875503Y-44092616D01*
X138712988Y-44335837D01*
X138601046Y-44606090D01*
X138543978Y-44892988D01*
X138543978Y-45185508D01*
X138601046Y-45472406D01*
X138712988Y-45742659D01*
X138875503Y-45985880D01*
X139082346Y-46192723D01*
X139325567Y-46355238D01*
X139595820Y-46467180D01*
X139882718Y-46524248D01*
X139990534Y-46524248D01*
X139982988Y-46535541D01*
X139871046Y-46805794D01*
X139813978Y-47092692D01*
X139813978Y-47385212D01*
X139871046Y-47672110D01*
X139982988Y-47942363D01*
X140145503Y-48185584D01*
X140352346Y-48392427D01*
X140538979Y-48517131D01*
X140538978Y-50990055D01*
X140535302Y-51027378D01*
X140538978Y-51064700D01*
X140538978Y-51064710D01*
X140549975Y-51176363D01*
X140576779Y-51264724D01*
X140593432Y-51319624D01*
X140664004Y-51451654D01*
X140668382Y-51456988D01*
X140758977Y-51567379D01*
X140787980Y-51591181D01*
X141396800Y-52200002D01*
X141420599Y-52229001D01*
X141536324Y-52323974D01*
X141668353Y-52394546D01*
X141811614Y-52438003D01*
X141923267Y-52449000D01*
X141923277Y-52449000D01*
X141960600Y-52452676D01*
X141997923Y-52449000D01*
X151958199Y-52449000D01*
X152571811Y-53062614D01*
X152571810Y-65334534D01*
X152524098Y-65314771D01*
X152324139Y-65274997D01*
X152120261Y-65274997D01*
X151920302Y-65314771D01*
X151731944Y-65392792D01*
X151562426Y-65506060D01*
X151518489Y-65549997D01*
X150622598Y-65549997D01*
X150532594Y-65459993D01*
X150508791Y-65430989D01*
X150393066Y-65336016D01*
X150261037Y-65265444D01*
X150117776Y-65221987D01*
X150006123Y-65210990D01*
X150006112Y-65210990D01*
X149968790Y-65207314D01*
X149931468Y-65210990D01*
X144773202Y-65210990D01*
X139767010Y-60204799D01*
X139767008Y-58753541D01*
X139770686Y-58716199D01*
X139756012Y-58567213D01*
X139712555Y-58423952D01*
X139641983Y-58291923D01*
X139570808Y-58205196D01*
X139570803Y-58205191D01*
X139547009Y-58176198D01*
X139518016Y-58152404D01*
X136277414Y-54911803D01*
X136253611Y-54882799D01*
X136137886Y-54787826D01*
X136005857Y-54717254D01*
X135862596Y-54673797D01*
X135750943Y-54662800D01*
X135750932Y-54662800D01*
X135713610Y-54659124D01*
X135676288Y-54662800D01*
X134466443Y-54662800D01*
X134363037Y-54508041D01*
X134163159Y-54308163D01*
X133928127Y-54151120D01*
X133666974Y-54042947D01*
X133389735Y-53987800D01*
X133107065Y-53987800D01*
X132829826Y-54042947D01*
X132568673Y-54151120D01*
X132333641Y-54308163D01*
X132133763Y-54508041D01*
X131976720Y-54743073D01*
X131868547Y-55004226D01*
X131813400Y-55281465D01*
X131813400Y-55564135D01*
X131868547Y-55841374D01*
X131976720Y-56102527D01*
X132133763Y-56337559D01*
X132333641Y-56537437D01*
X132566159Y-56692800D01*
X132333641Y-56848163D01*
X132133763Y-57048041D01*
X131976720Y-57283073D01*
X131868547Y-57544226D01*
X131813400Y-57821465D01*
X131813400Y-58104135D01*
X131868547Y-58381374D01*
X131976720Y-58642527D01*
X132133763Y-58877559D01*
X132333641Y-59077437D01*
X132568673Y-59234480D01*
X132829826Y-59342653D01*
X133107065Y-59397800D01*
X133389735Y-59397800D01*
X133666974Y-59342653D01*
X133928127Y-59234480D01*
X134163159Y-59077437D01*
X134363037Y-58877559D01*
X134466443Y-58722800D01*
X137302399Y-58722800D01*
X137797001Y-59217403D01*
X137797000Y-60668677D01*
X137793324Y-60706000D01*
X137797000Y-60743323D01*
X137797000Y-60743332D01*
X137807997Y-60854985D01*
X137851454Y-60998246D01*
X137922026Y-61130276D01*
X137961871Y-61178826D01*
X138016999Y-61246001D01*
X138046003Y-61269804D01*
X143708202Y-66932002D01*
X143732001Y-66961001D01*
X143847726Y-67055974D01*
X143979755Y-67126546D01*
X144123016Y-67170003D01*
X144234669Y-67181000D01*
X144234679Y-67181000D01*
X144272002Y-67184676D01*
X144309325Y-67181000D01*
X148143187Y-67181000D01*
X148129995Y-67200744D01*
X148051974Y-67389102D01*
X148012200Y-67589061D01*
X148012200Y-67792939D01*
X148051974Y-67992898D01*
X148129995Y-68181256D01*
X148243263Y-68350774D01*
X148387426Y-68494937D01*
X148556944Y-68608205D01*
X148745302Y-68686226D01*
X148945261Y-68726000D01*
X149149139Y-68726000D01*
X149176201Y-68720617D01*
X149176200Y-71305289D01*
X149132263Y-71349226D01*
X149018995Y-71518744D01*
X148940974Y-71707102D01*
X148901200Y-71907061D01*
X148901200Y-72110939D01*
X148940974Y-72310898D01*
X149018995Y-72499256D01*
X149132263Y-72668774D01*
X149276426Y-72812937D01*
X149445944Y-72926205D01*
X149634302Y-73004226D01*
X149834261Y-73044000D01*
X150038139Y-73044000D01*
X150238098Y-73004226D01*
X150426456Y-72926205D01*
X150595974Y-72812937D01*
X150740137Y-72668774D01*
X150853405Y-72499256D01*
X150931426Y-72310898D01*
X150971200Y-72110939D01*
X150971200Y-71907061D01*
X150931426Y-71707102D01*
X150853405Y-71518744D01*
X150740137Y-71349226D01*
X150696200Y-71305289D01*
X150696200Y-68070000D01*
X151518489Y-68070000D01*
X151562426Y-68113937D01*
X151731944Y-68227205D01*
X151920302Y-68305226D01*
X152120261Y-68345000D01*
X152324139Y-68345000D01*
X152524098Y-68305226D01*
X152571810Y-68285463D01*
X152571810Y-75040889D01*
X152527873Y-75084826D01*
X152414605Y-75254344D01*
X152336584Y-75442702D01*
X152296810Y-75642661D01*
X152296810Y-75846539D01*
X152336584Y-76046498D01*
X152414605Y-76234856D01*
X152527873Y-76404374D01*
X152672036Y-76548537D01*
X152841554Y-76661805D01*
X153029912Y-76739826D01*
X153229871Y-76779600D01*
X153433749Y-76779600D01*
X153633708Y-76739826D01*
X153822066Y-76661805D01*
X153831810Y-76655294D01*
X153841554Y-76661805D01*
X154029912Y-76739826D01*
X154229871Y-76779600D01*
X154433749Y-76779600D01*
X154459026Y-76774572D01*
X153362198Y-77871401D01*
X153333200Y-77895199D01*
X153309402Y-77924197D01*
X153309401Y-77924198D01*
X153238226Y-78010924D01*
X153167654Y-78142954D01*
X153149925Y-78201402D01*
X153124198Y-78286214D01*
X153114525Y-78384426D01*
X153109524Y-78435200D01*
X153113201Y-78472532D01*
X153113200Y-79458689D01*
X153069263Y-79502626D01*
X152955995Y-79672144D01*
X152877974Y-79860502D01*
X152838200Y-80060461D01*
X152838200Y-80264339D01*
X152877974Y-80464298D01*
X152955995Y-80652656D01*
X153069263Y-80822174D01*
X153213426Y-80966337D01*
X153382944Y-81079605D01*
X153571302Y-81157626D01*
X153771261Y-81197400D01*
X153975139Y-81197400D01*
X154175098Y-81157626D01*
X154363456Y-81079605D01*
X154532974Y-80966337D01*
X154677137Y-80822174D01*
X154790405Y-80652656D01*
X154801292Y-80626373D01*
X154847263Y-80695174D01*
X154991426Y-80839337D01*
X155160944Y-80952605D01*
X155349302Y-81030626D01*
X155549261Y-81070400D01*
X155753139Y-81070400D01*
X155953098Y-81030626D01*
X156141456Y-80952605D01*
X156310974Y-80839337D01*
X156354911Y-80795400D01*
X161102199Y-80795400D01*
X161793001Y-81486203D01*
X161816799Y-81515201D01*
X161845797Y-81538999D01*
X161932523Y-81610174D01*
X162055137Y-81675713D01*
X162064553Y-81680746D01*
X162207814Y-81724203D01*
X162319467Y-81735200D01*
X162319477Y-81735200D01*
X162356800Y-81738876D01*
X162394123Y-81735200D01*
X165751433Y-81735200D01*
X165731411Y-81759597D01*
X161967209Y-85523800D01*
X153551516Y-85523800D01*
X153567774Y-85512937D01*
X153711937Y-85368774D01*
X153825205Y-85199256D01*
X153903226Y-85010898D01*
X153943000Y-84810939D01*
X153943000Y-84607061D01*
X153903226Y-84407102D01*
X153825205Y-84218744D01*
X153804863Y-84188300D01*
X153825205Y-84157856D01*
X153903226Y-83969498D01*
X153943000Y-83769539D01*
X153943000Y-83565661D01*
X153903226Y-83365702D01*
X153825205Y-83177344D01*
X153779405Y-83108800D01*
X153825205Y-83040256D01*
X153903226Y-82851898D01*
X153943000Y-82651939D01*
X153943000Y-82448061D01*
X153903226Y-82248102D01*
X153825205Y-82059744D01*
X153711937Y-81890226D01*
X153567774Y-81746063D01*
X153398256Y-81632795D01*
X153209898Y-81554774D01*
X153009939Y-81515000D01*
X152806061Y-81515000D01*
X152606102Y-81554774D01*
X152417744Y-81632795D01*
X152248226Y-81746063D01*
X152209934Y-81784355D01*
X152220200Y-81680123D01*
X152220200Y-81680114D01*
X152223876Y-81642791D01*
X152220200Y-81605468D01*
X152220200Y-80688311D01*
X152264137Y-80644374D01*
X152377405Y-80474856D01*
X152455426Y-80286498D01*
X152495200Y-80086539D01*
X152495200Y-79882661D01*
X152455426Y-79682702D01*
X152377405Y-79494344D01*
X152264137Y-79324826D01*
X152119974Y-79180663D01*
X151950456Y-79067395D01*
X151762098Y-78989374D01*
X151562139Y-78949600D01*
X151358261Y-78949600D01*
X151158302Y-78989374D01*
X150969944Y-79067395D01*
X150800426Y-79180663D01*
X150787100Y-79193989D01*
X150773774Y-79180663D01*
X150604256Y-79067395D01*
X150415898Y-78989374D01*
X150215939Y-78949600D01*
X150012061Y-78949600D01*
X149812102Y-78989374D01*
X149623744Y-79067395D01*
X149454226Y-79180663D01*
X149310063Y-79324826D01*
X149196795Y-79494344D01*
X149118774Y-79682702D01*
X149079000Y-79882661D01*
X149079000Y-80086539D01*
X149118774Y-80286498D01*
X149196795Y-80474856D01*
X149310063Y-80644374D01*
X149354001Y-80688312D01*
X149354001Y-80889980D01*
X130022992Y-80889980D01*
X121208024Y-72075012D01*
X137447400Y-72075012D01*
X137447400Y-72298588D01*
X137491017Y-72517867D01*
X137576576Y-72724424D01*
X137700788Y-72910320D01*
X137858880Y-73068412D01*
X138044776Y-73192624D01*
X138251333Y-73278183D01*
X138470612Y-73321800D01*
X138694188Y-73321800D01*
X138913467Y-73278183D01*
X139120024Y-73192624D01*
X139305920Y-73068412D01*
X139464012Y-72910320D01*
X139588224Y-72724424D01*
X139673783Y-72517867D01*
X139717400Y-72298588D01*
X139717400Y-72075012D01*
X139673783Y-71855733D01*
X139588224Y-71649176D01*
X139464012Y-71463280D01*
X139342400Y-71341668D01*
X139342400Y-67218401D01*
X139633802Y-66927000D01*
X140520289Y-66927000D01*
X140564226Y-66970937D01*
X140733744Y-67084205D01*
X140922102Y-67162226D01*
X141122061Y-67202000D01*
X141325939Y-67202000D01*
X141525898Y-67162226D01*
X141714256Y-67084205D01*
X141883774Y-66970937D01*
X142027937Y-66826774D01*
X142141205Y-66657256D01*
X142219226Y-66468898D01*
X142259000Y-66268939D01*
X142259000Y-66065061D01*
X142219226Y-65865102D01*
X142141205Y-65676744D01*
X142027937Y-65507226D01*
X141883774Y-65363063D01*
X141714256Y-65249795D01*
X141525898Y-65171774D01*
X141325939Y-65132000D01*
X141122061Y-65132000D01*
X140922102Y-65171774D01*
X140733744Y-65249795D01*
X140564226Y-65363063D01*
X140520289Y-65407000D01*
X139356325Y-65407000D01*
X139319000Y-65403324D01*
X139281675Y-65407000D01*
X139281667Y-65407000D01*
X139170014Y-65417997D01*
X139026753Y-65461454D01*
X138894724Y-65532026D01*
X138778999Y-65626999D01*
X138755201Y-65655998D01*
X138071398Y-66339801D01*
X138042400Y-66363599D01*
X138018602Y-66392597D01*
X138018601Y-66392598D01*
X137947426Y-66479324D01*
X137876854Y-66611354D01*
X137861311Y-66662595D01*
X137833398Y-66754614D01*
X137824003Y-66849998D01*
X137818724Y-66903600D01*
X137822401Y-66940932D01*
X137822400Y-71341668D01*
X137700788Y-71463280D01*
X137576576Y-71649176D01*
X137491017Y-71855733D01*
X137447400Y-72075012D01*
X121208024Y-72075012D01*
X119555800Y-70422789D01*
X119555800Y-65560685D01*
X120091600Y-65560685D01*
X120091600Y-66316115D01*
X120238977Y-67057028D01*
X120528067Y-67754954D01*
X120947761Y-68383070D01*
X121481930Y-68917239D01*
X122110046Y-69336933D01*
X122807972Y-69626023D01*
X123548885Y-69773400D01*
X124304315Y-69773400D01*
X125045228Y-69626023D01*
X125743154Y-69336933D01*
X126371270Y-68917239D01*
X126905439Y-68383070D01*
X127325133Y-67754954D01*
X127614223Y-67057028D01*
X127761600Y-66316115D01*
X127761600Y-65560685D01*
X127614223Y-64819772D01*
X127325133Y-64121846D01*
X126905439Y-63493730D01*
X126371270Y-62959561D01*
X125743154Y-62539867D01*
X125045228Y-62250777D01*
X124304315Y-62103400D01*
X123548885Y-62103400D01*
X122807972Y-62250777D01*
X122110046Y-62539867D01*
X121481930Y-62959561D01*
X120947761Y-63493730D01*
X120528067Y-64121846D01*
X120238977Y-64819772D01*
X120091600Y-65560685D01*
X119555800Y-65560685D01*
X119555800Y-52082800D01*
X124190328Y-52082800D01*
X124190328Y-53682800D01*
X124202588Y-53807282D01*
X124238898Y-53926980D01*
X124297863Y-54037294D01*
X124377215Y-54133985D01*
X124473906Y-54213337D01*
X124584220Y-54272302D01*
X124703918Y-54308612D01*
X124712361Y-54309443D01*
X124513763Y-54508041D01*
X124356720Y-54743073D01*
X124248547Y-55004226D01*
X124193400Y-55281465D01*
X124193400Y-55564135D01*
X124248547Y-55841374D01*
X124356720Y-56102527D01*
X124513763Y-56337559D01*
X124713641Y-56537437D01*
X124946159Y-56692800D01*
X124713641Y-56848163D01*
X124513763Y-57048041D01*
X124356720Y-57283073D01*
X124248547Y-57544226D01*
X124193400Y-57821465D01*
X124193400Y-58104135D01*
X124248547Y-58381374D01*
X124356720Y-58642527D01*
X124513763Y-58877559D01*
X124713641Y-59077437D01*
X124946159Y-59232800D01*
X124713641Y-59388163D01*
X124513763Y-59588041D01*
X124356720Y-59823073D01*
X124248547Y-60084226D01*
X124193400Y-60361465D01*
X124193400Y-60644135D01*
X124248547Y-60921374D01*
X124356720Y-61182527D01*
X124513763Y-61417559D01*
X124713641Y-61617437D01*
X124948673Y-61774480D01*
X125209826Y-61882653D01*
X125487065Y-61937800D01*
X125769735Y-61937800D01*
X126046974Y-61882653D01*
X126308127Y-61774480D01*
X126543159Y-61617437D01*
X126743037Y-61417559D01*
X126900080Y-61182527D01*
X127008253Y-60921374D01*
X127063400Y-60644135D01*
X127063400Y-60361465D01*
X127008253Y-60084226D01*
X126900080Y-59823073D01*
X126743037Y-59588041D01*
X126543159Y-59388163D01*
X126310641Y-59232800D01*
X126543159Y-59077437D01*
X126743037Y-58877559D01*
X126900080Y-58642527D01*
X127008253Y-58381374D01*
X127063400Y-58104135D01*
X127063400Y-57821465D01*
X127008253Y-57544226D01*
X126900080Y-57283073D01*
X126743037Y-57048041D01*
X126543159Y-56848163D01*
X126310641Y-56692800D01*
X126543159Y-56537437D01*
X126743037Y-56337559D01*
X126900080Y-56102527D01*
X127008253Y-55841374D01*
X127063400Y-55564135D01*
X127063400Y-55281465D01*
X127008253Y-55004226D01*
X126900080Y-54743073D01*
X126743037Y-54508041D01*
X126544439Y-54309443D01*
X126552882Y-54308612D01*
X126672580Y-54272302D01*
X126782894Y-54213337D01*
X126879585Y-54133985D01*
X126958937Y-54037294D01*
X127017902Y-53926980D01*
X127054212Y-53807282D01*
X127066472Y-53682800D01*
X127066472Y-52082800D01*
X127054212Y-51958318D01*
X127017902Y-51838620D01*
X126958937Y-51728306D01*
X126879585Y-51631615D01*
X126782894Y-51552263D01*
X126672580Y-51493298D01*
X126552882Y-51456988D01*
X126428400Y-51444728D01*
X124828400Y-51444728D01*
X124703918Y-51456988D01*
X124584220Y-51493298D01*
X124473906Y-51552263D01*
X124377215Y-51631615D01*
X124297863Y-51728306D01*
X124238898Y-51838620D01*
X124202588Y-51958318D01*
X124190328Y-52082800D01*
X119555800Y-52082800D01*
X119555800Y-45626578D01*
X119742432Y-45501875D01*
X119949275Y-45295032D01*
X120065800Y-45120640D01*
X120182325Y-45295032D01*
X120389168Y-45501875D01*
X120632389Y-45664390D01*
X120902642Y-45776332D01*
X121189540Y-45833400D01*
X121482060Y-45833400D01*
X121768958Y-45776332D01*
X122039211Y-45664390D01*
X122282432Y-45501875D01*
X122489275Y-45295032D01*
X122605800Y-45120640D01*
X122722325Y-45295032D01*
X122929168Y-45501875D01*
X123172389Y-45664390D01*
X123442642Y-45776332D01*
X123729540Y-45833400D01*
X124022060Y-45833400D01*
X124308958Y-45776332D01*
X124579211Y-45664390D01*
X124822432Y-45501875D01*
X125029275Y-45295032D01*
X125191790Y-45051811D01*
X125303732Y-44781558D01*
X125360800Y-44494660D01*
X125360800Y-44202140D01*
X125303732Y-43915242D01*
X125191790Y-43644989D01*
X125029275Y-43401768D01*
X124897420Y-43269913D01*
X124969980Y-43247902D01*
X125080294Y-43188937D01*
X125176985Y-43109585D01*
X125256337Y-43012894D01*
X125315302Y-42902580D01*
X125351612Y-42782882D01*
X125363872Y-42658400D01*
X125363872Y-40958400D01*
X125351612Y-40833918D01*
X125334395Y-40777160D01*
X144438966Y-40777160D01*
X144420473Y-40785539D01*
%TA.AperFunction,Conductor*%
D29*
G36*
X144420473Y-40785539D02*
G01*
X142948229Y-41635539D01*
X142846555Y-41708398D01*
X142761049Y-41799692D01*
X142694996Y-41905914D01*
X142650935Y-42022981D01*
X142630559Y-42146394D01*
X142634652Y-42271411D01*
X142650422Y-42339045D01*
X142374943Y-42284248D01*
X142082423Y-42284248D01*
X141795525Y-42341316D01*
X141525272Y-42453258D01*
X141282051Y-42615773D01*
X141075208Y-42822616D01*
X140912693Y-43065837D01*
X140800751Y-43336090D01*
X140743683Y-43622988D01*
X140743683Y-43730804D01*
X140732389Y-43723258D01*
X140462136Y-43611316D01*
X140175238Y-43554248D01*
X139882718Y-43554248D01*
X139595820Y-43611316D01*
X139325567Y-43723258D01*
X139082346Y-43885773D01*
X138875503Y-44092616D01*
X138712988Y-44335837D01*
X138601046Y-44606090D01*
X138543978Y-44892988D01*
X138543978Y-45185508D01*
X138601046Y-45472406D01*
X138712988Y-45742659D01*
X138875503Y-45985880D01*
X139082346Y-46192723D01*
X139325567Y-46355238D01*
X139595820Y-46467180D01*
X139882718Y-46524248D01*
X139990534Y-46524248D01*
X139982988Y-46535541D01*
X139871046Y-46805794D01*
X139813978Y-47092692D01*
X139813978Y-47385212D01*
X139871046Y-47672110D01*
X139982988Y-47942363D01*
X140145503Y-48185584D01*
X140352346Y-48392427D01*
X140538979Y-48517131D01*
X140538978Y-50990055D01*
X140535302Y-51027378D01*
X140538978Y-51064700D01*
X140538978Y-51064710D01*
X140549975Y-51176363D01*
X140576779Y-51264724D01*
X140593432Y-51319624D01*
X140664004Y-51451654D01*
X140668382Y-51456988D01*
X140758977Y-51567379D01*
X140787980Y-51591181D01*
X141396800Y-52200002D01*
X141420599Y-52229001D01*
X141536324Y-52323974D01*
X141668353Y-52394546D01*
X141811614Y-52438003D01*
X141923267Y-52449000D01*
X141923277Y-52449000D01*
X141960600Y-52452676D01*
X141997923Y-52449000D01*
X151958199Y-52449000D01*
X152571811Y-53062614D01*
X152571810Y-65334534D01*
X152524098Y-65314771D01*
X152324139Y-65274997D01*
X152120261Y-65274997D01*
X151920302Y-65314771D01*
X151731944Y-65392792D01*
X151562426Y-65506060D01*
X151518489Y-65549997D01*
X150622598Y-65549997D01*
X150532594Y-65459993D01*
X150508791Y-65430989D01*
X150393066Y-65336016D01*
X150261037Y-65265444D01*
X150117776Y-65221987D01*
X150006123Y-65210990D01*
X150006112Y-65210990D01*
X149968790Y-65207314D01*
X149931468Y-65210990D01*
X144773202Y-65210990D01*
X139767010Y-60204799D01*
X139767008Y-58753541D01*
X139770686Y-58716199D01*
X139756012Y-58567213D01*
X139712555Y-58423952D01*
X139641983Y-58291923D01*
X139570808Y-58205196D01*
X139570803Y-58205191D01*
X139547009Y-58176198D01*
X139518016Y-58152404D01*
X136277414Y-54911803D01*
X136253611Y-54882799D01*
X136137886Y-54787826D01*
X136005857Y-54717254D01*
X135862596Y-54673797D01*
X135750943Y-54662800D01*
X135750932Y-54662800D01*
X135713610Y-54659124D01*
X135676288Y-54662800D01*
X134466443Y-54662800D01*
X134363037Y-54508041D01*
X134163159Y-54308163D01*
X133928127Y-54151120D01*
X133666974Y-54042947D01*
X133389735Y-53987800D01*
X133107065Y-53987800D01*
X132829826Y-54042947D01*
X132568673Y-54151120D01*
X132333641Y-54308163D01*
X132133763Y-54508041D01*
X131976720Y-54743073D01*
X131868547Y-55004226D01*
X131813400Y-55281465D01*
X131813400Y-55564135D01*
X131868547Y-55841374D01*
X131976720Y-56102527D01*
X132133763Y-56337559D01*
X132333641Y-56537437D01*
X132566159Y-56692800D01*
X132333641Y-56848163D01*
X132133763Y-57048041D01*
X131976720Y-57283073D01*
X131868547Y-57544226D01*
X131813400Y-57821465D01*
X131813400Y-58104135D01*
X131868547Y-58381374D01*
X131976720Y-58642527D01*
X132133763Y-58877559D01*
X132333641Y-59077437D01*
X132568673Y-59234480D01*
X132829826Y-59342653D01*
X133107065Y-59397800D01*
X133389735Y-59397800D01*
X133666974Y-59342653D01*
X133928127Y-59234480D01*
X134163159Y-59077437D01*
X134363037Y-58877559D01*
X134466443Y-58722800D01*
X137302399Y-58722800D01*
X137797001Y-59217403D01*
X137797000Y-60668677D01*
X137793324Y-60706000D01*
X137797000Y-60743323D01*
X137797000Y-60743332D01*
X137807997Y-60854985D01*
X137851454Y-60998246D01*
X137922026Y-61130276D01*
X137961871Y-61178826D01*
X138016999Y-61246001D01*
X138046003Y-61269804D01*
X143708202Y-66932002D01*
X143732001Y-66961001D01*
X143847726Y-67055974D01*
X143979755Y-67126546D01*
X144123016Y-67170003D01*
X144234669Y-67181000D01*
X144234679Y-67181000D01*
X144272002Y-67184676D01*
X144309325Y-67181000D01*
X148143187Y-67181000D01*
X148129995Y-67200744D01*
X148051974Y-67389102D01*
X148012200Y-67589061D01*
X148012200Y-67792939D01*
X148051974Y-67992898D01*
X148129995Y-68181256D01*
X148243263Y-68350774D01*
X148387426Y-68494937D01*
X148556944Y-68608205D01*
X148745302Y-68686226D01*
X148945261Y-68726000D01*
X149149139Y-68726000D01*
X149176201Y-68720617D01*
X149176200Y-71305289D01*
X149132263Y-71349226D01*
X149018995Y-71518744D01*
X148940974Y-71707102D01*
X148901200Y-71907061D01*
X148901200Y-72110939D01*
X148940974Y-72310898D01*
X149018995Y-72499256D01*
X149132263Y-72668774D01*
X149276426Y-72812937D01*
X149445944Y-72926205D01*
X149634302Y-73004226D01*
X149834261Y-73044000D01*
X150038139Y-73044000D01*
X150238098Y-73004226D01*
X150426456Y-72926205D01*
X150595974Y-72812937D01*
X150740137Y-72668774D01*
X150853405Y-72499256D01*
X150931426Y-72310898D01*
X150971200Y-72110939D01*
X150971200Y-71907061D01*
X150931426Y-71707102D01*
X150853405Y-71518744D01*
X150740137Y-71349226D01*
X150696200Y-71305289D01*
X150696200Y-68070000D01*
X151518489Y-68070000D01*
X151562426Y-68113937D01*
X151731944Y-68227205D01*
X151920302Y-68305226D01*
X152120261Y-68345000D01*
X152324139Y-68345000D01*
X152524098Y-68305226D01*
X152571810Y-68285463D01*
X152571810Y-75040889D01*
X152527873Y-75084826D01*
X152414605Y-75254344D01*
X152336584Y-75442702D01*
X152296810Y-75642661D01*
X152296810Y-75846539D01*
X152336584Y-76046498D01*
X152414605Y-76234856D01*
X152527873Y-76404374D01*
X152672036Y-76548537D01*
X152841554Y-76661805D01*
X153029912Y-76739826D01*
X153229871Y-76779600D01*
X153433749Y-76779600D01*
X153633708Y-76739826D01*
X153822066Y-76661805D01*
X153831810Y-76655294D01*
X153841554Y-76661805D01*
X154029912Y-76739826D01*
X154229871Y-76779600D01*
X154433749Y-76779600D01*
X154459026Y-76774572D01*
X153362198Y-77871401D01*
X153333200Y-77895199D01*
X153309402Y-77924197D01*
X153309401Y-77924198D01*
X153238226Y-78010924D01*
X153167654Y-78142954D01*
X153149925Y-78201402D01*
X153124198Y-78286214D01*
X153114525Y-78384426D01*
X153109524Y-78435200D01*
X153113201Y-78472532D01*
X153113200Y-79458689D01*
X153069263Y-79502626D01*
X152955995Y-79672144D01*
X152877974Y-79860502D01*
X152838200Y-80060461D01*
X152838200Y-80264339D01*
X152877974Y-80464298D01*
X152955995Y-80652656D01*
X153069263Y-80822174D01*
X153213426Y-80966337D01*
X153382944Y-81079605D01*
X153571302Y-81157626D01*
X153771261Y-81197400D01*
X153975139Y-81197400D01*
X154175098Y-81157626D01*
X154363456Y-81079605D01*
X154532974Y-80966337D01*
X154677137Y-80822174D01*
X154790405Y-80652656D01*
X154801292Y-80626373D01*
X154847263Y-80695174D01*
X154991426Y-80839337D01*
X155160944Y-80952605D01*
X155349302Y-81030626D01*
X155549261Y-81070400D01*
X155753139Y-81070400D01*
X155953098Y-81030626D01*
X156141456Y-80952605D01*
X156310974Y-80839337D01*
X156354911Y-80795400D01*
X161102199Y-80795400D01*
X161793001Y-81486203D01*
X161816799Y-81515201D01*
X161845797Y-81538999D01*
X161932523Y-81610174D01*
X162055137Y-81675713D01*
X162064553Y-81680746D01*
X162207814Y-81724203D01*
X162319467Y-81735200D01*
X162319477Y-81735200D01*
X162356800Y-81738876D01*
X162394123Y-81735200D01*
X165751433Y-81735200D01*
X165731411Y-81759597D01*
X161967209Y-85523800D01*
X153551516Y-85523800D01*
X153567774Y-85512937D01*
X153711937Y-85368774D01*
X153825205Y-85199256D01*
X153903226Y-85010898D01*
X153943000Y-84810939D01*
X153943000Y-84607061D01*
X153903226Y-84407102D01*
X153825205Y-84218744D01*
X153804863Y-84188300D01*
X153825205Y-84157856D01*
X153903226Y-83969498D01*
X153943000Y-83769539D01*
X153943000Y-83565661D01*
X153903226Y-83365702D01*
X153825205Y-83177344D01*
X153779405Y-83108800D01*
X153825205Y-83040256D01*
X153903226Y-82851898D01*
X153943000Y-82651939D01*
X153943000Y-82448061D01*
X153903226Y-82248102D01*
X153825205Y-82059744D01*
X153711937Y-81890226D01*
X153567774Y-81746063D01*
X153398256Y-81632795D01*
X153209898Y-81554774D01*
X153009939Y-81515000D01*
X152806061Y-81515000D01*
X152606102Y-81554774D01*
X152417744Y-81632795D01*
X152248226Y-81746063D01*
X152209934Y-81784355D01*
X152220200Y-81680123D01*
X152220200Y-81680114D01*
X152223876Y-81642791D01*
X152220200Y-81605468D01*
X152220200Y-80688311D01*
X152264137Y-80644374D01*
X152377405Y-80474856D01*
X152455426Y-80286498D01*
X152495200Y-80086539D01*
X152495200Y-79882661D01*
X152455426Y-79682702D01*
X152377405Y-79494344D01*
X152264137Y-79324826D01*
X152119974Y-79180663D01*
X151950456Y-79067395D01*
X151762098Y-78989374D01*
X151562139Y-78949600D01*
X151358261Y-78949600D01*
X151158302Y-78989374D01*
X150969944Y-79067395D01*
X150800426Y-79180663D01*
X150787100Y-79193989D01*
X150773774Y-79180663D01*
X150604256Y-79067395D01*
X150415898Y-78989374D01*
X150215939Y-78949600D01*
X150012061Y-78949600D01*
X149812102Y-78989374D01*
X149623744Y-79067395D01*
X149454226Y-79180663D01*
X149310063Y-79324826D01*
X149196795Y-79494344D01*
X149118774Y-79682702D01*
X149079000Y-79882661D01*
X149079000Y-80086539D01*
X149118774Y-80286498D01*
X149196795Y-80474856D01*
X149310063Y-80644374D01*
X149354001Y-80688312D01*
X149354001Y-80889980D01*
X130022992Y-80889980D01*
X121208024Y-72075012D01*
X137447400Y-72075012D01*
X137447400Y-72298588D01*
X137491017Y-72517867D01*
X137576576Y-72724424D01*
X137700788Y-72910320D01*
X137858880Y-73068412D01*
X138044776Y-73192624D01*
X138251333Y-73278183D01*
X138470612Y-73321800D01*
X138694188Y-73321800D01*
X138913467Y-73278183D01*
X139120024Y-73192624D01*
X139305920Y-73068412D01*
X139464012Y-72910320D01*
X139588224Y-72724424D01*
X139673783Y-72517867D01*
X139717400Y-72298588D01*
X139717400Y-72075012D01*
X139673783Y-71855733D01*
X139588224Y-71649176D01*
X139464012Y-71463280D01*
X139342400Y-71341668D01*
X139342400Y-67218401D01*
X139633802Y-66927000D01*
X140520289Y-66927000D01*
X140564226Y-66970937D01*
X140733744Y-67084205D01*
X140922102Y-67162226D01*
X141122061Y-67202000D01*
X141325939Y-67202000D01*
X141525898Y-67162226D01*
X141714256Y-67084205D01*
X141883774Y-66970937D01*
X142027937Y-66826774D01*
X142141205Y-66657256D01*
X142219226Y-66468898D01*
X142259000Y-66268939D01*
X142259000Y-66065061D01*
X142219226Y-65865102D01*
X142141205Y-65676744D01*
X142027937Y-65507226D01*
X141883774Y-65363063D01*
X141714256Y-65249795D01*
X141525898Y-65171774D01*
X141325939Y-65132000D01*
X141122061Y-65132000D01*
X140922102Y-65171774D01*
X140733744Y-65249795D01*
X140564226Y-65363063D01*
X140520289Y-65407000D01*
X139356325Y-65407000D01*
X139319000Y-65403324D01*
X139281675Y-65407000D01*
X139281667Y-65407000D01*
X139170014Y-65417997D01*
X139026753Y-65461454D01*
X138894724Y-65532026D01*
X138778999Y-65626999D01*
X138755201Y-65655998D01*
X138071398Y-66339801D01*
X138042400Y-66363599D01*
X138018602Y-66392597D01*
X138018601Y-66392598D01*
X137947426Y-66479324D01*
X137876854Y-66611354D01*
X137861311Y-66662595D01*
X137833398Y-66754614D01*
X137824003Y-66849998D01*
X137818724Y-66903600D01*
X137822401Y-66940932D01*
X137822400Y-71341668D01*
X137700788Y-71463280D01*
X137576576Y-71649176D01*
X137491017Y-71855733D01*
X137447400Y-72075012D01*
X121208024Y-72075012D01*
X119555800Y-70422789D01*
X119555800Y-65560685D01*
X120091600Y-65560685D01*
X120091600Y-66316115D01*
X120238977Y-67057028D01*
X120528067Y-67754954D01*
X120947761Y-68383070D01*
X121481930Y-68917239D01*
X122110046Y-69336933D01*
X122807972Y-69626023D01*
X123548885Y-69773400D01*
X124304315Y-69773400D01*
X125045228Y-69626023D01*
X125743154Y-69336933D01*
X126371270Y-68917239D01*
X126905439Y-68383070D01*
X127325133Y-67754954D01*
X127614223Y-67057028D01*
X127761600Y-66316115D01*
X127761600Y-65560685D01*
X127614223Y-64819772D01*
X127325133Y-64121846D01*
X126905439Y-63493730D01*
X126371270Y-62959561D01*
X125743154Y-62539867D01*
X125045228Y-62250777D01*
X124304315Y-62103400D01*
X123548885Y-62103400D01*
X122807972Y-62250777D01*
X122110046Y-62539867D01*
X121481930Y-62959561D01*
X120947761Y-63493730D01*
X120528067Y-64121846D01*
X120238977Y-64819772D01*
X120091600Y-65560685D01*
X119555800Y-65560685D01*
X119555800Y-52082800D01*
X124190328Y-52082800D01*
X124190328Y-53682800D01*
X124202588Y-53807282D01*
X124238898Y-53926980D01*
X124297863Y-54037294D01*
X124377215Y-54133985D01*
X124473906Y-54213337D01*
X124584220Y-54272302D01*
X124703918Y-54308612D01*
X124712361Y-54309443D01*
X124513763Y-54508041D01*
X124356720Y-54743073D01*
X124248547Y-55004226D01*
X124193400Y-55281465D01*
X124193400Y-55564135D01*
X124248547Y-55841374D01*
X124356720Y-56102527D01*
X124513763Y-56337559D01*
X124713641Y-56537437D01*
X124946159Y-56692800D01*
X124713641Y-56848163D01*
X124513763Y-57048041D01*
X124356720Y-57283073D01*
X124248547Y-57544226D01*
X124193400Y-57821465D01*
X124193400Y-58104135D01*
X124248547Y-58381374D01*
X124356720Y-58642527D01*
X124513763Y-58877559D01*
X124713641Y-59077437D01*
X124946159Y-59232800D01*
X124713641Y-59388163D01*
X124513763Y-59588041D01*
X124356720Y-59823073D01*
X124248547Y-60084226D01*
X124193400Y-60361465D01*
X124193400Y-60644135D01*
X124248547Y-60921374D01*
X124356720Y-61182527D01*
X124513763Y-61417559D01*
X124713641Y-61617437D01*
X124948673Y-61774480D01*
X125209826Y-61882653D01*
X125487065Y-61937800D01*
X125769735Y-61937800D01*
X126046974Y-61882653D01*
X126308127Y-61774480D01*
X126543159Y-61617437D01*
X126743037Y-61417559D01*
X126900080Y-61182527D01*
X127008253Y-60921374D01*
X127063400Y-60644135D01*
X127063400Y-60361465D01*
X127008253Y-60084226D01*
X126900080Y-59823073D01*
X126743037Y-59588041D01*
X126543159Y-59388163D01*
X126310641Y-59232800D01*
X126543159Y-59077437D01*
X126743037Y-58877559D01*
X126900080Y-58642527D01*
X127008253Y-58381374D01*
X127063400Y-58104135D01*
X127063400Y-57821465D01*
X127008253Y-57544226D01*
X126900080Y-57283073D01*
X126743037Y-57048041D01*
X126543159Y-56848163D01*
X126310641Y-56692800D01*
X126543159Y-56537437D01*
X126743037Y-56337559D01*
X126900080Y-56102527D01*
X127008253Y-55841374D01*
X127063400Y-55564135D01*
X127063400Y-55281465D01*
X127008253Y-55004226D01*
X126900080Y-54743073D01*
X126743037Y-54508041D01*
X126544439Y-54309443D01*
X126552882Y-54308612D01*
X126672580Y-54272302D01*
X126782894Y-54213337D01*
X126879585Y-54133985D01*
X126958937Y-54037294D01*
X127017902Y-53926980D01*
X127054212Y-53807282D01*
X127066472Y-53682800D01*
X127066472Y-52082800D01*
X127054212Y-51958318D01*
X127017902Y-51838620D01*
X126958937Y-51728306D01*
X126879585Y-51631615D01*
X126782894Y-51552263D01*
X126672580Y-51493298D01*
X126552882Y-51456988D01*
X126428400Y-51444728D01*
X124828400Y-51444728D01*
X124703918Y-51456988D01*
X124584220Y-51493298D01*
X124473906Y-51552263D01*
X124377215Y-51631615D01*
X124297863Y-51728306D01*
X124238898Y-51838620D01*
X124202588Y-51958318D01*
X124190328Y-52082800D01*
X119555800Y-52082800D01*
X119555800Y-45626578D01*
X119742432Y-45501875D01*
X119949275Y-45295032D01*
X120065800Y-45120640D01*
X120182325Y-45295032D01*
X120389168Y-45501875D01*
X120632389Y-45664390D01*
X120902642Y-45776332D01*
X121189540Y-45833400D01*
X121482060Y-45833400D01*
X121768958Y-45776332D01*
X122039211Y-45664390D01*
X122282432Y-45501875D01*
X122489275Y-45295032D01*
X122605800Y-45120640D01*
X122722325Y-45295032D01*
X122929168Y-45501875D01*
X123172389Y-45664390D01*
X123442642Y-45776332D01*
X123729540Y-45833400D01*
X124022060Y-45833400D01*
X124308958Y-45776332D01*
X124579211Y-45664390D01*
X124822432Y-45501875D01*
X125029275Y-45295032D01*
X125191790Y-45051811D01*
X125303732Y-44781558D01*
X125360800Y-44494660D01*
X125360800Y-44202140D01*
X125303732Y-43915242D01*
X125191790Y-43644989D01*
X125029275Y-43401768D01*
X124897420Y-43269913D01*
X124969980Y-43247902D01*
X125080294Y-43188937D01*
X125176985Y-43109585D01*
X125256337Y-43012894D01*
X125315302Y-42902580D01*
X125351612Y-42782882D01*
X125363872Y-42658400D01*
X125363872Y-40958400D01*
X125351612Y-40833918D01*
X125334395Y-40777160D01*
X144438966Y-40777160D01*
X144420473Y-40785539D01*
G37*
%TD.AperFunction*%
D28*
X157399174Y-66871699D02*
X157359400Y-67071658D01*
X157359400Y-67275536D01*
X157399174Y-67475495D01*
X157477195Y-67663853D01*
X157483707Y-67673599D01*
X157477195Y-67683344D01*
X157399174Y-67871702D01*
X157359400Y-68071661D01*
X157359400Y-68275539D01*
X157399174Y-68475498D01*
X157477195Y-68663856D01*
X157590463Y-68833374D01*
X157734626Y-68977537D01*
X157904144Y-69090805D01*
X158092502Y-69168826D01*
X158292461Y-69208600D01*
X158496339Y-69208600D01*
X158696298Y-69168826D01*
X158884656Y-69090805D01*
X159054174Y-68977537D01*
X159098111Y-68933600D01*
X169052399Y-68933600D01*
X170975167Y-70856370D01*
X170960568Y-70866125D01*
X170753725Y-71072968D01*
X170637200Y-71247360D01*
X170520675Y-71072968D01*
X170313832Y-70866125D01*
X170070611Y-70703610D01*
X169800358Y-70591668D01*
X169513460Y-70534600D01*
X169220940Y-70534600D01*
X168934042Y-70591668D01*
X168663789Y-70703610D01*
X168420568Y-70866125D01*
X168213725Y-71072968D01*
X168051210Y-71316189D01*
X167939268Y-71586442D01*
X167882200Y-71873340D01*
X167882200Y-72165860D01*
X167939268Y-72452758D01*
X168051210Y-72723011D01*
X168213725Y-72966232D01*
X168420568Y-73173075D01*
X168468048Y-73204800D01*
X165237002Y-73204800D01*
X165226256Y-73194055D01*
X165243537Y-73176774D01*
X165356805Y-73007256D01*
X165434826Y-72818898D01*
X165474600Y-72618939D01*
X165474600Y-72415061D01*
X165434826Y-72215102D01*
X165356805Y-72026744D01*
X165243537Y-71857226D01*
X165099374Y-71713063D01*
X164929856Y-71599795D01*
X164741498Y-71521774D01*
X164541539Y-71482000D01*
X164337661Y-71482000D01*
X164137702Y-71521774D01*
X163949344Y-71599795D01*
X163779826Y-71713063D01*
X163635663Y-71857226D01*
X163522395Y-72026744D01*
X163444374Y-72215102D01*
X163404600Y-72415061D01*
X163404600Y-72618939D01*
X163444374Y-72818898D01*
X163522395Y-73007256D01*
X163635663Y-73176774D01*
X163679601Y-73220712D01*
X163679601Y-73444868D01*
X163675924Y-73482200D01*
X163679601Y-73519533D01*
X163681669Y-73540524D01*
X163690598Y-73631185D01*
X163734054Y-73774446D01*
X163804626Y-73906476D01*
X163852491Y-73964799D01*
X163899600Y-74022201D01*
X163928598Y-74045999D01*
X164027199Y-74144600D01*
X157441122Y-74144600D01*
X157403799Y-74140924D01*
X157366476Y-74144600D01*
X157366467Y-74144600D01*
X157254814Y-74155597D01*
X157111553Y-74199054D01*
X156979524Y-74269626D01*
X156979522Y-74269627D01*
X156979523Y-74269627D01*
X156892796Y-74340801D01*
X156892792Y-74340805D01*
X156863799Y-74364599D01*
X156840005Y-74393592D01*
X156140964Y-75092634D01*
X156135747Y-75084826D01*
X156091810Y-75040889D01*
X156091810Y-68096591D01*
X157457491Y-66730911D01*
X157399174Y-66871699D01*
%TA.AperFunction,Conductor*%
D29*
G36*
X157399174Y-66871699D02*
G01*
X157359400Y-67071658D01*
X157359400Y-67275536D01*
X157399174Y-67475495D01*
X157477195Y-67663853D01*
X157483707Y-67673599D01*
X157477195Y-67683344D01*
X157399174Y-67871702D01*
X157359400Y-68071661D01*
X157359400Y-68275539D01*
X157399174Y-68475498D01*
X157477195Y-68663856D01*
X157590463Y-68833374D01*
X157734626Y-68977537D01*
X157904144Y-69090805D01*
X158092502Y-69168826D01*
X158292461Y-69208600D01*
X158496339Y-69208600D01*
X158696298Y-69168826D01*
X158884656Y-69090805D01*
X159054174Y-68977537D01*
X159098111Y-68933600D01*
X169052399Y-68933600D01*
X170975167Y-70856370D01*
X170960568Y-70866125D01*
X170753725Y-71072968D01*
X170637200Y-71247360D01*
X170520675Y-71072968D01*
X170313832Y-70866125D01*
X170070611Y-70703610D01*
X169800358Y-70591668D01*
X169513460Y-70534600D01*
X169220940Y-70534600D01*
X168934042Y-70591668D01*
X168663789Y-70703610D01*
X168420568Y-70866125D01*
X168213725Y-71072968D01*
X168051210Y-71316189D01*
X167939268Y-71586442D01*
X167882200Y-71873340D01*
X167882200Y-72165860D01*
X167939268Y-72452758D01*
X168051210Y-72723011D01*
X168213725Y-72966232D01*
X168420568Y-73173075D01*
X168468048Y-73204800D01*
X165237002Y-73204800D01*
X165226256Y-73194055D01*
X165243537Y-73176774D01*
X165356805Y-73007256D01*
X165434826Y-72818898D01*
X165474600Y-72618939D01*
X165474600Y-72415061D01*
X165434826Y-72215102D01*
X165356805Y-72026744D01*
X165243537Y-71857226D01*
X165099374Y-71713063D01*
X164929856Y-71599795D01*
X164741498Y-71521774D01*
X164541539Y-71482000D01*
X164337661Y-71482000D01*
X164137702Y-71521774D01*
X163949344Y-71599795D01*
X163779826Y-71713063D01*
X163635663Y-71857226D01*
X163522395Y-72026744D01*
X163444374Y-72215102D01*
X163404600Y-72415061D01*
X163404600Y-72618939D01*
X163444374Y-72818898D01*
X163522395Y-73007256D01*
X163635663Y-73176774D01*
X163679601Y-73220712D01*
X163679601Y-73444868D01*
X163675924Y-73482200D01*
X163679601Y-73519533D01*
X163681669Y-73540524D01*
X163690598Y-73631185D01*
X163734054Y-73774446D01*
X163804626Y-73906476D01*
X163852491Y-73964799D01*
X163899600Y-74022201D01*
X163928598Y-74045999D01*
X164027199Y-74144600D01*
X157441122Y-74144600D01*
X157403799Y-74140924D01*
X157366476Y-74144600D01*
X157366467Y-74144600D01*
X157254814Y-74155597D01*
X157111553Y-74199054D01*
X156979524Y-74269626D01*
X156979522Y-74269627D01*
X156979523Y-74269627D01*
X156892796Y-74340801D01*
X156892792Y-74340805D01*
X156863799Y-74364599D01*
X156840005Y-74393592D01*
X156140964Y-75092634D01*
X156135747Y-75084826D01*
X156091810Y-75040889D01*
X156091810Y-68096591D01*
X157457491Y-66730911D01*
X157399174Y-66871699D01*
G37*
%TD.AperFunction*%
D28*
X177916525Y-40861768D02*
X177754010Y-41104989D01*
X177642068Y-41375242D01*
X177585000Y-41662140D01*
X177585000Y-41954660D01*
X177642068Y-42241558D01*
X177754010Y-42511811D01*
X177916525Y-42755032D01*
X178123368Y-42961875D01*
X178297760Y-43078400D01*
X178123368Y-43194925D01*
X177916525Y-43401768D01*
X177791822Y-43588400D01*
X176364122Y-43588400D01*
X176326799Y-43584724D01*
X176289476Y-43588400D01*
X176289467Y-43588400D01*
X176177814Y-43599397D01*
X176051468Y-43637723D01*
X176034553Y-43642854D01*
X175902523Y-43713426D01*
X175855131Y-43752320D01*
X175786799Y-43808399D01*
X175763001Y-43837397D01*
X170583398Y-49017001D01*
X170554400Y-49040799D01*
X170530602Y-49069797D01*
X170530601Y-49069798D01*
X170459426Y-49156524D01*
X170388854Y-49288554D01*
X170345398Y-49431815D01*
X170330724Y-49580800D01*
X170334401Y-49618132D01*
X170334400Y-59425998D01*
X169446532Y-60313866D01*
X169400853Y-60084226D01*
X169292680Y-59823073D01*
X169135637Y-59588041D01*
X168935759Y-59388163D01*
X168703241Y-59232800D01*
X168935759Y-59077437D01*
X169135637Y-58877559D01*
X169292680Y-58642527D01*
X169400853Y-58381374D01*
X169456000Y-58104135D01*
X169456000Y-57821465D01*
X169400853Y-57544226D01*
X169292680Y-57283073D01*
X169135637Y-57048041D01*
X168935759Y-56848163D01*
X168703241Y-56692800D01*
X168935759Y-56537437D01*
X169135637Y-56337559D01*
X169292680Y-56102527D01*
X169400853Y-55841374D01*
X169456000Y-55564135D01*
X169456000Y-55281465D01*
X169400853Y-55004226D01*
X169292680Y-54743073D01*
X169135637Y-54508041D01*
X168937039Y-54309443D01*
X168945482Y-54308612D01*
X169065180Y-54272302D01*
X169175494Y-54213337D01*
X169272185Y-54133985D01*
X169351537Y-54037294D01*
X169410502Y-53926980D01*
X169446812Y-53807282D01*
X169459072Y-53682800D01*
X169459072Y-52082800D01*
X169446812Y-51958318D01*
X169410502Y-51838620D01*
X169351537Y-51728306D01*
X169272185Y-51631615D01*
X169175494Y-51552263D01*
X169065180Y-51493298D01*
X168945482Y-51456988D01*
X168821000Y-51444728D01*
X167221000Y-51444728D01*
X167096518Y-51456988D01*
X166976820Y-51493298D01*
X166866506Y-51552263D01*
X166769815Y-51631615D01*
X166690463Y-51728306D01*
X166631498Y-51838620D01*
X166595188Y-51958318D01*
X166582928Y-52082800D01*
X166582928Y-53682800D01*
X166595188Y-53807282D01*
X166631498Y-53926980D01*
X166690463Y-54037294D01*
X166769815Y-54133985D01*
X166866506Y-54213337D01*
X166976820Y-54272302D01*
X167096518Y-54308612D01*
X167104961Y-54309443D01*
X166906363Y-54508041D01*
X166749320Y-54743073D01*
X166641147Y-55004226D01*
X166586000Y-55281465D01*
X166586000Y-55564135D01*
X166641147Y-55841374D01*
X166749320Y-56102527D01*
X166906363Y-56337559D01*
X167106241Y-56537437D01*
X167338759Y-56692800D01*
X167106241Y-56848163D01*
X166906363Y-57048041D01*
X166749320Y-57283073D01*
X166641147Y-57544226D01*
X166586000Y-57821465D01*
X166586000Y-58104135D01*
X166641147Y-58381374D01*
X166749320Y-58642527D01*
X166906363Y-58877559D01*
X167106241Y-59077437D01*
X167338759Y-59232800D01*
X167106241Y-59388163D01*
X166906363Y-59588041D01*
X166749320Y-59823073D01*
X166641147Y-60084226D01*
X166586000Y-60361465D01*
X166586000Y-60644135D01*
X166641147Y-60921374D01*
X166749320Y-61182527D01*
X166906363Y-61417559D01*
X167106241Y-61617437D01*
X167341273Y-61774480D01*
X167602426Y-61882653D01*
X167832067Y-61928332D01*
X166613999Y-63146400D01*
X165492922Y-63146400D01*
X165455599Y-63142724D01*
X165418276Y-63146400D01*
X165418267Y-63146400D01*
X165306614Y-63157397D01*
X165163353Y-63200854D01*
X165031324Y-63271426D01*
X164915599Y-63366399D01*
X164891801Y-63395397D01*
X163819999Y-64467200D01*
X161650991Y-64467200D01*
X161742390Y-64330411D01*
X161854332Y-64060158D01*
X161911400Y-63773260D01*
X161911400Y-63480740D01*
X161854332Y-63193842D01*
X161742390Y-62923589D01*
X161579875Y-62680368D01*
X161373032Y-62473525D01*
X161198640Y-62357000D01*
X161373032Y-62240475D01*
X161579875Y-62033632D01*
X161742390Y-61790411D01*
X161854332Y-61520158D01*
X161911400Y-61233260D01*
X161911400Y-60940740D01*
X161854332Y-60653842D01*
X161742390Y-60383589D01*
X161579875Y-60140368D01*
X161373032Y-59933525D01*
X161129811Y-59771010D01*
X160859558Y-59659068D01*
X160572660Y-59602000D01*
X160280140Y-59602000D01*
X159993242Y-59659068D01*
X159722989Y-59771010D01*
X159479768Y-59933525D01*
X159272925Y-60140368D01*
X159156400Y-60314760D01*
X159039875Y-60140368D01*
X158833032Y-59933525D01*
X158589811Y-59771010D01*
X158319558Y-59659068D01*
X158032660Y-59602000D01*
X157740140Y-59602000D01*
X157453242Y-59659068D01*
X157182989Y-59771010D01*
X156939768Y-59933525D01*
X156732925Y-60140368D01*
X156570410Y-60383589D01*
X156458468Y-60653842D01*
X156401400Y-60940740D01*
X156401400Y-61233260D01*
X156458468Y-61520158D01*
X156570410Y-61790411D01*
X156732925Y-62033632D01*
X156939768Y-62240475D01*
X157114160Y-62357000D01*
X156939768Y-62473525D01*
X156732925Y-62680368D01*
X156570410Y-62923589D01*
X156458468Y-63193842D01*
X156401400Y-63480740D01*
X156401400Y-63773260D01*
X156458468Y-64060158D01*
X156570410Y-64330411D01*
X156732925Y-64573632D01*
X156939768Y-64780475D01*
X157130728Y-64908070D01*
X155091810Y-66946989D01*
X155091810Y-50986391D01*
X155957782Y-50120420D01*
X155986779Y-50096623D01*
X156081752Y-49980898D01*
X156152324Y-49848869D01*
X156195781Y-49705608D01*
X156206778Y-49593955D01*
X156206778Y-49593945D01*
X156210454Y-49556622D01*
X156206778Y-49519299D01*
X156206778Y-46327924D01*
X156218551Y-46387110D01*
X156330493Y-46657363D01*
X156493008Y-46900584D01*
X156699851Y-47107427D01*
X156943072Y-47269942D01*
X157213325Y-47381884D01*
X157500223Y-47438952D01*
X157792743Y-47438952D01*
X158079641Y-47381884D01*
X158349894Y-47269942D01*
X158361187Y-47262396D01*
X158361187Y-47370212D01*
X158418255Y-47657110D01*
X158530197Y-47927363D01*
X158692712Y-48170584D01*
X158899555Y-48377427D01*
X159142776Y-48539942D01*
X159413029Y-48651884D01*
X159699927Y-48708952D01*
X159992447Y-48708952D01*
X160279345Y-48651884D01*
X160549598Y-48539942D01*
X160792819Y-48377427D01*
X160999662Y-48170584D01*
X161162177Y-47927363D01*
X161274119Y-47657110D01*
X161331187Y-47370212D01*
X161331187Y-47077692D01*
X161276390Y-46802213D01*
X161344024Y-46817983D01*
X161469041Y-46822076D01*
X161592454Y-46801700D01*
X161709521Y-46757639D01*
X161815743Y-46691586D01*
X161907037Y-46606080D01*
X161979896Y-46504406D01*
X162829896Y-45032162D01*
X162881519Y-44918227D01*
X162909922Y-44796411D01*
X162914015Y-44671394D01*
X162893639Y-44547981D01*
X162849578Y-44430914D01*
X162783525Y-44324692D01*
X162698019Y-44233398D01*
X162596345Y-44160539D01*
X161124101Y-43310539D01*
X161010166Y-43258916D01*
X160888350Y-43230513D01*
X160763333Y-43226420D01*
X160639920Y-43246796D01*
X160522853Y-43290857D01*
X160416631Y-43356910D01*
X160361762Y-43408300D01*
X160344415Y-43321090D01*
X160232473Y-43050837D01*
X160069958Y-42807616D01*
X159863115Y-42600773D01*
X159619894Y-42438258D01*
X159349641Y-42326316D01*
X159062743Y-42269248D01*
X158770223Y-42269248D01*
X158483325Y-42326316D01*
X158213072Y-42438258D01*
X158201778Y-42445804D01*
X158201778Y-42337988D01*
X158144710Y-42051090D01*
X158032768Y-41780837D01*
X157870253Y-41537616D01*
X157663410Y-41330773D01*
X157420189Y-41168258D01*
X157149936Y-41056316D01*
X156863038Y-40999248D01*
X156570518Y-40999248D01*
X156283620Y-41056316D01*
X156013367Y-41168258D01*
X155770146Y-41330773D01*
X155563303Y-41537616D01*
X155400788Y-41780837D01*
X155288846Y-42051090D01*
X155231778Y-42337988D01*
X155231778Y-42630508D01*
X155288846Y-42917406D01*
X155400788Y-43187659D01*
X155408334Y-43198952D01*
X155300518Y-43198952D01*
X155013620Y-43256020D01*
X154743367Y-43367962D01*
X154500146Y-43530477D01*
X154293303Y-43737320D01*
X154130788Y-43980541D01*
X154018846Y-44250794D01*
X153961778Y-44537692D01*
X153961778Y-44830212D01*
X154018846Y-45117110D01*
X154130788Y-45387363D01*
X154293303Y-45630584D01*
X154500146Y-45837427D01*
X154686779Y-45962131D01*
X154686778Y-49241820D01*
X153820808Y-50107791D01*
X153791810Y-50131589D01*
X153768012Y-50160587D01*
X153768011Y-50160588D01*
X153696836Y-50247314D01*
X153626264Y-50379344D01*
X153582808Y-50522605D01*
X153568134Y-50671590D01*
X153571811Y-50708923D01*
X153571811Y-51913009D01*
X152836803Y-51178002D01*
X152813001Y-51148999D01*
X152697276Y-51054026D01*
X152565247Y-50983454D01*
X152421986Y-50939997D01*
X152310333Y-50929000D01*
X152310322Y-50929000D01*
X152273000Y-50925324D01*
X152235678Y-50929000D01*
X142275402Y-50929000D01*
X142058978Y-50712577D01*
X142058978Y-48517130D01*
X142245610Y-48392427D01*
X142452453Y-48185584D01*
X142614968Y-47942363D01*
X142726910Y-47672110D01*
X142783978Y-47385212D01*
X142783978Y-47277396D01*
X142795272Y-47284942D01*
X143065525Y-47396884D01*
X143352423Y-47453952D01*
X143644943Y-47453952D01*
X143931841Y-47396884D01*
X144202094Y-47284942D01*
X144445315Y-47122427D01*
X144652158Y-46915584D01*
X144814673Y-46672363D01*
X144926615Y-46402110D01*
X144983683Y-46115212D01*
X144983683Y-46007396D01*
X144994976Y-46014942D01*
X145265229Y-46126884D01*
X145552127Y-46183952D01*
X145844647Y-46183952D01*
X146131545Y-46126884D01*
X146401798Y-46014942D01*
X146645019Y-45852427D01*
X146851862Y-45645584D01*
X147014377Y-45402363D01*
X147126319Y-45132110D01*
X147183387Y-44845212D01*
X147183387Y-44552692D01*
X147126319Y-44265794D01*
X147014377Y-43995541D01*
X146851862Y-43752320D01*
X146645019Y-43545477D01*
X146401798Y-43382962D01*
X146131545Y-43271020D01*
X146044335Y-43253673D01*
X146095725Y-43198804D01*
X146161778Y-43092582D01*
X146205839Y-42975515D01*
X146226215Y-42852102D01*
X146222122Y-42727085D01*
X146193719Y-42605269D01*
X146142096Y-42491334D01*
X145292096Y-41019090D01*
X145219237Y-40917416D01*
X145127943Y-40831910D01*
X145039898Y-40777160D01*
X178001133Y-40777160D01*
X177916525Y-40861768D01*
%TA.AperFunction,Conductor*%
D29*
G36*
X177916525Y-40861768D02*
G01*
X177754010Y-41104989D01*
X177642068Y-41375242D01*
X177585000Y-41662140D01*
X177585000Y-41954660D01*
X177642068Y-42241558D01*
X177754010Y-42511811D01*
X177916525Y-42755032D01*
X178123368Y-42961875D01*
X178297760Y-43078400D01*
X178123368Y-43194925D01*
X177916525Y-43401768D01*
X177791822Y-43588400D01*
X176364122Y-43588400D01*
X176326799Y-43584724D01*
X176289476Y-43588400D01*
X176289467Y-43588400D01*
X176177814Y-43599397D01*
X176051468Y-43637723D01*
X176034553Y-43642854D01*
X175902523Y-43713426D01*
X175855131Y-43752320D01*
X175786799Y-43808399D01*
X175763001Y-43837397D01*
X170583398Y-49017001D01*
X170554400Y-49040799D01*
X170530602Y-49069797D01*
X170530601Y-49069798D01*
X170459426Y-49156524D01*
X170388854Y-49288554D01*
X170345398Y-49431815D01*
X170330724Y-49580800D01*
X170334401Y-49618132D01*
X170334400Y-59425998D01*
X169446532Y-60313866D01*
X169400853Y-60084226D01*
X169292680Y-59823073D01*
X169135637Y-59588041D01*
X168935759Y-59388163D01*
X168703241Y-59232800D01*
X168935759Y-59077437D01*
X169135637Y-58877559D01*
X169292680Y-58642527D01*
X169400853Y-58381374D01*
X169456000Y-58104135D01*
X169456000Y-57821465D01*
X169400853Y-57544226D01*
X169292680Y-57283073D01*
X169135637Y-57048041D01*
X168935759Y-56848163D01*
X168703241Y-56692800D01*
X168935759Y-56537437D01*
X169135637Y-56337559D01*
X169292680Y-56102527D01*
X169400853Y-55841374D01*
X169456000Y-55564135D01*
X169456000Y-55281465D01*
X169400853Y-55004226D01*
X169292680Y-54743073D01*
X169135637Y-54508041D01*
X168937039Y-54309443D01*
X168945482Y-54308612D01*
X169065180Y-54272302D01*
X169175494Y-54213337D01*
X169272185Y-54133985D01*
X169351537Y-54037294D01*
X169410502Y-53926980D01*
X169446812Y-53807282D01*
X169459072Y-53682800D01*
X169459072Y-52082800D01*
X169446812Y-51958318D01*
X169410502Y-51838620D01*
X169351537Y-51728306D01*
X169272185Y-51631615D01*
X169175494Y-51552263D01*
X169065180Y-51493298D01*
X168945482Y-51456988D01*
X168821000Y-51444728D01*
X167221000Y-51444728D01*
X167096518Y-51456988D01*
X166976820Y-51493298D01*
X166866506Y-51552263D01*
X166769815Y-51631615D01*
X166690463Y-51728306D01*
X166631498Y-51838620D01*
X166595188Y-51958318D01*
X166582928Y-52082800D01*
X166582928Y-53682800D01*
X166595188Y-53807282D01*
X166631498Y-53926980D01*
X166690463Y-54037294D01*
X166769815Y-54133985D01*
X166866506Y-54213337D01*
X166976820Y-54272302D01*
X167096518Y-54308612D01*
X167104961Y-54309443D01*
X166906363Y-54508041D01*
X166749320Y-54743073D01*
X166641147Y-55004226D01*
X166586000Y-55281465D01*
X166586000Y-55564135D01*
X166641147Y-55841374D01*
X166749320Y-56102527D01*
X166906363Y-56337559D01*
X167106241Y-56537437D01*
X167338759Y-56692800D01*
X167106241Y-56848163D01*
X166906363Y-57048041D01*
X166749320Y-57283073D01*
X166641147Y-57544226D01*
X166586000Y-57821465D01*
X166586000Y-58104135D01*
X166641147Y-58381374D01*
X166749320Y-58642527D01*
X166906363Y-58877559D01*
X167106241Y-59077437D01*
X167338759Y-59232800D01*
X167106241Y-59388163D01*
X166906363Y-59588041D01*
X166749320Y-59823073D01*
X166641147Y-60084226D01*
X166586000Y-60361465D01*
X166586000Y-60644135D01*
X166641147Y-60921374D01*
X166749320Y-61182527D01*
X166906363Y-61417559D01*
X167106241Y-61617437D01*
X167341273Y-61774480D01*
X167602426Y-61882653D01*
X167832067Y-61928332D01*
X166613999Y-63146400D01*
X165492922Y-63146400D01*
X165455599Y-63142724D01*
X165418276Y-63146400D01*
X165418267Y-63146400D01*
X165306614Y-63157397D01*
X165163353Y-63200854D01*
X165031324Y-63271426D01*
X164915599Y-63366399D01*
X164891801Y-63395397D01*
X163819999Y-64467200D01*
X161650991Y-64467200D01*
X161742390Y-64330411D01*
X161854332Y-64060158D01*
X161911400Y-63773260D01*
X161911400Y-63480740D01*
X161854332Y-63193842D01*
X161742390Y-62923589D01*
X161579875Y-62680368D01*
X161373032Y-62473525D01*
X161198640Y-62357000D01*
X161373032Y-62240475D01*
X161579875Y-62033632D01*
X161742390Y-61790411D01*
X161854332Y-61520158D01*
X161911400Y-61233260D01*
X161911400Y-60940740D01*
X161854332Y-60653842D01*
X161742390Y-60383589D01*
X161579875Y-60140368D01*
X161373032Y-59933525D01*
X161129811Y-59771010D01*
X160859558Y-59659068D01*
X160572660Y-59602000D01*
X160280140Y-59602000D01*
X159993242Y-59659068D01*
X159722989Y-59771010D01*
X159479768Y-59933525D01*
X159272925Y-60140368D01*
X159156400Y-60314760D01*
X159039875Y-60140368D01*
X158833032Y-59933525D01*
X158589811Y-59771010D01*
X158319558Y-59659068D01*
X158032660Y-59602000D01*
X157740140Y-59602000D01*
X157453242Y-59659068D01*
X157182989Y-59771010D01*
X156939768Y-59933525D01*
X156732925Y-60140368D01*
X156570410Y-60383589D01*
X156458468Y-60653842D01*
X156401400Y-60940740D01*
X156401400Y-61233260D01*
X156458468Y-61520158D01*
X156570410Y-61790411D01*
X156732925Y-62033632D01*
X156939768Y-62240475D01*
X157114160Y-62357000D01*
X156939768Y-62473525D01*
X156732925Y-62680368D01*
X156570410Y-62923589D01*
X156458468Y-63193842D01*
X156401400Y-63480740D01*
X156401400Y-63773260D01*
X156458468Y-64060158D01*
X156570410Y-64330411D01*
X156732925Y-64573632D01*
X156939768Y-64780475D01*
X157130728Y-64908070D01*
X155091810Y-66946989D01*
X155091810Y-50986391D01*
X155957782Y-50120420D01*
X155986779Y-50096623D01*
X156081752Y-49980898D01*
X156152324Y-49848869D01*
X156195781Y-49705608D01*
X156206778Y-49593955D01*
X156206778Y-49593945D01*
X156210454Y-49556622D01*
X156206778Y-49519299D01*
X156206778Y-46327924D01*
X156218551Y-46387110D01*
X156330493Y-46657363D01*
X156493008Y-46900584D01*
X156699851Y-47107427D01*
X156943072Y-47269942D01*
X157213325Y-47381884D01*
X157500223Y-47438952D01*
X157792743Y-47438952D01*
X158079641Y-47381884D01*
X158349894Y-47269942D01*
X158361187Y-47262396D01*
X158361187Y-47370212D01*
X158418255Y-47657110D01*
X158530197Y-47927363D01*
X158692712Y-48170584D01*
X158899555Y-48377427D01*
X159142776Y-48539942D01*
X159413029Y-48651884D01*
X159699927Y-48708952D01*
X159992447Y-48708952D01*
X160279345Y-48651884D01*
X160549598Y-48539942D01*
X160792819Y-48377427D01*
X160999662Y-48170584D01*
X161162177Y-47927363D01*
X161274119Y-47657110D01*
X161331187Y-47370212D01*
X161331187Y-47077692D01*
X161276390Y-46802213D01*
X161344024Y-46817983D01*
X161469041Y-46822076D01*
X161592454Y-46801700D01*
X161709521Y-46757639D01*
X161815743Y-46691586D01*
X161907037Y-46606080D01*
X161979896Y-46504406D01*
X162829896Y-45032162D01*
X162881519Y-44918227D01*
X162909922Y-44796411D01*
X162914015Y-44671394D01*
X162893639Y-44547981D01*
X162849578Y-44430914D01*
X162783525Y-44324692D01*
X162698019Y-44233398D01*
X162596345Y-44160539D01*
X161124101Y-43310539D01*
X161010166Y-43258916D01*
X160888350Y-43230513D01*
X160763333Y-43226420D01*
X160639920Y-43246796D01*
X160522853Y-43290857D01*
X160416631Y-43356910D01*
X160361762Y-43408300D01*
X160344415Y-43321090D01*
X160232473Y-43050837D01*
X160069958Y-42807616D01*
X159863115Y-42600773D01*
X159619894Y-42438258D01*
X159349641Y-42326316D01*
X159062743Y-42269248D01*
X158770223Y-42269248D01*
X158483325Y-42326316D01*
X158213072Y-42438258D01*
X158201778Y-42445804D01*
X158201778Y-42337988D01*
X158144710Y-42051090D01*
X158032768Y-41780837D01*
X157870253Y-41537616D01*
X157663410Y-41330773D01*
X157420189Y-41168258D01*
X157149936Y-41056316D01*
X156863038Y-40999248D01*
X156570518Y-40999248D01*
X156283620Y-41056316D01*
X156013367Y-41168258D01*
X155770146Y-41330773D01*
X155563303Y-41537616D01*
X155400788Y-41780837D01*
X155288846Y-42051090D01*
X155231778Y-42337988D01*
X155231778Y-42630508D01*
X155288846Y-42917406D01*
X155400788Y-43187659D01*
X155408334Y-43198952D01*
X155300518Y-43198952D01*
X155013620Y-43256020D01*
X154743367Y-43367962D01*
X154500146Y-43530477D01*
X154293303Y-43737320D01*
X154130788Y-43980541D01*
X154018846Y-44250794D01*
X153961778Y-44537692D01*
X153961778Y-44830212D01*
X154018846Y-45117110D01*
X154130788Y-45387363D01*
X154293303Y-45630584D01*
X154500146Y-45837427D01*
X154686779Y-45962131D01*
X154686778Y-49241820D01*
X153820808Y-50107791D01*
X153791810Y-50131589D01*
X153768012Y-50160587D01*
X153768011Y-50160588D01*
X153696836Y-50247314D01*
X153626264Y-50379344D01*
X153582808Y-50522605D01*
X153568134Y-50671590D01*
X153571811Y-50708923D01*
X153571811Y-51913009D01*
X152836803Y-51178002D01*
X152813001Y-51148999D01*
X152697276Y-51054026D01*
X152565247Y-50983454D01*
X152421986Y-50939997D01*
X152310333Y-50929000D01*
X152310322Y-50929000D01*
X152273000Y-50925324D01*
X152235678Y-50929000D01*
X142275402Y-50929000D01*
X142058978Y-50712577D01*
X142058978Y-48517130D01*
X142245610Y-48392427D01*
X142452453Y-48185584D01*
X142614968Y-47942363D01*
X142726910Y-47672110D01*
X142783978Y-47385212D01*
X142783978Y-47277396D01*
X142795272Y-47284942D01*
X143065525Y-47396884D01*
X143352423Y-47453952D01*
X143644943Y-47453952D01*
X143931841Y-47396884D01*
X144202094Y-47284942D01*
X144445315Y-47122427D01*
X144652158Y-46915584D01*
X144814673Y-46672363D01*
X144926615Y-46402110D01*
X144983683Y-46115212D01*
X144983683Y-46007396D01*
X144994976Y-46014942D01*
X145265229Y-46126884D01*
X145552127Y-46183952D01*
X145844647Y-46183952D01*
X146131545Y-46126884D01*
X146401798Y-46014942D01*
X146645019Y-45852427D01*
X146851862Y-45645584D01*
X147014377Y-45402363D01*
X147126319Y-45132110D01*
X147183387Y-44845212D01*
X147183387Y-44552692D01*
X147126319Y-44265794D01*
X147014377Y-43995541D01*
X146851862Y-43752320D01*
X146645019Y-43545477D01*
X146401798Y-43382962D01*
X146131545Y-43271020D01*
X146044335Y-43253673D01*
X146095725Y-43198804D01*
X146161778Y-43092582D01*
X146205839Y-42975515D01*
X146226215Y-42852102D01*
X146222122Y-42727085D01*
X146193719Y-42605269D01*
X146142096Y-42491334D01*
X145292096Y-41019090D01*
X145219237Y-40917416D01*
X145127943Y-40831910D01*
X145039898Y-40777160D01*
X178001133Y-40777160D01*
X177916525Y-40861768D01*
G37*
%TD.AperFunction*%
%TD*%
M02*
