%TF.GenerationSoftware,KiCad,Pcbnew,5.1.9*%
%TF.CreationDate,2021-04-09T15:13:00-03:00*%
%TF.ProjectId,Autito Microcontroladores,41757469-746f-4204-9d69-63726f636f6e,rev?*%
%TF.SameCoordinates,Original*%
%TF.FileFunction,Soldermask,Bot*%
%TF.FilePolarity,Negative*%
%FSLAX46Y46*%
G04 Gerber Fmt 4.6, Leading zero omitted, Abs format (unit mm)*
G04 Created by KiCad (PCBNEW 5.1.9) date 2021-04-09 15:13:00*
%MOMM*%
%LPD*%
G01*
G04 APERTURE LIST*
%ADD10R,3.200000X3.200000*%
%ADD11O,3.200000X3.200000*%
%ADD12O,2.000000X1.700000*%
%ADD13R,1.700000X1.700000*%
%ADD14O,1.700000X1.700000*%
%ADD15C,3.500000*%
%ADD16R,3.500000X3.500000*%
%ADD17C,3.200000*%
%ADD18R,1.600000X1.600000*%
%ADD19O,1.600000X1.600000*%
%ADD20C,6.400000*%
%ADD21C,0.800000*%
%ADD22C,0.100000*%
G04 APERTURE END LIST*
D10*
%TO.C,D4*%
X141147800Y-94990000D03*
D11*
X156387800Y-94990000D03*
%TD*%
%TO.C,J7*%
G36*
G01*
X113473800Y-49289600D02*
X114973800Y-49289600D01*
G75*
G02*
X115223800Y-49539600I0J-250000D01*
G01*
X115223800Y-50739600D01*
G75*
G02*
X114973800Y-50989600I-250000J0D01*
G01*
X113473800Y-50989600D01*
G75*
G02*
X113223800Y-50739600I0J250000D01*
G01*
X113223800Y-49539600D01*
G75*
G02*
X113473800Y-49289600I250000J0D01*
G01*
G37*
D12*
X114223800Y-52639600D03*
%TD*%
%TO.C,J8*%
X187528200Y-50139600D03*
G36*
G01*
X188278200Y-53489600D02*
X186778200Y-53489600D01*
G75*
G02*
X186528200Y-53239600I0J250000D01*
G01*
X186528200Y-52039600D01*
G75*
G02*
X186778200Y-51789600I250000J0D01*
G01*
X188278200Y-51789600D01*
G75*
G02*
X188528200Y-52039600I0J-250000D01*
G01*
X188528200Y-53239600D01*
G75*
G02*
X188278200Y-53489600I-250000J0D01*
G01*
G37*
%TD*%
D13*
%TO.C,J9*%
X117957600Y-102920800D03*
D14*
X117957600Y-105460800D03*
X117957600Y-108000800D03*
%TD*%
D13*
%TO.C,J11*%
X174447200Y-72019600D03*
D14*
X171907200Y-72019600D03*
X169367200Y-72019600D03*
X166827200Y-72019600D03*
%TD*%
D13*
%TO.C,J12*%
X157886400Y-58547000D03*
D14*
X160426400Y-58547000D03*
X157886400Y-61087000D03*
X160426400Y-61087000D03*
X157886400Y-63627000D03*
X160426400Y-63627000D03*
%TD*%
D15*
%TO.C,J13*%
X186782600Y-121818400D03*
D16*
X114782600Y-121818400D03*
D17*
X123427600Y-121818400D03*
X179037600Y-121818400D03*
%TD*%
%TO.C,J14*%
X122527600Y-143332200D03*
X178137600Y-143332200D03*
D16*
X186782600Y-143332200D03*
D15*
X114782600Y-143332200D03*
%TD*%
D18*
%TO.C,U1*%
X125628400Y-52882800D03*
D19*
X133248400Y-60502800D03*
X125628400Y-55422800D03*
X133248400Y-57962800D03*
X125628400Y-57962800D03*
X133248400Y-55422800D03*
X125628400Y-60502800D03*
X133248400Y-52882800D03*
%TD*%
%TO.C,U2*%
X175641000Y-52882800D03*
X168021000Y-60502800D03*
X175641000Y-55422800D03*
X168021000Y-57962800D03*
X175641000Y-57962800D03*
X168021000Y-55422800D03*
X175641000Y-60502800D03*
D18*
X168021000Y-52882800D03*
%TD*%
D20*
%TO.C,H1*%
X185115200Y-75509120D03*
D21*
X187515200Y-75509120D03*
X186812256Y-77206176D03*
X185115200Y-77909120D03*
X183418144Y-77206176D03*
X182715200Y-75509120D03*
X183418144Y-73812064D03*
X185115200Y-73109120D03*
X186812256Y-73812064D03*
%TD*%
%TO.C,H2*%
X125623656Y-64241344D03*
X123926600Y-63538400D03*
X122229544Y-64241344D03*
X121526600Y-65938400D03*
X122229544Y-67635456D03*
X123926600Y-68338400D03*
X125623656Y-67635456D03*
X126326600Y-65938400D03*
D20*
X123926600Y-65938400D03*
%TD*%
D14*
%TO.C,J1*%
X114945160Y-63484760D03*
D13*
X112405160Y-63484760D03*
D14*
X112405160Y-68564760D03*
X114945160Y-68564760D03*
X112405160Y-66024760D03*
X114945160Y-66024760D03*
%TD*%
%TO.C,J2*%
G36*
G01*
X160271187Y-46487830D02*
X160271187Y-46487830D01*
G75*
G02*
X160582309Y-47648952I-425000J-736122D01*
G01*
X160582309Y-47648952D01*
G75*
G02*
X159421187Y-47960074I-736122J425000D01*
G01*
X159421187Y-47960074D01*
G75*
G02*
X159110065Y-46798952I425000J736122D01*
G01*
X159110065Y-46798952D01*
G75*
G02*
X160271187Y-46487830I736122J-425000D01*
G01*
G37*
D22*
G36*
X160805065Y-43863126D02*
G01*
X162277309Y-44713126D01*
X161427309Y-46185370D01*
X159955065Y-45335370D01*
X160805065Y-43863126D01*
G37*
G36*
G01*
X157141778Y-41748126D02*
X157141778Y-41748126D01*
G75*
G02*
X157452900Y-42909248I-425000J-736122D01*
G01*
X157452900Y-42909248D01*
G75*
G02*
X156291778Y-43220370I-736122J425000D01*
G01*
X156291778Y-43220370D01*
G75*
G02*
X155980656Y-42059248I425000J736122D01*
G01*
X155980656Y-42059248D01*
G75*
G02*
X157141778Y-41748126I736122J-425000D01*
G01*
G37*
G36*
G01*
X155871778Y-43947830D02*
X155871778Y-43947830D01*
G75*
G02*
X156182900Y-45108952I-425000J-736122D01*
G01*
X156182900Y-45108952D01*
G75*
G02*
X155021778Y-45420074I-736122J425000D01*
G01*
X155021778Y-45420074D01*
G75*
G02*
X154710656Y-44258952I425000J736122D01*
G01*
X154710656Y-44258952D01*
G75*
G02*
X155871778Y-43947830I736122J-425000D01*
G01*
G37*
G36*
G01*
X159341483Y-43018126D02*
X159341483Y-43018126D01*
G75*
G02*
X159652605Y-44179248I-425000J-736122D01*
G01*
X159652605Y-44179248D01*
G75*
G02*
X158491483Y-44490370I-736122J425000D01*
G01*
X158491483Y-44490370D01*
G75*
G02*
X158180361Y-43329248I425000J736122D01*
G01*
X158180361Y-43329248D01*
G75*
G02*
X159341483Y-43018126I736122J-425000D01*
G01*
G37*
G36*
G01*
X158071483Y-45217830D02*
X158071483Y-45217830D01*
G75*
G02*
X158382605Y-46378952I-425000J-736122D01*
G01*
X158382605Y-46378952D01*
G75*
G02*
X157221483Y-46690074I-736122J425000D01*
G01*
X157221483Y-46690074D01*
G75*
G02*
X156910361Y-45528952I425000J736122D01*
G01*
X156910361Y-45528952D01*
G75*
G02*
X158071483Y-45217830I736122J-425000D01*
G01*
G37*
%TD*%
D14*
%TO.C,J3*%
X121335800Y-44348400D03*
X121335800Y-41808400D03*
X118795800Y-44348400D03*
X118795800Y-41808400D03*
D13*
X123875800Y-41808400D03*
D14*
X123875800Y-44348400D03*
%TD*%
%TO.C,J4*%
X184150000Y-44348400D03*
D13*
X184150000Y-41808400D03*
D14*
X179070000Y-41808400D03*
X179070000Y-44348400D03*
X181610000Y-41808400D03*
X181610000Y-44348400D03*
%TD*%
%TO.C,J5*%
G36*
G01*
X145273387Y-43962830D02*
X145273387Y-43962830D01*
G75*
G02*
X146434509Y-44273952I425000J-736122D01*
G01*
X146434509Y-44273952D01*
G75*
G02*
X146123387Y-45435074I-736122J-425000D01*
G01*
X146123387Y-45435074D01*
G75*
G02*
X144962265Y-45123952I-425000J736122D01*
G01*
X144962265Y-45123952D01*
G75*
G02*
X145273387Y-43962830I736122J425000D01*
G01*
G37*
D22*
G36*
X143267265Y-42188126D02*
G01*
X144739509Y-41338126D01*
X145589509Y-42810370D01*
X144117265Y-43660370D01*
X143267265Y-42188126D01*
G37*
G36*
G01*
X139603978Y-44303126D02*
X139603978Y-44303126D01*
G75*
G02*
X140765100Y-44614248I425000J-736122D01*
G01*
X140765100Y-44614248D01*
G75*
G02*
X140453978Y-45775370I-736122J-425000D01*
G01*
X140453978Y-45775370D01*
G75*
G02*
X139292856Y-45464248I-425000J736122D01*
G01*
X139292856Y-45464248D01*
G75*
G02*
X139603978Y-44303126I736122J425000D01*
G01*
G37*
G36*
G01*
X140873978Y-46502830D02*
X140873978Y-46502830D01*
G75*
G02*
X142035100Y-46813952I425000J-736122D01*
G01*
X142035100Y-46813952D01*
G75*
G02*
X141723978Y-47975074I-736122J-425000D01*
G01*
X141723978Y-47975074D01*
G75*
G02*
X140562856Y-47663952I-425000J736122D01*
G01*
X140562856Y-47663952D01*
G75*
G02*
X140873978Y-46502830I736122J425000D01*
G01*
G37*
G36*
G01*
X141803683Y-43033126D02*
X141803683Y-43033126D01*
G75*
G02*
X142964805Y-43344248I425000J-736122D01*
G01*
X142964805Y-43344248D01*
G75*
G02*
X142653683Y-44505370I-736122J-425000D01*
G01*
X142653683Y-44505370D01*
G75*
G02*
X141492561Y-44194248I-425000J736122D01*
G01*
X141492561Y-44194248D01*
G75*
G02*
X141803683Y-43033126I736122J425000D01*
G01*
G37*
G36*
G01*
X143073683Y-45232830D02*
X143073683Y-45232830D01*
G75*
G02*
X144234805Y-45543952I425000J-736122D01*
G01*
X144234805Y-45543952D01*
G75*
G02*
X143923683Y-46705074I-736122J-425000D01*
G01*
X143923683Y-46705074D01*
G75*
G02*
X142762561Y-46393952I-425000J736122D01*
G01*
X142762561Y-46393952D01*
G75*
G02*
X143073683Y-45232830I736122J425000D01*
G01*
G37*
%TD*%
D14*
%TO.C,J6*%
X186725560Y-68894759D03*
D13*
X189265560Y-68894759D03*
D14*
X189265560Y-63814759D03*
X186725560Y-63814759D03*
X189265560Y-66354759D03*
X186725560Y-66354759D03*
%TD*%
M02*
